  0
SECTION
  2
HEADER
  9
$ACADVER
  1
AC1015
  9
$ACADMAINTVER
 70
     6
  9
$DWGCODEPAGE
  3
ANSI_1252
  9
$INSBASE
 10
0.0
 20
0.0
 30
0.0
  9
$EXTMIN
 10
-3.4626
 20
0.0
 30
0.0
  9
$EXTMAX
 10
0.0
 20
1.0
 30
0.0
  9
$LIMMIN
 10
0.0
 20
0.0
  9
$LIMMAX
 10
12.0
 20
9.0
  9
$ORTHOMODE
 70
     0
  9
$REGENMODE
 70
     1
  9
$FILLMODE
 70
     1
  9
$QTEXTMODE
 70
     0
  9
$MIRRTEXT
 70
     1
  9
$LTSCALE
 40
1.0
  9
$ATTMODE
 70
     1
  9
$TEXTSIZE
 40
0.1377952756
  9
$TRACEWID
 40
0.05
  9
$TEXTSTYLE
  7
Standard
  9
$CLAYER
  8
0
  9
$CELTYPE
  6
ByLayer
  9
$CECOLOR
 62
   256
  9
$CELTSCALE
 40
1.0
  9
$DISPSILH
 70
     0
  9
$DIMSCALE
 40
1.0
  9
$DIMASZ
 40
0.13
  9
$DIMEXO
 40
0.0393700787
  9
$DIMDLI
 40
0.38
  9
$DIMRND
 40
0.0
  9
$DIMDLE
 40
0.0
  9
$DIMEXE
 40
0.0393700787
  9
$DIMTP
 40
0.0
  9
$DIMTM
 40
0.0
  9
$DIMTXT
 40
0.1377952756
  9
$DIMCEN
 40
0.09
  9
$DIMTSZ
 40
0.0
  9
$DIMTOL
 70
     0
  9
$DIMLIM
 70
     0
  9
$DIMTIH
 70
     1
  9
$DIMTOH
 70
     1
  9
$DIMSE1
 70
     0
  9
$DIMSE2
 70
     0
  9
$DIMTAD
 70
     1
  9
$DIMZIN
 70
     0
  9
$DIMBLK
  1

  9
$DIMASO
 70
     1
  9
$DIMSHO
 70
     1
  9
$DIMPOST
  1

  9
$DIMAPOST
  1

  9
$DIMALT
 70
     0
  9
$DIMALTD
 70
     2
  9
$DIMALTF
 40
25.4
  9
$DIMLFAC
 40
1.0
  9
$DIMTOFL
 70
     0
  9
$DIMTVP
 40
0.0
  9
$DIMTIX
 70
     0
  9
$DIMSOXD
 70
     0
  9
$DIMSAH
 70
     0
  9
$DIMBLK1
  1

  9
$DIMBLK2
  1

  9
$DIMSTYLE
  2
Standard
  9
$DIMCLRD
 70
     0
  9
$DIMCLRE
 70
     0
  9
$DIMCLRT
 70
     0
  9
$DIMTFAC
 40
1.0
  9
$DIMGAP
 40
0.06
  9
$DIMJUST
 70
     0
  9
$DIMSD1
 70
     0
  9
$DIMSD2
 70
     0
  9
$DIMTOLJ
 70
     1
  9
$DIMTZIN
 70
     0
  9
$DIMALTZ
 70
     0
  9
$DIMALTTZ
 70
     0
  9
$DIMUPT
 70
     0
  9
$DIMDEC
 70
     2
  9
$DIMTDEC
 70
     2
  9
$DIMALTU
 70
     2
  9
$DIMALTTD
 70
     2
  9
$DIMTXSTY
  7
Standard
  9
$DIMAUNIT
 70
     0
  9
$DIMADEC
 70
     2
  9
$DIMALTRND
 40
0.0
  9
$DIMAZIN
 70
     0
  9
$DIMDSEP
 70
    46
  9
$DIMATFIT
 70
     3
  9
$DIMFRAC
 70
     0
  9
$DIMLDRBLK
  1

  9
$DIMLUNIT
 70
     2
  9
$DIMLWD
 70
    -2
  9
$DIMLWE
 70
    -2
  9
$DIMTMOVE
 70
     0
  9
$LUNITS
 70
     2
  9
$LUPREC
 70
     2
  9
$SKETCHINC
 40
0.1
  9
$FILLETRAD
 40
0.5
  9
$AUNITS
 70
     0
  9
$AUPREC
 70
     2
  9
$MENU
  1
.
  9
$ELEVATION
 40
0.0
  9
$PELEVATION
 40
0.0
  9
$THICKNESS
 40
0.0
  9
$LIMCHECK
 70
     0
  9
$CHAMFERA
 40
0.0
  9
$CHAMFERB
 40
0.0
  9
$CHAMFERC
 40
0.0
  9
$CHAMFERD
 40
0.0
  9
$SKPOLY
 70
     0
  9
$TDCREATE
 40
2457101.606164827
  9
$TDUCREATE
 40
2457101.897831493
  9
$TDUPDATE
 40
2457101.606204572
  9
$TDUUPDATE
 40
2457101.897871239
  9
$TDINDWG
 40
0.0000000116
  9
$TDUSRTIMER
 40
0.0000000116
  9
$USRTIMER
 70
     1
  9
$ANGBASE
 50
0.0
  9
$ANGDIR
 70
     0
  9
$PDMODE
 70
     0
  9
$PDSIZE
 40
-1.0
  9
$PLINEWID
 40
0.0
  9
$SPLFRAME
 70
     0
  9
$SPLINETYPE
 70
     6
  9
$SPLINESEGS
 70
     8
  9
$HANDSEED
  5
C0
  9
$SURFTAB1
 70
     6
  9
$SURFTAB2
 70
     6
  9
$SURFTYPE
 70
     6
  9
$SURFU
 70
     6
  9
$SURFV
 70
     6
  9
$UCSBASE
  2

  9
$UCSNAME
  2

  9
$UCSORG
 10
0.0
 20
0.0
 30
0.0
  9
$UCSXDIR
 10
1.0
 20
0.0
 30
0.0
  9
$UCSYDIR
 10
0.0
 20
1.0
 30
0.0
  9
$UCSORTHOREF
  2

  9
$UCSORTHOVIEW
 70
     0
  9
$UCSORGTOP
 10
0.0
 20
0.0
 30
0.0
  9
$UCSORGBOTTOM
 10
0.0
 20
0.0
 30
0.0
  9
$UCSORGLEFT
 10
0.0
 20
0.0
 30
0.0
  9
$UCSORGRIGHT
 10
0.0
 20
0.0
 30
0.0
  9
$UCSORGFRONT
 10
0.0
 20
0.0
 30
0.0
  9
$UCSORGBACK
 10
0.0
 20
0.0
 30
0.0
  9
$PUCSBASE
  2

  9
$PUCSNAME
  2

  9
$PUCSORG
 10
0.0
 20
0.0
 30
0.0
  9
$PUCSXDIR
 10
1.0
 20
0.0
 30
0.0
  9
$PUCSYDIR
 10
0.0
 20
1.0
 30
0.0
  9
$PUCSORTHOREF
  2

  9
$PUCSORTHOVIEW
 70
     0
  9
$PUCSORGTOP
 10
0.0
 20
0.0
 30
0.0
  9
$PUCSORGBOTTOM
 10
0.0
 20
0.0
 30
0.0
  9
$PUCSORGLEFT
 10
0.0
 20
0.0
 30
0.0
  9
$PUCSORGRIGHT
 10
0.0
 20
0.0
 30
0.0
  9
$PUCSORGFRONT
 10
0.0
 20
0.0
 30
0.0
  9
$PUCSORGBACK
 10
0.0
 20
0.0
 30
0.0
  9
$USERI1
 70
     0
  9
$USERI2
 70
     0
  9
$USERI3
 70
     0
  9
$USERI4
 70
     0
  9
$USERI5
 70
     0
  9
$USERR1
 40
0.0
  9
$USERR2
 40
0.0
  9
$USERR3
 40
0.0
  9
$USERR4
 40
0.0
  9
$USERR5
 40
0.0
  9
$WORLDVIEW
 70
     1
  9
$SHADEDGE
 70
     3
  9
$SHADEDIF
 70
    70
  9
$TILEMODE
 70
     1
  9
$MAXACTVP
 70
    64
  9
$PINSBASE
 10
0.0
 20
0.0
 30
0.0
  9
$PLIMCHECK
 70
     0
  9
$PEXTMIN
 10
1.0000000000E+20
 20
1.0000000000E+20
 30
1.0000000000E+20
  9
$PEXTMAX
 10
-1.0000000000E+20
 20
-1.0000000000E+20
 30
-1.0000000000E+20
  9
$PLIMMIN
 10
0.0
 20
0.0
  9
$PLIMMAX
 10
12.0
 20
9.0
  9
$UNITMODE
 70
     0
  9
$VISRETAIN
 70
     1
  9
$PLINEGEN
 70
     0
  9
$PSLTSCALE
 70
     1
  9
$TREEDEPTH
 70
  3020
  9
$CMLSTYLE
  2
Standard
  9
$CMLJUST
 70
     0
  9
$CMLSCALE
 40
1.0
  9
$PROXYGRAPHICS
 70
     1
  9
$MEASUREMENT
 70
     0
  9
$CELWEIGHT
370
    -1
  9
$ENDCAPS
280
     0
  9
$JOINSTYLE
280
     0
  9
$LWDISPLAY
290
     1
  9
$INSUNITS
 70
     1
  9
$HYPERLINKBASE
  1

  9
$STYLESHEET
  1

  9
$XEDIT
290
     1
  9
$CEPSNTYPE
380
     0
  9
$PSTYLEMODE
290
     1
  9
$FINGERPRINTGUID
  2
{08720AA0-F069-4DCC-9B4A-2BF5AF5AB0D6}
  9
$VERSIONGUID
  2
{FAEB1C32-E019-11D5-929B-00C0DF256EC4}
  9
$EXTNAMES
290
     1
  9
$PSVPSCALE
 40
0.0
  9
$OLESTARTUP
290
     0
  0
ENDSEC
  0
SECTION
  2
CLASSES
  0
CLASS
  1
ACDBDICTIONARYWDFLT
  2
AcDbDictionaryWithDefault
  3
ObjectDBX Classes
 90
        0
280
     0
281
     0
  0
CLASS
  1
VISUALSTYLE
  2
AcDbVisualStyle
  3
ObjectDBX Classes
 90
     4095
280
     0
281
     0
  0
CLASS
  1
MATERIAL
  2
AcDbMaterial
  3
ObjectDBX Classes
 90
     1153
280
     0
281
     0
  0
CLASS
  1
SCALE
  2
AcDbScale
  3
ObjectDBX Classes
 90
     1153
280
     0
281
     0
  0
CLASS
  1
SUN
  2
AcDbSun
  3
SCENEOE
 90
     1153
280
     0
281
     0
  0
CLASS
  1
ACDBPLACEHOLDER
  2
AcDbPlaceHolder
  3
ObjectDBX Classes
 90
        0
280
     0
281
     0
  0
CLASS
  1
LAYOUT
  2
AcDbLayout
  3
ObjectDBX Classes
 90
        0
280
     0
281
     0
  0
ENDSEC
  0
SECTION
  2
TABLES
  0
TABLE
  2
VPORT
  5
8
330
0
100
AcDbSymbolTable
 70
     1
  0
VPORT
  5
29
330
8
100
AcDbSymbolTableRecord
100
AcDbViewportTableRecord
  2
*Active
 70
     0
 10
0.0
 20
0.0
 11
1.0
 21
1.0
 12
-1.7313
 22
0.5
 13
0.0
 23
0.0
 14
0.5
 24
0.5
 15
0.5
 25
0.5
 16
0.0
 26
0.0
 36
1.0
 17
0.0
 27
0.0
 37
0.0
 40
1.02
 41
3.4626
 42
50.0
 43
0.0
 44
0.0
 50
0.0
 51
0.0
 71
     0
 72
   100
 73
     1
 74
     3
 75
     0
 76
     0
 77
     0
 78
     0
281
     0
 65
     1
110
0.0
120
0.0
130
0.0
111
1.0
121
0.0
131
0.0
112
0.0
122
1.0
132
0.0
 79
     0
146
0.0
  0
ENDTAB
  0
TABLE
  2
LTYPE
  5
5
330
0
100
AcDbSymbolTable
 70
     6
  0
LTYPE
  5
14
330
5
100
AcDbSymbolTableRecord
100
AcDbLinetypeTableRecord
  2
ByBlock
 70
     0
  3

 72
    65
 73
     0
 40
0.0
  0
LTYPE
  5
15
330
5
100
AcDbSymbolTableRecord
100
AcDbLinetypeTableRecord
  2
ByLayer
 70
     0
  3

 72
    65
 73
     0
 40
0.0
  0
LTYPE
  5
16
330
5
100
AcDbSymbolTableRecord
100
AcDbLinetypeTableRecord
  2
Continuous
 70
     0
  3
Solid line
 72
    65
 73
     0
 40
0.0
  0
LTYPE
  5
6A
330
5
100
AcDbSymbolTableRecord
100
AcDbLinetypeTableRecord
  2
HIDDEN
 70
     0
  3
Hidden __ __ __ __ __ __ __ __ __ __ __ __ __ __
 72
    65
 73
     2
 40
0.075
 49
0.05
 74
     0
 49
-0.025
 74
     0
  0
LTYPE
  5
6B
330
5
100
AcDbSymbolTableRecord
100
AcDbLinetypeTableRecord
  2
PHANTOM
 70
     0
  3
Phantom ______  __  __  ______  __  __  ______
 72
    65
 73
     6
 40
0.5
 49
0.25
 74
     0
 49
-0.05
 74
     0
 49
0.05
 74
     0
 49
-0.05
 74
     0
 49
0.05
 74
     0
 49
-0.05
 74
     0
  0
LTYPE
  5
6C
330
5
100
AcDbSymbolTableRecord
100
AcDbLinetypeTableRecord
  2
CENTER
 70
     0
  3
Center ____ _ ____ _ ____ _ ____ _ ____ _ ____
 72
    65
 73
     4
 40
0.4
 49
0.25
 74
     0
 49
-0.05
 74
     0
 49
0.05
 74
     0
 49
-0.05
 74
     0
  0
LTYPE
  5
6D
330
5
100
AcDbSymbolTableRecord
100
AcDbLinetypeTableRecord
  2
CENTERX2
 70
     0
  3
Center (2x) ________  __  ________  __  _____
 72
    65
 73
     4
 40
0.8
 49
0.5
 74
     0
 49
-0.1
 74
     0
 49
0.1
 74
     0
 49
-0.1
 74
     0
  0
LTYPE
  5
6E
330
5
100
AcDbSymbolTableRecord
100
AcDbLinetypeTableRecord
  2
DOT2
 70
     0
  3
Dot (.5x) ........................................
 72
    65
 73
     2
 40
0.025
 49
0.0
 74
     0
 49
-0.025
 74
     0
  0
ENDTAB
  0
TABLE
  2
LAYER
  5
2
330
0
100
AcDbSymbolTable
 70
     1
  0
LAYER
  5
10
330
2
100
AcDbSymbolTableRecord
100
AcDbLayerTableRecord
  2
0
 70
     0
 62
     7
  6
Continuous
370
    -3
390
F
  0
ENDTAB
  0
TABLE
  2
STYLE
  5
3
330
0
100
AcDbSymbolTable
 70
     2
  0
STYLE
  5
11
330
3
100
AcDbSymbolTableRecord
100
AcDbTextStyleTableRecord
  2
Standard
 70
     0
 40
0.0
 41
1.0
 50
0.0
 71
     0
 42
0.1377952756
  3
txt
  4

  0
STYLE
  5
BD
330
3
100
AcDbSymbolTableRecord
100
AcDbTextStyleTableRecord
  2
SLDTEXTSTYLE0
 70
     0
 40
0.0
 41
0.7
 50
0.0
 71
     0
 42
0.1377952756
  3
TXT
  4

  0
ENDTAB
  0
TABLE
  2
VIEW
  5
6
330
0
100
AcDbSymbolTable
 70
     0
  0
ENDTAB
  0
TABLE
  2
UCS
  5
7
330
0
100
AcDbSymbolTable
 70
     0
  0
ENDTAB
  0
TABLE
  2
APPID
  5
9
330
0
100
AcDbSymbolTable
 70
     1
  0
APPID
  5
12
330
9
100
AcDbSymbolTableRecord
100
AcDbRegAppTableRecord
  2
ACAD
 70
     0
  0
ENDTAB
  0
TABLE
  2
DIMSTYLE
  5
A
330
0
100
AcDbSymbolTable
 70
     1
100
AcDbDimStyleTable
  0
DIMSTYLE
105
27
330
A
100
AcDbSymbolTableRecord
100
AcDbDimStyleTableRecord
  2
Standard
 70
     0
178
     0
340
11
  0
ENDTAB
  0
TABLE
  2
BLOCK_RECORD
  5
1
330
0
100
AcDbSymbolTable
 70
     1
  0
BLOCK_RECORD
  5
1F
330
1
100
AcDbSymbolTableRecord
100
AcDbBlockTableRecord
  2
*Model_Space
340
22
  0
BLOCK_RECORD
  5
1B
330
1
100
AcDbSymbolTableRecord
100
AcDbBlockTableRecord
  2
*Paper_Space
340
1E
  0
BLOCK_RECORD
  5
23
330
1
100
AcDbSymbolTableRecord
100
AcDbBlockTableRecord
  2
*Paper_Space0
340
26
  0
ENDTAB
  0
ENDSEC
  0
SECTION
  2
BLOCKS
  0
BLOCK
  5
20
330
1F
100
AcDbEntity
  8
0
100
AcDbBlockBegin
  2
*Model_Space
 70
     0
 10
0.0
 20
0.0
 30
0.0
  3
*Model_Space
  1
*Model_Space
  0
ENDBLK
  5
21
330
1F
100
AcDbEntity
  8
0
100
AcDbBlockEnd
  0
BLOCK
  5
1C
330
1B
100
AcDbEntity
 67
     1
  8
0
100
AcDbBlockBegin
  2
*Paper_Space
 70
     0
 10
0.0
 20
0.0
 30
0.0
  3
*Paper_Space
  1
*Paper_Space
  0
ENDBLK
  5
1D
330
1B
100
AcDbEntity
 67
     1
  8
0
100
AcDbBlockEnd
  0
BLOCK
  5
24
330
23
100
AcDbEntity
  8
0
100
AcDbBlockBegin
  2
*Paper_Space0
 70
     0
 10
0.0
 20
0.0
 30
0.0
  3
*Paper_Space0
  1
*Paper_Space0
  0
ENDBLK
  5
25
330
23
100
AcDbEntity
  8
0
100
AcDbBlockEnd
  0
ENDSEC
  0
SECTION
  2
ENTITIES
  0
CIRCLE
  5
7E
330
1F
100
AcDbEntity
  8
0
  6
Continuous
 62
     7
370
    15
100
AcDbCircle
 10
-0.25
 20
0.25
 30
0.0
 40
0.0999999999999999
  0
CIRCLE
  5
7F
330
1F
100
AcDbEntity
  8
0
  6
Continuous
 62
     7
370
    15
100
AcDbCircle
 10
-0.25
 20
0.75
 30
0.0
 40
0.1
  0
CIRCLE
  5
80
330
1F
100
AcDbEntity
  8
0
  6
Continuous
 62
     7
370
    15
100
AcDbCircle
 10
-3.2126
 20
0.75
 30
0.0
 40
0.0999999999999992
  0
CIRCLE
  5
8C
330
1F
100
AcDbEntity
  8
0
  6
Continuous
 62
     7
370
    15
100
AcDbCircle
 10
-3.2126
 20
0.25
 30
0.0
 40
0.0999999999999992
  0
SPLINE
  5
8D
330
1F
100
AcDbEntity
  8
0
  6
Continuous
 62
     7
370
    15
100
AcDbSpline
210
0.0
220
0.0
230
1.0
 70
     8
 71
     3
 72
    15
 73
    11
 74
     0
 42
0.000000001
 43
0.00000001
 40
0.0
 40
0.0
 40
0.0
 40
0.0
 40
0.0784209572100304
 40
0.1679004808366042
 40
0.2661143406758747
 40
0.377155980978632
 40
0.503343372216598
 40
0.6482369647732461
 40
0.8133036372106767
 40
0.9999999999999999
 40
0.9999999999999999
 40
0.9999999999999999
 40
0.9999999999999999
 10
-1.71378046875
 20
0.4606152343749997
 30
0.0
 10
-1.710442658850724
 20
0.4618441118285856
 30
0.0
 10
-1.703296356293761
 20
0.4644751574404584
 30
0.0
 10
-1.692776881075547
 20
0.4704536891716507
 30
0.0
 10
-1.681611591899415
 20
0.4780976169270968
 30
0.0
 10
-1.6696427231008
 20
0.4874920134514773
 30
0.0
 10
-1.657326951803187
 20
0.4997195919539403
 30
0.0
 10
-1.645090210932535
 20
0.5152717716693457
 30
0.0
 10
-1.632654253872881
 20
0.5340435559074268
 30
0.0
 10
-1.624860383456496
 20
0.5479444434089557
 30
0.0
 10
-1.620723828125
 20
0.5553222656249998
 30
0.0
  0
SPLINE
  5
8F
330
1F
100
AcDbEntity
  8
0
  6
Continuous
 62
     7
370
    15
100
AcDbSpline
210
0.0
220
0.0
230
1.0
 70
     8
 71
     3
 72
    15
 73
    11
 74
     0
 42
0.000000001
 43
0.00000001
 40
0.0
 40
0.0
 40
0.0
 40
0.0
 40
0.1227166019347224
 40
0.2420188804365929
 40
0.3594129800355089
 40
0.4772189660938574
 40
0.5977304563602486
 40
0.7238121824916429
 40
0.8576493474827126
 40
1.0
 40
1.0
 40
1.0
 40
1.0
 10
-1.77167109375
 20
0.3491503906249998
 30
0.0
 10
-1.778157863456698
 20
0.3493395818136318
 30
0.0
 10
-1.790950922564544
 20
0.3497127003561869
 30
0.0
 10
-1.80973868652026
 20
0.3528548042065718
 30
0.0
 10
-1.827789855809226
 20
0.3579666939678794
 30
0.0
 10
-1.845225946395801
 20
0.3651009552442856
 30
0.0
 10
-1.862022345617899
 20
0.3746227107311537
 30
0.0
 10
-1.878190274647723
 20
0.3866159437188169
 30
0.0
 10
-1.894077939106762
 20
0.4008111944496236
 30
0.0
 10
-1.90361238825963
 20
0.4118754628184043
 30
0.0
 10
-1.9085265625
 20
0.4175781249999998
 30
0.0
  0
SPLINE
  5
92
330
1F
100
AcDbEntity
  8
0
  6
Continuous
 62
     7
370
    15
100
AcDbSpline
210
0.0
220
0.0
230
1.0
 70
     8
 71
     3
 72
    19
 73
    15
 74
     0
 42
0.000000001
 43
0.00000001
 40
0.0
 40
0.0
 40
0.0
 40
0.0
 40
0.0751737380682008
 40
0.1487441430582302
 40
0.2200880034344623
 40
0.2902769098662271
 40
0.359189826991734
 40
0.4287327023800996
 40
0.498244873542444
 40
0.5685943607707697
 40
0.7019579251850145
 40
0.8177179105010246
 40
0.9169800139049638
 40
1.0
 40
1.0
 40
1.0
 40
1.0
 10
-1.9085265625
 20
0.3123339843749998
 30
0.0
 10
-1.906383450907598
 20
0.3088672383811815
 30
0.0
 10
-1.902142936793469
 20
0.302007686424576
 30
0.0
 10
-1.894870780058378
 20
0.2925359924247024
 30
0.0
 10
-1.887138251906116
 20
0.2837921067507648
 30
0.0
 10
-1.878682504870845
 20
0.2761230657407781
 30
0.0
 10
-1.869912598352699
 20
0.2689660758229435
 30
0.0
 10
-1.860363402238827
 20
0.2629372503293427
 30
0.0
 10
-1.85028091038875
 20
0.2577085835864289
 30
0.0
 10
-1.836602421540477
 20
0.2520062413734286
 30
0.0
 10
-1.820094061479957
 20
0.2467373208444991
 30
0.0
 10
-1.801931346001168
 20
0.241602860488616
 30
0.0
 10
-1.786039435182106
 20
0.2384603591064647
 30
0.0
 10
-1.776167325086417
 20
0.2379280059682371
 30
0.0
 10
-1.77167109375
 20
0.2376855468749998
 30
0.0
  0
SPLINE
  5
93
330
1F
100
AcDbEntity
  8
0
  6
Continuous
 62
     7
370
    15
100
AcDbSpline
210
0.0
220
0.0
230
1.0
 70
     8
 71
     3
 72
    39
 73
    35
 74
     0
 42
0.000000001
 43
0.00000001
 40
0.0
 40
0.0
 40
0.0
 40
0.0
 40
0.0234520692906707
 40
0.047784347788311
 40
0.0729166855510457
 40
0.0995918321494118
 40
0.128179845044365
 40
0.1584375502035955
 40
0.1909170387674857
 40
0.2257454858562701
 40
0.2613715261072554
 40
0.2958992134821467
 40
0.3300500806805073
 40
0.3639258336171526
 40
0.3982759158973007
 40
0.4329753838717121
 40
0.4688488609219126
 40
0.5057490034352677
 40
0.5424199379553902
 40
0.5772826522861837
 40
0.6103606002477635
 40
0.6421423392314414
 40
0.6727268697691868
 40
0.7025563093903352
 40
0.7318914953401915
 40
0.7611534887642127
 40
0.7902157678044075
 40
0.8189152287297887
 40
0.847503241624742
 40
0.8763526011628705
 40
0.9056045995985235
 40
0.9359194320125168
 40
0.9672999287774514
 40
1.0
 40
1.0
 40
1.0
 40
1.0
 10
-2.19213984375
 20
0.2367968749999998
 30
0.0
 10
-2.187640292966372
 20
0.2369649169691739
 30
0.0
 10
-2.178472313080623
 20
0.237307307902721
 30
0.0
 10
-2.164746075343051
 20
0.2402658995355921
 30
0.0
 10
-2.150891421532585
 20
0.2449142661060216
 30
0.0
 10
-2.136847815350603
 20
0.2513308655375311
 30
0.0
 10
-2.12266698567233
 20
0.2596064038555308
 30
0.0
 10
-2.108401506498452
 20
0.2697824295446463
 30
0.0
 10
-2.093896891238993
 20
0.2816089951692837
 30
0.0
 10
-2.079512590547365
 20
0.2951378454630283
 30
0.0
 10
-2.065831577442641
 20
0.3099255080234103
 30
0.0
 10
-2.053737802205557
 20
0.3259005773224664
 30
0.0
 10
-2.043741853460896
 20
0.3428694335669168
 30
0.0
 10
-2.035378533258295
 20
0.3606549678015972
 30
0.0
 10
-2.028905964946742
 20
0.3793347327777133
 30
0.0
 10
-2.024340438108183
 20
0.3989536862667603
 30
0.0
 10
-2.021535781013794
 20
0.4193952763248081
 30
0.0
 10
-2.020741419930014
 20
0.4403883108015194
 30
0.0
 10
-2.021520330712469
 20
0.4611722996922698
 30
0.0
 10
-2.023581898296617
 20
0.4811402942874315
 30
0.0
 10
-2.027274532906208
 20
0.4999218665457866
 30
0.0
 10
-2.032427238334689
 20
0.517511058339801
 30
0.0
 10
-2.039236425516572
 20
0.5338497866543755
 30
0.0
 10
-2.047314005885167
 20
0.5490801465058283
 30
0.0
 10
-2.057087605885514
 20
0.5629723901422748
 30
0.0
 10
-2.068089159923507
 20
0.5757210969220915
 30
0.0
 10
-2.080471028543307
 20
0.5869409122740069
 30
0.0
 10
-2.093656669734785
 20
0.5970046828461109
 30
0.0
 10
-2.108034585750809
 20
0.605194284834493
 30
0.0
 10
-2.123150002038068
 20
0.6121661467839162
 30
0.0
 10
-2.139334961697042
 20
0.6173180570554104
 30
0.0
 10
-2.156363032793512
 20
0.6211318939831195
 30
0.0
 10
-2.174344677336139
 20
0.6234608722012096
 30
0.0
 10
-2.186631594958145
 20
0.6237363684382964
 30
0.0
 10
-2.1929015625
 20
0.6238769531249998
 30
0.0
  0
SPLINE
  5
94
330
1F
100
AcDbEntity
  8
0
  6
Continuous
 62
     7
370
    15
100
AcDbSpline
210
0.0
220
0.0
230
1.0
 70
     8
 71
     3
 72
    23
 73
    19
 74
     0
 42
0.000000001
 43
0.00000001
 40
0.0
 40
0.0
 40
0.0
 40
0.0
 40
0.0937384252713989
 40
0.1835185567997823
 40
0.2688864226299459
 40
0.349967272488131
 40
0.4270252222280355
 40
0.5006473209408631
 40
0.5706930967868379
 40
0.6377410231406055
 40
0.699911072795258
 40
0.7558427918687516
 40
0.8069071598996276
 40
0.8521706638939962
 40
0.8927093658614894
 40
0.9303423341209281
 40
0.9654439107128787
 40
1.0
 40
1.0
 40
1.0
 40
1.0
 10
-2.3447375
 20
0.5290429687499998
 30
0.0
 10
-2.344334228154261
 20
0.5365377644245789
 30
0.0
 10
-2.343544713428429
 20
0.5512108729361178
 30
0.0
 10
-2.34133963832852
 20
0.5726326680323837
 30
0.0
 10
-2.338566672166183
 20
0.5929601048425023
 30
0.0
 10
-2.335205965590894
 20
0.6121728178683519
 30
0.0
 10
-2.330957405065025
 20
0.630241066658159
 30
0.0
 10
-2.326229122387808
 20
0.6472786693789763
 30
0.0
 10
-2.320575467744071
 20
0.6631834302281183
 30
0.0
 10
-2.314491163656816
 20
0.6779435570154141
 30
0.0
 10
-2.307771148658659
 20
0.6911686541772251
 30
0.0
 10
-2.300951806742007
 20
0.702883588135423
 30
0.0
 10
-2.293784016591886
 20
0.7127770164181141
 30
0.0
 10
-2.286382996287911
 20
0.7208820329703421
 30
0.0
 10
-2.278833089320973
 20
0.7273349149536101
 30
0.0
 10
-2.270895048775505
 20
0.7318016434818388
 30
0.0
 10
-2.262710758243964
 20
0.7347028076121151
 30
0.0
 10
-2.257120243023296
 20
0.7350450584229979
 30
0.0
 10
-2.254346875
 20
0.7352148437499998
 30
0.0
  0
SPLINE
  5
95
330
1F
100
AcDbEntity
  8
0
  6
Continuous
 62
     7
370
    15
100
AcDbSpline
210
0.0
220
0.0
230
1.0
 70
     8
 71
     3
 72
    35
 73
    31
 74
     0
 42
0.000000001
 43
0.00000001
 40
0.0
 40
0.0
 40
0.0
 40
0.0
 40
0.0303085839433191
 40
0.0708036864869417
 40
0.1227371138461406
 40
0.1875294450574677
 40
0.2229191164805202
 40
0.2583049626134542
 40
0.2943915866008195
 40
0.3312171357684536
 40
0.3692435176405313
 40
0.4090406380667994
 40
0.4509291301677169
 40
0.4951841936868026
 40
0.5394392572058885
 40
0.5819723488517683
 40
0.62300211815371
 40
0.6628264409894605
 40
0.7021857660925602
 40
0.7413623843426431
 40
0.7800767151701528
 40
0.8198738355964207
 40
0.8577718459705367
 40
0.8908932268260542
 40
0.9196290495583007
 40
0.9443485389541875
 40
0.9644333083821148
 40
0.9801639636622302
 40
0.9920405759147458
 40
1.0
 40
1.0
 40
1.0
 40
1.0
 10
-2.1929015625
 20
0.5263769531249998
 30
0.0
 10
-2.190448729185433
 20
0.5259961979263951
 30
0.0
 10
-2.184718681178766
 20
0.525106718175025
 30
0.0
 10
-2.175941500377055
 20
0.5199588547175102
 30
0.0
 10
-2.165992023144777
 20
0.511987577708406
 30
0.0
 10
-2.156829056151331
 20
0.503613682646509
 30
0.0
 10
-2.149521830427237
 20
0.4953515349086631
 30
0.0
 10
-2.14429885743642
 20
0.4883686388435426
 30
0.0
 10
-2.140237778056929
 20
0.4805290117106861
 30
0.0
 10
-2.13655895109495
 20
0.4722769436772702
 30
0.0
 10
-2.133956319716023
 20
0.4632973954520366
 30
0.0
 10
-2.132048935538843
 20
0.453741679112549
 30
0.0
 10
-2.130923812221261
 20
0.44354653013893
 30
0.0
 10
-2.130593896244019
 20
0.4329415911246087
 30
0.0
 10
-2.130858327979287
 20
0.422271567093299
 30
0.0
 10
-2.132326021633371
 20
0.4119608987363108
 30
0.0
 10
-2.134475731568521
 20
0.402153571240691
 30
0.0
 10
-2.137340043499445
 20
0.3927837663837865
 30
0.0
 10
-2.141335448031038
 20
0.3840000870337847
 30
0.0
 10
-2.146148927448805
 20
0.3757503672453764
 30
0.0
 10
-2.151827656109924
 20
0.3680235435734405
 30
0.0
 10
-2.158178226538414
 20
0.3609826794954794
 30
0.0
 10
-2.164704688332774
 20
0.3547650969614908
 30
0.0
 10
-2.170510006253564
 20
0.3490957554514464
 30
0.0
 10
-2.175775354308265
 20
0.3444193294383744
 30
0.0
 10
-2.180234430559973
 20
0.340431986870273
 30
0.0
 10
-2.184222987888058
 20
0.3375180972795188
 30
0.0
 10
-2.187419470165861
 20
0.3353716295325919
 30
0.0
 10
-2.189877485023019
 20
0.3337207915447974
 30
0.0
 10
-2.191492001538827
 20
0.33349771500066
 30
0.0
 10
-2.19213984375
 20
0.3334082031249998
 30
0.0
  0
SPLINE
  5
96
330
1F
100
AcDbEntity
  8
0
  6
Continuous
 62
     7
370
    15
100
AcDbSpline
210
0.0
220
0.0
230
1.0
 70
     8
 71
     3
 72
    15
 73
    11
 74
     0
 42
0.000000001
 43
0.00000001
 40
0.0
 40
0.0
 40
0.0
 40
0.0
 40
0.1226986546035873
 40
0.2419834851199083
 40
0.3593604158048779
 40
0.4771491727107894
 40
0.5972511697990885
 40
0.7233144564491647
 40
0.8576701662982406
 40
1.0
 40
1.0
 40
1.0
 40
1.0
 10
-2.1929015625
 20
0.7352148437499999
 30
0.0
 10
-2.186414682664938
 20
0.735025854050002
 30
0.0
 10
-2.173621406364445
 20
0.7346531328787308
 30
0.0
 10
-2.154835228208872
 20
0.731508127680395
 30
0.0
 10
-2.136778154180775
 20
0.7264070411106803
 30
0.0
 10
-2.119383490096749
 20
0.7192399957736625
 30
0.0
 10
-2.102517427976526
 20
0.7098894201575028
 30
0.0
 10
-2.08634520571073
 20
0.6978708081211937
 30
0.0
 10
-2.070535499572023
 20
0.6835523558473979
 30
0.0
 10
-2.060967809832613
 20
0.6724818758965325
 30
0.0
 10
-2.05604609375
 20
0.6667871093749997
 30
0.0
  0
SPLINE
  5
97
330
1F
100
AcDbEntity
  8
0
  6
Continuous
 62
     7
370
    15
100
AcDbSpline
210
0.0
220
0.0
230
1.0
 70
     8
 71
     3
 72
    19
 73
    15
 74
     0
 42
0.000000001
 43
0.00000001
 40
0.0
 40
0.0
 40
0.0
 40
0.0
 40
0.0089356323383168
 40
0.0262265875915489
 40
0.051587976843723
 40
0.0868557503692585
 40
0.1302240072713577
 40
0.1830039434210228
 40
0.244429871627232
 40
0.3145111599827187
 40
0.4675544259445602
 40
0.63153132744646
 40
0.8082571625744849
 40
0.9999999999999999
 40
0.9999999999999999
 40
0.9999999999999999
 40
0.9999999999999999
 10
-2.2518078125
 20
0.6238769531249998
 30
0.0
 10
-2.252194166820209
 20
0.6237624898656544
 30
0.0
 10
-2.253328138657534
 20
0.623426533709047
 30
0.0
 10
-2.255279338991512
 20
0.6221307847909725
 30
0.0
 10
-2.258310396715618
 20
0.620396229893768
 30
0.0
 10
-2.262125672923565
 20
0.6176833630045565
 30
0.0
 10
-2.267018391637571
 20
0.6143839112765047
 30
0.0
 10
-2.272831355546027
 20
0.6103404319742496
 30
0.0
 10
-2.27954492736071
 20
0.6054949726787804
 30
0.0
 10
-2.289911825952396
 20
0.5980143654417884
 30
0.0
 10
-2.30326865630772
 20
0.5868063266884318
 30
0.0
 10
-2.318284788895091
 20
0.570397036677951
 30
0.0
 10
-2.332268171658654
 20
0.55091983140286
 30
0.0
 10
-2.34046963981796
 20
0.5365307330038698
 30
0.0
 10
-2.3447375
 20
0.5290429687499998
 30
0.0
  0
SPLINE
  5
98
330
1F
100
AcDbEntity
  8
0
  6
Continuous
 62
     7
370
    15
100
AcDbSpline
210
0.0
220
0.0
230
1.0
 70
     8
 71
     3
 72
    27
 73
    23
 74
     0
 42
0.000000001
 43
0.00000001
 40
0.0
 40
0.0
 40
0.0
 40
0.0
 40
0.0357975738806418
 40
0.079190909667968
 40
0.1311259065416171
 40
0.1920385481294619
 40
0.2250452610294203
 40
0.2581511708618738
 40
0.2920788865023173
 40
0.3267938573970631
 40
0.3635888093012636
 40
0.40226082688656
 40
0.4429298607600224
 40
0.4864921367582999
 40
0.5711272058336874
 40
0.6465775427691539
 40
0.7147665601134828
 40
0.7771514944605684
 40
0.8360408820031016
 40
0.8919317331003159
 40
0.945868769860261
 40
1.0
 40
1.0
 40
1.0
 40
1.0
 10
-1.77167109375
 20
0.5579882812499999
 30
0.0
 10
-1.774514123493922
 20
0.5588478726577557
 30
0.0
 10
-1.780803435512242
 20
0.5607494491654237
 30
0.0
 10
-1.790000442301873
 20
0.5666625061456273
 30
0.0
 10
-1.800296433533968
 20
0.574418923820331
 30
0.0
 10
-1.809273072201704
 20
0.5825023713071827
 30
0.0
 10
-1.816390266251306
 20
0.5902452350382543
 30
0.0
 10
-1.82106623913498
 20
0.5970847253332536
 30
0.0
 10
-1.825206457768718
 20
0.6044225027608262
 30
0.0
 10
-1.828346055830824
 20
0.6125758309601333
 30
0.0
 10
-1.830849649217169
 20
0.6213325895129909
 30
0.0
 10
-1.832823685633166
 20
0.6307407596900089
 30
0.0
 10
-1.833731614495336
 20
0.640869855127007
 30
0.0
 10
-1.834239311714264
 20
0.6548158756422169
 30
0.0
 10
-1.83332796917324
 20
0.6716611568624947
 30
0.0
 10
-1.830141461431597
 20
0.6902993918909497
 30
0.0
 10
-1.824778730437425
 20
0.7065438300948454
 30
0.0
 10
-1.817054245106278
 20
0.7202900413645443
 30
0.0
 10
-1.807478363083012
 20
0.731436560621382
 30
0.0
 10
-1.797101139612542
 20
0.7408288432218025
 30
0.0
 10
-1.785286582425738
 20
0.7477038286151902
 30
0.0
 10
-1.77680711695322
 20
0.750548010086821
 30
0.0
 10
-1.772559765625001
 20
0.75197265625
 30
0.0
  0
SPLINE
  5
99
330
1F
100
AcDbEntity
  8
0
  6
Continuous
 62
     7
370
    15
100
AcDbSpline
210
0.0
220
0.0
230
1.0
 70
     8
 71
     3
 72
    39
 73
    35
 74
     0
 42
0.000000001
 43
0.00000001
 40
0.0
 40
0.0
 40
0.0
 40
0.0
 40
0.0234217127568086
 40
0.0477224953712082
 40
0.0728223016480057
 40
0.0995549082649738
 40
0.1281059166222581
 40
0.158324455981667
 40
0.1909017216934734
 40
0.2258363905560856
 40
0.2614163161941627
 40
0.2960757781403362
 40
0.3301824402008189
 40
0.3642141934323558
 40
0.3985198127091348
 40
0.4333890203585836
 40
0.4692160625118329
 40
0.5062887282463433
 40
0.5429121956346018
 40
0.5777297834072664
 40
0.6107649150256518
 40
0.642505515488729
 40
0.6730504571814393
 40
0.7028412853528809
 40
0.7321384996186787
 40
0.7613626160995938
 40
0.790387276708475
 40
0.8190953441756644
 40
0.847567924916482
 40
0.8764910813218179
 40
0.9057741886447488
 40
0.9360023783789067
 40
0.9673422559941691
 40
1.0
 40
1.0
 40
1.0
 40
1.0
 10
-1.772559765625
 20
0.8484570312499997
 30
0.0
 10
-1.777059626645259
 20
0.8482896678686294
 30
0.0
 10
-1.786228238648151
 20
0.8479486595796248
 30
0.0
 10
-1.799949544870616
 20
0.8449792811289522
 30
0.0
 10
-1.813840865218244
 20
0.840368832836792
 30
0.0
 10
-1.827818092968142
 20
0.833764092333062
 30
0.0
 10
-1.842034584247986
 20
0.825528111545926
 30
0.0
 10
-1.856333421531713
 20
0.8153446924706462
 30
0.0
 10
-1.8708036196933
 20
0.8033848825609581
 30
0.0
 10
-1.885143570991985
 20
0.7897344634586967
 30
0.0
 10
-1.898919149340961
 20
0.7749444167082811
 30
0.0
 10
-1.910915759651892
 20
0.7588543047025967
 30
0.0
 10
-1.921001081071914
 20
0.7418563433782944
 30
0.0
 10
-1.929285281765518
 20
0.7239897634320283
 30
0.0
 10
-1.935821771123155
 20
0.7052502258319622
 30
0.0
 10
-1.940339890528203
 20
0.6855758474269218
 30
0.0
 10
-1.943174040373495
 20
0.6650559467860931
 30
0.0
 10
-1.943955750037049
 20
0.644018838208737
 30
0.0
 10
-1.943180296204192
 20
0.6231930239503624
 30
0.0
 10
-1.94111745317992
 20
0.6032249265854218
 30
0.0
 10
-1.937425161676006
 20
0.584443341400991
 30
0.0
 10
-1.932272277316199
 20
0.5668542877115492
 30
0.0
 10
-1.925463463596645
 20
0.5505150472190464
 30
0.0
 10
-1.917384607554245
 20
0.5352865345942044
 30
0.0
 10
-1.907615647783978
 20
0.5213875448459651
 30
0.0
 10
-1.896596918188596
 20
0.5086638155760002
 30
0.0
 10
-1.884271953296585
 20
0.4973458598095546
 30
0.0
 10
-1.870857360761543
 20
0.4876259364733568
 30
0.0
 10
-1.856704737794292
 20
0.4790155856159513
 30
0.0
 10
-1.841377139889195
 20
0.4724566518923151
 30
0.0
 10
-1.825293410532403
 20
0.466945619574199
 30
0.0
 10
-1.808183587604888
 20
0.4634229117464166
 30
0.0
 10
-1.790232503107783
 20
0.4610143333495486
 30
0.0
 10
-1.777942589918497
 20
0.4607500812307255
 30
0.0
 10
-1.77167109375
 20
0.4606152343749997
 30
0.0
  0
SPLINE
  5
9A
330
1F
100
AcDbEntity
  8
0
  6
Continuous
 62
     7
370
    15
100
AcDbSpline
210
0.0
220
0.0
230
1.0
 70
     8
 71
     3
 72
    19
 73
    15
 74
     0
 42
0.000000001
 43
0.00000001
 40
0.0
 40
0.0
 40
0.0
 40
0.0
 40
0.0752318300292412
 40
0.1488590879736437
 40
0.2202067268254199
 40
0.2904150777243933
 40
0.3595139866298429
 40
0.4291106026211317
 40
0.4986764906591139
 40
0.5687803518299884
 40
0.702496191781217
 40
0.8183456328663562
 40
0.9169158586038999
 40
1.0
 40
1.0
 40
1.0
 40
1.0
 10
-2.05604609375
 20
0.7721582031249997
 30
0.0
 10
-2.058194946314301
 20
0.7756194525530271
 30
0.0
 10
-2.062446819926673
 20
0.7824681286108233
 30
0.0
 10
-2.069634336015531
 20
0.792017028214154
 30
0.0
 10
-2.077666354205889
 20
0.800467681661935
 30
0.0
 10
-2.085799970086546
 20
0.8084846631556092
 30
0.0
 10
-2.094835549751941
 20
0.8153307191153454
 30
0.0
 10
-2.104325661775963
 20
0.8214352332898752
 30
0.0
 10
-2.11439169236162
 20
0.8266849568207716
 30
0.0
 10
-2.128163037988647
 20
0.8321441109625749
 30
0.0
 10
-2.144570108880353
 20
0.8376880765391941
 30
0.0
 10
-2.162734352072011
 20
0.8427297752919508
 30
0.0
 10
-2.178572613565485
 20
0.8459171210531845
 30
0.0
 10
-2.188404640514814
 20
0.8464403676562678
 30
0.0
 10
-2.1929015625
 20
0.8466796874999997
 30
0.0
  0
SPLINE
  5
9B
330
1F
100
AcDbEntity
  8
0
  6
Continuous
 62
     7
370
    15
100
AcDbSpline
210
0.0
220
0.0
230
1.0
 70
     8
 71
     3
 72
    31
 73
    27
 74
     0
 42
0.000000001
 43
0.00000001
 40
0.0
 40
0.0
 40
0.0
 40
0.0
 40
0.0386412013122826
 40
0.084699064480466
 40
0.1406451992380762
 40
0.2070430901625379
 40
0.2427898913640467
 40
0.2775172759162726
 40
0.3121941662439691
 40
0.3473665106186394
 40
0.3824421975103038
 40
0.4189948493794315
 40
0.4567269210777058
 40
0.4960842030886925
 40
0.5354414850996793
 40
0.5731735567979536
 40
0.609726208667081
 40
0.6448018955587458
 40
0.6791296275243898
 40
0.7134094714425866
 40
0.7477659041970882
 40
0.7828447132292092
 40
0.8493612543065437
 40
0.9067586686121165
 40
0.9562969028978264
 40
1.0
 40
1.0
 40
1.0
 40
1.0
 10
-2.255235546875
 20
0.3325195312499998
 30
0.0
 10
-2.258715585562211
 20
0.3330218599541071
 30
0.0
 10
-2.266343609825238
 20
0.3341229326395997
 30
0.0
 10
-2.277758285296124
 20
0.3401339518640276
 30
0.0
 10
-2.290306738589321
 20
0.3487197926673507
 30
0.0
 10
-2.301209449189441
 20
0.358026658799442
 30
0.0
 10
-2.309930784656308
 20
0.3668367636795413
 30
0.0
 10
-2.315642996046889
 20
0.3744656748749603
 30
0.0
 10
-2.320677283006137
 20
0.3824842864272736
 30
0.0
 10
-2.324728917421564
 20
0.3910949953978594
 30
0.0
 10
-2.327757121937959
 20
0.4002777809998762
 30
0.0
 10
-2.330116685921209
 20
0.4099019450210714
 30
0.0
 10
-2.331259133490996
 20
0.4201293116069877
 30
0.0
 10
-2.331866849089061
 20
0.4306543925728317
 30
0.0
 10
-2.331258412371111
 20
0.4411789072551323
 30
0.0
 10
-2.330119396377827
 20
0.4514078861331252
 30
0.0
 10
-2.327747465365156
 20
0.4610264454863674
 30
0.0
 10
-2.324787027949178
 20
0.4701564180475905
 30
0.0
 10
-2.320637386178837
 20
0.4785983675503986
 30
0.0
 10
-2.31564120602653
 20
0.4864623646342205
 30
0.0
 10
-2.309962565719013
 20
0.4939609109885394
 30
0.0
 10
-2.301105536719402
 20
0.5025210979937079
 30
0.0
 10
-2.290002123716672
 20
0.5117036266645058
 30
0.0
 10
-2.276755840833161
 20
0.5201376071686682
 30
0.0
 10
-2.264143111338607
 20
0.5256849081884984
 30
0.0
 10
-2.255744378367424
 20
0.5267611705941814
 30
0.0
 10
-2.2518078125
 20
0.5272656249999997
 30
0.0
  0
SPLINE
  5
9C
330
1F
100
AcDbEntity
  8
0
  6
Continuous
 62
     7
370
    15
100
AcDbSpline
210
0.0
220
0.0
230
1.0
 70
     8
 71
     3
 72
    31
 73
    27
 74
     0
 42
0.000000001
 43
0.00000001
 40
0.0
 40
0.0
 40
0.0
 40
0.0
 40
0.0396190090601175
 40
0.0861409635241104
 40
0.1422462635833344
 40
0.208982485045343
 40
0.2449210401631786
 40
0.2795072352395697
 40
0.3144403165791427
 40
0.3494696624259898
 40
0.3848446197724791
 40
0.4212486612632461
 40
0.4592898780641608
 40
0.4984871470454001
 40
0.5376844160266395
 40
0.5752630822354441
 40
0.611213725666812
 40
0.646146807006385
 40
0.6803349743447097
 40
0.7144754483317433
 40
0.7486921997714929
 40
0.783628390557985
 40
0.8495144134877134
 40
0.9066784698556072
 40
0.9560152988980846
 40
1.0
 40
1.0
 40
1.0
 40
1.0
 10
-1.711114453125
 20
0.7519726562499999
 30
0.0
 10
-1.707506254129302
 20
0.7516237957963879
 30
0.0
 10
-1.699661188201364
 20
0.7508652918276494
 30
0.0
 10
-1.687959651867576
 20
0.7448992632933203
 30
0.0
 10
-1.675229249738981
 20
0.7363180736348203
 30
0.0
 10
-1.664372572225982
 20
0.7267526301900468
 30
0.0
 10
-1.655698126258668
 20
0.7177888592880781
 30
0.0
 10
-1.649898609096612
 20
0.7101408121386393
 30
0.0
 10
-1.644953035067908
 20
0.702024961714389
 30
0.0
 10
-1.640823110699319
 20
0.6933689221617788
 30
0.0
 10
-1.637859136095107
 20
0.6841200660185491
 30
0.0
 10
-1.635452588094549
 20
0.6744246383673894
 30
0.0
 10
-1.634340109537856
 20
0.6641496502634953
 30
0.0
 10
-1.633718204663048
 20
0.6535840306333943
 30
0.0
 10
-1.634334021108687
 20
0.6430601100644328
 30
0.0
 10
-1.635451677653923
 20
0.6328684928847946
 30
0.0
 10
-1.63786256618838
 20
0.6233016784262067
 30
0.0
 10
-1.640798951667996
 20
0.6142083083430103
 30
0.0
 10
-1.644951388510451
 20
0.6057668588971384
 30
0.0
 10
-1.649947378587052
 20
0.5979034045395457
 30
0.0
 10
-1.655623988847066
 20
0.5904021675892901
 30
0.0
 10
-1.664468468680072
 20
0.5818782737858772
 30
0.0
 10
-1.675468686787261
 20
0.572621563283091
 30
0.0
 10
-1.688709439785187
 20
0.5642333801706316
 30
0.0
 10
-1.701355754877482
 20
0.5586592293594226
 30
0.0
 10
-1.709800333828234
 20
0.5575992183018835
 30
0.0
 10
-1.71378046875
 20
0.5570996093749998
 30
0.0
  0
SPLINE
  5
9D
330
1F
100
AcDbEntity
  8
0
  6
Continuous
 62
     7
370
    15
100
AcDbSpline
210
0.0
220
0.0
230
1.0
 70
     8
 71
     3
 72
    23
 73
    19
 74
     0
 42
0.000000001
 43
0.00000001
 40
0.0
 40
0.0
 40
0.0
 40
0.0
 40
0.0937910282916562
 40
0.183095340387722
 40
0.2685847596494711
 40
0.3497111094995246
 40
0.4273275386864916
 40
0.5011369947084933
 40
0.5712220780140844
 40
0.6383076295297637
 40
0.700512567037204
 40
0.7564756732109493
 40
0.8072584486759063
 40
0.8525473531078296
 40
0.8931088041043866
 40
0.9303032444562711
 40
0.9654245189356055
 40
1.0
 40
1.0
 40
1.0
 40
1.0
 10
-1.620723828125
 20
0.5553222656249998
 30
0.0
 10
-1.621129530325154
 20
0.5478278624733919
 30
0.0
 10
-1.621921526998888
 20
0.5331975687124637
 30
0.0
 10
-1.624086094219877
 20
0.5118061289048152
 30
0.0
 10
-1.627055438544598
 20
0.4915419746573285
 30
0.0
 10
-1.630403515949431
 20
0.4722836726335379
 30
0.0
 10
-1.634570483516264
 20
0.4541376824015602
 30
0.0
 10
-1.639524710774896
 20
0.4371098811548847
 30
0.0
 10
-1.645128279893068
 20
0.4211781218326244
 30
0.0
 10
-1.651229782739426
 20
0.4064246600454673
 30
0.0
 10
-1.657933138234008
 20
0.3931890136111887
 30
0.0
 10
-1.664784167221288
 20
0.3815268056998514
 30
0.0
 10
-1.671794880789557
 20
0.3715520600789351
 30
0.0
 10
-1.679207956746674
 20
0.3634814491182393
 30
0.0
 10
-1.686736825393276
 20
0.3570731964909926
 30
0.0
 10
-1.694590291883285
 20
0.3525313484737094
 30
0.0
 10
-1.702753212423536
 20
0.3496671751655382
 30
0.0
 10
-1.708341961338573
 20
0.3493217504680125
 30
0.0
 10
-1.711114453125
 20
0.3491503906249998
 30
0.0
  0
SPLINE
  5
9E
330
1F
100
AcDbEntity
  8
0
  6
Continuous
 62
     7
370
    15
100
AcDbSpline
210
0.0
220
0.0
230
1.0
 70
     8
 71
     3
 72
    47
 73
    43
 74
     0
 42
0.000000001
 43
0.00000001
 40
0.0
 40
0.0
 40
0.0
 40
0.0
 40
0.0064556201192473
 40
0.0139287061619622
 40
0.0224748409333496
 40
0.0321310951093096
 40
0.043023477341111
 40
0.0549145794913673
 40
0.0681147187377509
 40
0.0823428333754162
 40
0.1116726296257487
 40
0.1407223880424109
 40
0.1698236105555871
 40
0.1994249478686105
 40
0.2297187812046902
 40
0.2610342999072912
 40
0.2941225007836196
 40
0.3290106502235002
 40
0.3481339734109824
 40
0.3694899026000732
 40
0.3930930769084061
 40
0.4189925460907221
 40
0.4472065531422422
 40
0.477899444290721
 40
0.5107776830176436
 40
0.5460069285381335
 40
0.5815663489989766
 40
0.6156813601364428
 40
0.6482326208602454
 40
0.679662451736316
 40
0.7101483549294335
 40
0.7398651885355698
 40
0.7689340971338211
 40
0.7976800197176449
 40
0.8256090005667531
 40
0.8521871487488852
 40
0.8775832369850318
 40
0.9022385933284158
 40
0.9263707748639824
 40
0.950444466493304
 40
0.9749347540947156
 40
1.0
 40
1.0
 40
1.0
 40
1.0
 10
-2.253458203125001
 20
0.8466796874999999
 30
0.0
 10
-2.255196295296015
 20
0.846631064402687
 30
0.0
 10
-2.258946419170294
 20
0.8465261547545596
 30
0.0
 10
-2.264928384775788
 20
0.8455453478801217
 30
0.0
 10
-2.271668699541839
 20
0.8440193112683834
 30
0.0
 10
-2.279171212495558
 20
0.8417707232383331
 30
0.0
 10
-2.287510318956285
 20
0.8391864923623638
 30
0.0
 10
-2.29658181477257
 20
0.8357906407970842
 30
0.0
 10
-2.30642169185364
 20
0.8319020303820072
 30
0.0
 10
-2.320440879983952
 20
0.8258369480145415
 30
0.0
 10
-2.337907501731508
 20
0.8170177457857195
 30
0.0
 10
-2.357647165229723
 20
0.8040651475867996
 30
0.0
 10
-2.375454489056746
 20
0.7884710455690054
 30
0.0
 10
-2.391825811494495
 20
0.7709367865073116
 30
0.0
 10
-2.406303074651623
 20
0.7510241261571478
 30
0.0
 10
-2.418371829941078
 20
0.7285056799810856
 30
0.0
 10
-2.428350185396008
 20
0.7036754798351031
 30
0.0
 10
-2.434916032054947
 20
0.6811304973778559
 30
0.0
 10
-2.439030639479867
 20
0.6612659620674934
 30
0.0
 10
-2.441827016579687
 20
0.6442447806068282
 30
0.0
 10
-2.444037434181948
 20
0.6253017914794471
 30
0.0
 10
-2.445923764553838
 20
0.6044738206409548
 30
0.0
 10
-2.447466333670533
 20
0.5817032362924717
 30
0.0
 10
-2.448418455573124
 20
0.5570212337741831
 30
0.0
 10
-2.44901307441305
 20
0.5304429235019138
 30
0.0
 10
-2.449422030923081
 20
0.5025479584590371
 30
0.0
 10
-2.448634361329021
 20
0.4743196964846372
 30
0.0
 10
-2.446220524298431
 20
0.4468925303808687
 30
0.0
 10
-2.441704813375783
 20
0.4208568822701048
 30
0.0
 10
-2.435620016702822
 20
0.3961595207524704
 30
0.0
 10
-2.427971011323886
 20
0.372681913738547
 30
0.0
 10
-2.41822984640234
 20
0.3506873256562973
 30
0.0
 10
-2.406950040364141
 20
0.3299729463242146
 30
0.0
 10
-2.393878144190422
 20
0.3109189831717288
 30
0.0
 10
-2.379666538167198
 20
0.2935608497308786
 30
0.0
 10
-2.36438437639323
 20
0.2783847948613543
 30
0.0
 10
-2.348313853088444
 20
0.2653934718327162
 30
0.0
 10
-2.331333286801264
 20
0.254816446115974
 30
0.0
 10
-2.313562076832982
 20
0.246394377515515
 30
0.0
 10
-2.29482179118389
 20
0.240630408594268
 30
0.0
 10
-2.275321074581199
 20
0.2367846512206969
 30
0.0
 10
-2.261982309573815
 20
0.236202603521444
 30
0.0
 10
-2.255235546875
 20
0.2359082031249998
 30
0.0
  0
SPLINE
  5
9F
330
1F
100
AcDbEntity
  8
0
  6
Continuous
 62
     7
370
    15
100
AcDbSpline
210
0.0
220
0.0
230
1.0
 70
     8
 71
     3
 72
    47
 73
    43
 74
     0
 42
0.000000001
 43
0.00000001
 40
0.0
 40
0.0
 40
0.0
 40
0.0
 40
0.0061389926709161
 40
0.0134788976870331
 40
0.0218343779780742
 40
0.0313357654485421
 40
0.041924561479378
 40
0.0538658199721962
 40
0.066856765131254
 40
0.0810791207924927
 40
0.110537058906155
 40
0.1395316228355422
 40
0.1686380523700373
 40
0.1981207283217239
 40
0.2285297521125627
 40
0.2598325955353675
 40
0.2929074036204717
 40
0.3277814317213469
 40
0.3468970145461567
 40
0.3682442997022249
 40
0.3918379203818514
 40
0.4177269064863815
 40
0.4459294936269959
 40
0.4764528908254076
 40
0.5093178217454556
 40
0.5445328078647769
 40
0.5800778352827325
 40
0.6141790380169105
 40
0.6468720737352865
 40
0.6782891830625275
 40
0.708762746771299
 40
0.7384675521819521
 40
0.7676625730650711
 40
0.7965268640013233
 40
0.8245659921680561
 40
0.8512443096757821
 40
0.8767529683482844
 40
0.901481932336986
 40
0.9258895150181191
 40
0.9501508580577351
 40
0.9746312329621678
 40
1.0
 40
1.0
 40
1.0
 40
1.0
 10
-1.711114453125
 20
0.2376855468749998
 30
0.0
 10
-1.709458874753879
 20
0.2377235084706246
 30
0.0
 10
-1.705823853069798
 20
0.2378068577252812
 30
0.0
 10
-1.7000570401607
 20
0.2390353162110493
 30
0.0
 10
-1.693388712225731
 20
0.2402833879907217
 30
0.0
 10
-1.686078098299527
 20
0.2426013825308946
 30
0.0
 10
-1.677853260650537
 20
0.245190151852218
 30
0.0
 10
-1.66896833781968
 20
0.2487385565869675
 30
0.0
 10
-1.659099406401
 20
0.2524433139681234
 30
0.0
 10
-1.645132911636142
 20
0.2585850614684571
 30
0.0
 10
-1.627532101182874
 20
0.2672226182177606
 30
0.0
 10
-1.608015576699096
 20
0.280553049833044
 30
0.0
 10
-1.589957833927102
 20
0.2957854237528831
 30
0.0
 10
-1.573741892192323
 20
0.313504154748946
 30
0.0
 10
-1.559314336722846
 20
0.3334433570547219
 30
0.0
 10
-1.547212738543722
 20
0.3559848889742471
 30
0.0
 10
-1.537239196028188
 20
0.3808171870505601
 30
0.0
 10
-1.530672093525985
 20
0.4033616230313903
 30
0.0
 10
-1.526557680222693
 20
0.4232262406454679
 30
0.0
 10
-1.523761236214235
 20
0.4402474014709677
 30
0.0
 10
-1.521550927007565
 20
0.4591904006012069
 30
0.0
 10
-1.519664187749437
 20
0.4800183530170254
 30
0.0
 10
-1.51812619460279
 20
0.5027468173831952
 30
0.0
 10
-1.517166578298626
 20
0.5273861697314947
 30
0.0
 10
-1.516575727413529
 20
0.5539223696276805
 30
0.0
 10
-1.516166776050434
 20
0.5818171443912211
 30
0.0
 10
-1.516951305338887
 20
0.6100459971547003
 30
0.0
 10
-1.519380731555966
 20
0.637512693143629
 30
0.0
 10
-1.523866679587778
 20
0.6635960365728866
 30
0.0
 10
-1.529971134143183
 20
0.6883317761738129
 30
0.0
 10
-1.537612471730507
 20
0.7118125406310718
 30
0.0
 10
-1.547389368185631
 20
0.73383091111203
 30
0.0
 10
-1.558634349972355
 20
0.7546435136705666
 30
0.0
 10
-1.571706165229291
 20
0.7738281957703035
 30
0.0
 10
-1.585933412594294
 20
0.7912905922234734
 30
0.0
 10
-1.601160880631752
 20
0.8066740175204977
 30
0.0
 10
-1.617440536561882
 20
0.8195288767381633
 30
0.0
 10
-1.634382650844867
 20
0.8304227200093924
 30
0.0
 10
-1.652416265349193
 20
0.8386528426189076
 30
0.0
 10
-1.671206720343612
 20
0.8446531691898284
 30
0.0
 10
-1.690862169258409
 20
0.8484762580708779
 30
0.0
 10
-1.704283959185963
 20
0.8490524651271708
 30
0.0
 10
-1.711114453125
 20
0.8493457031249999
 30
0.0
  0
LINE
  5
A0
330
1F
100
AcDbEntity
  8
0
  6
Continuous
 62
     7
370
    15
100
AcDbLine
 10
-1.4249621094
 20
0.57296875
 30
0.0
 11
-1.4249621094
 21
0.6843066406
 31
0.0
  0
LINE
  5
A1
330
1F
100
AcDbEntity
  8
0
  6
Continuous
 62
     7
370
    15
100
AcDbLine
 10
-1.2266613281
 20
0.7107128906
 30
0.0
 11
-1.4249621094
 21
0.57296875
 31
0.0
  0
LINE
  5
A2
330
1F
100
AcDbEntity
  8
0
  6
Continuous
 62
     7
370
    15
100
AcDbLine
 10
-1.2266613281
 20
0.25
 30
0.0
 11
-1.2266613281
 21
0.7107128906
 31
0.0
  0
LINE
  5
A3
330
1F
100
AcDbEntity
  8
0
  6
Continuous
 62
     7
370
    15
100
AcDbLine
 10
-1.0976769531
 20
0.25
 30
0.0
 11
-1.2266613281
 21
0.25
 31
0.0
  0
LINE
  5
A4
330
1F
100
AcDbEntity
  8
0
  6
Continuous
 62
     7
370
    15
100
AcDbLine
 10
-1.0976769531
 20
0.8352539062
 30
0.0
 11
-1.0976769531
 21
0.25
 31
0.0
  0
LINE
  5
A5
330
1F
100
AcDbEntity
  8
0
  6
Continuous
 62
     7
370
    15
100
AcDbLine
 10
-1.208253125
 20
0.8352539063
 30
0.0
 11
-1.0976769531
 21
0.8352539062
 31
0.0
  0
LINE
  5
A6
330
1F
100
AcDbEntity
  8
0
  6
Continuous
 62
     7
370
    15
100
AcDbLine
 10
-1.4249621094
 20
0.6843066406
 30
0.0
 11
-1.208253125
 21
0.8352539063
 31
0.0
  0
LINE
  5
A7
330
1F
100
AcDbEntity
  8
0
  6
Continuous
 62
     7
370
    15
100
AcDbLine
 10
-1.7111144531
 20
0.3491503906
 30
0.0
 11
-1.7111144531
 21
0.2376855469
 31
0.0
  0
LINE
  5
A8
330
1F
100
AcDbEntity
  8
0
  6
Continuous
 62
     7
370
    15
100
AcDbLine
 10
-1.7137804688
 20
0.5570996094
 30
0.0
 11
-1.7137804688
 21
0.4606152344
 31
0.0
  0
LINE
  5
A9
330
1F
100
AcDbEntity
  8
0
  6
Continuous
 62
     7
370
    15
100
AcDbLine
 10
-1.7716710938
 20
0.4606152344
 30
0.0
 11
-1.7716710938
 21
0.5579882812
 31
0.0
  0
LINE
  5
AA
330
1F
100
AcDbEntity
  8
0
  6
Continuous
 62
     7
370
    15
100
AcDbLine
 10
-1.7716710938
 20
0.2376855469
 30
0.0
 11
-1.7716710938
 21
0.3491503906
 31
0.0
  0
LINE
  5
AB
330
1F
100
AcDbEntity
  8
0
  6
Continuous
 62
     7
370
    15
100
AcDbLine
 10
-1.9085265625
 20
0.417578125
 30
0.0
 11
-1.9085265625
 21
0.3123339844
 31
0.0
  0
LINE
  5
AC
330
1F
100
AcDbEntity
  8
0
  6
Continuous
 62
     7
370
    15
100
AcDbLine
 10
-2.2552355469
 20
0.2359082031
 30
0.0
 11
-2.2552355469
 21
0.3325195312
 31
0.0
  0
LINE
  5
AD
330
1F
100
AcDbEntity
  8
0
  6
Continuous
 62
     7
370
    15
100
AcDbLine
 10
-2.1929015625
 20
0.6238769531
 30
0.0
 11
-2.1929015625
 21
0.5263769531
 31
0.0
  0
LINE
  5
AE
330
1F
100
AcDbEntity
  8
0
  6
Continuous
 62
     7
370
    15
100
AcDbLine
 10
-2.0560460938
 20
0.6667871094
 30
0.0
 11
-2.0560460938
 21
0.7721582031
 31
0.0
  0
LINE
  5
AF
330
1F
100
AcDbEntity
  8
0
  6
Continuous
 62
     7
370
    15
100
AcDbLine
 10
-0.1
 20
1.0
 30
0.0
 11
-3.3626
 21
1.0
 31
0.0
  0
LINE
  5
B0
330
1F
100
AcDbEntity
  8
0
  6
Continuous
 62
     7
370
    15
100
AcDbLine
 10
0.0
 20
0.1
 30
0.0
 11
0.0
 21
0.9
 31
0.0
  0
LINE
  5
B1
330
1F
100
AcDbEntity
  8
0
  6
Continuous
 62
     7
370
    15
100
AcDbLine
 10
-3.4626
 20
0.9
 30
0.0
 11
-3.4626
 21
0.1
 31
0.0
  0
LINE
  5
B2
330
1F
100
AcDbEntity
  8
0
  6
Continuous
 62
     7
370
    15
100
AcDbLine
 10
-2.254346875
 20
0.7352148437
 30
0.0
 11
-2.2534582031
 21
0.8466796875
 31
0.0
  0
LINE
  5
B3
330
1F
100
AcDbEntity
  8
0
  6
Continuous
 62
     7
370
    15
100
AcDbLine
 10
-2.1921398438
 20
0.3334082031
 30
0.0
 11
-2.1921398438
 21
0.236796875
 31
0.0
  0
LINE
  5
B4
330
1F
100
AcDbEntity
  8
0
  6
Continuous
 62
     7
370
    15
100
AcDbLine
 10
-2.2518078125
 20
0.527265625
 30
0.0
 11
-2.2518078125
 21
0.6238769531
 31
0.0
  0
LINE
  5
B5
330
1F
100
AcDbEntity
  8
0
  6
Continuous
 62
     7
370
    15
100
AcDbLine
 10
-3.3626
 20
0.0
 30
0.0
 11
-0.1
 21
0.0
 31
0.0
  0
LINE
  5
B6
330
1F
100
AcDbEntity
  8
0
  6
Continuous
 62
     7
370
    15
100
AcDbLine
 10
-1.7725597656
 20
0.7519726562
 30
0.0
 11
-1.7725597656
 21
0.8484570312
 31
0.0
  0
LINE
  5
B7
330
1F
100
AcDbEntity
  8
0
  6
Continuous
 62
     7
370
    15
100
AcDbLine
 10
-1.7111144531
 20
0.8493457031
 30
0.0
 11
-1.7111144531
 21
0.7519726562
 31
0.0
  0
LINE
  5
B8
330
1F
100
AcDbEntity
  8
0
  6
Continuous
 62
     7
370
    15
100
AcDbLine
 10
-2.1929015625
 20
0.8466796875
 30
0.0
 11
-2.1929015625
 21
0.7352148437
 31
0.0
  0
ARC
  5
B9
330
1F
100
AcDbEntity
  8
0
  6
Continuous
 62
     7
370
    15
100
AcDbCircle
 10
-3.3626
 20
0.9
 30
0.0
 40
0.1000000000000014
100
AcDbArc
 50
90.0
 51
180.0
  0
ARC
  5
BA
330
1F
100
AcDbEntity
  8
0
  6
Continuous
 62
     7
370
    15
100
AcDbCircle
 10
-0.1
 20
0.9
 30
0.0
 40
0.0999999999999997
100
AcDbArc
 50
0.0
 51
90.0
  0
ARC
  5
BB
330
1F
100
AcDbEntity
  8
0
  6
Continuous
 62
     7
370
    15
100
AcDbCircle
 10
-3.3626
 20
0.1
 30
0.0
 40
0.100000000000001
100
AcDbArc
 50
180.0
 51
270.0
  0
ARC
  5
BC
330
1F
100
AcDbEntity
  8
0
  6
Continuous
 62
     7
370
    15
100
AcDbCircle
 10
-0.1
 20
0.1
 30
0.0
 40
0.0999999999999999
100
AcDbArc
 50
270.0
 51
0.0
  0
MTEXT
  5
BE
330
1F
100
AcDbEntity
  8
0
  6
Continuous
 62
     7
100
AcDbMText
 10
-3.4626
 20
-0.0401404091
 30
0.0
 40
0.1903
 41
0.0
 71
     1
 72
     1
  1
SolidWorks Student Edition.
  7
SLDTEXTSTYLE0
 73
     1
 44
1.0
  0
MTEXT
  5
BF
330
1F
100
AcDbEntity
  8
0
  6
Continuous
 62
     7
100
AcDbMText
 10
-3.4626
 20
-0.3255904091
 30
0.0
 40
0.1903
 41
0.0
 71
     1
 72
     1
  1
For Academic Use Only.
  7
SLDTEXTSTYLE0
 73
     1
 44
1.0
  0
ENDSEC
  0
SECTION
  2
OBJECTS
  0
DICTIONARY
  5
C
330
0
100
AcDbDictionary
281
     1
  3
ACAD_GROUP
350
D
  3
ACAD_LAYOUT
350
1A
  3
ACAD_MLINESTYLE
350
17
  3
ACAD_PLOTSETTINGS
350
19
  3
ACAD_PLOTSTYLENAME
350
E
  3
ACAD_SCALELIST
350
47
  0
DICTIONARY
  5
D
102
{ACAD_REACTORS
330
C
102
}
330
C
100
AcDbDictionary
281
     1
  0
DICTIONARY
  5
1A
102
{ACAD_REACTORS
330
C
102
}
330
C
100
AcDbDictionary
281
     1
  3
Layout1
350
1E
  3
Layout2
350
26
  3
Model
350
22
  0
DICTIONARY
  5
17
102
{ACAD_REACTORS
330
C
102
}
330
C
100
AcDbDictionary
281
     1
  3
Standard
350
18
  0
DICTIONARY
  5
19
102
{ACAD_REACTORS
330
C
102
}
330
C
100
AcDbDictionary
281
     1
  0
ACDBDICTIONARYWDFLT
  5
E
102
{ACAD_REACTORS
330
C
102
}
330
C
100
AcDbDictionary
281
     1
  3
Normal
350
F
100
AcDbDictionaryWithDefault
340
F
  0
DICTIONARY
  5
47
102
{ACAD_REACTORS
330
C
102
}
330
C
100
AcDbDictionary
281
     1
  3
A0
350
48
  3
A1
350
49
  3
A2
350
4A
  3
A3
350
4B
  3
A4
350
4C
  3
A5
350
4D
  3
A6
350
4E
  3
A7
350
4F
  3
A8
350
50
  3
A9
350
51
  3
B0
350
52
  3
B1
350
53
  3
B2
350
54
  3
B3
350
55
  3
B4
350
56
  3
B5
350
57
  3
B6
350
58
  3
B7
350
59
  3
B8
350
5A
  3
B9
350
5B
  3
C0
350
5C
  3
C1
350
5D
  3
C2
350
5E
  3
C3
350
5F
  3
C4
350
60
  3
C5
350
61
  3
C6
350
62
  3
C7
350
63
  3
C8
350
64
  3
C9
350
65
  3
D0
350
66
  3
D1
350
67
  3
D2
350
68
  0
LAYOUT
  5
1E
102
{ACAD_REACTORS
330
1A
102
}
330
1A
100
AcDbPlotSettings
  1

  2
none_device
  4

  6

 40
0.0
 41
0.0
 42
0.0
 43
0.0
 44
0.0
 45
0.0
 46
0.0
 47
0.0
 48
0.0
 49
0.0
140
0.0
141
0.0
142
1.0
143
1.0
 70
   688
 72
     0
 73
     0
 74
     5
  7

 75
    16
147
1.0
148
0.0
149
0.0
100
AcDbLayout
  1
Layout1
 70
     1
 71
     1
 10
0.0
 20
0.0
 11
12.0
 21
9.0
 12
0.0
 22
0.0
 32
0.0
 14
1.0000000000E+20
 24
1.0000000000E+20
 34
1.0000000000E+20
 15
-1.0000000000E+20
 25
-1.0000000000E+20
 35
-1.0000000000E+20
146
0.0
 13
0.0
 23
0.0
 33
0.0
 16
1.0
 26
0.0
 36
0.0
 17
0.0
 27
1.0
 37
0.0
 76
     0
330
1B
  0
LAYOUT
  5
26
102
{ACAD_REACTORS
330
1A
102
}
330
1A
100
AcDbPlotSettings
  1

  2
none_device
  4

  6

 40
0.0
 41
0.0
 42
0.0
 43
0.0
 44
0.0
 45
0.0
 46
0.0
 47
0.0
 48
0.0
 49
0.0
140
0.0
141
0.0
142
1.0
143
1.0
 70
   688
 72
     0
 73
     0
 74
     5
  7

 75
    16
147
1.0
148
0.0
149
0.0
100
AcDbLayout
  1
Layout2
 70
     1
 71
     2
 10
0.0
 20
0.0
 11
0.0
 21
0.0
 12
0.0
 22
0.0
 32
0.0
 14
0.0
 24
0.0
 34
0.0
 15
0.0
 25
0.0
 35
0.0
146
0.0
 13
0.0
 23
0.0
 33
0.0
 16
1.0
 26
0.0
 36
0.0
 17
0.0
 27
1.0
 37
0.0
 76
     0
330
23
  0
LAYOUT
  5
22
102
{ACAD_REACTORS
330
1A
102
}
330
1A
100
AcDbPlotSettings
  1

  2
none_device
  4
ANSI_A_(11.00_x_8.50_Inches)
  6

 40
6.35
 41
19.05
 42
6.35000508
 43
19.05000254
 44
279.4
 45
215.9
 46
271.65299746
 47
48.958047595
 48
0.0
 49
0.0
140
0.0
141
0.0
142
3.1450355224
143
1.0
 70
  1696
 72
     0
 73
     0
 74
     0
  7

 75
     0
147
0.5913241897
148
-39.4088153714
149
0.0
100
AcDbLayout
  1
Model
 70
     1
 71
     0
 10
0.0
 20
0.0
 11
12.0
 21
9.0
 12
0.0
 22
0.0
 32
0.0
 14
-3.4626
 24
0.0
 34
0.0
 15
0.0
 25
1.0
 35
0.0
146
0.0
 13
0.0
 23
0.0
 33
0.0
 16
1.0
 26
0.0
 36
0.0
 17
0.0
 27
1.0
 37
0.0
 76
     0
330
1F
331
29
  0
MLINESTYLE
  5
18
102
{ACAD_REACTORS
330
17
102
}
330
17
100
AcDbMlineStyle
  2
Standard
 70
     0
  3

 62
   256
 51
90.0
 52
90.0
 71
     2
 49
0.5
 62
   256
  6
BYLAYER
 49
-0.5
 62
   256
  6
BYLAYER
  0
ACDBPLACEHOLDER
  5
F
102
{ACAD_REACTORS
330
E
102
}
330
E
  0
SCALE
  5
48
102
{ACAD_REACTORS
330
47
102
}
330
47
100
AcDbScale
 70
     0
300
1:1
140
1.0
141
1.0
290
     1
  0
SCALE
  5
49
102
{ACAD_REACTORS
330
47
102
}
330
47
100
AcDbScale
 70
     0
300
1:2
140
1.0
141
2.0
290
     0
  0
SCALE
  5
4A
102
{ACAD_REACTORS
330
47
102
}
330
47
100
AcDbScale
 70
     0
300
1:4
140
1.0
141
4.0
290
     0
  0
SCALE
  5
4B
102
{ACAD_REACTORS
330
47
102
}
330
47
100
AcDbScale
 70
     0
300
1:5
140
1.0
141
5.0
290
     0
  0
SCALE
  5
4C
102
{ACAD_REACTORS
330
47
102
}
330
47
100
AcDbScale
 70
     0
300
1:8
140
1.0
141
8.0
290
     0
  0
SCALE
  5
4D
102
{ACAD_REACTORS
330
47
102
}
330
47
100
AcDbScale
 70
     0
300
1:10
140
1.0
141
10.0
290
     0
  0
SCALE
  5
4E
102
{ACAD_REACTORS
330
47
102
}
330
47
100
AcDbScale
 70
     0
300
1:16
140
1.0
141
16.0
290
     0
  0
SCALE
  5
4F
102
{ACAD_REACTORS
330
47
102
}
330
47
100
AcDbScale
 70
     0
300
1:20
140
1.0
141
20.0
290
     0
  0
SCALE
  5
50
102
{ACAD_REACTORS
330
47
102
}
330
47
100
AcDbScale
 70
     0
300
1:30
140
1.0
141
30.0
290
     0
  0
SCALE
  5
51
102
{ACAD_REACTORS
330
47
102
}
330
47
100
AcDbScale
 70
     0
300
1:40
140
1.0
141
40.0
290
     0
  0
SCALE
  5
52
102
{ACAD_REACTORS
330
47
102
}
330
47
100
AcDbScale
 70
     0
300
1:50
140
1.0
141
50.0
290
     0
  0
SCALE
  5
53
102
{ACAD_REACTORS
330
47
102
}
330
47
100
AcDbScale
 70
     0
300
1:100
140
1.0
141
100.0
290
     0
  0
SCALE
  5
54
102
{ACAD_REACTORS
330
47
102
}
330
47
100
AcDbScale
 70
     0
300
2:1
140
2.0
141
1.0
290
     0
  0
SCALE
  5
55
102
{ACAD_REACTORS
330
47
102
}
330
47
100
AcDbScale
 70
     0
300
4:1
140
4.0
141
1.0
290
     0
  0
SCALE
  5
56
102
{ACAD_REACTORS
330
47
102
}
330
47
100
AcDbScale
 70
     0
300
8:1
140
8.0
141
1.0
290
     0
  0
SCALE
  5
57
102
{ACAD_REACTORS
330
47
102
}
330
47
100
AcDbScale
 70
     0
300
10:1
140
10.0
141
1.0
290
     0
  0
SCALE
  5
58
102
{ACAD_REACTORS
330
47
102
}
330
47
100
AcDbScale
 70
     0
300
100:1
140
100.0
141
1.0
290
     0
  0
SCALE
  5
59
102
{ACAD_REACTORS
330
47
102
}
330
47
100
AcDbScale
 70
     0
300
1/128" = 1'-0"
140
0.0078125
141
12.0
290
     0
  0
SCALE
  5
5A
102
{ACAD_REACTORS
330
47
102
}
330
47
100
AcDbScale
 70
     0
300
1/64" = 1'-0"
140
0.015625
141
12.0
290
     0
  0
SCALE
  5
5B
102
{ACAD_REACTORS
330
47
102
}
330
47
100
AcDbScale
 70
     0
300
1/32" = 1'-0"
140
0.03125
141
12.0
290
     0
  0
SCALE
  5
5C
102
{ACAD_REACTORS
330
47
102
}
330
47
100
AcDbScale
 70
     0
300
1/16" = 1'-0"
140
0.0625
141
12.0
290
     0
  0
SCALE
  5
5D
102
{ACAD_REACTORS
330
47
102
}
330
47
100
AcDbScale
 70
     0
300
3/32" = 1'-0"
140
0.09375
141
12.0
290
     0
  0
SCALE
  5
5E
102
{ACAD_REACTORS
330
47
102
}
330
47
100
AcDbScale
 70
     0
300
1/8" = 1'-0"
140
0.125
141
12.0
290
     0
  0
SCALE
  5
5F
102
{ACAD_REACTORS
330
47
102
}
330
47
100
AcDbScale
 70
     0
300
3/16" = 1'-0"
140
0.1875
141
12.0
290
     0
  0
SCALE
  5
60
102
{ACAD_REACTORS
330
47
102
}
330
47
100
AcDbScale
 70
     0
300
1/4" = 1'-0"
140
0.25
141
12.0
290
     0
  0
SCALE
  5
61
102
{ACAD_REACTORS
330
47
102
}
330
47
100
AcDbScale
 70
     0
300
3/8" = 1'-0"
140
0.375
141
12.0
290
     0
  0
SCALE
  5
62
102
{ACAD_REACTORS
330
47
102
}
330
47
100
AcDbScale
 70
     0
300
1/2" = 1'-0"
140
0.5
141
12.0
290
     0
  0
SCALE
  5
63
102
{ACAD_REACTORS
330
47
102
}
330
47
100
AcDbScale
 70
     0
300
3/4" = 1'-0"
140
0.75
141
12.0
290
     0
  0
SCALE
  5
64
102
{ACAD_REACTORS
330
47
102
}
330
47
100
AcDbScale
 70
     0
300
1" = 1'-0"
140
1.0
141
12.0
290
     0
  0
SCALE
  5
65
102
{ACAD_REACTORS
330
47
102
}
330
47
100
AcDbScale
 70
     0
300
1-1/2" = 1'-0"
140
1.5
141
12.0
290
     0
  0
SCALE
  5
66
102
{ACAD_REACTORS
330
47
102
}
330
47
100
AcDbScale
 70
     0
300
3" = 1'-0"
140
3.0
141
12.0
290
     0
  0
SCALE
  5
67
102
{ACAD_REACTORS
330
47
102
}
330
47
100
AcDbScale
 70
     0
300
6" = 1'-0"
140
6.0
141
12.0
290
     0
  0
SCALE
  5
68
102
{ACAD_REACTORS
330
47
102
}
330
47
100
AcDbScale
 70
     0
300
1'-0" = 1'-0"
140
12.0
141
12.0
290
     0
  0
ENDSEC
  0
EOF
