  0
SECTION
  2
HEADER
  9
$ACADVER
  1
AC1015
  9
$ACADMAINTVER
 70
     6
  9
$DWGCODEPAGE
  3
ANSI_1252
  9
$INSBASE
 10
0.0
 20
0.0
 30
0.0
  9
$EXTMIN
 10
-0.8177864669
 20
-2.1137768921
 30
0.0
  9
$EXTMAX
 10
6.0
 20
4.7040095748
 30
0.0
  9
$LIMMIN
 10
0.0
 20
0.0
  9
$LIMMAX
 10
12.0
 20
9.0
  9
$ORTHOMODE
 70
     0
  9
$REGENMODE
 70
     1
  9
$FILLMODE
 70
     1
  9
$QTEXTMODE
 70
     0
  9
$MIRRTEXT
 70
     1
  9
$LTSCALE
 40
1.0
  9
$ATTMODE
 70
     1
  9
$TEXTSIZE
 40
0.1377952756
  9
$TRACEWID
 40
0.05
  9
$TEXTSTYLE
  7
Standard
  9
$CLAYER
  8
0
  9
$CELTYPE
  6
ByLayer
  9
$CECOLOR
 62
   256
  9
$CELTSCALE
 40
1.0
  9
$DISPSILH
 70
     0
  9
$DIMSCALE
 40
1.0
  9
$DIMASZ
 40
0.13
  9
$DIMEXO
 40
0.0393700787
  9
$DIMDLI
 40
0.38
  9
$DIMRND
 40
0.0
  9
$DIMDLE
 40
0.0
  9
$DIMEXE
 40
0.0393700787
  9
$DIMTP
 40
0.0
  9
$DIMTM
 40
0.0
  9
$DIMTXT
 40
0.1377952756
  9
$DIMCEN
 40
0.09
  9
$DIMTSZ
 40
0.0
  9
$DIMTOL
 70
     0
  9
$DIMLIM
 70
     0
  9
$DIMTIH
 70
     1
  9
$DIMTOH
 70
     1
  9
$DIMSE1
 70
     0
  9
$DIMSE2
 70
     0
  9
$DIMTAD
 70
     1
  9
$DIMZIN
 70
     0
  9
$DIMBLK
  1

  9
$DIMASO
 70
     1
  9
$DIMSHO
 70
     1
  9
$DIMPOST
  1

  9
$DIMAPOST
  1

  9
$DIMALT
 70
     0
  9
$DIMALTD
 70
     2
  9
$DIMALTF
 40
25.4
  9
$DIMLFAC
 40
1.0
  9
$DIMTOFL
 70
     0
  9
$DIMTVP
 40
0.0
  9
$DIMTIX
 70
     0
  9
$DIMSOXD
 70
     0
  9
$DIMSAH
 70
     0
  9
$DIMBLK1
  1

  9
$DIMBLK2
  1

  9
$DIMSTYLE
  2
Standard
  9
$DIMCLRD
 70
     0
  9
$DIMCLRE
 70
     0
  9
$DIMCLRT
 70
     0
  9
$DIMTFAC
 40
1.0
  9
$DIMGAP
 40
0.06
  9
$DIMJUST
 70
     0
  9
$DIMSD1
 70
     0
  9
$DIMSD2
 70
     0
  9
$DIMTOLJ
 70
     1
  9
$DIMTZIN
 70
     0
  9
$DIMALTZ
 70
     0
  9
$DIMALTTZ
 70
     0
  9
$DIMUPT
 70
     0
  9
$DIMDEC
 70
     2
  9
$DIMTDEC
 70
     2
  9
$DIMALTU
 70
     2
  9
$DIMALTTD
 70
     2
  9
$DIMTXSTY
  7
Standard
  9
$DIMAUNIT
 70
     0
  9
$DIMADEC
 70
     2
  9
$DIMALTRND
 40
0.0
  9
$DIMAZIN
 70
     0
  9
$DIMDSEP
 70
    46
  9
$DIMATFIT
 70
     3
  9
$DIMFRAC
 70
     0
  9
$DIMLDRBLK
  1

  9
$DIMLUNIT
 70
     2
  9
$DIMLWD
 70
    -2
  9
$DIMLWE
 70
    -2
  9
$DIMTMOVE
 70
     0
  9
$LUNITS
 70
     2
  9
$LUPREC
 70
     2
  9
$SKETCHINC
 40
0.1
  9
$FILLETRAD
 40
0.5
  9
$AUNITS
 70
     0
  9
$AUPREC
 70
     2
  9
$MENU
  1
.
  9
$ELEVATION
 40
0.0
  9
$PELEVATION
 40
0.0
  9
$THICKNESS
 40
0.0
  9
$LIMCHECK
 70
     0
  9
$CHAMFERA
 40
0.0
  9
$CHAMFERB
 40
0.0
  9
$CHAMFERC
 40
0.0
  9
$CHAMFERD
 40
0.0
  9
$SKPOLY
 70
     0
  9
$TDCREATE
 40
2457049.44903265
  9
$TDUCREATE
 40
2457049.782365984
  9
$TDUPDATE
 40
2457049.449110058
  9
$TDUUPDATE
 40
2457049.782443391
  9
$TDINDWG
 40
0.0000000116
  9
$TDUSRTIMER
 40
0.0000000116
  9
$USRTIMER
 70
     1
  9
$ANGBASE
 50
0.0
  9
$ANGDIR
 70
     0
  9
$PDMODE
 70
     0
  9
$PDSIZE
 40
-1.0
  9
$PLINEWID
 40
0.0
  9
$SPLFRAME
 70
     0
  9
$SPLINETYPE
 70
     6
  9
$SPLINESEGS
 70
     8
  9
$HANDSEED
  5
14A
  9
$SURFTAB1
 70
     6
  9
$SURFTAB2
 70
     6
  9
$SURFTYPE
 70
     6
  9
$SURFU
 70
     6
  9
$SURFV
 70
     6
  9
$UCSBASE
  2

  9
$UCSNAME
  2

  9
$UCSORG
 10
0.0
 20
0.0
 30
0.0
  9
$UCSXDIR
 10
1.0
 20
0.0
 30
0.0
  9
$UCSYDIR
 10
0.0
 20
1.0
 30
0.0
  9
$UCSORTHOREF
  2

  9
$UCSORTHOVIEW
 70
     0
  9
$UCSORGTOP
 10
0.0
 20
0.0
 30
0.0
  9
$UCSORGBOTTOM
 10
0.0
 20
0.0
 30
0.0
  9
$UCSORGLEFT
 10
0.0
 20
0.0
 30
0.0
  9
$UCSORGRIGHT
 10
0.0
 20
0.0
 30
0.0
  9
$UCSORGFRONT
 10
0.0
 20
0.0
 30
0.0
  9
$UCSORGBACK
 10
0.0
 20
0.0
 30
0.0
  9
$PUCSBASE
  2

  9
$PUCSNAME
  2

  9
$PUCSORG
 10
0.0
 20
0.0
 30
0.0
  9
$PUCSXDIR
 10
1.0
 20
0.0
 30
0.0
  9
$PUCSYDIR
 10
0.0
 20
1.0
 30
0.0
  9
$PUCSORTHOREF
  2

  9
$PUCSORTHOVIEW
 70
     0
  9
$PUCSORGTOP
 10
0.0
 20
0.0
 30
0.0
  9
$PUCSORGBOTTOM
 10
0.0
 20
0.0
 30
0.0
  9
$PUCSORGLEFT
 10
0.0
 20
0.0
 30
0.0
  9
$PUCSORGRIGHT
 10
0.0
 20
0.0
 30
0.0
  9
$PUCSORGFRONT
 10
0.0
 20
0.0
 30
0.0
  9
$PUCSORGBACK
 10
0.0
 20
0.0
 30
0.0
  9
$USERI1
 70
     0
  9
$USERI2
 70
     0
  9
$USERI3
 70
     0
  9
$USERI4
 70
     0
  9
$USERI5
 70
     0
  9
$USERR1
 40
0.0
  9
$USERR2
 40
0.0
  9
$USERR3
 40
0.0
  9
$USERR4
 40
0.0
  9
$USERR5
 40
0.0
  9
$WORLDVIEW
 70
     1
  9
$SHADEDGE
 70
     3
  9
$SHADEDIF
 70
    70
  9
$TILEMODE
 70
     1
  9
$MAXACTVP
 70
    64
  9
$PINSBASE
 10
0.0
 20
0.0
 30
0.0
  9
$PLIMCHECK
 70
     0
  9
$PEXTMIN
 10
1.0000000000E+20
 20
1.0000000000E+20
 30
1.0000000000E+20
  9
$PEXTMAX
 10
-1.0000000000E+20
 20
-1.0000000000E+20
 30
-1.0000000000E+20
  9
$PLIMMIN
 10
0.0
 20
0.0
  9
$PLIMMAX
 10
12.0
 20
9.0
  9
$UNITMODE
 70
     0
  9
$VISRETAIN
 70
     1
  9
$PLINEGEN
 70
     0
  9
$PSLTSCALE
 70
     1
  9
$TREEDEPTH
 70
  3020
  9
$CMLSTYLE
  2
Standard
  9
$CMLJUST
 70
     0
  9
$CMLSCALE
 40
1.0
  9
$PROXYGRAPHICS
 70
     1
  9
$MEASUREMENT
 70
     0
  9
$CELWEIGHT
370
    -1
  9
$ENDCAPS
280
     0
  9
$JOINSTYLE
280
     0
  9
$LWDISPLAY
290
     1
  9
$INSUNITS
 70
     1
  9
$HYPERLINKBASE
  1

  9
$STYLESHEET
  1

  9
$XEDIT
290
     1
  9
$CEPSNTYPE
380
     0
  9
$PSTYLEMODE
290
     1
  9
$FINGERPRINTGUID
  2
{6F76FCDC-BED6-476D-8154-40B3D6ECB804}
  9
$VERSIONGUID
  2
{FAEB1C32-E019-11D5-929B-00C0DF256EC4}
  9
$EXTNAMES
290
     1
  9
$PSVPSCALE
 40
0.0
  9
$OLESTARTUP
290
     0
  0
ENDSEC
  0
SECTION
  2
CLASSES
  0
CLASS
  1
ACDBDICTIONARYWDFLT
  2
AcDbDictionaryWithDefault
  3
ObjectDBX Classes
 90
        0
280
     0
281
     0
  0
CLASS
  1
VISUALSTYLE
  2
AcDbVisualStyle
  3
ObjectDBX Classes
 90
     4095
280
     0
281
     0
  0
CLASS
  1
MATERIAL
  2
AcDbMaterial
  3
ObjectDBX Classes
 90
     1153
280
     0
281
     0
  0
CLASS
  1
SCALE
  2
AcDbScale
  3
ObjectDBX Classes
 90
     1153
280
     0
281
     0
  0
CLASS
  1
SUN
  2
AcDbSun
  3
SCENEOE
 90
     1153
280
     0
281
     0
  0
CLASS
  1
ACDBPLACEHOLDER
  2
AcDbPlaceHolder
  3
ObjectDBX Classes
 90
        0
280
     0
281
     0
  0
CLASS
  1
LAYOUT
  2
AcDbLayout
  3
ObjectDBX Classes
 90
        0
280
     0
281
     0
  0
ENDSEC
  0
SECTION
  2
TABLES
  0
TABLE
  2
VPORT
  5
8
330
0
100
AcDbSymbolTable
 70
     1
  0
VPORT
  5
29
330
8
100
AcDbSymbolTableRecord
100
AcDbViewportTableRecord
  2
*Active
 70
     0
 10
0.0
 20
0.0
 11
1.0
 21
1.0
 12
2.5911067665
 22
1.2951163413
 13
0.0
 23
0.0
 14
0.5
 24
0.5
 15
0.5
 25
0.5
 16
0.0
 26
0.0
 36
1.0
 17
0.0
 27
0.0
 37
0.0
 40
6.9541421962
 41
1.0
 42
50.0
 43
0.0
 44
0.0
 50
0.0
 51
0.0
 71
     0
 72
   100
 73
     1
 74
     3
 75
     0
 76
     0
 77
     0
 78
     0
281
     0
 65
     1
110
0.0
120
0.0
130
0.0
111
1.0
121
0.0
131
0.0
112
0.0
122
1.0
132
0.0
 79
     0
146
0.0
  0
ENDTAB
  0
TABLE
  2
LTYPE
  5
5
330
0
100
AcDbSymbolTable
 70
     6
  0
LTYPE
  5
14
330
5
100
AcDbSymbolTableRecord
100
AcDbLinetypeTableRecord
  2
ByBlock
 70
     0
  3

 72
    65
 73
     0
 40
0.0
  0
LTYPE
  5
15
330
5
100
AcDbSymbolTableRecord
100
AcDbLinetypeTableRecord
  2
ByLayer
 70
     0
  3

 72
    65
 73
     0
 40
0.0
  0
LTYPE
  5
16
330
5
100
AcDbSymbolTableRecord
100
AcDbLinetypeTableRecord
  2
Continuous
 70
     0
  3
Solid line
 72
    65
 73
     0
 40
0.0
  0
LTYPE
  5
6A
330
5
100
AcDbSymbolTableRecord
100
AcDbLinetypeTableRecord
  2
HIDDEN
 70
     0
  3
Hidden __ __ __ __ __ __ __ __ __ __ __ __ __ __
 72
    65
 73
     2
 40
0.075
 49
0.05
 74
     0
 49
-0.025
 74
     0
  0
LTYPE
  5
6B
330
5
100
AcDbSymbolTableRecord
100
AcDbLinetypeTableRecord
  2
PHANTOM
 70
     0
  3
Phantom ______  __  __  ______  __  __  ______
 72
    65
 73
     6
 40
0.5
 49
0.25
 74
     0
 49
-0.05
 74
     0
 49
0.05
 74
     0
 49
-0.05
 74
     0
 49
0.05
 74
     0
 49
-0.05
 74
     0
  0
LTYPE
  5
6C
330
5
100
AcDbSymbolTableRecord
100
AcDbLinetypeTableRecord
  2
CENTER
 70
     0
  3
Center ____ _ ____ _ ____ _ ____ _ ____ _ ____
 72
    65
 73
     4
 40
0.4
 49
0.25
 74
     0
 49
-0.05
 74
     0
 49
0.05
 74
     0
 49
-0.05
 74
     0
  0
LTYPE
  5
6D
330
5
100
AcDbSymbolTableRecord
100
AcDbLinetypeTableRecord
  2
CENTERX2
 70
     0
  3
Center (2x) ________  __  ________  __  _____
 72
    65
 73
     4
 40
0.8
 49
0.5
 74
     0
 49
-0.1
 74
     0
 49
0.1
 74
     0
 49
-0.1
 74
     0
  0
LTYPE
  5
6E
330
5
100
AcDbSymbolTableRecord
100
AcDbLinetypeTableRecord
  2
DOT2
 70
     0
  3
Dot (.5x) ........................................
 72
    65
 73
     2
 40
0.025
 49
0.0
 74
     0
 49
-0.025
 74
     0
  0
ENDTAB
  0
TABLE
  2
LAYER
  5
2
330
0
100
AcDbSymbolTable
 70
     1
  0
LAYER
  5
10
330
2
100
AcDbSymbolTableRecord
100
AcDbLayerTableRecord
  2
0
 70
     0
 62
     7
  6
Continuous
370
    -3
390
F
  0
ENDTAB
  0
TABLE
  2
STYLE
  5
3
330
0
100
AcDbSymbolTable
 70
     2
  0
STYLE
  5
11
330
3
100
AcDbSymbolTableRecord
100
AcDbTextStyleTableRecord
  2
Standard
 70
     0
 40
0.0
 41
1.0
 50
0.0
 71
     0
 42
0.1377952756
  3
txt
  4

  0
STYLE
  5
147
330
3
100
AcDbSymbolTableRecord
100
AcDbTextStyleTableRecord
  2
SLDTEXTSTYLE0
 70
     0
 40
0.0
 41
0.7
 50
0.0
 71
     0
 42
0.1377952756
  3
TXT
  4

  0
ENDTAB
  0
TABLE
  2
VIEW
  5
6
330
0
100
AcDbSymbolTable
 70
     0
  0
ENDTAB
  0
TABLE
  2
UCS
  5
7
330
0
100
AcDbSymbolTable
 70
     0
  0
ENDTAB
  0
TABLE
  2
APPID
  5
9
330
0
100
AcDbSymbolTable
 70
     1
  0
APPID
  5
12
330
9
100
AcDbSymbolTableRecord
100
AcDbRegAppTableRecord
  2
ACAD
 70
     0
  0
ENDTAB
  0
TABLE
  2
DIMSTYLE
  5
A
330
0
100
AcDbSymbolTable
 70
     1
100
AcDbDimStyleTable
  0
DIMSTYLE
105
27
330
A
100
AcDbSymbolTableRecord
100
AcDbDimStyleTableRecord
  2
Standard
 70
     0
178
     0
340
11
  0
ENDTAB
  0
TABLE
  2
BLOCK_RECORD
  5
1
330
0
100
AcDbSymbolTable
 70
     1
  0
BLOCK_RECORD
  5
1F
330
1
100
AcDbSymbolTableRecord
100
AcDbBlockTableRecord
  2
*Model_Space
340
22
  0
BLOCK_RECORD
  5
1B
330
1
100
AcDbSymbolTableRecord
100
AcDbBlockTableRecord
  2
*Paper_Space
340
1E
  0
BLOCK_RECORD
  5
23
330
1
100
AcDbSymbolTableRecord
100
AcDbBlockTableRecord
  2
*Paper_Space0
340
26
  0
ENDTAB
  0
ENDSEC
  0
SECTION
  2
BLOCKS
  0
BLOCK
  5
20
330
1F
100
AcDbEntity
  8
0
100
AcDbBlockBegin
  2
*Model_Space
 70
     0
 10
0.0
 20
0.0
 30
0.0
  3
*Model_Space
  1
*Model_Space
  0
ENDBLK
  5
21
330
1F
100
AcDbEntity
  8
0
100
AcDbBlockEnd
  0
BLOCK
  5
1C
330
1B
100
AcDbEntity
 67
     1
  8
0
100
AcDbBlockBegin
  2
*Paper_Space
 70
     0
 10
0.0
 20
0.0
 30
0.0
  3
*Paper_Space
  1
*Paper_Space
  0
ENDBLK
  5
1D
330
1B
100
AcDbEntity
 67
     1
  8
0
100
AcDbBlockEnd
  0
BLOCK
  5
24
330
23
100
AcDbEntity
  8
0
100
AcDbBlockBegin
  2
*Paper_Space0
 70
     0
 10
0.0
 20
0.0
 30
0.0
  3
*Paper_Space0
  1
*Paper_Space0
  0
ENDBLK
  5
25
330
23
100
AcDbEntity
  8
0
100
AcDbBlockEnd
  0
ENDSEC
  0
SECTION
  2
ENTITIES
  0
CIRCLE
  5
6F
330
1F
100
AcDbEntity
  8
0
  6
Continuous
 62
     7
370
    15
100
AcDbCircle
 10
-0.5677864669
 20
3.2040095748
 30
0.0
 40
0.1249999999999996
  0
CIRCLE
  5
70
330
1F
100
AcDbEntity
  8
0
  6
Continuous
 62
     7
370
    15
100
AcDbCircle
 10
-0.5677864669
 20
2.2040095748
 30
0.0
 40
0.1250000000000002
  0
CIRCLE
  5
71
330
1F
100
AcDbEntity
  8
0
  6
Continuous
 62
     7
370
    15
100
AcDbCircle
 10
-0.5677864669
 20
1.2040095748
 30
0.0
 40
0.125
  0
CIRCLE
  5
72
330
1F
100
AcDbEntity
  8
0
  6
Continuous
 62
     7
370
    15
100
AcDbCircle
 10
-0.5677864669
 20
0.2040095748
 30
0.0
 40
0.1250000000000001
  0
CIRCLE
  5
73
330
1F
100
AcDbEntity
  8
0
  6
Continuous
 62
     7
370
    15
100
AcDbCircle
 10
1.5
 20
-1.8637768921
 30
0.0
 40
0.1250000000000002
  0
CIRCLE
  5
74
330
1F
100
AcDbEntity
  8
0
  6
Continuous
 62
     7
370
    15
100
AcDbCircle
 10
2.5
 20
-1.8637768921
 30
0.0
 40
0.1249999999999991
  0
CIRCLE
  5
75
330
1F
100
AcDbEntity
  8
0
  6
Continuous
 62
     7
370
    15
100
AcDbCircle
 10
3.5
 20
-1.8637768921
 30
0.0
 40
0.1249999999999996
  0
CIRCLE
  5
76
330
1F
100
AcDbEntity
  8
0
  6
Continuous
 62
     7
370
    15
100
AcDbCircle
 10
4.5
 20
-1.8637768921
 30
0.0
 40
0.125
  0
SPLINE
  5
7D
330
1F
100
AcDbEntity
  8
0
  6
Continuous
 62
     7
370
    15
100
AcDbSpline
210
0.0
220
0.0
230
1.0
 70
     8
 71
     3
 72
    27
 73
    23
 74
     0
 42
0.000000001
 43
0.00000001
 40
0.0
 40
0.0
 40
0.0
 40
0.0
 40
0.0915789761302403
 40
0.181207353573794
 40
0.2697646918973311
 40
0.3584139207591416
 40
0.4019502485403277
 40
0.4439095570665707
 40
0.4850458235871799
 40
0.5257149792934402
 40
0.5682268981510271
 40
0.6116508739312829
 40
0.6575918421597923
 40
0.7060355560801085
 40
0.7543603565062211
 40
0.7986261524468606
 40
0.8397254567797019
 40
0.8774707484263841
 40
0.9116764706150603
 40
0.9435050342092675
 40
0.9724730948860492
 40
1.0
 40
1.0
 40
1.0
 40
1.0
 10
1.678265624745103
 20
2.360101611112955
 30
0.0
 10
1.675879235504857
 20
2.356358185566251
 30
0.0
 10
1.671157286242105
 20
2.348951068067425
 30
0.0
 10
1.665601859933234
 20
2.337080494427409
 30
0.0
 10
1.661453195474484
 20
2.324817973149649
 30
0.0
 10
1.659130757549652
 20
2.314352737117941
 30
0.0
 10
1.658214311279741
 20
2.305950623023828
 30
0.0
 10
1.658423902143795
 20
2.299799214672222
 30
0.0
 10
1.659430396409655
 20
2.293870339491163
 30
0.0
 10
1.661306381079532
 20
2.288124725507661
 30
0.0
 10
1.664029823643905
 20
2.282611961787869
 30
0.0
 10
1.667521207908528
 20
2.277241571646151
 30
0.0
 10
1.671908536542738
 20
2.272189110571964
 30
0.0
 10
1.676912560148609
 20
2.267408448247261
 30
0.0
 10
1.682220942495275
 20
2.263103467265392
 30
0.0
 10
1.687370106291397
 20
2.259172636065343
 30
0.0
 10
1.69237781832739
 20
2.255922691850401
 30
0.0
 10
1.697175970001367
 20
2.253277808816182
 30
0.0
 10
1.7017545269533
 20
2.251179291095314
 30
0.0
 10
1.706141179921625
 20
2.249769705064391
 30
0.0
 10
1.710344609063186
 20
2.248869867748123
 30
0.0
 10
1.713086097472566
 20
2.248815568274759
 30
0.0
 10
1.714421874745103
 20
2.248789111112955
 30
0.0
  0
SPLINE
  5
7F
330
1F
100
AcDbEntity
  8
0
  6
Continuous
 62
     7
370
    15
100
AcDbSpline
210
0.0
220
0.0
230
1.0
 70
     8
 71
     3
 72
    29
 73
    25
 74
     0
 42
0.000000001
 43
0.00000001
 40
0.0
 40
0.0
 40
0.0
 40
0.0
 40
0.0453432678097575
 40
0.0855765156714351
 40
0.1210671837279843
 40
0.1527809303297338
 40
0.2128613790429569
 40
0.2714303714796758
 40
0.3020166885489563
 40
0.337023047837215
 40
0.3780541356903749
 40
0.4262427045224942
 40
0.4527236362135151
 40
0.4795346081368279
 40
0.5068363179705946
 40
0.5352541869627938
 40
0.5649982897364958
 40
0.5957924946465512
 40
0.6284280536023377
 40
0.6624045389652554
 40
0.7359541637839453
 40
0.8167144223025894
 40
0.9047959503250275
 40
1.0
 40
1.0
 40
1.0
 40
1.0
 10
1.763848958078436
 20
2.302820361112954
 30
0.0
 10
1.760836662793213
 20
2.303064146461244
 30
0.0
 10
1.755151546851321
 20
2.303524243443355
 30
0.0
 10
1.74726830177829
 20
2.305266430603152
 30
0.0
 10
1.740423782489244
 20
2.307447308071482
 30
0.0
 10
1.733016332556641
 20
2.311654795477581
 30
0.0
 10
1.725188280014518
 20
2.317899089038441
 30
0.0
 10
1.717468953782525
 20
2.3242200352081
 30
0.0
 10
1.712439360199791
 20
2.330885738899622
 30
0.0
 10
1.709960535207574
 20
2.33762255034285
 30
0.0
 10
1.708545241395689
 20
2.345795364633795
 30
0.0
 10
1.708301920251808
 20
2.353509809132136
 30
0.0
 10
1.708543924963973
 20
2.360271518725634
 30
0.0
 10
1.709492713293599
 20
2.365564961845721
 30
0.0
 10
1.710836692272397
 20
2.370895836241966
 30
0.0
 10
1.712755662666956
 20
2.376261483006056
 30
0.0
 10
1.715207867068198
 20
2.381655913565586
 30
0.0
 10
1.718129899892394
 20
2.387133452140514
 30
0.0
 10
1.721664720606472
 20
2.392577150553972
 30
0.0
 10
1.727194734726052
 20
2.400094583174124
 30
0.0
 10
1.735115657005658
 20
2.409815240090831
 30
0.0
 10
1.745710096433128
 20
2.421985541420635
 30
0.0
 10
1.757539412328922
 20
2.434989038841206
 30
0.0
 10
1.766014467489863
 20
2.443766362935805
 30
0.0
 10
1.770416666411769
 20
2.448325569446288
 30
0.0
  0
SPLINE
  5
83
330
1F
100
AcDbEntity
  8
0
  6
Continuous
 62
     7
370
    15
100
AcDbSpline
210
0.0
220
0.0
230
1.0
 70
     8
 71
     3
 72
    39
 73
    35
 74
     0
 42
0.000000001
 43
0.00000001
 40
0.0
 40
0.0
 40
0.0
 40
0.0
 40
0.015934822318474
 40
0.033424181941066
 40
0.0528528149798839
 40
0.0747232956107743
 40
0.0988888210969848
 40
0.1259363464940955
 40
0.1560141906383388
 40
0.1888356851568882
 40
0.2236018240523877
 40
0.2597763393585261
 40
0.2967759295095987
 40
0.3356881563870909
 40
0.3769494769948925
 40
0.4200769258405792
 40
0.4657040926902691
 40
0.5135309073203569
 40
0.5613577219504446
 40
0.6059545032837931
 40
0.6476921794112349
 40
0.6863184477605204
 40
0.722779833377746
 40
0.7567138282080131
 40
0.7887444263913821
 40
0.8191469205724026
 40
0.8481024980755059
 40
0.8744166067062759
 40
0.8989714374091369
 40
0.9219846771956823
 40
0.9429190176107649
 40
0.9627390189296723
 40
0.9816061025151879
 40
1.0
 40
1.0
 40
1.0
 40
1.0
 10
2.059014458015872
 20
2.187488194508852
 30
0.0
 10
2.059632319073476
 20
2.186718843412204
 30
0.0
 10
2.060928317233411
 20
2.18510508641404
 30
0.0
 10
2.062329468427879
 20
2.182123767012533
 30
0.0
 10
2.063311058042486
 20
2.178621635436039
 30
0.0
 10
2.063989327028535
 20
2.174626667997188
 30
0.0
 10
2.064211316530848
 20
2.170112633788983
 30
0.0
 10
2.06415688349244
 20
2.165089074523741
 30
0.0
 10
2.063630781532604
 20
2.159555330269697
 30
0.0
 10
2.062868013733519
 20
2.153571515024272
 30
0.0
 10
2.061555851558036
 20
2.147286270544355
 30
0.0
 10
2.059419827118389
 20
2.140958783399515
 30
0.0
 10
2.056680570852084
 20
2.134595888128465
 30
0.0
 10
2.053280003138886
 20
2.128197227564155
 30
0.0
 10
2.049121010192939
 20
2.121811985330039
 30
0.0
 10
2.044381620892656
 20
2.115323277119857
 30
0.0
 10
2.038860110833268
 20
2.108938393547847
 30
0.0
 10
2.032869873990514
 20
2.102592089858329
 30
0.0
 10
2.02657998639352
 20
2.096629673621868
 30
0.0
 10
2.020259148381032
 20
2.091270598536721
 30
0.0
 10
2.014142445200501
 20
2.086553258495909
 30
0.0
 10
2.008049737344935
 20
2.08267803345836
 30
0.0
 10
2.002132646908878
 20
2.079442844442404
 30
0.0
 10
1.996252774772595
 20
2.077084357387802
 30
0.0
 10
1.990554600668443
 20
2.075324028246019
 30
0.0
 10
1.984970531420727
 20
2.07441439794623
 30
0.0
 10
1.979690153415091
 20
2.074018256905802
 30
0.0
 10
1.974757183120509
 20
2.074021149449755
 30
0.0
 10
1.970199093269658
 20
2.074325188179171
 30
0.0
 10
1.966023866776338
 20
2.075059683635533
 30
0.0
 10
1.962234285065997
 20
2.076156654444952
 30
0.0
 10
1.958821280590977
 20
2.077556987127946
 30
0.0
 10
1.955775152129873
 20
2.079380589950257
 30
0.0
 10
1.954087266655797
 20
2.080952033925703
 30
0.0
 10
1.953254041349205
 20
2.081727777842185
 30
0.0
  0
SPLINE
  5
85
330
1F
100
AcDbEntity
  8
0
  6
Continuous
 62
     7
370
    15
100
AcDbSpline
210
0.0
220
0.0
230
1.0
 70
     8
 71
     3
 72
    39
 73
    35
 74
     0
 42
0.000000001
 43
0.00000001
 40
0.0
 40
0.0
 40
0.0
 40
0.0
 40
0.0286152694319606
 40
0.0561985566757841
 40
0.0832113003215646
 40
0.1099123178855568
 40
0.1365478601579553
 40
0.1634958859198685
 40
0.1910299561471315
 40
0.2194615752399648
 40
0.2485582340884374
 40
0.2782068997667357
 40
0.3085838412321841
 40
0.3404275875373572
 40
0.3736533158070533
 40
0.4089216635928984
 40
0.4461817771075376
 40
0.4856576412758309
 40
0.5253831035137206
 40
0.563637501110516
 40
0.6000935259236929
 40
0.6354347363439041
 40
0.6697076911525471
 40
0.7029245029760534
 40
0.7357195073981371
 40
0.7680992473180819
 40
0.7995151576341458
 40
0.8295343251679298
 40
0.8583364044307084
 40
0.8865168695126822
 40
0.9142939078784081
 40
0.942100116742418
 40
0.9706127752035617
 40
1.0
 40
1.0
 40
1.0
 40
1.0
 10
1.907144666349205
 20
2.035618402842185
 30
0.0
 10
1.909785062516657
 20
2.033084947816831
 30
0.0
 10
1.914970631501632
 20
2.028109404386551
 30
0.0
 10
1.923426012457139
 20
2.021612917798986
 30
0.0
 10
1.932350777967211
 20
2.016256560949134
 30
0.0
 10
1.94165995629722
 20
2.011868855358011
 30
0.0
 10
1.951418605004417
 20
2.008629608074142
 30
0.0
 10
1.961556012443065
 20
2.0063596041558
 30
0.0
 10
1.972114972702762
 20
2.005255596945879
 30
0.0
 10
1.983001428070852
 20
2.005083341363899
 30
0.0
 10
1.994121142899854
 20
2.006149992872006
 30
0.0
 10
2.005264666471866
 20
2.008632872924838
 30
0.0
 10
2.016406763887272
 20
2.01240503614529
 30
0.0
 10
2.027507832152372
 20
2.017515042961346
 30
0.0
 10
2.038612179697661
 20
2.023961737738963
 30
0.0
 10
2.049722693476781
 20
2.031688621621447
 30
0.0
 10
2.060748168260385
 20
2.040840214118758
 30
0.0
 10
2.071609095098743
 20
2.051032307313995
 30
0.0
 10
2.081888024694805
 20
2.061986856656417
 30
0.0
 10
2.091241718199848
 20
2.073246271637708
 30
0.0
 10
2.099421888346298
 20
2.084702766352165
 30
0.0
 10
2.106526088362831
 20
2.096267659115542
 30
0.0
 10
2.112339593669926
 20
2.108075801933112
 30
0.0
 10
2.117052122837846
 20
2.120008526464708
 30
0.0
 10
2.120693444116684
 20
2.132067328372786
 30
0.0
 10
2.123008563389319
 20
2.144211324399679
 30
0.0
 10
2.124296717858423
 20
2.156151791721288
 30
0.0
 10
2.124222892821959
 20
2.167708781348705
 30
0.0
 10
2.122973687597642
 20
2.178783929163759
 30
0.0
 10
2.120378210136982
 20
2.189331855401678
 30
0.0
 10
2.116569188820185
 20
2.199367833588689
 30
0.0
 10
2.111490405177202
 20
2.208868721208989
 30
0.0
 10
2.105190230564747
 20
2.217877259004894
 30
0.0
 10
2.100115958602871
 20
2.223274734517053
 30
0.0
 10
2.097540499682538
 20
2.226014236175518
 30
0.0
  0
SPLINE
  5
87
330
1F
100
AcDbEntity
  8
0
  6
Continuous
 62
     7
370
    15
100
AcDbSpline
210
0.0
220
0.0
230
1.0
 70
     8
 71
     3
 72
    27
 73
    23
 74
     0
 42
0.000000001
 43
0.00000001
 40
0.0
 40
0.0
 40
0.0
 40
0.0
 40
0.0656529309108499
 40
0.1250257566231216
 40
0.1779249193780849
 40
0.2246848463228709
 40
0.265369911300967
 40
0.3001118535207775
 40
0.3289644407538346
 40
0.3528197769137232
 40
0.395015824295391
 40
0.4373441825762667
 40
0.4803144335345239
 40
0.5251877273207257
 40
0.5732341716849516
 40
0.6256877132111317
 40
0.6836557414776749
 40
0.74729489196745
 40
0.8129566942966109
 40
0.8763730426650443
 40
0.9382675599053794
 40
1.0
 40
1.0
 40
1.0
 40
1.0
 10
2.323801407500718
 20
1.93312832835734
 30
0.0
 10
2.326930075035368
 20
1.936138303239033
 30
0.0
 10
2.332888133880798
 20
1.941870330458218
 30
0.0
 10
2.34114902112274
 20
1.950249492318581
 30
0.0
 10
2.348309797335898
 20
1.957955270693744
 30
0.0
 10
2.354272836008111
 20
1.965070860160441
 30
0.0
 10
2.359182602155374
 20
1.971492315935477
 30
0.0
 10
2.363025316844384
 20
1.97722375689931
 30
0.0
 10
2.365776081478195
 20
1.982330860882989
 30
0.0
 10
2.36784378232188
 20
1.988282646830049
 30
0.0
 10
2.368867619876408
 20
1.995421037656984
 30
0.0
 10
2.36901686423566
 20
2.003864859312473
 30
0.0
 10
2.368000053776362
 20
2.012445591269788
 30
0.0
 10
2.365625590768376
 20
2.021139640769762
 30
0.0
 10
2.361936307988969
 20
2.030049328710223
 30
0.0
 10
2.356571747774534
 20
2.03907985979592
 30
0.0
 10
2.349851687168962
 20
2.048440193230183
 30
0.0
 10
2.341714827155561
 20
2.057793444462102
 30
0.0
 10
2.33256411137755
 20
2.066703999764315
 30
0.0
 10
2.322395394810627
 20
2.074239653040166
 30
0.0
 10
2.311631890132114
 20
2.080439332949917
 30
0.0
 10
2.303942930478997
 20
2.083254059940626
 30
0.0
 10
2.300103490834051
 20
2.08465957835734
 30
0.0
  0
SPLINE
  5
89
330
1F
100
AcDbEntity
  8
0
  6
Continuous
 62
     7
370
    15
100
AcDbSpline
210
0.0
220
0.0
230
1.0
 70
     8
 71
     3
 72
    23
 73
    19
 74
     0
 42
0.000000001
 43
0.00000001
 40
0.0
 40
0.0
 40
0.0
 40
0.0
 40
0.0788881893618808
 40
0.1575312060930303
 40
0.2373441831934495
 40
0.3179276976510377
 40
0.3925626183571551
 40
0.4553278850454126
 40
0.5119145397133905
 40
0.5668340015545297
 40
0.5984170081680645
 40
0.6356498502786636
 40
0.6792413533363466
 40
0.7300499866609133
 40
0.7872070948635015
 40
0.8512716510084879
 40
0.921849635956473
 40
1.0
 40
1.0
 40
1.0
 40
1.0
 10
2.266249324167384
 20
2.05134707835734
 30
0.0
 10
2.26857326977702
 20
2.050471549954625
 30
0.0
 10
2.27321393852277
 20
2.048723214159824
 30
0.0
 10
2.279811758181959
 20
2.045191169953614
 30
0.0
 10
2.286114034242563
 20
2.041078610175114
 30
0.0
 10
2.291875300959064
 20
2.036418569631037
 30
0.0
 10
2.296643787517952
 20
2.031470174222157
 30
0.0
 10
2.300000364211278
 20
2.026271530387199
 30
0.0
 10
2.301208401374595
 20
2.020811928769849
 30
0.0
 10
2.300685663166194
 20
2.016245562972588
 30
0.0
 10
2.299191042246564
 20
2.012638377290071
 30
0.0
 10
2.297554037647272
 20
2.009500652424077
 30
0.0
 10
2.295265925947249
 20
2.00604350288244
 30
0.0
 10
2.292424652665799
 20
2.002215747345705
 30
0.0
 10
2.289030409319426
 20
1.997999475671479
 30
0.0
 10
2.285018681838208
 20
1.993492735131944
 30
0.0
 10
2.280463358351263
 20
1.98858902278724
 30
0.0
 10
2.277181915094257
 20
1.9852551404414
 30
0.0
 10
2.275457657500718
 20
1.98350332835734
 30
0.0
  0
SPLINE
  5
8B
330
1F
100
AcDbEntity
  8
0
  6
Continuous
 62
     7
370
    15
100
AcDbSpline
210
0.0
220
0.0
230
1.0
 70
     8
 71
     3
 72
    19
 73
    15
 74
     0
 42
0.000000001
 43
0.00000001
 40
0.0
 40
0.0
 40
0.0
 40
0.0
 40
0.1465907479648426
 40
0.268985385428807
 40
0.3667939181481406
 40
0.4413828896327382
 40
0.4771799911440234
 40
0.5225506912360214
 40
0.577586346161162
 40
0.6423374166944904
 40
0.717608024800344
 40
0.8018714307810894
 40
0.8961666634282134
 40
1.0
 40
1.0
 40
1.0
 40
1.0
 10
2.121962865834051
 20
1.830008536690673
 30
0.0
 10
2.124922353190597
 20
1.828208747226134
 30
0.0
 10
2.130352838117677
 20
1.824906239601808
 30
0.0
 10
2.137718148717818
 20
1.820323451404034
 30
0.0
 10
2.143348677853568
 20
1.816223089271936
 30
0.0
 10
2.147223060147534
 20
1.81316731559257
 30
0.0
 10
2.149758467855591
 20
1.810492211137259
 30
0.0
 10
2.151848221186428
 20
1.808043510336748
 30
0.0
 10
2.15427661021827
 20
1.804987135959113
 30
0.0
 10
2.157071845053947
 20
1.801320745600764
 30
0.0
 10
2.160130641947737
 20
1.796991516764624
 30
0.0
 10
2.163642041932508
 20
1.792127010583854
 30
0.0
 10
2.167298662887194
 20
1.78654275673406
 30
0.0
 10
2.169938683785407
 20
1.782675747250052
 30
0.0
 10
2.171322240834051
 20
1.780649161690673
 30
0.0
  0
SPLINE
  5
8E
330
1F
100
AcDbEntity
  8
0
  6
Continuous
 62
     7
370
    15
100
AcDbSpline
210
0.0
220
0.0
230
1.0
 70
     8
 71
     3
 72
    19
 73
    15
 74
     0
 42
0.000000001
 43
0.00000001
 40
0.0
 40
0.0
 40
0.0
 40
0.0
 40
0.0900305048712336
 40
0.1752206559610115
 40
0.2562960576151054
 40
0.3340700763859183
 40
0.4071913497828955
 40
0.4777021070656793
 40
0.5463967262855943
 40
0.6129441059711577
 40
0.7347010981845201
 40
0.8391620625692335
 40
0.9253241948793146
 40
1.0
 40
1.0
 40
1.0
 40
1.0
 10
2.494159267097978
 20
1.600135052093412
 30
0.0
 10
2.492297667590272
 20
1.598964759068111
 30
0.0
 10
2.488674554653791
 20
1.596687092050103
 30
0.0
 10
2.48318113171446
 20
1.593675523695048
 30
0.0
 10
2.477738873766715
 20
1.591230571754341
 30
0.0
 10
2.472415429894688
 20
1.589286408693256
 30
0.0
 10
2.467228497387211
 20
1.587730730060869
 30
0.0
 10
2.462119099649836
 20
1.586807793292024
 30
0.0
 10
2.457110981583799
 20
1.586283972301935
 30
0.0
 10
2.450828870384289
 20
1.586452805360138
 30
0.0
 10
2.443693399950572
 20
1.587160912727139
 30
0.0
 10
2.436263190538787
 20
1.588884775543121
 30
0.0
 10
2.430112521141284
 20
1.591185556938339
 30
0.0
 10
2.427057060437599
 20
1.593690688818715
 30
0.0
 10
2.425638433764645
 20
1.594853802093412
 30
0.0
  0
SPLINE
  5
90
330
1F
100
AcDbEntity
  8
0
  6
Continuous
 62
     7
370
    15
100
AcDbSpline
210
0.0
220
0.0
230
1.0
 70
     8
 71
     3
 72
    31
 73
    27
 74
     0
 42
0.000000001
 43
0.00000001
 40
0.0
 40
0.0
 40
0.0
 40
0.0
 40
0.0407611802109389
 40
0.0816332678582455
 40
0.1233114697344421
 40
0.1657964733838004
 40
0.2103501681682071
 40
0.2573609868165037
 40
0.306591924756466
 40
0.3590729670761325
 40
0.3864237435740744
 40
0.4151291993203575
 40
0.4449921034214204
 40
0.4762691912741271
 40
0.5090048428148215
 40
0.5436158599252193
 40
0.58004923661199
 40
0.6182432582277015
 40
0.6584579778616666
 40
0.7008509806733211
 40
0.7449322486656643
 40
0.7914943616669873
 40
0.8403572665776916
 40
0.8912831225752187
 40
0.9445698760641686
 40
1.0
 40
1.0
 40
1.0
 40
1.0
 10
2.386503017097978
 20
1.555041302093412
 30
0.0
 10
2.388514702155876
 20
1.553184872800819
 30
0.0
 10
2.392543545882382
 20
1.549466963041634
 30
0.0
 10
2.399395167183914
 20
1.544775540357602
 30
0.0
 10
2.406867340974817
 20
1.540924031191853
 30
0.0
 10
2.414959284143271
 20
1.53786030077716
 30
0.0
 10
2.42366814320698
 20
1.535555030363043
 30
0.0
 10
2.4330163743972
 20
1.534089363335926
 30
0.0
 10
2.442983289518677
 20
1.533463238306458
 30
0.0
 10
2.451649789564902
 20
1.53346604993821
 30
0.0
 10
2.458918721710544
 20
1.534031132463294
 30
0.0
 10
2.464592530888333
 20
1.535092337965233
 30
0.0
 10
2.470442092430164
 20
1.536566105268598
 30
0.0
 10
2.476399034035513
 20
1.538631977483669
 30
0.0
 10
2.482513919974869
 20
1.541163772332605
 30
0.0
 10
2.488820503017994
 20
1.544124459287143
 30
0.0
 10
2.495232888269038
 20
1.547680046667383
 30
0.0
 10
2.501829890943079
 20
1.551665663503316
 30
0.0
 10
2.508516519817245
 20
1.556249968193549
 30
0.0
 10
2.515412988964967
 20
1.561219723498357
 30
0.0
 10
2.522419295643765
 20
1.566753829765324
 30
0.0
 10
2.529568391581435
 20
1.572794633951835
 30
0.0
 10
2.53697047839506
 20
1.579248863973741
 30
0.0
 10
2.544388813657754
 20
1.586353400067144
 30
0.0
 10
2.552055061262953
 20
1.593833410965467
 30
0.0
 10
2.557119030611658
 20
1.599083337340935
 30
0.0
 10
2.559700933764645
 20
1.601760052093412
 30
0.0
  0
SPLINE
  5
95
330
1F
100
AcDbEntity
  8
0
  6
Continuous
 62
     7
370
    15
100
AcDbSpline
210
0.0
220
0.0
230
1.0
 70
     8
 71
     3
 72
    39
 73
    35
 74
     0
 42
0.000000001
 43
0.00000001
 40
0.0
 40
0.0
 40
0.0
 40
0.0
 40
0.0656565064664209
 40
0.1275678995644671
 40
0.1857350643221008
 40
0.2401590684303703
 40
0.2906252544176888
 40
0.337579569447259
 40
0.3805703924538283
 40
0.4200581794466682
 40
0.4558185792262016
 40
0.4876551845548645
 40
0.5157825245719753
 40
0.5404607625574854
 40
0.5610348105664469
 40
0.5784082924329057
 40
0.5920648168866897
 40
0.6023140208219439
 40
0.6193716974014626
 40
0.6362001707329322
 40
0.6528575861430687
 40
0.6697206385657938
 40
0.6874371968201635
 40
0.7063003153520162
 40
0.726117217606354
 40
0.7477269327677487
 40
0.7705067564904674
 40
0.7951456226608825
 40
0.8220449899492506
 40
0.8517045407642043
 40
0.8838219846223663
 40
0.919271537057699
 40
0.9581535465362983
 40
1.0
 40
1.0
 40
1.0
 40
1.0
 10
2.944053784497775
 20
1.099459284693614
 30
0.0
 10
2.947414167759506
 20
1.102824599507844
 30
0.0
 10
2.953943254631495
 20
1.109363268184101
 30
0.0
 10
2.963490039630557
 20
1.118842686381091
 30
0.0
 10
2.972496145324376
 20
1.127711716006072
 30
0.0
 10
2.980939121471464
 20
1.1359709610119
 30
0.0
 10
2.988876232469058
 20
1.143585717363196
 30
0.0
 10
2.996323262009999
 20
1.150512731231975
 30
0.0
 10
3.003157760649275
 20
1.15693102625287
 30
0.0
 10
3.009525454018353
 20
1.162658854882711
 30
0.0
 10
3.015316615601477
 20
1.167819804441524
 30
0.0
 10
3.020619746640408
 20
1.17228754358609
 30
0.0
 10
3.02535797174494
 20
1.176178966655963
 30
0.0
 10
3.029581151207635
 20
1.179409108691841
 30
0.0
 10
3.033291912723763
 20
1.182019147942225
 30
0.0
 10
3.036418707847871
 20
1.184070940560264
 30
0.0
 10
3.039067827263471
 20
1.185473219571601
 30
0.0
 10
3.041869508146034
 20
1.186484661999895
 30
0.0
 10
3.045054760092882
 20
1.186941301986602
 30
0.0
 10
3.04872201312001
 20
1.187034947626346
 30
0.0
 10
3.052353971103333
 20
1.18655186807504
 30
0.0
 10
3.055927879836365
 20
1.185507218337101
 30
0.0
 10
3.059473005514084
 20
1.183925296284252
 30
0.0
 10
3.062978302940114
 20
1.181811250574844
 30
0.0
 10
3.066482350067846
 20
1.179194828889078
 30
0.0
 10
3.069922001108921
 20
1.176049925525852
 30
0.0
 10
3.07315306966698
 20
1.17221064594494
 30
0.0
 10
3.075982496141362
 20
1.167613321946515
 30
0.0
 10
3.078506979770205
 20
1.162287989933442
 30
0.0
 10
3.080558667991781
 20
1.156188119178388
 30
0.0
 10
3.082238518561838
 20
1.14934368588107
 30
0.0
 10
3.083590528255753
 20
1.141746798143971
 30
0.0
 10
3.084504743784148
 20
1.133375580363361
 30
0.0
 10
3.084845763379858
 20
1.127537565065496
 30
0.0
 10
3.085022534497776
 20
1.124511368026947
 30
0.0
  0
SPLINE
  5
97
330
1F
100
AcDbEntity
  8
0
  6
Continuous
 62
     7
370
    15
100
AcDbSpline
210
0.0
220
0.0
230
1.0
 70
     8
 71
     3
 72
    39
 73
    35
 74
     0
 42
0.000000001
 43
0.00000001
 40
0.0
 40
0.0
 40
0.0
 40
0.0
 40
0.0339184147848464
 40
0.0669028998030426
 40
0.0995252404356326
 40
0.1319646556415345
 40
0.16480023174814
 40
0.1983952455510762
 40
0.2332194138035114
 40
0.2691693950039813
 40
0.3043143687296115
 40
0.3365155144102354
 40
0.3658906542447747
 40
0.3934743706987786
 40
0.4196550358254184
 40
0.4454051475422577
 40
0.4717922380986017
 40
0.4992591159712972
 40
0.5146190877542224
 40
0.5319139259447121
 40
0.551176459232641
 40
0.5727227823325175
 40
0.5964079479687746
 40
0.6222818060390772
 40
0.6500300045718854
 40
0.6802748207391053
 40
0.712553325825834
 40
0.7470422894932632
 40
0.7837432982449737
 40
0.8225004967957443
 40
0.8637700518645927
 40
0.9069600643632794
 40
0.9523689827843412
 40
1.0
 40
1.0
 40
1.0
 40
1.0
 10
3.121246492831109
 20
1.160735326360281
 30
0.0
 10
3.121168662360311
 20
1.164397394785909
 30
0.0
 10
3.121015144449101
 20
1.171620698071332
 30
0.0
 10
3.119395016253858
 20
1.182265110429617
 30
0.0
 10
3.116770934092352
 20
1.19253101057993
 30
0.0
 10
3.113005179696592
 20
1.202424437655665
 30
0.0
 10
3.108160895998667
 20
1.211949087845791
 30
0.0
 10
3.102234403724277
 20
1.221151238092614
 30
0.0
 10
3.095153765892848
 20
1.22993098707858
 30
0.0
 10
3.087231970919823
 20
1.238184882736978
 30
0.0
 10
3.07883595971732
 20
1.245543049749448
 30
0.0
 10
3.070226263648513
 20
1.251489514388821
 30
0.0
 10
3.06166042956836
 20
1.255918707508793
 30
0.0
 10
3.053146175280095
 20
1.258897049703793
 30
0.0
 10
3.044589029353735
 20
1.260027697040778
 30
0.0
 10
3.036102848566423
 20
1.259710117582375
 30
0.0
 10
3.027683588976697
 20
1.257768519767483
 30
0.0
 10
3.020785666001292
 20
1.254813662052425
 30
0.0
 10
3.015151942999017
 20
1.251592774699276
 30
0.0
 10
3.010412110884368
 20
1.24860437167678
 30
0.0
 10
3.005244712918159
 20
1.245052640764685
 30
0.0
 10
2.999632584711138
 20
1.2409356134362
 30
0.0
 10
2.993630466377231
 20
1.236155884992685
 30
0.0
 10
2.987133467098076
 20
1.230923864214843
 30
0.0
 10
2.980276101974378
 20
1.225018559895972
 30
0.0
 10
2.972899346513743
 20
1.218657566707075
 30
0.0
 10
2.965204661671276
 20
1.211559648928988
 30
0.0
 10
2.957010635805937
 20
1.203978249589546
 30
0.0
 10
2.948325819745665
 20
1.19589605737339
 30
0.0
 10
2.939329658898679
 20
1.187081064343378
 30
0.0
 10
2.929794275314543
 20
1.177816748725142
 30
0.0
 10
2.919921606559173
 20
1.167872634300806
 30
0.0
 10
2.909531337707963
 20
1.157475640723172
 30
0.0
 10
2.902539465183262
 20
1.150272084882827
 30
0.0
 10
2.898960034497776
 20
1.146584284693614
 30
0.0
  0
SPLINE
  5
9A
330
1F
100
AcDbEntity
  8
0
  6
Continuous
 62
     7
370
    15
100
AcDbSpline
210
0.0
220
0.0
230
1.0
 70
     8
 71
     3
 72
    19
 73
    15
 74
     0
 42
0.000000001
 43
0.00000001
 40
0.0
 40
0.0
 40
0.0
 40
0.0
 40
0.0708083635282535
 40
0.1382747391072228
 40
0.2028348709564738
 40
0.2651328493494955
 40
0.3255239880686232
 40
0.384654122764034
 40
0.4430679660405887
 40
0.5014322757340618
 40
0.619683033921111
 40
0.741946189759566
 40
0.8683448615299333
 40
1.0
 40
1.0
 40
1.0
 40
1.0
 10
2.838022534497776
 20
1.144282201360281
 30
0.0
 10
2.839438946024809
 20
1.141843434103944
 30
0.0
 10
2.842204917791559
 20
1.137081003660559
 30
0.0
 10
2.845596491434102
 20
1.129737517993453
 30
0.0
 10
2.848243064922047
 20
1.122460862800455
 30
0.0
 10
2.850251349746777
 20
1.115269890699847
 30
0.0
 10
2.851457207723196
 20
1.108120510734079
 30
0.0
 10
2.852027972033837
 20
1.101049900858769
 30
0.0
 10
2.85183806250922
 20
1.09403108269005
 30
0.0
 10
2.850471161033076
 20
1.084762008917906
 30
0.0
 10
2.847683005382323
 20
1.073169423077192
 30
0.0
 10
2.842879750102963
 20
1.059357822088681
 30
0.0
 10
2.836814312662378
 20
1.045456548247068
 30
0.0
 10
2.831741046333945
 20
1.036515608272302
 30
0.0
 10
2.829152742831109
 20
1.031954076360281
 30
0.0
  0
SPLINE
  5
9F
330
1F
100
AcDbEntity
  8
0
  6
Continuous
 62
     7
370
    15
100
AcDbSpline
210
0.0
220
0.0
230
1.0
 70
     8
 71
     3
 72
    23
 73
    19
 74
     0
 42
0.000000001
 43
0.00000001
 40
0.0
 40
0.0
 40
0.0
 40
0.0
 40
0.0937157879188816
 40
0.1832477386637293
 40
0.2685759703320199
 40
0.3494910829288076
 40
0.4270412228367358
 40
0.500526324849572
 40
0.5708612176236187
 40
0.6378516934753734
 40
0.7000163502938117
 40
0.7564570771550952
 40
0.8070313772935197
 40
0.8522420625982899
 40
0.8927919620104545
 40
0.9303043228837926
 40
0.9652331656884194
 40
1.0
 40
1.0
 40
1.0
 40
1.0
 10
3.281700137478222
 20
0.8211254317131688
 30
0.0
 10
3.279027687190162
 20
0.8181735088738532
 30
0.0
 10
3.273802095186368
 20
0.8124014485089277
 30
0.0
 10
3.266678261728813
 20
0.803483657807127
 30
0.0
 10
3.260085998234151
 20
0.7948461824342337
 30
0.0
 10
3.254143300747217
 20
0.7863590588325057
 30
0.0
 10
3.248947219018044
 20
0.7779811677157569
 30
0.0
 10
3.244394820003714
 20
0.7697505795954404
 30
0.0
 10
3.240412217943561
 20
0.7617213482976489
 30
0.0
 10
3.237289879425038
 20
0.75383604471913
 30
0.0
 10
3.234754220367758
 20
0.7463660331720451
 30
0.0
 10
3.232973731603247
 20
0.7393955121045596
 30
0.0
 10
3.2319129912494
 20
0.73300506816575
 30
0.0
 10
3.231609369464048
 20
0.7272110271923891
 30
0.0
 10
3.232019621365631
 20
0.7219612285527192
 30
0.0
 10
3.233337693990456
 20
0.7173270999820597
 30
0.0
 10
3.235272516886579
 20
0.713149297176679
 30
0.0
 10
3.237246626895664
 20
0.7109233287703266
 30
0.0
 10
3.238231387478222
 20
0.7098129317131686
 30
0.0
  0
SPLINE
  5
A0
330
1F
100
AcDbEntity
  8
0
  6
Continuous
 62
     7
370
    15
100
AcDbSpline
210
0.0
220
0.0
230
1.0
 70
     8
 71
     3
 72
    19
 73
    15
 74
     0
 42
0.000000001
 43
0.00000001
 40
0.0
 40
0.0
 40
0.0
 40
0.0
 40
0.0084625036569954
 40
0.0264141848220239
 40
0.0525830321482459
 40
0.0872818770776023
 40
0.1307012012479237
 40
0.1834308163917467
 40
0.244871448678727
 40
0.314719151431597
 40
0.4685645818863294
 40
0.6323801617711426
 40
0.8086182767149027
 40
1.0
 40
1.0
 40
1.0
 40
1.0
 10
3.281090762478222
 20
0.7506410567131686
 30
0.0
 10
3.280996615083764
 20
0.7508199162886595
 30
0.0
 10
3.280702750906151
 20
0.7513781943202803
 30
0.0
 10
3.280342903207554
 20
0.7525882445789249
 30
0.0
 10
3.279960437232742
 20
0.7544271256022178
 30
0.0
 10
3.279506305307182
 20
0.7568738964970925
 30
0.0
 10
3.278844746569606
 20
0.759925163262978
 30
0.0
 10
3.278307399913786
 20
0.7636475975076235
 30
0.0
 10
3.277510816582569
 20
0.767964812094359
 30
0.0
 10
3.276501822504056
 20
0.7746908787327235
 30
0.0
 10
3.275593845158157
 20
0.7839123839315113
 30
0.0
 10
3.276160158931351
 20
0.795716016772815
 30
0.0
 10
3.27815180715334
 20
0.8082627323570174
 30
0.0
 10
3.280485318738679
 20
0.8167217131220946
 30
0.0
 10
3.281700137478222
 20
0.8211254317131685
 30
0.0
  0
SPLINE
  5
A2
330
1F
100
AcDbEntity
  8
0
  6
Continuous
 62
     7
370
    15
100
AcDbSpline
210
0.0
220
0.0
230
1.0
 70
     8
 71
     3
 72
    31
 73
    27
 74
     0
 42
0.000000001
 43
0.00000001
 40
0.0
 40
0.0
 40
0.0
 40
0.0
 40
0.0383436179997906
 40
0.0849063787193848
 40
0.1404259763182404
 40
0.2068956478643521
 40
0.2426365990726369
 40
0.2777502757103164
 40
0.312080649128895
 40
0.3470333760576551
 40
0.3825757993566778
 40
0.4191121789556831
 40
0.456642703902423
 40
0.4962458695934087
 40
0.5358490352843983
 40
0.5730927135787417
 40
0.6096290931777444
 40
0.6447490665386255
 40
0.6791019759575608
 40
0.7133259083511283
 40
0.7474463080971253
 40
0.7827139308185616
 40
0.8488751722217988
 40
0.9062554005052343
 40
0.9557754073366027
 40
0.9999999999999999
 40
0.9999999999999999
 40
0.9999999999999999
 40
0.9999999999999999
 10
3.389085554144888
 20
0.8613441817131686
 30
0.0
 10
3.387593378692907
 20
0.8624381927943585
 30
0.0
 10
3.384289172656784
 20
0.8648607216017138
 30
0.0
 10
3.377789255882345
 20
0.8669602737265384
 30
0.0
 10
3.369834061566635
 20
0.8684231215108283
 30
0.0
 10
3.36226147741548
 20
0.8688846471370719
 30
0.0
 10
3.35565990543134
 20
0.8689219081053823
 30
0.0
 10
3.350649376295453
 20
0.8681921047833826
 30
0.0
 10
3.345765518884736
 20
0.8670464468067558
 30
0.0
 10
3.341017480531558
 20
0.8653457777602809
 30
0.0
 10
3.336392816986184
 20
0.8630900399794642
 30
0.0
 10
3.331909527307591
 20
0.8603165616420672
 30
0.0
 10
3.327621145888236
 20
0.8569303000809056
 30
0.0
 10
3.323488527920255
 20
0.8531400470942512
 30
0.0
 10
3.319691625547581
 20
0.8490281216303849
 30
0.0
 10
3.316382589395192
 20
0.8446969501178453
 30
0.0
 10
3.313624723349364
 20
0.8402491010335768
 30
0.0
 10
3.311336221552664
 20
0.8356929725433658
 30
0.0
 10
3.3097076152335
 20
0.8309734511501312
 30
0.0
 10
3.308652727621175
 20
0.826153565670531
 30
0.0
 10
3.307975968804743
 20
0.8212130121192422
 30
0.0
 10
3.30808371087296
 20
0.8146941059118453
 30
0.0
 10
3.308821623692334
 20
0.8070936837059116
 30
0.0
 10
3.310562963638733
 20
0.7989582861367729
 30
0.0
 10
3.313263032525441
 20
0.7921361289138714
 30
0.0
 10
3.316015994180997
 20
0.7885546158915918
 30
0.0
 10
3.317314720811556
 20
0.7868650150465022
 30
0.0
  0
SPLINE
  5
A4
330
1F
100
AcDbEntity
  8
0
  6
Continuous
 62
     7
370
    15
100
AcDbSpline
210
0.0
220
0.0
230
1.0
 70
     8
 71
     3
 72
    43
 73
    39
 74
     0
 42
0.000000001
 43
0.00000001
 40
0.0
 40
0.0
 40
0.0
 40
0.0
 40
0.0139454746780316
 40
0.0321595798390341
 40
0.054848566387064
 40
0.0822023881473315
 40
0.111639624158224
 40
0.1408057870117716
 40
0.1698122234762784
 40
0.1993933539015328
 40
0.2296626697447965
 40
0.2611196402017668
 40
0.2941155093651105
 40
0.3290541623902515
 40
0.3481224653193795
 40
0.3695261038140288
 40
0.3931735230488472
 40
0.4189941426667668
 40
0.4472127293243949
 40
0.4777461885745899
 40
0.5106138767187502
 40
0.545928687593337
 40
0.5814838651210874
 40
0.6156007256505366
 40
0.6483584174596084
 40
0.679772481192777
 40
0.7102359174641457
 40
0.7398187365992502
 40
0.76893046773061
 40
0.7977260272068796
 40
0.8256711046982896
 40
0.852222850219983
 40
0.8776521112299451
 40
0.9021493332419095
 40
0.9264000985759786
 40
0.9505740089766311
 40
0.9749034398220459
 40
1.0
 40
1.0
 40
1.0
 40
1.0
 10
3.196726179144889
 20
0.6676306400465021
 30
0.0
 10
3.195440134033793
 20
0.6691560571899432
 30
0.0
 10
3.192474392717576
 20
0.672673812988504
 30
0.0
 10
3.188633274053473
 20
0.6795406988671454
 30
0.0
 10
3.184364595727394
 20
0.6882982090392471
 30
0.0
 10
3.180054459232335
 20
0.6988071516928367
 30
0.0
 10
3.176082110292576
 20
0.7104443645038622
 30
0.0
 10
3.173670960295604
 20
0.722759517791525
 30
0.0
 10
3.172707536662735
 20
0.7352806986612304
 30
0.0
 10
3.173258481934252
 20
0.7479893450035187
 30
0.0
 10
3.175373459050371
 20
0.760886706920899
 30
0.0
 10
3.179196259668615
 20
0.7739022961254912
 30
0.0
 10
3.184882225912193
 20
0.7869337525289704
 30
0.0
 10
3.190803238844584
 20
0.7978802785424789
 30
0.0
 10
3.196731755977318
 20
0.8068763275999791
 30
0.0
 10
3.202076651641779
 20
0.8143141729119766
 30
0.0
 10
3.208333634962548
 20
0.8222715768676317
 30
0.0
 10
3.215378632459914
 20
0.8308434331479675
 30
0.0
 10
3.223386593839333
 20
0.8398874934885567
 30
0.0
 10
3.232283094426148
 20
0.8494814241951801
 30
0.0
 10
3.241959244701088
 20
0.859733805698598
 30
0.0
 10
3.252342664264948
 20
0.8703027587531614
 30
0.0
 10
3.263231890949359
 20
0.880615386555706
 30
0.0
 10
3.274451589823835
 20
0.8900241788518275
 30
0.0
 10
3.285927598506081
 20
0.898125216673695
 30
0.0
 10
3.297454745168538
 20
0.9052111861683968
 30
0.0
 10
3.309218926767436
 20
0.910920497705232
 30
0.0
 10
3.321036841059646
 20
0.9156986657904211
 30
0.0
 10
3.333072661547526
 20
0.9191372249828011
 30
0.0
 10
3.345131401052505
 20
0.9214222123079991
 30
0.0
 10
3.356986758278758
 20
0.9226200156022827
 30
0.0
 10
3.368417926908687
 20
0.9225258542091881
 30
0.0
 10
3.379307835069811
 20
0.9214481434496746
 30
0.0
 10
3.389656551133873
 20
0.9190474778535956
 30
0.0
 10
3.399452715027895
 20
0.91543790112065
 30
0.0
 10
3.408712228950827
 20
0.9106739553308348
 30
0.0
 10
3.417426471830022
 20
0.9047323989675847
 30
0.0
 10
3.422654783126856
 20
0.8999808091278069
 30
0.0
 10
3.425309512478222
 20
0.8975681400465019
 30
0.0
  0
SPLINE
  5
A5
330
1F
100
AcDbEntity
  8
0
  6
Continuous
 62
     7
370
    15
100
AcDbSpline
210
0.0
220
0.0
230
1.0
 70
     8
 71
     3
 72
    39
 73
    35
 74
     0
 42
0.000000001
 43
0.00000001
 40
0.0
 40
0.0
 40
0.0
 40
0.0
 40
0.0235693345207607
 40
0.0477369941937359
 40
0.0728238948545991
 40
0.0995530809972339
 40
0.1280035196105194
 40
0.1584052689093648
 40
0.1909470282544317
 40
0.2257749755731094
 40
0.2612843742100496
 40
0.295776168052594
 40
0.3298160378258576
 40
0.3638378502694465
 40
0.3980505854951893
 40
0.4329990097531284
 40
0.4686079482661581
 40
0.5056414375984433
 40
0.5423495976356547
 40
0.5772191600548294
 40
0.6103032694665669
 40
0.64204897833958
 40
0.6725612930251608
 40
0.7024419357178774
 40
0.7317133922759296
 40
0.7610485992160755
 40
0.7901245847625502
 40
0.8188159143641685
 40
0.8474806735492483
 40
0.876182281869707
 40
0.9057312150399079
 40
0.9359326010935032
 40
0.9672024289366705
 40
1.0
 40
1.0
 40
1.0
 40
1.0
 10
3.448668887478222
 20
0.8735316817131686
 30
0.0
 10
3.450304277635652
 20
0.8717703547353572
 30
0.0
 10
3.453616573550539
 20
0.8682029881795048
 30
0.0
 10
3.457627058632495
 20
0.8619305425606087
 30
0.0
 10
3.461135782907386
 20
0.8550260701540906
 30
0.0
 10
3.463944499965165
 20
0.8473340298825104
 30
0.0
 10
3.466169663855343
 20
0.8389012777253393
 30
0.0
 10
3.467770421406481
 20
0.8297269328052221
 30
0.0
 10
3.468778970969355
 20
0.8198176025407207
 30
0.0
 10
3.469103618537209
 20
0.8093433873938849
 30
0.0
 10
3.468704482818563
 20
0.798665309312521
 30
0.0
 10
3.467192554152552
 20
0.7881651335764764
 30
0.0
 10
3.464708935844359
 20
0.7780038345549825
 30
0.0
 10
3.461055440052058
 20
0.7682359602276615
 30
0.0
 10
3.456529073333532
 20
0.7587385941317277
 30
0.0
 10
3.450857744646199
 20
0.7496842502951285
 30
0.0
 10
3.444252751878849
 20
0.7409282581276154
 30
0.0
 10
3.43666226241263
 20
0.732766389876013
 30
0.0
 10
3.428594102772817
 20
0.725194970466986
 30
0.0
 10
3.420257052450868
 20
0.7185433531819101
 30
0.0
 10
3.411832948522923
 20
0.7128614116491218
 30
0.0
 10
3.403283283294066
 20
0.7082318173435161
 30
0.0
 10
3.39461389641694
 20
0.7046196735457222
 30
0.0
 10
3.385873456673978
 20
0.7019182280251088
 30
0.0
 10
3.3769767579981
 20
0.7003913441620407
 30
0.0
 10
3.368056573629697
 20
0.6997446624044379
 30
0.0
 10
3.359183938124832
 20
0.700194622127324
 30
0.0
 10
3.35046059939829
 20
0.701451151073585
 30
0.0
 10
3.341978231400478
 20
0.7037136934743617
 30
0.0
 10
3.333692889357645
 20
0.7068596954113628
 30
0.0
 10
3.325648172415989
 20
0.7109379289329224
 30
0.0
 10
3.317810548777733
 20
0.7159059018087295
 30
0.0
 10
3.310260224528766
 20
0.7218567932638397
 30
0.0
 10
3.305521719980518
 20
0.7263405238473615
 30
0.0
 10
3.303095970811555
 20
0.7286358483798353
 30
0.0
  0
SPLINE
  5
A7
330
1F
100
AcDbEntity
  8
0
  6
Continuous
 62
     7
370
    15
100
AcDbSpline
210
0.0
220
0.0
230
1.0
 70
     8
 71
     3
 72
    35
 73
    31
 74
     0
 42
0.000000001
 43
0.00000001
 40
0.0
 40
0.0
 40
0.0
 40
0.0
 40
0.0305573956974749
 40
0.0710189494525096
 40
0.1232250068095473
 40
0.1880228440365319
 40
0.2235896643147449
 40
0.2585261806353465
 40
0.2943868992575939
 40
0.3311374668789991
 40
0.3696839092565194
 40
0.4092184793918966
 40
0.4512141601548269
 40
0.4951886722976781
 40
0.5391631844405345
 40
0.5819817579189404
 40
0.6228289080136292
 40
0.6627614411590051
 40
0.7019357799095928
 40
0.7408167261162643
 40
0.7798795561154832
 40
0.8196170365165988
 40
0.8572146631265221
 40
0.8906356317056767
 40
0.9199173376511957
 40
0.9445465803189832
 40
0.9644974796854658
 40
0.9804718583334766
 40
0.9920298955925081
 40
1.0
 40
1.0
 40
1.0
 40
1.0
 10
3.339658470811555
 20
0.7651983483798354
 30
0.0
 10
3.340730905067597
 20
0.7644099075771861
 30
0.0
 10
3.343223367284437
 20
0.7625774792490659
 30
0.0
 10
3.348489058037343
 20
0.7612598686415516
 30
0.0
 10
3.355212643092151
 20
0.7603688707665899
 30
0.0
 10
3.36182371805828
 20
0.7600711704514438
 30
0.0
 10
3.367671025131614
 20
0.7603692561765373
 30
0.0
 10
3.372217107107399
 20
0.7611259740217965
 30
0.0
 10
3.376694414492041
 20
0.7624161062376514
 30
0.0
 10
3.381132784227823
 20
0.7642804157906361
 30
0.0
 10
3.385507766077124
 20
0.7666406762362813
 30
0.0
 10
3.389825034921037
 20
0.7695350900526041
 30
0.0
 10
3.394065001511365
 20
0.7729264134167757
 30
0.0
 10
3.398216821176502
 20
0.7767174063596357
 30
0.0
 10
3.402047898281739
 20
0.7808837030702894
 30
0.0
 10
3.405421175267321
 20
0.7852589100663792
 30
0.0
 10
3.408292739285439
 20
0.7897716327973063
 30
0.0
 10
3.410690668887865
 20
0.7943786957590567
 30
0.0
 10
3.412528228316445
 20
0.7991474913699314
 30
0.0
 10
3.413828815647685
 20
0.8040513973239598
 30
0.0
 10
3.414556759300816
 20
0.8090950776615057
 30
0.0
 10
3.414817483462274
 20
0.8141269480270027
 30
0.0
 10
3.414657315115182
 20
0.8189134461111303
 30
0.0
 10
3.41465350855644
 20
0.8232492643956842
 30
0.0
 10
3.414445485479685
 20
0.8270211325917287
 30
0.0
 10
3.414149113574353
 20
0.8301978023160865
 30
0.0
 10
3.413938605944348
 20
0.8328131109078581
 30
0.0
 10
3.413525064632114
 20
0.8348190376511787
 30
0.0
 10
3.413116090544769
 20
0.8363189697498074
 30
0.0
 10
3.4126394588766
 20
0.8370211425687029
 30
0.0
 10
3.412444929144888
 20
0.8373077233798353
 30
0.0
  0
SPLINE
  5
A9
330
1F
100
AcDbEntity
  8
0
  6
Continuous
 62
     7
370
    15
100
AcDbSpline
210
0.0
220
0.0
230
1.0
 70
     8
 71
     3
 72
    19
 73
    15
 74
     0
 42
0.000000001
 43
0.00000001
 40
0.0
 40
0.0
 40
0.0
 40
0.0
 40
0.0753911501499145
 40
0.1482796945216044
 40
0.2197744804502747
 40
0.2896322958788769
 40
0.3592032196828933
 40
0.4282948280211754
 40
0.4972750089922655
 40
0.5676375364191616
 40
0.7016540314593595
 40
0.817248838116503
 40
0.9171237749995897
 40
1.0
 40
1.0
 40
1.0
 40
1.0
 10
3.298830345811555
 20
0.6215889733798353
 30
0.0
 10
3.296714695552925
 20
0.6211078777522927
 30
0.0
 10
3.29255362394916
 20
0.620161656444542
 30
0.0
 10
3.286285147196366
 20
0.6192701723499306
 30
0.0
 10
3.280123267573673
 20
0.6189256121972578
 30
0.0
 10
3.274050691703091
 20
0.6191292923083278
 30
0.0
 10
3.268087004736307
 20
0.6198645256599755
 30
0.0
 10
3.262252318748688
 20
0.6211781932020156
 30
0.0
 10
3.256507873236555
 20
0.6229281231411489
 30
0.0
 10
3.249249277166963
 20
0.6259782684327345
 30
0.0
 10
3.241030987842664
 20
0.6301418200041594
 30
0.0
 10
3.232265194751373
 20
0.6350645502254015
 30
0.0
 10
3.225088086930244
 20
0.6398225968954123
 30
0.0
 10
3.221180521310151
 20
0.6433491046485973
 30
0.0
 10
3.219408470811555
 20
0.6449483483798353
 30
0.0
  0
SPLINE
  5
AB
330
1F
100
AcDbEntity
  8
0
  6
Continuous
 62
     7
370
    15
100
AcDbSpline
210
0.0
220
0.0
230
1.0
 70
     8
 71
     3
 72
    15
 73
    11
 74
     0
 42
0.000000001
 43
0.00000001
 40
0.0
 40
0.0
 40
0.0
 40
0.0
 40
0.1223840140183759
 40
0.242198089725235
 40
0.3598757372260563
 40
0.4776878750791689
 40
0.5978413299595867
 40
0.7239398365023555
 40
0.8575155301898569
 40
1.0
 40
1.0
 40
1.0
 40
1.0
 10
3.261252220811556
 20
0.6867920983798355
 30
0.0
 10
3.263751052887289
 20
0.684429839066192
 30
0.0
 10
3.268696244137479
 20
0.6797549254527672
 30
0.0
 10
3.276943525847427
 20
0.6738591487910519
 30
0.0
 10
3.285694319352443
 20
0.6690438601509969
 30
0.0
 10
3.29488667959703
 20
0.6650842672419576
 30
0.0
 10
3.30477793524119
 20
0.6623930254534893
 30
0.0
 10
3.315336203266865
 20
0.6607724990338233
 30
0.0
 10
3.326644587734066
 20
0.6603099465648373
 30
0.0
 10
3.334379664317636
 20
0.6608512526973264
 30
0.0
 10
3.338372012478222
 20
0.661130640046502
 30
0.0
  0
SPLINE
  5
AD
330
1F
100
AcDbEntity
  8
0
  6
Continuous
 62
     7
370
    15
100
AcDbSpline
210
0.0
220
0.0
230
1.0
 70
     8
 71
     3
 72
    31
 73
    27
 74
     0
 42
0.000000001
 43
0.00000001
 40
0.0
 40
0.0
 40
0.0
 40
0.0
 40
0.039224932960982
 40
0.0860662998028966
 40
0.1423286729892211
 40
0.2089827243408353
 40
0.2445624802992756
 40
0.2795087181331624
 40
0.3142412155042944
 40
0.3491874533381809
 40
0.3845603933642721
 40
0.4209225500313346
 40
0.4586446167706234
 40
0.4980589356268508
 40
0.5374732544830767
 40
0.5749126676341018
 40
0.6108781398670132
 40
0.6458306443983098
 40
0.6800197427153949
 40
0.7141864124945505
 40
0.7485544121924519
 40
0.7831890313253983
 40
0.8490347842871215
 40
0.9067024195902414
 40
0.9559862913454275
 40
1.0
 40
1.0
 40
1.0
 40
1.0
 10
3.528730249244592
 20
0.4068557366134642
 30
0.0
 10
3.530216051994373
 20
0.4056682183723393
 30
0.0
 10
3.53347616068692
 20
0.4030625975784495
 30
0.0
 10
3.540035867839489
 20
0.4007030296733248
 30
0.0
 10
3.548096042827848
 20
0.3992736056712201
 30
0.0
 10
3.555733725837661
 20
0.3986432111947616
 30
0.0
 10
3.56235782314477
 20
0.3987640353925361
 30
0.0
 10
3.567398732988738
 20
0.399452300148972
 30
0.0
 10
3.572306260768359
 20
0.4006709207299858
 30
0.0
 10
3.577054636427772
 20
0.4024621869040885
 30
0.0
 10
3.581698175332273
 20
0.4046958271536975
 30
0.0
 10
3.586182284403713
 20
0.4075000440880416
 30
0.0
 10
3.590530738147308
 20
0.4108377949754112
 30
0.0
 10
3.594658983659698
 20
0.4146601744336062
 30
0.0
 10
3.598490923968788
 20
0.4187666736491181
 30
0.0
 10
3.601728196582183
 20
0.4231498384711532
 30
0.0
 10
3.604549984316998
 20
0.4275528743043913
 30
0.0
 10
3.606823303447939
 20
0.4321013574126582
 30
0.0
 10
3.608417109208455
 20
0.4368307749227707
 30
0.0
 10
3.609628214734883
 20
0.4416459280206014
 30
0.0
 10
3.610120461132839
 20
0.4466111552611683
 30
0.0
 10
3.610202712059946
 20
0.4531183687830533
 30
0.0
 10
3.609398247324025
 20
0.4607326210370631
 30
0.0
 10
3.607589395161018
 20
0.46887370704515
 30
0.0
 10
3.604893777266139
 20
0.4757260523282093
 30
0.0
 10
3.602139140920514
 20
0.4793070186688209
 30
0.0
 10
3.600839624244591
 20
0.4809963616134642
 30
0.0
  0
SPLINE
  5
AF
330
1F
100
AcDbEntity
  8
0
  6
Continuous
 62
     7
370
    15
100
AcDbSpline
210
0.0
220
0.0
230
1.0
 70
     8
 71
     3
 72
    47
 73
    43
 74
     0
 42
0.000000001
 43
0.00000001
 40
0.0
 40
0.0
 40
0.0
 40
0.0
 40
0.0061511780221476
 40
0.0135131704929548
 40
0.0218834772688575
 40
0.0313645591428246
 40
0.0421003363444031
 40
0.0539693013621203
 40
0.0669925688926381
 40
0.0813042277699092
 40
0.1106716238600755
 40
0.1396620554273043
 40
0.1686477546705609
 40
0.1982014080227796
 40
0.2284490837896933
 40
0.2597320459045437
 40
0.2928496228244655
 40
0.3277632975804264
 40
0.3468179682380692
 40
0.3682063048879862
 40
0.3918368181590104
 40
0.417739797431811
 40
0.4459382101161358
 40
0.4763429749980387
 40
0.5092959596221981
 40
0.5444747382209385
 40
0.5800044967150942
 40
0.6139962229066299
 40
0.6467304956547799
 40
0.678257279464651
 40
0.708627570882318
 40
0.7383361063039485
 40
0.767622706925903
 40
0.7964275688237934
 40
0.8245098706859524
 40
0.8512000941789263
 40
0.8766283464975808
 40
0.9014158606022338
 40
0.9257975600423035
 40
0.9501669806334614
 40
0.9746985971953602
 40
1.0
 40
1.0
 40
1.0
 40
1.0
 10
3.721698999244592
 20
0.5998244866134641
 30
0.0
 10
3.722302226716726
 20
0.5991834401566895
 30
0.0
 10
3.723627422581265
 20
0.5977751619320775
 30
0.0
 10
3.7253884325105
 20
0.5951788059151041
 30
0.0
 10
3.727272860063811
 20
0.5921111971997374
 30
0.0
 10
3.7293623340808
 20
0.5885953299432616
 30
0.0
 10
3.731303402210733
 20
0.5844375765738108
 30
0.0
 10
3.733535800016575
 20
0.579860605911564
 30
0.0
 10
3.735639431633362
 20
0.5746652817090779
 30
0.0
 10
3.738763426456583
 20
0.5671884447858
 30
0.0
 10
3.741951292619602
 20
0.5572791590646783
 30
0.0
 10
3.744440308668848
 20
0.5450171384833689
 30
0.0
 10
3.745350990692665
 20
0.5325131851742693
 30
0.0
 10
3.744919963480347
 20
0.5198035985843396
 30
0.0
 10
3.742786427314142
 20
0.5069254877893596
 30
0.0
 10
3.738930267885129
 20
0.4939248615412311
 30
0.0
 10
3.733292493584365
 20
0.4808737231463326
 30
0.0
 10
3.727349349387488
 20
0.4699142600679403
 30
0.0
 10
3.72142353989207
 20
0.4609166881795957
 30
0.0
 10
3.716074758890544
 20
0.4534818687360042
 30
0.0
 10
3.7098241000287
 20
0.4455006606550037
 30
0.0
 10
3.702704839335976
 20
0.4369712111000588
 30
0.0
 10
3.694699471466603
 20
0.4279279999694784
 30
0.0
 10
3.685877915263122
 20
0.41826364892183
 30
0.0
 10
3.676120254573309
 20
0.4081099690445443
 30
0.0
 10
3.665814439135392
 20
0.3974671719900666
 30
0.0
 10
3.654942233626127
 20
0.3871752939708741
 30
0.0
 10
3.643677526061325
 20
0.3778473739135111
 30
0.0
 10
3.632224902448252
 20
0.3697011232881785
 30
0.0
 10
3.620634285772575
 20
0.3627095862217841
 30
0.0
 10
3.608927633372433
 20
0.3568170918170669
 30
0.0
 10
3.597032474399338
 20
0.3521174567825855
 30
0.0
 10
3.584971426440973
 20
0.3486008501238194
 30
0.0
 10
3.572872343183224
 20
0.3462024581207386
 30
0.0
 10
3.56096458996788
 20
0.3450787994302582
 30
0.0
 10
3.549482433015404
 20
0.3450091440095023
 30
0.0
 10
3.538538506658038
 20
0.3462539447462256
 30
0.0
 10
3.52811381481231
 20
0.3485944903847045
 30
0.0
 10
3.518212375952652
 20
0.3522110504910677
 30
0.0
 10
3.508900954901148
 20
0.3570565390381498
 30
0.0
 10
3.500117656211316
 20
0.3630609013256808
 30
0.0
 10
3.49484486836805
 20
0.3678577586654536
 30
0.0
 10
3.492167749244592
 20
0.3702932366134641
 30
0.0
  0
SPLINE
  5
B1
330
1F
100
AcDbEntity
  8
0
  6
Continuous
 62
     7
370
    15
100
AcDbSpline
210
0.0
220
0.0
230
1.0
 70
     8
 71
     3
 72
    23
 73
    19
 74
     0
 42
0.000000001
 43
0.00000001
 40
0.0
 40
0.0
 40
0.0
 40
0.0
 40
0.0940870910014483
 40
0.1835177196855794
 40
0.2688215124031111
 40
0.3501499689562012
 40
0.4272271765768176
 40
0.5006912316424159
 40
0.5710059797240468
 40
0.6379772687614373
 40
0.7001241209335439
 40
0.7565486825454387
 40
0.8071084976440742
 40
0.8522843821083284
 40
0.8928226675801153
 40
0.9303242844977611
 40
0.9652431232948882
 40
0.9999999999999999
 40
0.9999999999999999
 40
0.9999999999999999
 40
0.9999999999999999
 10
3.636386499244591
 20
0.4466682366134642
 30
0.0
 10
3.63904742493338
 20
0.4496523881707156
 30
0.0
 10
3.644237584491524
 20
0.4554730027008696
 30
0.0
 10
3.651500863070031
 20
0.4642931810785003
 30
0.0
 10
3.658088228916183
 20
0.4729573618829622
 30
0.0
 10
3.663969248142493
 20
0.481484392092539
 30
0.0
 10
3.669229506844393
 20
0.4898209988995886
 30
0.0
 10
3.673756176875295
 20
0.4980451611617413
 30
0.0
 10
3.677743190590967
 20
0.5060717930313333
 30
0.0
 10
3.680863427045719
 20
0.5139577834993526
 30
0.0
 10
3.683402949540748
 20
0.5214274912968108
 30
0.0
 10
3.685171673662947
 20
0.528398531085857
 30
0.0
 10
3.68626947356791
 20
0.5347865153958204
 30
0.0
 10
3.686455512012023
 20
0.5405844654084271
 30
0.0
 10
3.686072106098906
 20
0.5458322300160958
 30
0.0
 10
3.684747730714249
 20
0.5504666182843045
 30
0.0
 10
3.682814412187552
 20
0.5546443591039738
 30
0.0
 10
3.680840107126454
 20
0.5568703355472068
 30
0.0
 10
3.679855249244592
 20
0.5579807366134641
 30
0.0
  0
SPLINE
  5
B2
330
1F
100
AcDbEntity
  8
0
  6
Continuous
 62
     7
370
    15
100
AcDbSpline
210
0.0
220
0.0
230
1.0
 70
     8
 71
     3
 72
    15
 73
    11
 74
     0
 42
0.000000001
 43
0.00000001
 40
0.0
 40
0.0
 40
0.0
 40
0.0
 40
0.0785365762187749
 40
0.1675238041100759
 40
0.2668089510213755
 40
0.3781017355213196
 40
0.5037284997485386
 40
0.6480467085561561
 40
0.8135178223770386
 40
1.0
 40
1.0
 40
1.0
 40
1.0
 10
3.637063582577925
 20
0.5172203199467975
 30
0.0
 10
3.63785070939683
 20
0.5154987698276315
 30
0.0
 10
3.639529703890464
 20
0.511826587529724
 30
0.0
 10
3.641283421168688
 20
0.5056237442452417
 30
0.0
 10
3.642613917681994
 20
0.4985323637199296
 30
0.0
 10
3.643530159223814
 20
0.490480576624534
 30
0.0
 10
3.64361647954876
 20
0.4812788836823801
 30
0.0
 10
3.642344104718527
 20
0.47085238550177
 30
0.0
 10
3.639943210479614
 20
0.4591374112429094
 30
0.0
 10
3.637618333502154
 20
0.4509868206809104
 30
0.0
 10
3.636386499244591
 20
0.4466682366134642
 30
0.0
  0
SPLINE
  5
B5
330
1F
100
AcDbEntity
  8
0
  6
Continuous
 62
     7
370
    15
100
AcDbSpline
210
0.0
220
0.0
230
1.0
 70
     8
 71
     3
 72
    23
 73
    19
 74
     0
 42
0.000000001
 43
0.00000001
 40
0.0
 40
0.0
 40
0.0
 40
0.0
 40
0.0357553372853822
 40
0.0790275237335847
 40
0.1310160449844677
 40
0.19190519031215
 40
0.257776293351589
 40
0.3267537198750741
 40
0.4024426349726741
 40
0.4864910425540909
 40
0.5711789700948925
 40
0.6466956210132009
 40
0.7149447878925236
 40
0.7779766134518363
 40
0.8364611080726749
 40
0.8922570241805365
 40
0.9460249032038589
 40
1.0
 40
1.0
 40
1.0
 40
1.0
 10
3.578766707577925
 20
0.5023921949467974
 30
0.0
 10
3.577364016275151
 20
0.5030949711428461
 30
0.0
 10
3.574263745696356
 20
0.5046482682651567
 30
0.0
 10
3.568657856491551
 20
0.5060508056321134
 30
0.0
 10
3.561864522763825
 20
0.5068312745561092
 30
0.0
 10
3.55404418211282
 20
0.5072673913674424
 30
0.0
 10
3.545441391215865
 20
0.5064656091879121
 30
0.0
 10
3.536707774267506
 20
0.5032334121263273
 30
0.0
 10
3.528193004774709
 20
0.4978642027791758
 30
0.0
 10
3.520172375140542
 20
0.4907310107949329
 30
0.0
 10
3.512980359223648
 20
0.4827934563257365
 30
0.0
 10
3.507152646827888
 20
0.4746299696890824
 30
0.0
 10
3.503085514020543
 20
0.4664857163462057
 30
0.0
 10
3.500899112110436
 20
0.4584131785774337
 30
0.0
 10
3.500258242914701
 20
0.4506475913011103
 30
0.0
 10
3.50065947926236
 20
0.443275205987364
 30
0.0
 10
3.502418623552223
 20
0.4362668519246463
 30
0.0
 10
3.50456596960099
 20
0.4320545033090589
 30
0.0
 10
3.505641707577925
 20
0.4299442782801309
 30
0.0
  0
SPLINE
  5
B7
330
1F
100
AcDbEntity
  8
0
  6
Continuous
 62
     7
370
    15
100
AcDbSpline
210
0.0
220
0.0
230
1.0
 70
     8
 71
     3
 72
    39
 73
    35
 74
     0
 42
0.000000001
 43
0.00000001
 40
0.0
 40
0.0
 40
0.0
 40
0.0
 40
0.023416646936885
 40
0.0475157157921635
 40
0.0726945333533016
 40
0.0994154154434034
 40
0.1278008193207741
 40
0.1581931235986632
 40
0.1909032445953779
 40
0.2257203717902171
 40
0.2612291171213144
 40
0.2959296344751012
 40
0.3302278484780329
 40
0.364163169160355
 40
0.3984620993731074
 40
0.4333996660782035
 40
0.4691318518252425
 40
0.5061538358300083
 40
0.5428505916109242
 40
0.5777093209775481
 40
0.6107831520298511
 40
0.6424306341964874
 40
0.6729334695113646
 40
0.7028048290771907
 40
0.7320671917664031
 40
0.7613932850321484
 40
0.7904602374374665
 40
0.8191426534003761
 40
0.8475280572777462
 40
0.8762207487661696
 40
0.905760501862872
 40
0.9359525051430819
 40
0.9672126182762041
 40
1.0
 40
1.0
 40
1.0
 40
1.0
 10
3.469417749244592
 20
0.3937203199467974
 30
0.0
 10
3.467819445183747
 20
0.3954916645827233
 30
0.0
 10
3.464576258330001
 20
0.3990859754384782
 30
0.0
 10
3.460389533740968
 20
0.4052314403039434
 30
0.0
 10
3.457069709960465
 20
0.4122403198425661
 30
0.0
 10
3.454175057617286
 20
0.4199000484327694
 30
0.0
 10
3.452091662056233
 20
0.428365906298405
 30
0.0
 10
3.450391351748967
 20
0.437536083244328
 30
0.0
 10
3.449644516185353
 20
0.4474895884312626
 30
0.0
 10
3.449210057412278
 20
0.4579774851472906
 30
0.0
 10
3.449761020598101
 20
0.4686724519954616
 30
0.0
 10
3.451196639979014
 20
0.4792354256043453
 30
0.0
 10
3.453820780717102
 20
0.4894025908385524
 30
0.0
 10
3.457328062617979
 20
0.4992550880078752
 30
0.0
 10
3.461990931595923
 20
0.5086924874244875
 30
0.0
 10
3.467619553104044
 20
0.5177974547625501
 30
0.0
 10
3.474317561143777
 20
0.5265029092596576
 30
0.0
 10
3.481892832809043
 20
0.5346931585678348
 30
0.0
 10
3.489969188443083
 20
0.5422566438038788
 30
0.0
 10
3.498298375895442
 20
0.5489208895001378
 30
0.0
 10
3.506737037958843
 20
0.554557863595553
 30
0.0
 10
3.515202398391283
 20
0.559322909127884
 30
0.0
 10
3.523882998801556
 20
0.5628958540535247
 30
0.0
 10
3.532618368049715
 20
0.5656064213021326
 30
0.0
 10
3.54151649055314
 20
0.5671313075841302
 30
0.0
 10
3.550435921879101
 20
0.5677771003233223
 30
0.0
 10
3.559310135418081
 20
0.5673326124418973
 30
0.0
 10
3.56800070255678
 20
0.5660593846617649
 30
0.0
 10
3.576477494213278
 20
0.563885157907451
 30
0.0
 10
3.584730967249431
 20
0.5607258197416912
 30
0.0
 10
3.592777372716919
 20
0.5566540095171556
 30
0.0
 10
3.600614527168977
 20
0.5516842518168286
 30
0.0
 10
3.608164981325324
 20
0.5457338545405193
 30
0.0
 10
3.612903467708221
 20
0.5412500548544503
 30
0.0
 10
3.615329207577925
 20
0.5389546949467974
 30
0.0
  0
SPLINE
  5
B9
330
1F
100
AcDbEntity
  8
0
  6
Continuous
 62
     7
370
    15
100
AcDbSpline
210
0.0
220
0.0
230
1.0
 70
     8
 71
     3
 72
    15
 73
    11
 74
     0
 42
0.000000001
 43
0.00000001
 40
0.0
 40
0.0
 40
0.0
 40
0.0
 40
0.1226021861417307
 40
0.2426298525819351
 40
0.3598136351408069
 40
0.4775248585351244
 40
0.597892509154993
 40
0.7242158095905337
 40
0.8572615252891941
 40
1.0
 40
1.0
 40
1.0
 40
1.0
 10
3.657105249244591
 20
0.580730736613464
 30
0.0
 10
3.654607114287898
 20
0.5830943830881495
 30
0.0
 10
3.649663302637007
 20
0.5877720418947042
 30
0.0
 10
3.641422017070657
 20
0.5936362125723437
 30
0.0
 10
3.632735355939711
 20
0.5985151508484035
 30
0.0
 10
3.62351942989355
 20
0.6023474614847467
 30
0.0
 10
3.61365050709968
 20
0.6050747110934936
 30
0.0
 10
3.603108402480509
 20
0.6066543959525351
 30
0.0
 10
3.591828236207673
 20
0.6072387636526579
 30
0.0
 10
3.584113706960156
 20
0.6066809198735051
 30
0.0
 10
3.580120874244592
 20
0.6063921949467975
 30
0.0
  0
SPLINE
  5
BB
330
1F
100
AcDbEntity
  8
0
  6
Continuous
 62
     7
370
    15
100
AcDbSpline
210
0.0
220
0.0
230
1.0
 70
     8
 71
     3
 72
    19
 73
    15
 74
     0
 42
0.000000001
 43
0.00000001
 40
0.0
 40
0.0
 40
0.0
 40
0.0
 40
0.0755055298103948
 40
0.1485046570149713
 40
0.2201079112363307
 40
0.2900717114283267
 40
0.359748184738196
 40
0.428944615389018
 40
0.498265820745646
 40
0.5687350986595903
 40
0.7019022322882392
 40
0.8180636425542667
 40
0.9169980393600815
 40
1.0
 40
1.0
 40
1.0
 40
1.0
 10
3.619662540911258
 20
0.645933861613464
 30
0.0
 10
3.621778187873884
 20
0.6464149466609078
 30
0.0
 10
3.625939252995056
 20
0.6473611471596667
 30
0.0
 10
3.632207776832281
 20
0.6482527823943033
 30
0.0
 10
3.638369483406234
 20
0.64859678706418
 30
0.0
 10
3.644442688386855
 20
0.6483951263830456
 30
0.0
 10
3.650404052917996
 20
0.6476524380620666
 30
0.0
 10
3.656253980193828
 20
0.6463649133756149
 30
0.0
 10
3.661972418268051
 20
0.6445085191829292
 30
0.0
 10
3.669215258024216
 20
0.6414928111563072
 30
0.0
 10
3.677448431294735
 20
0.6373915235195606
 30
0.0
 10
3.686109663486545
 20
0.6323896934122527
 30
0.0
 10
3.69329791470168
 20
0.6276872245884445
 30
0.0
 10
3.697178583020194
 20
0.6241762453897254
 30
0.0
 10
3.698948999244592
 20
0.6225744866134642
 30
0.0
  0
SPLINE
  5
BC
330
1F
100
AcDbEntity
  8
0
  6
Continuous
 62
     7
370
    15
100
AcDbSpline
210
0.0
220
0.0
230
1.0
 70
     8
 71
     3
 72
     8
 73
     4
 74
     0
 42
0.000000001
 43
0.00000001
 40
0.0692645199016696
 40
0.0692645199016696
 40
0.0692645199016696
 40
0.0692645199016696
 40
1.0
 40
1.0
 40
1.0
 40
1.0
 10
0.9047082772874215
 20
-0.1672349048861624
 30
0.0
 10
0.8478879442204571
 20
-0.2384768514762484
 30
0.0
 10
0.8524562628793483
 20
-0.3425821968755609
 30
0.0
 10
0.9184109345607118
 20
-0.4085368685706907
 30
0.0
  0
SPLINE
  5
BE
330
1F
100
AcDbEntity
  8
0
  6
Continuous
 62
     7
370
    15
100
AcDbSpline
210
0.0
220
0.0
230
1.0
 70
     8
 71
     3
 72
     8
 73
     4
 74
     0
 42
0.000000001
 43
0.00000001
 40
0.0348938434849743
 40
0.0348938434849743
 40
0.0348938434849743
 40
0.0348938434849743
 40
1.0
 40
1.0
 40
1.0
 40
1.0
 10
0.7940964034045837
 20
-0.5328171870982252
 30
0.0
 10
0.6594895847786002
 20
-0.3982103684725882
 30
0.0
 10
0.6547926355171781
 20
-0.1827843150911766
 30
0.0
 10
0.7800081185153549
 20
-0.0425347461141002
 30
0.0
  0
SPLINE
  5
BF
330
1F
100
AcDbEntity
  8
0
  6
Continuous
 62
     7
370
    15
100
AcDbSpline
210
0.0
220
0.0
230
1.0
 70
     8
 71
     3
 72
     8
 73
     4
 74
     0
 42
0.000000001
 43
0.00000001
 40
0.0
 40
0.0
 40
0.0
 40
0.0
 40
0.9747369076873611
 40
0.9747369076873611
 40
0.9747369076873611
 40
0.9747369076873611
 10
1.288591926895034
 20
-0.5431551661170788
 30
0.0
 10
1.148473817312905
 20
-0.6722387999659717
 30
0.0
 10
0.9300825848185937
 20
-0.668803368511922
 30
0.0
 10
0.7940964034045833
 20
-0.5328171870982252
 30
0.0
  0
SPLINE
  5
C1
330
1F
100
AcDbEntity
  8
0
  6
Continuous
 62
     7
370
    15
100
AcDbSpline
210
0.0
220
0.0
230
1.0
 70
     8
 71
     3
 72
     8
 73
     4
 74
     0
 42
0.000000001
 43
0.00000001
 40
0.0
 40
0.0
 40
0.0
 40
0.0
 40
0.9499409149679601
 40
0.9499409149679601
 40
0.9499409149679601
 40
0.9499409149679601
 10
0.9184109345607118
 20
-0.4085368685706907
 30
0.0
 10
0.9857265602241181
 20
-0.4758524942333017
 30
0.0
 10
1.092786130925981
 20
-0.4792248256183878
 30
0.0
 10
1.164083291603872
 20
-0.4186465308259172
 30
0.0
  0
SPLINE
  5
C3
330
1F
100
AcDbEntity
  8
0
  6
Continuous
 62
     7
370
    15
100
AcDbSpline
210
0.0
220
0.0
230
1.0
 70
     8
 71
     3
 72
     8
 73
     4
 74
     0
 42
0.000000001
 43
0.00000001
 40
0.0
 40
0.0
 40
0.0
 40
0.0
 40
0.8520323195167808
 40
0.8520323195167808
 40
0.8520323195167808
 40
0.8520323195167808
 10
1.17504290705393
 20
-0.1519048961031222
 30
0.0
 10
1.11466537433916
 20
-0.0915273633613147
 30
0.0
 10
1.022316430138488
 20
-0.0825934398695257
 30
0.0
 10
0.9524774262054065
 20
-0.1251031256399751
 30
0.0
  0
SPLINE
  5
C4
330
1F
100
AcDbEntity
  8
0
  6
Continuous
 62
     7
370
    15
100
AcDbSpline
210
0.0
220
0.0
230
1.0
 70
     8
 71
     3
 72
     8
 73
     4
 74
     0
 42
0.000000001
 43
0.00000001
 40
0.1479676805496568
 40
0.1479676805496568
 40
0.1479676805496568
 40
0.1479676805496568
 40
1.0
 40
1.0
 40
1.0
 40
1.0
 10
1.201847359764135
 20
-0.3744730591990205
 30
0.0
 10
1.244356433018795
 20
-0.3046334427604882
 30
0.0
 10
1.235420439784615
 20
-0.2122824288196284
 30
0.0
 10
1.17504290705393
 20
-0.1519048961031222
 30
0.0
  0
SPLINE
  5
C6
330
1F
100
AcDbEntity
  8
0
  6
Continuous
 62
     7
370
    15
100
AcDbSpline
210
0.0
220
0.0
230
1.0
 70
     8
 71
     3
 72
     8
 73
     4
 74
     0
 42
0.000000001
 43
0.00000001
 40
0.0738710016859995
 40
0.0738710016859995
 40
0.0738710016859995
 40
0.0738710016859995
 40
1.0
 40
1.0
 40
1.0
 40
1.0
 10
1.299323225582457
 20
-0.0275903649206318
 30
0.0
 10
1.428528085885057
 20
-0.1567952252099212
 30
0.0
 10
1.438072578348311
 20
-0.3603913562256981
 30
0.0
 10
1.327958967713568
 20
-0.5005846671484531
 30
0.0
  0
SPLINE
  5
C7
330
1F
100
AcDbEntity
  8
0
  6
Continuous
 62
     7
370
    15
100
AcDbSpline
210
0.0
220
0.0
230
1.0
 70
     8
 71
     3
 72
     8
 73
     4
 74
     0
 42
0.000000001
 43
0.00000001
 40
0.0
 40
0.0
 40
0.0
 40
0.0
 40
0.9261289983073903
 40
0.9261289983073903
 40
0.9261289983073903
 40
0.9261289983073903
 10
0.8263659721459389
 20
0.0010083284194934
 30
0.0
 10
0.9665590957435625
 20
0.1111221263669577
 30
0.0
 10
1.170152691069186
 20
0.1015801695929915
 30
0.0
 10
1.299323225582457
 20
-0.0275903649206318
 30
0.0
  0
LWPOLYLINE
  5
C9
330
1F
100
AcDbEntity
  8
0
  6
Continuous
 62
     7
370
    15
100
AcDbPolyline
 90
        6
 70
   128
 43
0.0
 10
2.4770995589
 20
0.4349647239
 10
2.3519903582
 20
0.4159841207
 10
2.2128967047
 20
0.3948857067
 10
2.0590798013
 20
0.3715544343
 10
1.8578889455
 20
0.3410338275
 10
1.6340113693
 20
0.3070635661
  0
LWPOLYLINE
  5
CA
330
1F
100
AcDbEntity
  8
0
  6
Continuous
 62
     7
370
    15
100
AcDbPolyline
 90
        6
 70
   128
 43
0.0
 10
1.6340113693
 20
0.3070635661
 10
1.6630671345
 20
0.4985054276
 10
1.6896257639
 20
0.6734801649
 10
1.7137990786
 20
0.8327271314
 10
1.7393788878
 20
1.0012254097
 10
1.7619838035
 20
1.150114692
  0
SPLINE
  5
D8
330
1F
100
AcDbEntity
  8
0
  6
Continuous
 62
     7
370
    15
100
AcDbSpline
210
0.0
220
0.0
230
1.0
 70
     8
 71
     3
 72
    63
 73
    59
 74
     0
 42
0.000000001
 43
0.00000001
 40
0.0
 40
0.0
 40
0.0
 40
0.0
 40
0.0216448283616657
 40
0.0419868625464914
 40
0.0613247335791319
 40
0.0801238281794021
 40
0.0899338525560465
 40
0.1006931071825279
 40
0.1126613105580583
 40
0.1256296321398783
 40
0.1398587972415359
 40
0.155236809081104
 40
0.1716962700709167
 40
0.1895716912474583
 40
0.207633949014253
 40
0.2251484583524787
 40
0.2423840309563555
 40
0.2596225324140882
 40
0.2770112029507486
 40
0.2949641231636046
 40
0.3137269286362907
 40
0.3335151179961753
 40
0.353807144585237
 40
0.3739618715551148
 40
0.3940943556218722
 40
0.4144438338301913
 40
0.4351377217397848
 40
0.4562048565045539
 40
0.4778394781359862
 40
0.5001733553949697
 40
0.5225072326539532
 40
0.5442132006081924
 40
0.5653177455220508
 40
0.5859918021976597
 40
0.6062900476120552
 40
0.626443208983844
 40
0.6464095037343788
 40
0.6665187788728406
 40
0.6860450060204203
 40
0.7045984518520961
 40
0.7222968333637746
 40
0.7393945529927545
 40
0.7564134749008815
 40
0.7734461108380128
 40
0.790804269813627
 40
0.8088665275804218
 40
0.8266616300520059
 40
0.8431149554613471
 40
0.8583970531815486
 40
0.8722777986799061
 40
0.8849502897177094
 40
0.8964181930124419
 40
0.9068031857238377
 40
0.9158975060368045
 40
0.9338078432783928
 40
0.9535969893366351
 40
0.9756190066949426
 40
1.0
 40
1.0
 40
1.0
 40
1.0
 10
2.870342370094064
 20
1.397149865763992
 30
0.0
 10
2.870803282398076
 20
1.401477428106636
 30
0.0
 10
2.871697364865775
 20
1.409872078422449
 30
0.0
 10
2.871357734881051
 20
1.422228199982068
 30
0.0
 10
2.869547768455469
 20
1.433868220706777
 30
0.0
 10
2.866733477715841
 20
1.443118638093609
 30
0.0
 10
2.863579673680847
 20
1.450382294449178
 30
0.0
 10
2.86038766839169
 20
1.456095853394487
 30
0.0
 10
2.856540214433272
 20
1.46214975336719
 30
0.0
 10
2.851974882181023
 20
1.468564435617513
 30
0.0
 10
2.846593932309609
 20
1.475216688705459
 30
0.0
 10
2.840590079956039
 20
1.482261255088005
 30
0.0
 10
2.833810473377675
 20
1.48959728726966
 30
0.0
 10
2.826528136141701
 20
1.497198466937694
 30
0.0
 10
2.818577743556561
 20
1.504447729351217
 30
0.0
 10
2.809836176094761
 20
1.510516793322282
 30
0.0
 10
2.800557788501146
 20
1.515368393573682
 30
0.0
 10
2.790754519601111
 20
1.518988701301377
 30
0.0
 10
2.78041413041029
 20
1.521285521805118
 30
0.0
 10
2.7695736059256
 20
1.522354053727319
 30
0.0
 10
2.758200232012545
 20
1.522191591119137
 30
0.0
 10
2.746445399291829
 20
1.520794834453195
 30
0.0
 10
2.73456965326013
 20
1.518397500633458
 30
0.0
 10
2.722891290968565
 20
1.514917327568408
 30
0.0
 10
2.711528555287753
 20
1.510490836408301
 30
0.0
 10
2.700460834287298
 20
1.505117774474593
 30
0.0
 10
2.689682242805808
 20
1.498808267768934
 30
0.0
 10
2.679205735048841
 20
1.491540911387564
 30
0.0
 10
2.66911744252549
 20
1.483219601786218
 30
0.0
 10
2.659395805800071
 20
1.47410145698794
 30
0.0
 10
2.65027481245206
 20
1.464363474016309
 30
0.0
 10
2.64190804783364
 20
1.454286849787498
 30
0.0
 10
2.634512190256694
 20
1.44388293055681
 30
0.0
 10
2.62797856737362
 20
1.433248646367349
 30
0.0
 10
2.622382638504992
 20
1.422301104899469
 30
0.0
 10
2.617803627201764
 20
1.411046291290996
 30
0.0
 10
2.614049474894406
 20
1.39953447318082
 30
0.0
 10
2.611193346773419
 20
1.387889971566059
 30
0.0
 10
2.609503324925539
 20
1.376306750857466
 30
0.0
 10
2.608942979712555
 20
1.36508906345356
 30
0.0
 10
2.60985061156693
 20
1.354380007179866
 30
0.0
 10
2.61194495694447
 20
1.344157743483303
 30
0.0
 10
2.615339704209292
 20
1.334423497907454
 30
0.0
 10
2.620063977135079
 20
1.325205093495403
 30
0.0
 10
2.626088695109887
 20
1.316518208992539
 30
0.0
 10
2.633316385883579
 20
1.308613756064859
 30
0.0
 10
2.640871024165731
 20
1.301309409889487
 30
0.0
 10
2.648116034912784
 20
1.294486461083008
 30
0.0
 10
2.654999121109757
 20
1.28843531172378
 30
0.0
 10
2.661428845773871
 20
1.283018647708958
 30
0.0
 10
2.667538245953275
 20
1.278429603792044
 30
0.0
 10
2.673227267330795
 20
1.274457250253981
 30
0.0
 10
2.678536646130149
 20
1.271215426302802
 30
0.0
 10
2.685203998096481
 20
1.267733870346447
 30
0.0
 10
2.69413769893462
 20
1.26467030409829
 30
0.0
 10
2.705874592354633
 20
1.262093157432745
 30
0.0
 10
2.719143257365764
 20
1.260797003564559
 30
0.0
 10
2.728468669239499
 20
1.260833706413602
 30
0.0
 10
2.733368411760731
 20
1.260852990763992
 30
0.0
  0
SPLINE
  5
DA
330
1F
100
AcDbEntity
  8
0
  6
Continuous
 62
     7
370
    15
100
AcDbSpline
210
0.0
220
0.0
230
1.0
 70
     8
 71
     3
 72
    55
 73
    51
 74
     0
 42
0.000000001
 43
0.00000001
 40
0.0
 40
0.0
 40
0.0
 40
0.0
 40
0.0306363060875149
 40
0.0594424087219974
 40
0.086504213703841
 40
0.1124933093666442
 40
0.1384940027436984
 40
0.1657850730482017
 40
0.195036765662643
 40
0.2265872652018301
 40
0.2426589092704736
 40
0.2581464627062914
 40
0.2732586864767702
 40
0.2879694373235125
 40
0.302597982692273
 40
0.3172862706366513
 40
0.3322591554882283
 40
0.3476798237838123
 40
0.3633800435694436
 40
0.379573602689863
 40
0.3961353239570409
 40
0.4134156627151332
 40
0.4314918450480579
 40
0.4505793551993464
 40
0.4707997940502119
 40
0.492255508402601
 40
0.5137112227549899
 40
0.534062585405572
 40
0.5534848654190193
 40
0.5721710324500893
 40
0.5899831979366061
 40
0.6071384662540241
 40
0.6241120141685856
 40
0.6407438007433861
 40
0.6570328249039616
 40
0.6726551274851357
 40
0.6879486591006725
 40
0.7029617602531032
 40
0.7181365529360971
 40
0.7335423184320693
 40
0.7495387521658783
 40
0.7659751754337886
 40
0.7983693852267701
 40
0.8280764166836972
 40
0.8557384556669453
 40
0.8820509006685775
 40
0.9084608287509434
 40
0.9367667044871654
 40
0.9670656334002553
 40
1.0
 40
1.0
 40
1.0
 40
1.0
 10
2.782118411760731
 20
1.309602990763992
 30
0.0
 10
2.778061434779902
 20
1.309135329208794
 30
0.0
 10
2.770189843368675
 20
1.308227944055106
 30
0.0
 10
2.758643850688733
 20
1.308287729078641
 30
0.0
 10
2.747770279809289
 20
1.309242714142465
 30
0.0
 10
2.73742447055444
 20
1.311380966304086
 30
0.0
 10
2.727491887543797
 20
1.315072928341434
 30
0.0
 10
2.717769161728965
 20
1.32028290764968
 30
0.0
 10
2.708288449241971
 20
1.327243982524516
 30
0.0
 10
2.700665340655438
 20
1.334109620874804
 30
0.0
 10
2.694952777217216
 20
1.340285371655557
 30
0.0
 10
2.691172276637914
 20
1.345238870128242
 30
0.0
 10
2.688149143961395
 20
1.350477319211952
 30
0.0
 10
2.685674379375341
 20
1.355864886978327
 30
0.0
 10
2.683818036278891
 20
1.361443657699203
 30
0.0
 10
2.682683445574061
 20
1.367246691010593
 30
0.0
 10
2.682145571250451
 20
1.373236443676034
 30
0.0
 10
2.682206193385964
 20
1.379386681452684
 30
0.0
 10
2.682952666947944
 20
1.385657641794515
 30
0.0
 10
2.684445895310083
 20
1.391951215784706
 30
0.0
 10
2.686713770523539
 20
1.398232637049527
 30
0.0
 10
2.689732395117005
 20
1.404464450337393
 30
0.0
 10
2.693401476106895
 20
1.410728850150118
 30
0.0
 10
2.697837660172854
 20
1.416963630375692
 30
0.0
 10
2.703003580591916
 20
1.42320335331546
 30
0.0
 10
2.708813626643593
 20
1.4292869284807
 30
0.0
 10
2.714897364961275
 20
1.435127702270127
 30
0.0
 10
2.721250399254184
 20
1.440250135425568
 30
0.0
 10
2.727525120568612
 20
1.444872590310058
 30
0.0
 10
2.733961058520764
 20
1.44864876716255
 30
0.0
 10
2.740425223693232
 20
1.451713343493106
 30
0.0
 10
2.746918495897664
 20
1.454131745660117
 30
0.0
 10
2.753479494050435
 20
1.455816241013832
 30
0.0
 10
2.760055558168007
 20
1.456831754323931
 30
0.0
 10
2.766525566370326
 20
1.457210084306464
 30
0.0
 10
2.772810246027038
 20
1.45676306682977
 30
0.0
 10
2.778857289606681
 20
1.455778543582578
 30
0.0
 10
2.784693369897717
 20
1.454080706114896
 30
0.0
 10
2.790244618958643
 20
1.451587362599735
 30
0.0
 10
2.795663267543416
 20
1.448543328858887
 30
0.0
 10
2.800786326129666
 20
1.444725975374757
 30
0.0
 10
2.807164098436646
 20
1.438895924094789
 30
0.0
 10
2.814200043663235
 20
1.431109272913801
 30
0.0
 10
2.821027221660969
 20
1.421267499894955
 30
0.0
 10
2.82630514572402
 20
1.411397360924919
 30
0.0
 10
2.829508816656616
 20
1.401120053126386
 30
0.0
 10
2.831124481801078
 20
1.390417559621086
 30
0.0
 10
2.83136398173442
 20
1.379067690324123
 30
0.0
 10
2.830154717907076
 20
1.366905710179447
 30
0.0
 10
2.828442495591424
 20
1.358655322691837
 30
0.0
 10
2.827550703427398
 20
1.354358199097326
 30
0.0
  0
SPLINE
  5
DC
330
1F
100
AcDbEntity
  8
0
  6
Continuous
 62
     7
370
    15
100
AcDbSpline
210
0.0
220
0.0
230
1.0
 70
     8
 71
     3
 72
    19
 73
    15
 74
     0
 42
0.000000001
 43
0.00000001
 40
0.0
 40
0.0
 40
0.0
 40
0.0
 40
0.0752954110866671
 40
0.1659724297553546
 40
0.2733292702186382
 40
0.4017553989071946
 40
0.4707184622920679
 40
0.5400770205214069
 40
0.60992213634295
 40
0.6806444428516216
 40
0.7548420335539424
 40
0.8325159277815054
 40
0.9139767315834311
 40
1.0
 40
1.0
 40
1.0
 40
1.0
 10
2.402617600431312
 20
1.617874635426746
 30
0.0
 10
2.401452573677719
 20
1.619292843179916
 30
0.0
 10
2.398884524466847
 20
1.622418975082174
 30
0.0
 10
2.396616441574439
 20
1.628738803469364
 30
0.0
 10
2.394753054051468
 20
1.636415178391627
 30
0.0
 10
2.394017040784061
 20
1.643786736008158
 30
0.0
 10
2.393836383215186
 20
1.650250968003677
 30
0.0
 10
2.394387308929446
 20
1.655282469133576
 30
0.0
 10
2.39559031527011
 20
1.660228480204109
 30
0.0
 10
2.397182166292231
 20
1.6651927734497
 30
0.0
 10
2.399555906787568
 20
1.670047164693936
 30
0.0
 10
2.402378168979752
 20
1.674949020575774
 30
0.0
 10
2.405874427771758
 20
1.679762275505767
 30
0.0
 10
2.408509146370219
 20
1.682847362753265
 30
0.0
 10
2.409862392097978
 20
1.684431927093412
 30
0.0
  0
SPLINE
  5
E0
330
1F
100
AcDbEntity
  8
0
  6
Continuous
 62
     7
370
    15
100
AcDbSpline
210
0.0
220
0.0
230
1.0
 70
     8
 71
     3
 72
    31
 73
    27
 74
     0
 42
0.000000001
 43
0.00000001
 40
0.0
 40
0.0
 40
0.0
 40
0.0
 40
0.0386200472024281
 40
0.0754048513126147
 40
0.1096617120761352
 40
0.1425646802125176
 40
0.1735480120297488
 40
0.2034200344786288
 40
0.2329598225780238
 40
0.2618628826724126
 40
0.2909148326642794
 40
0.319771207119899
 40
0.3494748535443016
 40
0.3796200466048139
 40
0.4112323270905904
 40
0.4438438869523574
 40
0.4784141747461629
 40
0.5144285310865067
 40
0.5848589218451465
 40
0.648638906905827
 40
0.7069364731937087
 40
0.7604219966040673
 40
0.8134731856110756
 40
0.8706687250465613
 40
0.932741476702497
 40
1.0
 40
1.0
 40
1.0
 40
1.0
 10
2.444122808764645
 20
1.717338177093412
 30
0.0
 10
2.446083190999868
 20
1.719128508150077
 30
0.0
 10
2.449910797170004
 20
1.722624092876335
 30
0.0
 10
2.455905235067192
 20
1.727210199571895
 30
0.0
 10
2.461935138507007
 20
1.731053365915138
 30
0.0
 10
2.467919649999536
 20
1.73418685443482
 30
0.0
 10
2.473940285713372
 20
1.736525809390493
 30
0.0
 10
2.479964113326987
 20
1.73808401048133
 30
0.0
 10
2.485978511720018
 20
1.739015302734294
 30
0.0
 10
2.492009685378695
 20
1.739043767120901
 30
0.0
 10
2.497952666119903
 20
1.738430106772034
 30
0.0
 10
2.503859558978077
 20
1.737203883520067
 30
0.0
 10
2.509661840130537
 20
1.735296534707364
 30
0.0
 10
2.51541985728479
 20
1.732753874343073
 30
0.0
 10
2.52108370734611
 20
1.72957439381571
 30
0.0
 10
2.526683206948331
 20
1.725722751721339
 30
0.0
 10
2.532217094805952
 20
1.721275074459607
 30
0.0
 10
2.539248293934524
 20
1.714597343208654
 30
0.0
 10
2.547181825859199
 20
1.705978009104207
 30
0.0
 10
2.555208717060466
 20
1.695438424516087
 30
0.0
 10
2.561448305150724
 20
1.685068700129037
 30
0.0
 10
2.565715942189529
 20
1.674522578896804
 30
0.0
 10
2.56830231397129
 20
1.663536616129503
 30
0.0
 10
2.569621733196473
 20
1.651746290245408
 30
0.0
 10
2.569681917320904
 20
1.638897841235524
 30
0.0
 10
2.568728175616898
 20
1.630056101440653
 30
0.0
 10
2.568232183764644
 20
1.625457968760079
 30
0.0
  0
SPLINE
  5
E2
330
1F
100
AcDbEntity
  8
0
  6
Continuous
 62
     7
370
    15
100
AcDbSpline
210
0.0
220
0.0
230
1.0
 70
     8
 71
     3
 72
    51
 73
    47
 74
     0
 42
0.000000001
 43
0.00000001
 40
0.0
 40
0.0
 40
0.0
 40
0.0
 40
0.0284146811561828
 40
0.0553883734275431
 40
0.0811153649006538
 40
0.1060980241093561
 40
0.1190440878383619
 40
0.1330257378971658
 40
0.148047401229685
 40
0.1642993188083356
 40
0.181674739541184
 40
0.2002102498999878
 40
0.2201316824978684
 40
0.2411688642307264
 40
0.2625171588034314
 40
0.2833592977681796
 40
0.3038444646682761
 40
0.3245319121544757
 40
0.3453479928285262
 40
0.3667537279825621
 40
0.3888137175260777
 40
0.4120315873335919
 40
0.4358252176839483
 40
0.4598025019355085
 40
0.4843993067667662
 40
0.5097700185638291
 40
0.5361958360182464
 40
0.5638017425175438
 40
0.5929078870948984
 40
0.623484907678597
 40
0.6540619282622948
 40
0.6829803763645699
 40
0.7104006480884429
 40
0.7365107643286479
 40
0.7616500005124615
 40
0.7858220614735374
 40
0.8095527832454141
 40
0.8328750413635906
 40
0.8556865762452728
 40
0.8775227818078916
 40
0.898583635978755
 40
0.9190531600374306
 40
0.9391971208631006
 40
0.9591520240083291
 40
0.9794052338481827
 40
1.0
 40
1.0
 40
1.0
 40
1.0
 10
2.604794683764645
 20
1.662020468760079
 30
0.0
 10
2.604877071164184
 20
1.666830819616921
 30
0.0
 10
2.605037667865107
 20
1.676207574827081
 30
0.0
 10
2.60352072161445
 20
1.689888609349738
 30
0.0
 10
2.600604900073898
 20
1.70272542773879
 30
0.0
 10
2.596991345571746
 20
1.712914854788913
 30
0.0
 10
2.593049383545477
 20
1.720769895780806
 30
0.0
 10
2.589547863375725
 20
1.726949052241297
 30
0.0
 10
2.585271097882756
 20
1.73330481092507
 30
0.0
 10
2.580505260186371
 20
1.740017102346974
 30
0.0
 10
2.57499524631486
 20
1.746917057058933
 30
0.0
 10
2.568785070949015
 20
1.754036693842776
 30
0.0
 10
2.561968093769075
 20
1.761443499559552
 30
0.0
 10
2.554666687333426
 20
1.769048038243288
 30
0.0
 10
2.546770913992516
 20
1.776291773900466
 30
0.0
 10
2.53811907945148
 20
1.782468250387999
 30
0.0
 10
2.528949337540057
 20
1.787604627375286
 30
0.0
 10
2.519262801842485
 20
1.791695359763438
 30
0.0
 10
2.508995891927499
 20
1.794577457679963
 30
0.0
 10
2.498273074080847
 20
1.796519106923262
 30
0.0
 10
2.486991307857551
 20
1.79718434872265
 30
0.0
 10
2.475293381361966
 20
1.796961414660343
 30
0.0
 10
2.463352255708617
 20
1.795474185770554
 30
0.0
 10
2.451402277896214
 20
1.792690590302228
 30
0.0
 10
2.439605137967875
 20
1.788471908697958
 30
0.0
 10
2.427801401179717
 20
1.783155502525657
 30
0.0
 10
2.416245187706169
 20
1.77626443628088
 30
0.0
 10
2.404665537072681
 20
1.768261665172356
 30
0.0
 10
2.393241057555613
 20
1.758876927943147
 30
0.0
 10
2.382134289136654
 20
1.748384430875377
 30
0.0
 10
2.371658049947849
 20
1.737303713429605
 30
0.0
 10
2.362334574932822
 20
1.725913997934333
 30
0.0
 10
2.354363853874338
 20
1.714448224241539
 30
0.0
 10
2.347722259925853
 20
1.702891106915055
 30
0.0
 10
2.342496014708585
 20
1.691227136580646
 30
0.0
 10
2.338568914793483
 20
1.679487019094188
 30
0.0
 10
2.336044346445239
 20
1.66767526966036
 30
0.0
 10
2.334931423567913
 20
1.655884957304336
 30
0.0
 10
2.334938855363196
 20
1.644371323365436
 30
0.0
 10
2.335923810790006
 20
1.633280600990064
 30
0.0
 10
2.337971536938013
 20
1.622739022771269
 30
0.0
 10
2.340938288296031
 20
1.612717321430172
 30
0.0
 10
2.344934921266277
 20
1.603253311273851
 30
0.0
 10
2.350025557514988
 20
1.594381168525914
 30
0.0
 10
2.356033691625433
 20
1.585996783344092
 30
0.0
 10
2.360760484019013
 20
1.580946787934816
 30
0.0
 10
2.363143642097978
 20
1.578400677093412
 30
0.0
  0
LWPOLYLINE
  5
E3
330
1F
100
AcDbEntity
  8
0
  6
Continuous
 62
     7
370
    15
100
AcDbPolyline
 90
       20
 70
   128
 43
0.0
 10
2.1437649492
 20
1.7444252034
 10
2.1383943143
 20
1.7401587162
 10
2.1321164477
 20
1.7374244987
 10
2.1252837941
 20
1.736883661
 10
2.1185740718
 20
1.7382899984
 10
2.0961437413
 20
1.7537249339
 10
2.0810973515
 20
1.7763895507
 10
2.0801373635
 20
1.789959038
 10
2.0824736554
 20
1.7964015597
 10
2.0865942025
 20
1.8018768496
 10
2.0918662078
 20
1.8062641712
 10
2.0981650386
 20
1.8089585141
 10
2.1049946848
 20
1.8093559015
 10
2.1116569236
 20
1.8077077415
 10
2.1338420969
 20
1.7918559211
 10
2.1496513866
 20
1.7696572099
 10
2.1511123167
 20
1.7629603903
 10
2.1506521667
 20
1.7561195459
 10
2.1480249978
 20
1.7497998134
 10
2.1437649492
 20
1.7444252034
  0
SPLINE
  5
E5
330
1F
100
AcDbEntity
  8
0
  6
Continuous
 62
     7
370
    15
100
AcDbSpline
210
0.0
220
0.0
230
1.0
 70
     8
 71
     3
 72
    39
 73
    35
 74
     0
 42
0.000000001
 43
0.00000001
 40
0.0
 40
0.0
 40
0.0
 40
0.0
 40
0.0172038496853359
 40
0.0354642090034044
 40
0.0547581661054057
 40
0.075949679247039
 40
0.0992640437716202
 40
0.1246193383748536
 40
0.1525302094500812
 40
0.1827770758659464
 40
0.2152522616729494
 40
0.2485875949513694
 40
0.2838331427738381
 40
0.3211081504253995
 40
0.3607249344525338
 40
0.402943873152979
 40
0.4477416869570924
 40
0.4952650981374386
 40
0.5433075055171903
 40
0.5883857442126047
 40
0.6308989505288171
 40
0.6713323141897104
 40
0.7097539645254161
 40
0.7466364014263619
 40
0.7819411710571743
 40
0.8159271577027134
 40
0.8480769995114279
 40
0.8774833852028651
 40
0.9039186613712886
 40
0.9274860128436468
 40
0.9485115157930168
 40
0.9674351806800815
 40
0.9843466818990292
 40
1.0
 40
1.0
 40
1.0
 40
1.0
 10
1.930504041349205
 20
2.104477777842185
 30
0.0
 10
1.929797516416599
 20
2.105268062119144
 30
0.0
 10
1.928341077983671
 20
2.106897163005446
 30
0.0
 10
1.92667180124805
 20
2.109849850399355
 30
0.0
 10
1.925388919472853
 20
2.11323338555578
 30
0.0
 10
1.924434655754854
 20
2.117049220406553
 30
0.0
 10
1.923938772952088
 20
2.121323523221053
 30
0.0
 10
1.923743401313487
 20
2.126030073707653
 30
0.0
 10
1.92388320013991
 20
2.131166840951547
 30
0.0
 10
1.924420885381862
 20
2.136716421493858
 30
0.0
 10
1.925453937314721
 20
2.142542498204552
 30
0.0
 10
1.927276319301451
 20
2.148494079255674
 30
0.0
 10
1.929707096211365
 20
2.154540181779034
 30
0.0
 10
1.932928612025958
 20
2.160647543936235
 30
0.0
 10
1.936879143663059
 20
2.166822032182297
 30
0.0
 10
1.941579591483733
 20
2.173035788883531
 30
0.0
 10
1.946945487783672
 20
2.17933503959579
 30
0.0
 10
1.952883780035353
 20
2.185601162685593
 30
0.0
 10
1.959153379081842
 20
2.191562359801505
 30
0.0
 10
1.965540424337563
 20
2.196930369122295
 30
0.0
 10
1.971851495596861
 20
2.201641153050931
 30
0.0
 10
1.978142039411113
 20
2.205670054578931
 30
0.0
 10
1.984474667320349
 20
2.208938126017475
 30
0.0
 10
1.990775584100034
 20
2.21151091374232
 30
0.0
 10
1.997017737108161
 20
2.213469691446231
 30
0.0
 10
2.003172088263223
 20
2.214544651401449
 30
0.0
 10
2.009006954728686
 20
2.215227289284357
 30
0.0
 10
2.014415403409461
 20
2.215510181590503
 30
0.0
 10
2.019295129407534
 20
2.215416792501407
 30
0.0
 10
2.023667095269395
 20
2.215183883301064
 30
0.0
 10
2.027487827478959
 20
2.21431234944675
 30
0.0
 10
2.0308235650502
 20
2.213272535347981
 30
0.0
 10
2.033709618037139
 20
2.211887413927109
 30
0.0
 10
2.035206427286768
 20
2.210544950612595
 30
0.0
 10
2.035925916349205
 20
2.209899652842185
 30
0.0
  0
SPLINE
  5
E7
330
1F
100
AcDbEntity
  8
0
  6
Continuous
 62
     7
370
    15
100
AcDbSpline
210
0.0
220
0.0
230
1.0
 70
     8
 71
     3
 72
    39
 73
    35
 74
     0
 42
0.000000001
 43
0.00000001
 40
0.0
 40
0.0
 40
0.0
 40
0.0
 40
0.0313158367334305
 40
0.0610995402318622
 40
0.089972256097543
 40
0.118275867241556
 40
0.1463121946522471
 40
0.174724747305476
 40
0.2039756684921178
 40
0.2344676563584279
 40
0.2658132233233008
 40
0.2977475830168798
 40
0.3303058813536094
 40
0.3637991521169488
 40
0.398708189847196
 40
0.4350470475173311
 40
0.4728368106721069
 40
0.5124712836546482
 40
0.5518637357842526
 40
0.5891814028965541
 40
0.6244760995900546
 40
0.6578723561508271
 40
0.6900425935774503
 40
0.7209125612251245
 40
0.7508807339664373
 40
0.7804777695067976
 40
0.809375745611028
 40
0.8371662477863907
 40
0.8643284560837036
 40
0.8910196260346535
 40
0.9175169899832869
 40
0.9443820833857467
 40
0.9716941949476712
 40
1.0
 40
1.0
 40
1.0
 40
1.0
 10
2.074790499682539
 20
2.248764236175519
 30
0.0
 10
2.071871037364528
 20
2.251520380297589
 30
0.0
 10
2.066174947974578
 20
2.256897823669286
 30
0.0
 10
2.056783131811836
 20
2.263632828666461
 30
0.0
 10
2.047067025809719
 20
2.269128203241768
 30
0.0
 10
2.036910435017587
 20
2.273210726095781
 30
0.0
 10
2.026376836082267
 20
2.275961601235905
 30
0.0
 10
2.015451288522337
 20
2.277283148590396
 30
0.0
 10
2.004134211950271
 20
2.277358612301102
 30
0.0
 10
1.9925206750065
 20
2.276014941914181
 30
0.0
 10
1.980757017388665
 20
2.273509310517866
 30
0.0
 10
1.969031404043836
 20
2.269820882993849
 30
0.0
 10
1.957400930111697
 20
2.265065864396785
 30
0.0
 10
1.9458921342568
 20
2.25913032986696
 30
0.0
 10
1.93453449030005
 20
2.25196560973259
 30
0.0
 10
1.923221794158049
 20
2.243761847818858
 30
0.0
 10
1.911993903522011
 20
2.234454142850056
 30
0.0
 10
1.901190007472964
 20
2.224090413325436
 30
0.0
 10
1.890935570666557
 20
2.21326547315664
 30
0.0
 10
1.881849670161875
 20
2.202147207498071
 30
0.0
 10
1.874002932285851
 20
2.191049118699997
 30
0.0
 10
1.867498713494698
 20
2.179866033245628
 30
0.0
 10
1.862319283589076
 20
2.168628900583667
 30
0.0
 10
1.858500776628716
 20
2.157321310264443
 30
0.0
 10
1.855952703252322
 20
2.145998551690958
 30
0.0
 10
1.854739517794641
 20
2.134706740364515
 30
0.0
 10
1.85477546006441
 20
2.123638024325378
 30
0.0
 10
1.855753100589378
 20
2.112926399300606
 30
0.0
 10
1.857847924569663
 20
2.102656290138582
 30
0.0
 10
1.861059791181958
 20
2.092857439119174
 30
0.0
 10
1.865281074144207
 20
2.083488380732542
 30
0.0
 10
1.870605964176158
 20
2.074611934374474
 30
0.0
 10
1.876924006443963
 20
2.066110476853202
 30
0.0
 10
1.881874961089588
 20
2.060979650690884
 30
0.0
 10
1.884394666349206
 20
2.058368402842186
 30
0.0
  0
SPLINE
  5
E8
330
1F
100
AcDbEntity
  8
0
  6
Continuous
 62
     7
370
    15
100
AcDbSpline
210
0.0
220
0.0
230
1.0
 70
     8
 71
     3
 72
    39
 73
    35
 74
     0
 42
0.000000001
 43
0.00000001
 40
0.0
 40
0.0
 40
0.0
 40
0.0
 40
0.050330625790167
 40
0.096485777231364
 40
0.1388194062956108
 40
0.1772120658620755
 40
0.2116640667773263
 40
0.242607835965428
 40
0.2706898916674454
 40
0.2960064015857335
 40
0.3199624163904596
 40
0.3436910909647177
 40
0.3675731101801561
 40
0.3919819851970581
 40
0.4171209101300826
 40
0.4435992472048594
 40
0.4716043845356042
 40
0.5012519385833709
 40
0.5308994926311368
 40
0.5580685863282497
 40
0.5838183328596057
 40
0.6076632681719027
 40
0.6299867527563298
 40
0.6512363688996892
 40
0.6712611876816779
 40
0.6909095927355419
 40
0.7120757540011642
 40
0.737633617133577
 40
0.7676795905060693
 40
0.8032173946565409
 40
0.8440073232202041
 40
0.8904468031184902
 40
0.9423229597264363
 40
0.9999999999999999
 40
0.9999999999999999
 40
0.9999999999999999
 40
0.9999999999999999
 10
1.446740721312065
 20
2.648230681212659
 30
0.0
 10
1.449153413981367
 20
2.645812917167163
 30
0.0
 10
1.453778640148604
 20
2.641177968973508
 30
0.0
 10
1.460110699807739
 20
2.634196353059912
 30
0.0
 10
1.465527536287751
 20
2.627499246945896
 30
0.0
 10
1.470110423493312
 20
2.621159750613602
 30
0.0
 10
1.473730190011219
 20
2.615106892028807
 30
0.0
 10
1.476494913921389
 20
2.609388443429756
 30
0.0
 10
1.478392189806556
 20
2.603966774029999
 30
0.0
 10
1.479285851901776
 20
2.598770663196513
 30
0.0
 10
1.479407745689342
 20
2.593804719856824
 30
0.0
 10
1.478934404853589
 20
2.588959706119433
 30
0.0
 10
1.477843310010619
 20
2.584180266862887
 30
0.0
 10
1.476108172050408
 20
2.579500442542774
 30
0.0
 10
1.473888114782731
 20
2.574828774334399
 30
0.0
 10
1.470892074960166
 20
2.570321027805788
 30
0.0
 10
1.467484943541155
 20
2.565730238718975
 30
0.0
 10
1.463359149365275
 20
2.561463781427062
 30
0.0
 10
1.459098544996841
 20
2.557427893224937
 30
0.0
 10
1.454772788413195
 20
2.553861565616122
 30
0.0
 10
1.450553854133077
 20
2.550793547642408
 30
0.0
 10
1.446320463343778
 20
2.548354766153166
 30
0.0
 10
1.442177611534578
 20
2.546384544281064
 30
0.0
 10
1.438031638958519
 20
2.545148185107653
 30
0.0
 10
1.433986793274456
 20
2.544265786167037
 30
0.0
 10
1.429839407555679
 20
2.544021217795692
 30
0.0
 10
1.425358219868595
 20
2.544706283237252
 30
0.0
 10
1.420404825248745
 20
2.546390551618587
 30
0.0
 10
1.414883441820955
 20
2.549206783695938
 30
0.0
 10
1.408750017122737
 20
2.553023750273756
 30
0.0
 10
1.401983259088139
 20
2.557889404221473
 30
0.0
 10
1.394530366732163
 20
2.563688080006929
 30
0.0
 10
1.386560200704836
 20
2.57066080839738
 30
0.0
 10
1.38109642849665
 20
2.575701750339768
 30
0.0
 10
1.378219887978731
 20
2.578355681212659
 30
0.0
  0
SPLINE
  5
EA
330
1F
100
AcDbEntity
  8
0
  6
Continuous
 62
     7
370
    15
100
AcDbSpline
210
0.0
220
0.0
230
1.0
 70
     8
 71
     3
 72
    47
 73
    43
 74
     0
 42
0.000000001
 43
0.00000001
 40
0.0
 40
0.0
 40
0.0
 40
0.0
 40
0.038635115672148
 40
0.074320591629155
 40
0.1071715112912044
 40
0.1372668152931226
 40
0.1644844558400883
 40
0.1889234707182102
 40
0.2108385259595852
 40
0.2301738468990504
 40
0.2478108451909895
 40
0.2647215064829166
 40
0.2809633369782315
 40
0.2966979789909677
 40
0.3120013762878883
 40
0.3268561543761928
 40
0.3416992511168807
 40
0.3565530561104229
 40
0.3872508632595631
 40
0.4202598053604987
 40
0.4560678030992959
 40
0.4952980684231502
 40
0.5155091529371935
 40
0.5353200641613276
 40
0.5547098813934429
 40
0.5738687163835496
 40
0.5928036767618433
 40
0.6116912480720343
 40
0.6307251895762813
 40
0.6497386158584803
 40
0.6872792317043871
 40
0.7235094021502734
 40
0.7591097146248773
 40
0.7949467648558576
 40
0.813954108301371
 40
0.834636719791807
 40
0.8570338980573626
 40
0.8815555771503377
 40
0.9079098012968368
 40
0.9365617897792015
 40
0.9671600823542871
 40
1.0
 40
1.0
 40
1.0
 40
1.0
 10
1.336782387978732
 20
2.536918181212659
 30
0.0
 10
1.340551061997608
 20
2.533439113740283
 30
0.0
 10
1.347800686539105
 20
2.526746591966597
 30
0.0
 10
1.358622837259012
 20
2.517511160869269
 30
0.0
 10
1.368656653465979
 20
2.509095882682344
 30
0.0
 10
1.378221213476621
 20
2.501896730988813
 30
0.0
 10
1.387058744785672
 20
2.495591076628183
 30
0.0
 10
1.395366486296744
 20
2.490449531975996
 30
0.0
 10
1.402973527575128
 20
2.486173411679296
 30
0.0
 10
1.410133825538687
 20
2.483004929036245
 30
0.0
 10
1.416904190380477
 20
2.480685471898702
 30
0.0
 10
1.423406059211899
 20
2.478871803691545
 30
0.0
 10
1.429806551531819
 20
2.477760415729592
 30
0.0
 10
1.436044708225559
 20
2.477028978014042
 30
0.0
 10
1.442151094813654
 20
2.476948515778974
 30
0.0
 10
1.4481010478295
 20
2.477543491155267
 30
0.0
 10
1.45394536222633
 20
2.478504484024283
 30
0.0
 10
1.461655071809123
 20
2.480760108779611
 30
0.0
 10
1.471242664205878
 20
2.484958327817676
 30
0.0
 10
1.482608985162526
 20
2.491748150636794
 30
0.0
 10
1.494014246223179
 20
2.500481886530576
 30
0.0
 10
1.503367248900238
 20
2.509019644104989
 30
0.0
 10
1.510545675920329
 20
2.516716508627064
 30
0.0
 10
1.515578044952192
 20
2.522797529303531
 30
0.0
 10
1.520047238351587
 20
2.5291318197873
 30
0.0
 10
1.524073382150821
 20
2.535621768617093
 30
0.0
 10
1.52751360332436
 20
2.542364806824461
 30
0.0
 10
1.530541964739293
 20
2.549285847922216
 30
0.0
 10
1.53293329288261
 20
2.556463222568726
 30
0.0
 10
1.535564834755295
 20
2.566151455598292
 30
0.0
 10
1.537480560541966
 20
2.578357186937449
 30
0.0
 10
1.537972200084958
 20
2.592912266192521
 30
0.0
 10
1.536277801734062
 20
2.607149863356865
 30
0.0
 10
1.533318807214829
 20
2.618831908107139
 30
0.0
 10
1.529633721386244
 20
2.62817057885807
 30
0.0
 10
1.525924081794864
 20
2.635538766721329
 30
0.0
 10
1.521428463496945
 20
2.643310146210417
 30
0.0
 10
1.516014081990353
 20
2.651399241295419
 30
0.0
 10
1.509629899873363
 20
2.65981014597021
 30
0.0
 10
1.502505873607922
 20
2.668666017494048
 30
0.0
 10
1.494391810330236
 20
2.677814614660821
 30
0.0
 10
1.488602331379068
 20
2.683929688057527
 30
0.0
 10
1.485605304645398
 20
2.687095264545992
 30
0.0
  0
LINE
  5
F7
330
1F
100
AcDbEntity
  8
0
  6
Continuous
 62
     7
370
    15
100
AcDbLine
 10
1.2682615546
 20
2.6047619312
 30
0.0
 11
1.487907388
 21
2.8244077645
 31
0.0
  0
LINE
  5
F8
330
1F
100
AcDbEntity
  8
0
  6
Continuous
 62
     7
370
    15
100
AcDbLine
 10
1.3149803046
 20
2.5580431812
 30
0.0
 11
1.2682615546
 21
2.6047619312
 31
0.0
  0
LINE
  5
F9
330
1F
100
AcDbEntity
  8
0
  6
Continuous
 62
     7
370
    15
100
AcDbLine
 10
1.534626138
 20
2.7776890145
 30
0.0
 11
1.3149803046
 21
2.5580431812
 31
0.0
  0
LINE
  5
FA
330
1F
100
AcDbEntity
  8
0
  6
Continuous
 62
     7
370
    15
100
AcDbLine
 10
1.487907388
 20
2.8244077645
 30
0.0
 11
1.534626138
 21
2.7776890145
 31
0.0
  0
LINE
  5
FB
330
1F
100
AcDbEntity
  8
0
  6
Continuous
 62
     7
370
    15
100
AcDbLine
 10
1.6350677081
 20
2.3169036944
 30
0.0
 11
1.5879427081
 21
2.3640286944
 31
0.0
  0
LINE
  5
FC
330
1F
100
AcDbEntity
  8
0
  6
Continuous
 62
     7
370
    15
100
AcDbLine
 10
1.6782656247
 20
2.3601016111
 30
0.0
 11
1.6350677081
 21
2.3169036944
 31
0.0
  0
LINE
  5
FD
330
1F
100
AcDbEntity
  8
0
  6
Continuous
 62
     7
370
    15
100
AcDbLine
 10
1.7638489581
 20
2.3028203611
 30
0.0
 11
1.7144218747
 21
2.2487891111
 31
0.0
  0
LINE
  5
FE
330
1F
100
AcDbEntity
  8
0
  6
Continuous
 62
     7
370
    15
100
AcDbLine
 10
1.8175416664
 20
2.4947734861
 30
0.0
 11
1.7704166664
 21
2.4483255694
 31
0.0
  0
LINE
  5
FF
330
1F
100
AcDbEntity
  8
0
  6
Continuous
 62
     7
370
    15
100
AcDbLine
 10
1.7681145831
 20
2.5442005694
 30
0.0
 11
1.8175416664
 21
2.4947734861
 31
0.0
  0
LINE
  5
100
330
1F
100
AcDbEntity
  8
0
  6
Continuous
 62
     7
370
    15
100
AcDbLine
 10
1.5879427081
 20
2.3640286944
 30
0.0
 11
1.7681145831
 21
2.5442005694
 31
0.0
  0
LINE
  5
101
330
1F
100
AcDbEntity
  8
0
  6
Continuous
 62
     7
370
    15
100
AcDbLine
 10
1.9071446663
 20
2.0356184028
 30
0.0
 11
1.9532540413
 21
2.0817277778
 31
0.0
  0
LINE
  5
102
330
1F
100
AcDbEntity
  8
0
  6
Continuous
 62
     7
370
    15
100
AcDbLine
 10
2.059014458
 20
2.1874881945
 30
0.0
 11
2.0975404997
 21
2.2260142362
 31
0.0
  0
LINE
  5
103
330
1F
100
AcDbEntity
  8
0
  6
Continuous
 62
     7
370
    15
100
AcDbLine
 10
2.2662493242
 20
2.0513470784
 30
0.0
 11
2.3001034908
 21
2.0846595784
 31
0.0
  0
LINE
  5
104
330
1F
100
AcDbEntity
  8
0
  6
Continuous
 62
     7
370
    15
100
AcDbLine
 10
2.1219628658
 20
1.8300085367
 30
0.0
 11
2.2754576575
 21
1.9835033284
 31
0.0
  0
LINE
  5
105
330
1F
100
AcDbEntity
  8
0
  6
Continuous
 62
     7
370
    15
100
AcDbLine
 10
2.3238014075
 20
1.9331283284
 30
0.0
 11
2.1713222408
 21
1.7806491617
 31
0.0
  0
LINE
  5
106
330
1F
100
AcDbEntity
  8
0
  6
Continuous
 62
     7
370
    15
100
AcDbLine
 10
2.4941592671
 20
1.6001350521
 30
0.0
 11
2.4625394754
 21
1.6317548438
 31
0.0
  0
LINE
  5
107
330
1F
100
AcDbEntity
  8
0
  6
Continuous
 62
     7
370
    15
100
AcDbLine
 10
2.3865030171
 20
1.5550413021
 30
0.0
 11
2.4256384338
 21
1.5948538021
 31
0.0
  0
LINE
  5
108
330
1F
100
AcDbEntity
  8
0
  6
Continuous
 62
     7
370
    15
100
AcDbLine
 10
2.4961228088
 20
1.6653381771
 30
0.0
 11
2.5597009338
 21
1.6017600521
 31
0.0
  0
LINE
  5
109
330
1F
100
AcDbEntity
  8
0
  6
Continuous
 62
     7
370
    15
100
AcDbLine
 10
2.4625394754
 20
1.6317548438
 30
0.0
 11
2.4961228088
 21
1.6653381771
 31
0.0
  0
LINE
  5
10A
330
1F
100
AcDbEntity
  8
0
  6
Continuous
 62
     7
370
    15
100
AcDbLine
 10
3.0066162845
 20
1.0368967847
 30
0.0
 11
2.9625381595
 21
0.9928186597
 31
0.0
  0
LINE
  5
10B
330
1F
100
AcDbEntity
  8
0
  6
Continuous
 62
     7
370
    15
100
AcDbLine
 10
2.9440537845
 20
1.0994592847
 30
0.0
 11
3.0066162845
 21
1.0368967847
 31
0.0
  0
LINE
  5
10C
330
1F
100
AcDbEntity
  8
0
  6
Continuous
 62
     7
370
    15
100
AcDbLine
 10
3.1212464928
 20
1.1607353264
 30
0.0
 11
3.0850225345
 21
1.124511368
 31
0.0
  0
LINE
  5
10D
330
1F
100
AcDbEntity
  8
0
  6
Continuous
 62
     7
370
    15
100
AcDbLine
 10
2.8693037845
 20
1.1755634514
 30
0.0
 11
2.8989600345
 21
1.1465842847
 31
0.0
  0
LINE
  5
10E
330
1F
100
AcDbEntity
  8
0
  6
Continuous
 62
     7
370
    15
100
AcDbLine
 10
2.8380225345
 20
1.1442822014
 30
0.0
 11
2.8693037845
 21
1.1755634514
 31
0.0
  0
LINE
  5
10F
330
1F
100
AcDbEntity
  8
0
  6
Continuous
 62
     7
370
    15
100
AcDbLine
 10
2.8542048262
 20
1.0062249097
 30
0.0
 11
2.8291527428
 21
1.0319540764
 31
0.0
  0
LINE
  5
110
330
1F
100
AcDbEntity
  8
0
  6
Continuous
 62
     7
370
    15
100
AcDbLine
 10
2.9006527428
 20
1.0547040764
 30
0.0
 11
2.8542048262
 21
1.0062249097
 31
0.0
  0
LINE
  5
111
330
1F
100
AcDbEntity
  8
0
  6
Continuous
 62
     7
370
    15
100
AcDbLine
 10
2.9625381595
 20
0.9928186597
 30
0.0
 11
2.9006527428
 21
1.0547040764
 31
0.0
  0
LINE
  5
112
330
1F
100
AcDbEntity
  8
0
  6
Continuous
 62
     7
370
    15
100
AcDbLine
 10
3.1967261791
 20
0.66763064
 30
0.0
 11
3.2382313875
 21
0.7098129317
 31
0.0
  0
LINE
  5
113
330
1F
100
AcDbEntity
  8
0
  6
Continuous
 62
     7
370
    15
100
AcDbLine
 10
3.2810907625
 20
0.7506410567
 30
0.0
 11
3.3173147208
 21
0.786865015
 31
0.0
  0
LINE
  5
114
330
1F
100
AcDbEntity
  8
0
  6
Continuous
 62
     7
370
    15
100
AcDbLine
 10
3.3890855541
 20
0.8613441817
 30
0.0
 11
3.4253095125
 21
0.89756814
 31
0.0
  0
LINE
  5
115
330
1F
100
AcDbEntity
  8
0
  6
Continuous
 62
     7
370
    15
100
AcDbLine
 10
3.4486688875
 20
0.8735316817
 30
0.0
 11
3.4124449291
 21
0.8373077234
 31
0.0
  0
LINE
  5
116
330
1F
100
AcDbEntity
  8
0
  6
Continuous
 62
     7
370
    15
100
AcDbLine
 10
3.3396584708
 20
0.7651983484
 30
0.0
 11
3.3030959708
 21
0.7286358484
 31
0.0
  0
LINE
  5
117
330
1F
100
AcDbEntity
  8
0
  6
Continuous
 62
     7
370
    15
100
AcDbLine
 10
3.2988303458
 20
0.6215889734
 30
0.0
 11
3.3383720125
 21
0.66113064
 31
0.0
  0
LINE
  5
118
330
1F
100
AcDbEntity
  8
0
  6
Continuous
 62
     7
370
    15
100
AcDbLine
 10
3.2612522208
 20
0.6867920984
 30
0.0
 11
3.2194084708
 21
0.6449483484
 31
0.0
  0
LINE
  5
119
330
1F
100
AcDbEntity
  8
0
  6
Continuous
 62
     7
370
    15
100
AcDbLine
 10
3.5287302492
 20
0.4068557366
 30
0.0
 11
3.4921677492
 21
0.3702932366
 31
0.0
  0
LINE
  5
11A
330
1F
100
AcDbEntity
  8
0
  6
Continuous
 62
     7
370
    15
100
AcDbLine
 10
3.7216989992
 20
0.5998244866
 30
0.0
 11
3.6798552492
 21
0.5579807366
 31
0.0
  0
LINE
  5
11B
330
1F
100
AcDbEntity
  8
0
  6
Continuous
 62
     7
370
    15
100
AcDbLine
 10
3.6370635826
 20
0.5172203199
 30
0.0
 11
3.6008396242
 21
0.4809963616
 31
0.0
  0
LINE
  5
11C
330
1F
100
AcDbEntity
  8
0
  6
Continuous
 62
     7
370
    15
100
AcDbLine
 10
3.4694177492
 20
0.3937203199
 30
0.0
 11
3.5056417076
 21
0.4299442783
 31
0.0
  0
LINE
  5
11D
330
1F
100
AcDbEntity
  8
0
  6
Continuous
 62
     7
370
    15
100
AcDbLine
 10
3.5787667076
 20
0.5023921949
 30
0.0
 11
3.6153292076
 21
0.5389546949
 31
0.0
  0
LINE
  5
11E
330
1F
100
AcDbEntity
  8
0
  6
Continuous
 62
     7
370
    15
100
AcDbLine
 10
3.6196625409
 20
0.6459338616
 30
0.0
 11
3.5801208742
 21
0.6063921949
 31
0.0
  0
LINE
  5
11F
330
1F
100
AcDbEntity
  8
0
  6
Continuous
 62
     7
370
    15
100
AcDbLine
 10
3.6571052492
 20
0.5807307366
 30
0.0
 11
3.6989489992
 21
0.6225744866
 31
0.0
  0
LINE
  5
120
330
1F
100
AcDbEntity
  8
0
  6
Continuous
 62
     7
370
    15
100
AcDbLine
 10
0.9047082773
 20
-0.1672349049
 30
0.0
 11
0.7800081185
 21
-0.0425347461
 31
0.0
  0
LINE
  5
121
330
1F
100
AcDbEntity
  8
0
  6
Continuous
 62
     7
370
    15
100
AcDbLine
 10
1.2885919269
 20
-0.5431551661
 30
0.0
 11
1.1640832916
 21
-0.4186465308
 31
0.0
  0
LINE
  5
122
330
1F
100
AcDbEntity
  8
0
  6
Continuous
 62
     7
370
    15
100
AcDbLine
 10
0.8263659721
 20
0.0010083284
 30
0.0
 11
0.9524774262
 21
-0.1251031256
 31
0.0
  0
LINE
  5
123
330
1F
100
AcDbEntity
  8
0
  6
Continuous
 62
     7
370
    15
100
AcDbLine
 10
1.2018473598
 20
-0.3744730592
 30
0.0
 11
1.3279589677
 21
-0.5005846671
 31
0.0
  0
LINE
  5
124
330
1F
100
AcDbEntity
  8
0
  6
Continuous
 62
     7
370
    15
100
AcDbLine
 10
2.5231155792
 20
0.6202832691
 30
0.0
 11
2.4770995589
 21
0.4349647239
 31
0.0
  0
LINE
  5
125
330
1F
100
AcDbEntity
  8
0
  6
Continuous
 62
     7
370
    15
100
AcDbLine
 10
1.7619838035
 20
1.150114692
 30
0.0
 11
1.9454149506
 21
1.1942433142
 31
0.0
  0
LINE
  5
126
330
1F
100
AcDbEntity
  8
0
  6
Continuous
 62
     7
370
    15
100
AcDbLine
 10
1.9454149506
 20
1.1942433142
 30
0.0
 11
1.5774264898
 21
1.562231775
 31
0.0
  0
LINE
  5
127
330
1F
100
AcDbEntity
  8
0
  6
Continuous
 62
     7
370
    15
100
AcDbLine
 10
1.5774264898
 20
1.562231775
 30
0.0
 11
1.3420491289
 21
0.0151013258
 31
0.0
  0
LINE
  5
128
330
1F
100
AcDbEntity
  8
0
  6
Continuous
 62
     7
370
    15
100
AcDbLine
 10
1.3420491289
 20
0.0151013258
 30
0.0
 11
2.8897355338
 21
0.249922731
 31
0.0
  0
LINE
  5
129
330
1F
100
AcDbEntity
  8
0
  6
Continuous
 62
     7
370
    15
100
AcDbLine
 10
2.8897355338
 20
0.249922731
 30
0.0
 11
2.5231155792
 21
0.6202832691
 31
0.0
  0
LINE
  5
12A
330
1F
100
AcDbEntity
  8
0
  6
Continuous
 62
     7
370
    15
100
AcDbLine
 10
3.9917499443
 20
0.3205652082
 30
0.0
 11
4.0401614027
 21
0.2721537498
 31
0.0
  0
LINE
  5
12B
330
1F
100
AcDbEntity
  8
0
  6
Continuous
 62
     7
370
    15
100
AcDbLine
 10
3.818822861
 20
0.1476381248
 30
0.0
 11
3.9917499443
 21
0.3205652082
 31
0.0
  0
LINE
  5
12C
330
1F
100
AcDbEntity
  8
0
  6
Continuous
 62
     7
370
    15
100
AcDbLine
 10
3.7961405693
 20
0.2737787498
 30
0.0
 11
3.818822861
 21
0.1476381248
 31
0.0
  0
LINE
  5
12D
330
1F
100
AcDbEntity
  8
0
  6
Continuous
 62
     7
370
    15
100
AcDbLine
 10
3.7542968193
 20
0.2319349998
 30
0.0
 11
3.7961405693
 21
0.2737787498
 31
0.0
  0
LINE
  5
12E
330
1F
100
AcDbEntity
  8
0
  6
Continuous
 62
     7
370
    15
100
AcDbLine
 10
3.779010361
 20
0.0940131248
 30
0.0
 11
3.7542968193
 21
0.2319349998
 31
0.0
  0
LINE
  5
12F
330
1F
100
AcDbEntity
  8
0
  6
Continuous
 62
     7
370
    15
100
AcDbLine
 10
3.8205155693
 20
0.0525079165
 30
0.0
 11
3.779010361
 21
0.0940131248
 31
0.0
  0
LINE
  5
130
330
1F
100
AcDbEntity
  8
0
  6
Continuous
 62
     7
370
    15
100
AcDbLine
 10
4.0401614027
 20
0.2721537498
 30
0.0
 11
3.8205155693
 21
0.0525079165
 31
0.0
  0
LINE
  5
131
330
1F
100
AcDbEntity
  8
0
  6
Continuous
 62
     7
370
    15
100
AcDbLine
 10
2.8703423701
 20
1.3971498658
 30
0.0
 11
2.8275507034
 21
1.3543581991
 31
0.0
  0
LINE
  5
132
330
1F
100
AcDbEntity
  8
0
  6
Continuous
 62
     7
370
    15
100
AcDbLine
 10
2.7821184118
 20
1.3096029908
 30
0.0
 11
2.7333684118
 21
1.2608529908
 31
0.0
  0
LINE
  5
133
330
1F
100
AcDbEntity
  8
0
  6
Continuous
 62
     7
370
    15
100
AcDbLine
 10
2.4026176004
 20
1.6178746354
 30
0.0
 11
2.3631436421
 21
1.5784006771
 31
0.0
  0
LINE
  5
134
330
1F
100
AcDbEntity
  8
0
  6
Continuous
 62
     7
370
    15
100
AcDbLine
 10
2.4395186421
 20
1.6547756771
 30
0.0
 11
2.4098623921
 21
1.6844319271
 31
0.0
  0
LINE
  5
135
330
1F
100
AcDbEntity
  8
0
  6
Continuous
 62
     7
370
    15
100
AcDbLine
 10
2.4731019754
 20
1.6883590104
 30
0.0
 11
2.4395186421
 21
1.6547756771
 31
0.0
  0
LINE
  5
136
330
1F
100
AcDbEntity
  8
0
  6
Continuous
 62
     7
370
    15
100
AcDbLine
 10
2.4441228088
 20
1.7173381771
 30
0.0
 11
2.4731019754
 21
1.6883590104
 31
0.0
  0
LINE
  5
137
330
1F
100
AcDbEntity
  8
0
  6
Continuous
 62
     7
370
    15
100
AcDbLine
 10
2.6047946838
 20
1.6620204688
 30
0.0
 11
2.5682321838
 21
1.6254579688
 31
0.0
  0
LINE
  5
138
330
1F
100
AcDbEntity
  8
0
  6
Continuous
 62
     7
370
    15
100
AcDbLine
 10
1.9305040413
 20
2.1044777778
 30
0.0
 11
1.8843946663
 21
2.0583684028
 31
0.0
  0
LINE
  5
139
330
1F
100
AcDbEntity
  8
0
  6
Continuous
 62
     7
370
    15
100
AcDbLine
 10
2.0747904997
 20
2.2487642362
 30
0.0
 11
2.0359259163
 21
2.2098996528
 31
0.0
  0
LINE
  5
13A
330
1F
100
AcDbEntity
  8
0
  6
Continuous
 62
     7
370
    15
100
AcDbLine
 10
1.336782388
 20
2.5369181812
 30
0.0
 11
1.378219888
 21
2.5783556812
 31
0.0
  0
LINE
  5
13B
330
1F
100
AcDbEntity
  8
0
  6
Continuous
 62
     7
370
    15
100
AcDbLine
 10
1.4467407213
 20
2.6482306812
 30
0.0
 11
1.4856053046
 21
2.6870952645
 31
0.0
  0
LINE
  5
13C
330
1F
100
AcDbEntity
  8
0
  6
Continuous
 62
     7
370
    15
100
AcDbLine
 10
0.0
 20
-0.2959904252
 30
0.0
 11
0.0
 21
-1.2959904252
 31
0.0
  0
LINE
  5
13D
330
1F
100
AcDbEntity
  8
0
  6
Continuous
 62
     7
370
    15
100
AcDbLine
 10
-0.8177864669
 20
-0.2959904252
 30
0.0
 11
0.0
 21
-0.2959904252
 31
0.0
  0
LINE
  5
13E
330
1F
100
AcDbEntity
  8
0
  6
Continuous
 62
     7
370
    15
100
AcDbLine
 10
-0.8177864669
 20
3.7040095748
 30
0.0
 11
-0.8177864669
 21
-0.2959904252
 31
0.0
  0
LINE
  5
13F
330
1F
100
AcDbEntity
  8
0
  6
Continuous
 62
     7
370
    15
100
AcDbLine
 10
0.0
 20
3.7040095748
 30
0.0
 11
-0.8177864669
 21
3.7040095748
 31
0.0
  0
LINE
  5
140
330
1F
100
AcDbEntity
  8
0
  6
Continuous
 62
     7
370
    15
100
AcDbLine
 10
0.0
 20
4.7040095748
 30
0.0
 11
0.0
 21
3.7040095748
 31
0.0
  0
LINE
  5
141
330
1F
100
AcDbEntity
  8
0
  6
Continuous
 62
     7
370
    15
100
AcDbLine
 10
6.0
 20
-1.2959904252
 30
0.0
 11
0.0
 21
4.7040095748
 31
0.0
  0
LINE
  5
142
330
1F
100
AcDbEntity
  8
0
  6
Continuous
 62
     7
370
    15
100
AcDbLine
 10
5.0
 20
-1.2959904252
 30
0.0
 11
6.0
 21
-1.2959904252
 31
0.0
  0
LINE
  5
143
330
1F
100
AcDbEntity
  8
0
  6
Continuous
 62
     7
370
    15
100
AcDbLine
 10
5.0
 20
-2.1137768921
 30
0.0
 11
5.0
 21
-1.2959904252
 31
0.0
  0
LINE
  5
144
330
1F
100
AcDbEntity
  8
0
  6
Continuous
 62
     7
370
    15
100
AcDbLine
 10
5.0
 20
-2.1137768921
 30
0.0
 11
1.0
 21
-2.1137768921
 31
0.0
  0
LINE
  5
145
330
1F
100
AcDbEntity
  8
0
  6
Continuous
 62
     7
370
    15
100
AcDbLine
 10
1.0
 20
-1.2959904252
 30
0.0
 11
1.0
 21
-2.1137768921
 31
0.0
  0
LINE
  5
146
330
1F
100
AcDbEntity
  8
0
  6
Continuous
 62
     7
370
    15
100
AcDbLine
 10
0.0
 20
-1.2959904252
 30
0.0
 11
1.0
 21
-1.2959904252
 31
0.0
  0
MTEXT
  5
148
330
1F
100
AcDbEntity
  8
0
  6
Continuous
 62
     7
100
AcDbMText
 10
-0.8177864669
 20
-2.1539173013
 30
0.0
 40
0.1903
 41
0.0
 71
     1
 72
     1
  1
SolidWorks Student Edition.
  7
SLDTEXTSTYLE0
 73
     1
 44
1.0
  0
MTEXT
  5
149
330
1F
100
AcDbEntity
  8
0
  6
Continuous
 62
     7
100
AcDbMText
 10
-0.8177864669
 20
-2.4393673013
 30
0.0
 40
0.1903
 41
0.0
 71
     1
 72
     1
  1
For Academic Use Only.
  7
SLDTEXTSTYLE0
 73
     1
 44
1.0
  0
ENDSEC
  0
SECTION
  2
OBJECTS
  0
DICTIONARY
  5
C
330
0
100
AcDbDictionary
281
     1
  3
ACAD_GROUP
350
D
  3
ACAD_LAYOUT
350
1A
  3
ACAD_MLINESTYLE
350
17
  3
ACAD_PLOTSETTINGS
350
19
  3
ACAD_PLOTSTYLENAME
350
E
  3
ACAD_SCALELIST
350
47
  0
DICTIONARY
  5
D
102
{ACAD_REACTORS
330
C
102
}
330
C
100
AcDbDictionary
281
     1
  0
DICTIONARY
  5
1A
102
{ACAD_REACTORS
330
C
102
}
330
C
100
AcDbDictionary
281
     1
  3
Layout1
350
1E
  3
Layout2
350
26
  3
Model
350
22
  0
DICTIONARY
  5
17
102
{ACAD_REACTORS
330
C
102
}
330
C
100
AcDbDictionary
281
     1
  3
Standard
350
18
  0
DICTIONARY
  5
19
102
{ACAD_REACTORS
330
C
102
}
330
C
100
AcDbDictionary
281
     1
  0
ACDBDICTIONARYWDFLT
  5
E
102
{ACAD_REACTORS
330
C
102
}
330
C
100
AcDbDictionary
281
     1
  3
Normal
350
F
100
AcDbDictionaryWithDefault
340
F
  0
DICTIONARY
  5
47
102
{ACAD_REACTORS
330
C
102
}
330
C
100
AcDbDictionary
281
     1
  3
A0
350
48
  3
A1
350
49
  3
A2
350
4A
  3
A3
350
4B
  3
A4
350
4C
  3
A5
350
4D
  3
A6
350
4E
  3
A7
350
4F
  3
A8
350
50
  3
A9
350
51
  3
B0
350
52
  3
B1
350
53
  3
B2
350
54
  3
B3
350
55
  3
B4
350
56
  3
B5
350
57
  3
B6
350
58
  3
B7
350
59
  3
B8
350
5A
  3
B9
350
5B
  3
C0
350
5C
  3
C1
350
5D
  3
C2
350
5E
  3
C3
350
5F
  3
C4
350
60
  3
C5
350
61
  3
C6
350
62
  3
C7
350
63
  3
C8
350
64
  3
C9
350
65
  3
D0
350
66
  3
D1
350
67
  3
D2
350
68
  0
LAYOUT
  5
1E
102
{ACAD_REACTORS
330
1A
102
}
330
1A
100
AcDbPlotSettings
  1

  2
none_device
  4

  6

 40
0.0
 41
0.0
 42
0.0
 43
0.0
 44
0.0
 45
0.0
 46
0.0
 47
0.0
 48
0.0
 49
0.0
140
0.0
141
0.0
142
1.0
143
1.0
 70
   688
 72
     0
 73
     0
 74
     5
  7

 75
    16
147
1.0
148
0.0
149
0.0
100
AcDbLayout
  1
Layout1
 70
     1
 71
     1
 10
0.0
 20
0.0
 11
12.0
 21
9.0
 12
0.0
 22
0.0
 32
0.0
 14
1.0000000000E+20
 24
1.0000000000E+20
 34
1.0000000000E+20
 15
-1.0000000000E+20
 25
-1.0000000000E+20
 35
-1.0000000000E+20
146
0.0
 13
0.0
 23
0.0
 33
0.0
 16
1.0
 26
0.0
 36
0.0
 17
0.0
 27
1.0
 37
0.0
 76
     0
330
1B
  0
LAYOUT
  5
26
102
{ACAD_REACTORS
330
1A
102
}
330
1A
100
AcDbPlotSettings
  1

  2
none_device
  4

  6

 40
0.0
 41
0.0
 42
0.0
 43
0.0
 44
0.0
 45
0.0
 46
0.0
 47
0.0
 48
0.0
 49
0.0
140
0.0
141
0.0
142
1.0
143
1.0
 70
   688
 72
     0
 73
     0
 74
     5
  7

 75
    16
147
1.0
148
0.0
149
0.0
100
AcDbLayout
  1
Layout2
 70
     1
 71
     2
 10
0.0
 20
0.0
 11
0.0
 21
0.0
 12
0.0
 22
0.0
 32
0.0
 14
0.0
 24
0.0
 34
0.0
 15
0.0
 25
0.0
 35
0.0
146
0.0
 13
0.0
 23
0.0
 33
0.0
 16
1.0
 26
0.0
 36
0.0
 17
0.0
 27
1.0
 37
0.0
 76
     0
330
23
  0
LAYOUT
  5
22
102
{ACAD_REACTORS
330
1A
102
}
330
1A
100
AcDbPlotSettings
  1

  2
none_device
  4
ANSI_A_(11.00_x_8.50_Inches)
  6

 40
6.35
 41
19.05
 42
6.35000508
 43
19.05000254
 44
279.4
 45
215.9
 46
52.1175103359
 47
48.2974566507
 48
0.0
 49
0.0
140
0.0
141
0.0
142
1.2342715691
143
1.0
 70
  1696
 72
     0
 73
     0
 74
     0
  7

 75
     0
147
0.5913241897
148
-39.4088153714
149
0.0
100
AcDbLayout
  1
Model
 70
     1
 71
     0
 10
0.0
 20
0.0
 11
12.0
 21
9.0
 12
0.0
 22
0.0
 32
0.0
 14
-0.8177864669
 24
-2.1137768921
 34
0.0
 15
6.0
 25
4.7040095748
 35
0.0
146
0.0
 13
0.0
 23
0.0
 33
0.0
 16
1.0
 26
0.0
 36
0.0
 17
0.0
 27
1.0
 37
0.0
 76
     0
330
1F
331
29
  0
MLINESTYLE
  5
18
102
{ACAD_REACTORS
330
17
102
}
330
17
100
AcDbMlineStyle
  2
Standard
 70
     0
  3

 62
   256
 51
90.0
 52
90.0
 71
     2
 49
0.5
 62
   256
  6
BYLAYER
 49
-0.5
 62
   256
  6
BYLAYER
  0
ACDBPLACEHOLDER
  5
F
102
{ACAD_REACTORS
330
E
102
}
330
E
  0
SCALE
  5
48
102
{ACAD_REACTORS
330
47
102
}
330
47
100
AcDbScale
 70
     0
300
1:1
140
1.0
141
1.0
290
     1
  0
SCALE
  5
49
102
{ACAD_REACTORS
330
47
102
}
330
47
100
AcDbScale
 70
     0
300
1:2
140
1.0
141
2.0
290
     0
  0
SCALE
  5
4A
102
{ACAD_REACTORS
330
47
102
}
330
47
100
AcDbScale
 70
     0
300
1:4
140
1.0
141
4.0
290
     0
  0
SCALE
  5
4B
102
{ACAD_REACTORS
330
47
102
}
330
47
100
AcDbScale
 70
     0
300
1:5
140
1.0
141
5.0
290
     0
  0
SCALE
  5
4C
102
{ACAD_REACTORS
330
47
102
}
330
47
100
AcDbScale
 70
     0
300
1:8
140
1.0
141
8.0
290
     0
  0
SCALE
  5
4D
102
{ACAD_REACTORS
330
47
102
}
330
47
100
AcDbScale
 70
     0
300
1:10
140
1.0
141
10.0
290
     0
  0
SCALE
  5
4E
102
{ACAD_REACTORS
330
47
102
}
330
47
100
AcDbScale
 70
     0
300
1:16
140
1.0
141
16.0
290
     0
  0
SCALE
  5
4F
102
{ACAD_REACTORS
330
47
102
}
330
47
100
AcDbScale
 70
     0
300
1:20
140
1.0
141
20.0
290
     0
  0
SCALE
  5
50
102
{ACAD_REACTORS
330
47
102
}
330
47
100
AcDbScale
 70
     0
300
1:30
140
1.0
141
30.0
290
     0
  0
SCALE
  5
51
102
{ACAD_REACTORS
330
47
102
}
330
47
100
AcDbScale
 70
     0
300
1:40
140
1.0
141
40.0
290
     0
  0
SCALE
  5
52
102
{ACAD_REACTORS
330
47
102
}
330
47
100
AcDbScale
 70
     0
300
1:50
140
1.0
141
50.0
290
     0
  0
SCALE
  5
53
102
{ACAD_REACTORS
330
47
102
}
330
47
100
AcDbScale
 70
     0
300
1:100
140
1.0
141
100.0
290
     0
  0
SCALE
  5
54
102
{ACAD_REACTORS
330
47
102
}
330
47
100
AcDbScale
 70
     0
300
2:1
140
2.0
141
1.0
290
     0
  0
SCALE
  5
55
102
{ACAD_REACTORS
330
47
102
}
330
47
100
AcDbScale
 70
     0
300
4:1
140
4.0
141
1.0
290
     0
  0
SCALE
  5
56
102
{ACAD_REACTORS
330
47
102
}
330
47
100
AcDbScale
 70
     0
300
8:1
140
8.0
141
1.0
290
     0
  0
SCALE
  5
57
102
{ACAD_REACTORS
330
47
102
}
330
47
100
AcDbScale
 70
     0
300
10:1
140
10.0
141
1.0
290
     0
  0
SCALE
  5
58
102
{ACAD_REACTORS
330
47
102
}
330
47
100
AcDbScale
 70
     0
300
100:1
140
100.0
141
1.0
290
     0
  0
SCALE
  5
59
102
{ACAD_REACTORS
330
47
102
}
330
47
100
AcDbScale
 70
     0
300
1/128" = 1'-0"
140
0.0078125
141
12.0
290
     0
  0
SCALE
  5
5A
102
{ACAD_REACTORS
330
47
102
}
330
47
100
AcDbScale
 70
     0
300
1/64" = 1'-0"
140
0.015625
141
12.0
290
     0
  0
SCALE
  5
5B
102
{ACAD_REACTORS
330
47
102
}
330
47
100
AcDbScale
 70
     0
300
1/32" = 1'-0"
140
0.03125
141
12.0
290
     0
  0
SCALE
  5
5C
102
{ACAD_REACTORS
330
47
102
}
330
47
100
AcDbScale
 70
     0
300
1/16" = 1'-0"
140
0.0625
141
12.0
290
     0
  0
SCALE
  5
5D
102
{ACAD_REACTORS
330
47
102
}
330
47
100
AcDbScale
 70
     0
300
3/32" = 1'-0"
140
0.09375
141
12.0
290
     0
  0
SCALE
  5
5E
102
{ACAD_REACTORS
330
47
102
}
330
47
100
AcDbScale
 70
     0
300
1/8" = 1'-0"
140
0.125
141
12.0
290
     0
  0
SCALE
  5
5F
102
{ACAD_REACTORS
330
47
102
}
330
47
100
AcDbScale
 70
     0
300
3/16" = 1'-0"
140
0.1875
141
12.0
290
     0
  0
SCALE
  5
60
102
{ACAD_REACTORS
330
47
102
}
330
47
100
AcDbScale
 70
     0
300
1/4" = 1'-0"
140
0.25
141
12.0
290
     0
  0
SCALE
  5
61
102
{ACAD_REACTORS
330
47
102
}
330
47
100
AcDbScale
 70
     0
300
3/8" = 1'-0"
140
0.375
141
12.0
290
     0
  0
SCALE
  5
62
102
{ACAD_REACTORS
330
47
102
}
330
47
100
AcDbScale
 70
     0
300
1/2" = 1'-0"
140
0.5
141
12.0
290
     0
  0
SCALE
  5
63
102
{ACAD_REACTORS
330
47
102
}
330
47
100
AcDbScale
 70
     0
300
3/4" = 1'-0"
140
0.75
141
12.0
290
     0
  0
SCALE
  5
64
102
{ACAD_REACTORS
330
47
102
}
330
47
100
AcDbScale
 70
     0
300
1" = 1'-0"
140
1.0
141
12.0
290
     0
  0
SCALE
  5
65
102
{ACAD_REACTORS
330
47
102
}
330
47
100
AcDbScale
 70
     0
300
1-1/2" = 1'-0"
140
1.5
141
12.0
290
     0
  0
SCALE
  5
66
102
{ACAD_REACTORS
330
47
102
}
330
47
100
AcDbScale
 70
     0
300
3" = 1'-0"
140
3.0
141
12.0
290
     0
  0
SCALE
  5
67
102
{ACAD_REACTORS
330
47
102
}
330
47
100
AcDbScale
 70
     0
300
6" = 1'-0"
140
6.0
141
12.0
290
     0
  0
SCALE
  5
68
102
{ACAD_REACTORS
330
47
102
}
330
47
100
AcDbScale
 70
     0
300
1'-0" = 1'-0"
140
12.0
141
12.0
290
     0
  0
ENDSEC
  0
EOF
