  0
SECTION
  2
HEADER
  9
$ACADVER
  1
AC1015
  9
$ACADMAINTVER
 70
     6
  9
$DWGCODEPAGE
  3
ANSI_1252
  9
$INSBASE
 10
0.0
 20
0.0
 30
0.0
  9
$EXTMIN
 10
-0.5
 20
-1.67
 30
0.0
  9
$EXTMAX
 10
0.5
 20
1.67
 30
0.0
  9
$LIMMIN
 10
0.0
 20
0.0
  9
$LIMMAX
 10
12.0
 20
9.0
  9
$ORTHOMODE
 70
     0
  9
$REGENMODE
 70
     1
  9
$FILLMODE
 70
     1
  9
$QTEXTMODE
 70
     0
  9
$MIRRTEXT
 70
     1
  9
$LTSCALE
 40
1.0
  9
$ATTMODE
 70
     1
  9
$TEXTSIZE
 40
0.1377952756
  9
$TRACEWID
 40
0.05
  9
$TEXTSTYLE
  7
Standard
  9
$CLAYER
  8
0
  9
$CELTYPE
  6
ByLayer
  9
$CECOLOR
 62
   256
  9
$CELTSCALE
 40
1.0
  9
$DISPSILH
 70
     0
  9
$DIMSCALE
 40
1.0
  9
$DIMASZ
 40
0.13
  9
$DIMEXO
 40
0.0393700787
  9
$DIMDLI
 40
0.38
  9
$DIMRND
 40
0.0
  9
$DIMDLE
 40
0.0
  9
$DIMEXE
 40
0.0393700787
  9
$DIMTP
 40
0.0
  9
$DIMTM
 40
0.0
  9
$DIMTXT
 40
0.1377952756
  9
$DIMCEN
 40
0.09
  9
$DIMTSZ
 40
0.0
  9
$DIMTOL
 70
     0
  9
$DIMLIM
 70
     0
  9
$DIMTIH
 70
     1
  9
$DIMTOH
 70
     1
  9
$DIMSE1
 70
     0
  9
$DIMSE2
 70
     0
  9
$DIMTAD
 70
     1
  9
$DIMZIN
 70
     0
  9
$DIMBLK
  1

  9
$DIMASO
 70
     1
  9
$DIMSHO
 70
     1
  9
$DIMPOST
  1

  9
$DIMAPOST
  1

  9
$DIMALT
 70
     0
  9
$DIMALTD
 70
     2
  9
$DIMALTF
 40
25.4
  9
$DIMLFAC
 40
1.0
  9
$DIMTOFL
 70
     0
  9
$DIMTVP
 40
0.0
  9
$DIMTIX
 70
     0
  9
$DIMSOXD
 70
     0
  9
$DIMSAH
 70
     0
  9
$DIMBLK1
  1

  9
$DIMBLK2
  1

  9
$DIMSTYLE
  2
Standard
  9
$DIMCLRD
 70
     0
  9
$DIMCLRE
 70
     0
  9
$DIMCLRT
 70
     0
  9
$DIMTFAC
 40
1.0
  9
$DIMGAP
 40
0.06
  9
$DIMJUST
 70
     0
  9
$DIMSD1
 70
     0
  9
$DIMSD2
 70
     0
  9
$DIMTOLJ
 70
     1
  9
$DIMTZIN
 70
     0
  9
$DIMALTZ
 70
     0
  9
$DIMALTTZ
 70
     0
  9
$DIMUPT
 70
     0
  9
$DIMDEC
 70
     2
  9
$DIMTDEC
 70
     2
  9
$DIMALTU
 70
     2
  9
$DIMALTTD
 70
     2
  9
$DIMTXSTY
  7
Standard
  9
$DIMAUNIT
 70
     0
  9
$DIMADEC
 70
     2
  9
$DIMALTRND
 40
0.0
  9
$DIMAZIN
 70
     0
  9
$DIMDSEP
 70
    46
  9
$DIMATFIT
 70
     3
  9
$DIMFRAC
 70
     0
  9
$DIMLDRBLK
  1

  9
$DIMLUNIT
 70
     2
  9
$DIMLWD
 70
    -2
  9
$DIMLWE
 70
    -2
  9
$DIMTMOVE
 70
     0
  9
$LUNITS
 70
     2
  9
$LUPREC
 70
     2
  9
$SKETCHINC
 40
0.1
  9
$FILLETRAD
 40
0.5
  9
$AUNITS
 70
     0
  9
$AUPREC
 70
     2
  9
$MENU
  1
.
  9
$ELEVATION
 40
0.0
  9
$PELEVATION
 40
0.0
  9
$THICKNESS
 40
0.0
  9
$LIMCHECK
 70
     0
  9
$CHAMFERA
 40
0.0
  9
$CHAMFERB
 40
0.0
  9
$CHAMFERC
 40
0.0
  9
$CHAMFERD
 40
0.0
  9
$SKPOLY
 70
     0
  9
$TDCREATE
 40
2457047.680450544
  9
$TDUCREATE
 40
2457048.013783877
  9
$TDUPDATE
 40
2457047.680488704
  9
$TDUUPDATE
 40
2457048.013822037
  9
$TDINDWG
 40
0.0000000116
  9
$TDUSRTIMER
 40
0.0000000116
  9
$USRTIMER
 70
     1
  9
$ANGBASE
 50
0.0
  9
$ANGDIR
 70
     0
  9
$PDMODE
 70
     0
  9
$PDSIZE
 40
-1.0
  9
$PLINEWID
 40
0.0
  9
$SPLFRAME
 70
     0
  9
$SPLINETYPE
 70
     6
  9
$SPLINESEGS
 70
     8
  9
$HANDSEED
  5
126
  9
$SURFTAB1
 70
     6
  9
$SURFTAB2
 70
     6
  9
$SURFTYPE
 70
     6
  9
$SURFU
 70
     6
  9
$SURFV
 70
     6
  9
$UCSBASE
  2

  9
$UCSNAME
  2

  9
$UCSORG
 10
0.0
 20
0.0
 30
0.0
  9
$UCSXDIR
 10
1.0
 20
0.0
 30
0.0
  9
$UCSYDIR
 10
0.0
 20
1.0
 30
0.0
  9
$UCSORTHOREF
  2

  9
$UCSORTHOVIEW
 70
     0
  9
$UCSORGTOP
 10
0.0
 20
0.0
 30
0.0
  9
$UCSORGBOTTOM
 10
0.0
 20
0.0
 30
0.0
  9
$UCSORGLEFT
 10
0.0
 20
0.0
 30
0.0
  9
$UCSORGRIGHT
 10
0.0
 20
0.0
 30
0.0
  9
$UCSORGFRONT
 10
0.0
 20
0.0
 30
0.0
  9
$UCSORGBACK
 10
0.0
 20
0.0
 30
0.0
  9
$PUCSBASE
  2

  9
$PUCSNAME
  2

  9
$PUCSORG
 10
0.0
 20
0.0
 30
0.0
  9
$PUCSXDIR
 10
1.0
 20
0.0
 30
0.0
  9
$PUCSYDIR
 10
0.0
 20
1.0
 30
0.0
  9
$PUCSORTHOREF
  2

  9
$PUCSORTHOVIEW
 70
     0
  9
$PUCSORGTOP
 10
0.0
 20
0.0
 30
0.0
  9
$PUCSORGBOTTOM
 10
0.0
 20
0.0
 30
0.0
  9
$PUCSORGLEFT
 10
0.0
 20
0.0
 30
0.0
  9
$PUCSORGRIGHT
 10
0.0
 20
0.0
 30
0.0
  9
$PUCSORGFRONT
 10
0.0
 20
0.0
 30
0.0
  9
$PUCSORGBACK
 10
0.0
 20
0.0
 30
0.0
  9
$USERI1
 70
     0
  9
$USERI2
 70
     0
  9
$USERI3
 70
     0
  9
$USERI4
 70
     0
  9
$USERI5
 70
     0
  9
$USERR1
 40
0.0
  9
$USERR2
 40
0.0
  9
$USERR3
 40
0.0
  9
$USERR4
 40
0.0
  9
$USERR5
 40
0.0
  9
$WORLDVIEW
 70
     1
  9
$SHADEDGE
 70
     3
  9
$SHADEDIF
 70
    70
  9
$TILEMODE
 70
     1
  9
$MAXACTVP
 70
    64
  9
$PINSBASE
 10
0.0
 20
0.0
 30
0.0
  9
$PLIMCHECK
 70
     0
  9
$PEXTMIN
 10
1.0000000000E+20
 20
1.0000000000E+20
 30
1.0000000000E+20
  9
$PEXTMAX
 10
-1.0000000000E+20
 20
-1.0000000000E+20
 30
-1.0000000000E+20
  9
$PLIMMIN
 10
0.0
 20
0.0
  9
$PLIMMAX
 10
12.0
 20
9.0
  9
$UNITMODE
 70
     0
  9
$VISRETAIN
 70
     1
  9
$PLINEGEN
 70
     0
  9
$PSLTSCALE
 70
     1
  9
$TREEDEPTH
 70
  3020
  9
$CMLSTYLE
  2
Standard
  9
$CMLJUST
 70
     0
  9
$CMLSCALE
 40
1.0
  9
$PROXYGRAPHICS
 70
     1
  9
$MEASUREMENT
 70
     0
  9
$CELWEIGHT
370
    -1
  9
$ENDCAPS
280
     0
  9
$JOINSTYLE
280
     0
  9
$LWDISPLAY
290
     1
  9
$INSUNITS
 70
     1
  9
$HYPERLINKBASE
  1

  9
$STYLESHEET
  1

  9
$XEDIT
290
     1
  9
$CEPSNTYPE
380
     0
  9
$PSTYLEMODE
290
     1
  9
$FINGERPRINTGUID
  2
{E1599C71-8BE6-4378-A9CD-C000EE90330F}
  9
$VERSIONGUID
  2
{FAEB1C32-E019-11D5-929B-00C0DF256EC4}
  9
$EXTNAMES
290
     1
  9
$PSVPSCALE
 40
0.0
  9
$OLESTARTUP
290
     0
  0
ENDSEC
  0
SECTION
  2
CLASSES
  0
CLASS
  1
ACDBDICTIONARYWDFLT
  2
AcDbDictionaryWithDefault
  3
ObjectDBX Classes
 90
        0
280
     0
281
     0
  0
CLASS
  1
VISUALSTYLE
  2
AcDbVisualStyle
  3
ObjectDBX Classes
 90
     4095
280
     0
281
     0
  0
CLASS
  1
MATERIAL
  2
AcDbMaterial
  3
ObjectDBX Classes
 90
     1153
280
     0
281
     0
  0
CLASS
  1
SCALE
  2
AcDbScale
  3
ObjectDBX Classes
 90
     1153
280
     0
281
     0
  0
CLASS
  1
SUN
  2
AcDbSun
  3
SCENEOE
 90
     1153
280
     0
281
     0
  0
CLASS
  1
ACDBPLACEHOLDER
  2
AcDbPlaceHolder
  3
ObjectDBX Classes
 90
        0
280
     0
281
     0
  0
CLASS
  1
LAYOUT
  2
AcDbLayout
  3
ObjectDBX Classes
 90
        0
280
     0
281
     0
  0
ENDSEC
  0
SECTION
  2
TABLES
  0
TABLE
  2
VPORT
  5
8
330
0
100
AcDbSymbolTable
 70
     1
  0
VPORT
  5
29
330
8
100
AcDbSymbolTableRecord
100
AcDbViewportTableRecord
  2
*Active
 70
     0
 10
0.0
 20
0.0
 11
1.0
 21
1.0
 12
0.0
 22
0.0
 13
0.0
 23
0.0
 14
0.5
 24
0.5
 15
0.5
 25
0.5
 16
0.0
 26
0.0
 36
1.0
 17
0.0
 27
0.0
 37
0.0
 40
3.4068
 41
0.2994011976
 42
50.0
 43
0.0
 44
0.0
 50
0.0
 51
0.0
 71
     0
 72
   100
 73
     1
 74
     3
 75
     0
 76
     0
 77
     0
 78
     0
281
     0
 65
     1
110
0.0
120
0.0
130
0.0
111
1.0
121
0.0
131
0.0
112
0.0
122
1.0
132
0.0
 79
     0
146
0.0
  0
ENDTAB
  0
TABLE
  2
LTYPE
  5
5
330
0
100
AcDbSymbolTable
 70
     6
  0
LTYPE
  5
14
330
5
100
AcDbSymbolTableRecord
100
AcDbLinetypeTableRecord
  2
ByBlock
 70
     0
  3

 72
    65
 73
     0
 40
0.0
  0
LTYPE
  5
15
330
5
100
AcDbSymbolTableRecord
100
AcDbLinetypeTableRecord
  2
ByLayer
 70
     0
  3

 72
    65
 73
     0
 40
0.0
  0
LTYPE
  5
16
330
5
100
AcDbSymbolTableRecord
100
AcDbLinetypeTableRecord
  2
Continuous
 70
     0
  3
Solid line
 72
    65
 73
     0
 40
0.0
  0
LTYPE
  5
6A
330
5
100
AcDbSymbolTableRecord
100
AcDbLinetypeTableRecord
  2
HIDDEN
 70
     0
  3
Hidden __ __ __ __ __ __ __ __ __ __ __ __ __ __
 72
    65
 73
     2
 40
0.075
 49
0.05
 74
     0
 49
-0.025
 74
     0
  0
LTYPE
  5
6B
330
5
100
AcDbSymbolTableRecord
100
AcDbLinetypeTableRecord
  2
PHANTOM
 70
     0
  3
Phantom ______  __  __  ______  __  __  ______
 72
    65
 73
     6
 40
0.5
 49
0.25
 74
     0
 49
-0.05
 74
     0
 49
0.05
 74
     0
 49
-0.05
 74
     0
 49
0.05
 74
     0
 49
-0.05
 74
     0
  0
LTYPE
  5
6C
330
5
100
AcDbSymbolTableRecord
100
AcDbLinetypeTableRecord
  2
CENTER
 70
     0
  3
Center ____ _ ____ _ ____ _ ____ _ ____ _ ____
 72
    65
 73
     4
 40
0.4
 49
0.25
 74
     0
 49
-0.05
 74
     0
 49
0.05
 74
     0
 49
-0.05
 74
     0
  0
LTYPE
  5
6D
330
5
100
AcDbSymbolTableRecord
100
AcDbLinetypeTableRecord
  2
CENTERX2
 70
     0
  3
Center (2x) ________  __  ________  __  _____
 72
    65
 73
     4
 40
0.8
 49
0.5
 74
     0
 49
-0.1
 74
     0
 49
0.1
 74
     0
 49
-0.1
 74
     0
  0
LTYPE
  5
6E
330
5
100
AcDbSymbolTableRecord
100
AcDbLinetypeTableRecord
  2
DOT2
 70
     0
  3
Dot (.5x) ........................................
 72
    65
 73
     2
 40
0.025
 49
0.0
 74
     0
 49
-0.025
 74
     0
  0
ENDTAB
  0
TABLE
  2
LAYER
  5
2
330
0
100
AcDbSymbolTable
 70
     1
  0
LAYER
  5
10
330
2
100
AcDbSymbolTableRecord
100
AcDbLayerTableRecord
  2
0
 70
     0
 62
     7
  6
Continuous
370
    -3
390
F
  0
ENDTAB
  0
TABLE
  2
STYLE
  5
3
330
0
100
AcDbSymbolTable
 70
     2
  0
STYLE
  5
11
330
3
100
AcDbSymbolTableRecord
100
AcDbTextStyleTableRecord
  2
Standard
 70
     0
 40
0.0
 41
1.0
 50
0.0
 71
     0
 42
0.1377952756
  3
txt
  4

  0
STYLE
  5
123
330
3
100
AcDbSymbolTableRecord
100
AcDbTextStyleTableRecord
  2
SLDTEXTSTYLE0
 70
     0
 40
0.0
 41
0.7
 50
0.0
 71
     0
 42
0.1377952756
  3
TXT
  4

  0
ENDTAB
  0
TABLE
  2
VIEW
  5
6
330
0
100
AcDbSymbolTable
 70
     0
  0
ENDTAB
  0
TABLE
  2
UCS
  5
7
330
0
100
AcDbSymbolTable
 70
     0
  0
ENDTAB
  0
TABLE
  2
APPID
  5
9
330
0
100
AcDbSymbolTable
 70
     1
  0
APPID
  5
12
330
9
100
AcDbSymbolTableRecord
100
AcDbRegAppTableRecord
  2
ACAD
 70
     0
  0
ENDTAB
  0
TABLE
  2
DIMSTYLE
  5
A
330
0
100
AcDbSymbolTable
 70
     1
100
AcDbDimStyleTable
  0
DIMSTYLE
105
27
330
A
100
AcDbSymbolTableRecord
100
AcDbDimStyleTableRecord
  2
Standard
 70
     0
178
     0
340
11
  0
ENDTAB
  0
TABLE
  2
BLOCK_RECORD
  5
1
330
0
100
AcDbSymbolTable
 70
     1
  0
BLOCK_RECORD
  5
1F
330
1
100
AcDbSymbolTableRecord
100
AcDbBlockTableRecord
  2
*Model_Space
340
22
  0
BLOCK_RECORD
  5
1B
330
1
100
AcDbSymbolTableRecord
100
AcDbBlockTableRecord
  2
*Paper_Space
340
1E
  0
BLOCK_RECORD
  5
23
330
1
100
AcDbSymbolTableRecord
100
AcDbBlockTableRecord
  2
*Paper_Space0
340
26
  0
ENDTAB
  0
ENDSEC
  0
SECTION
  2
BLOCKS
  0
BLOCK
  5
20
330
1F
100
AcDbEntity
  8
0
100
AcDbBlockBegin
  2
*Model_Space
 70
     0
 10
0.0
 20
0.0
 30
0.0
  3
*Model_Space
  1
*Model_Space
  0
ENDBLK
  5
21
330
1F
100
AcDbEntity
  8
0
100
AcDbBlockEnd
  0
BLOCK
  5
1C
330
1B
100
AcDbEntity
 67
     1
  8
0
100
AcDbBlockBegin
  2
*Paper_Space
 70
     0
 10
0.0
 20
0.0
 30
0.0
  3
*Paper_Space
  1
*Paper_Space
  0
ENDBLK
  5
1D
330
1B
100
AcDbEntity
 67
     1
  8
0
100
AcDbBlockEnd
  0
BLOCK
  5
24
330
23
100
AcDbEntity
  8
0
100
AcDbBlockBegin
  2
*Paper_Space0
 70
     0
 10
0.0
 20
0.0
 30
0.0
  3
*Paper_Space0
  1
*Paper_Space0
  0
ENDBLK
  5
25
330
23
100
AcDbEntity
  8
0
100
AcDbBlockEnd
  0
ENDSEC
  0
SECTION
  2
ENTITIES
  0
SPLINE
  5
76
330
1F
100
AcDbEntity
  8
0
  6
Continuous
 62
     7
370
    15
100
AcDbSpline
210
0.0
220
0.0
230
1.0
 70
     8
 71
     3
 72
    15
 73
    11
 74
     0
 42
0.000000001
 43
0.00000001
 40
0.0
 40
0.0
 40
0.0
 40
0.0
 40
0.0784309968174061
 40
0.1679219757910871
 40
0.2666759043526853
 40
0.3777317604277382
 40
0.5032797892443839
 40
0.6481919313677844
 40
0.8132797359698932
 40
1.0
 40
1.0
 40
1.0
 40
1.0
 10
-0.0982871093750001
 20
0.8892505052311748
 30
0.0
 10
-0.098861396383797
 20
0.8908076046217853
 30
0.0
 10
-0.1000909537412387
 20
0.8941413784712131
 30
0.0
 10
-0.1028715132581447
 20
0.8990702500421467
 30
0.0
 10
-0.1065130365842652
 20
0.9042441324660458
 30
0.0
 10
-0.1108838991889195
 20
0.9098319720974183
 30
0.0
 10
-0.1165351545657665
 20
0.915616020904051
 30
0.0
 10
-0.1237972555117031
 20
0.9213020673698293
 30
0.0
 10
-0.1325525163719505
 20
0.9271105878882863
 30
0.0
 10
-0.1390403439350395
 20
0.9307469549937705
 30
0.0
 10
-0.1424837239583334
 20
0.9326769375228415
 30
0.0
  0
SPLINE
  5
77
330
1F
100
AcDbEntity
  8
0
  6
Continuous
 62
     7
370
    15
100
AcDbSpline
210
0.0
220
0.0
230
1.0
 70
     8
 71
     3
 72
    23
 73
    19
 74
     0
 42
0.000000001
 43
0.00000001
 40
0.0
 40
0.0
 40
0.0
 40
0.0
 40
0.0938002155779035
 40
0.1831132754645973
 40
0.2686110688297143
 40
0.3497453653993189
 40
0.42685411004344
 40
0.5006707960597451
 40
0.5707627445392627
 40
0.6378548674101775
 40
0.7000658981930334
 40
0.756489998467114
 40
0.8068490353733256
 40
0.8525329094057023
 40
0.8930983335931674
 40
0.9302964173209333
 40
0.9654211320994924
 40
1.0
 40
1.0
 40
1.0
 40
1.0
 10
-0.1424837239583335
 20
0.9326769375228416
 30
0.0
 10
-0.1389863453270278
 20
0.9324875690009625
 30
0.0
 10
-0.1321588934627367
 20
0.932117890849398
 30
0.0
 10
-0.1221760893482934
 20
0.9311083272928612
 30
0.0
 10
-0.1127199527196033
 20
0.929720620278352
 30
0.0
 10
-0.1037500811497029
 20
0.9281684533854858
 30
0.0
 10
-0.0953060521496458
 20
0.9262054880760725
 30
0.0
 10
-0.0873766869128863
 20
0.9239046396332957
 30
0.0
 10
-0.0799433390933378
 20
0.9212865216297966
 30
0.0
 10
-0.0730542607253026
 20
0.9184457608585979
 30
0.0
 10
-0.066875984828704
 20
0.9152887973096983
 30
0.0
 10
-0.0613898278777737
 20
0.9121574927200035
 30
0.0
 10
-0.056778639476521
 20
0.9088013342760943
 30
0.0
 10
-0.0529575995592028
 20
0.9054069156703418
 30
0.0
 10
-0.0499697815049268
 20
0.9018682306874926
 30
0.0
 10
-0.0478474107908026
 20
0.8982065576743405
 30
0.0
 10
-0.0465114806130815
 20
0.8943964056793623
 30
0.0
 10
-0.046350194055242
 20
0.891788424787871
 30
0.0
 10
-0.0462701822916668
 20
0.8904946458561748
 30
0.0
  0
SPLINE
  5
79
330
1F
100
AcDbEntity
  8
0
  6
Continuous
 62
     7
370
    15
100
AcDbSpline
210
0.0
220
0.0
230
1.0
 70
     8
 71
     3
 72
    47
 73
    43
 74
     0
 42
0.000000001
 43
0.00000001
 40
0.0
 40
0.0
 40
0.0
 40
0.0
 40
0.0061384405333907
 40
0.0134523921227695
 40
0.021841062382749
 40
0.0313415953038059
 40
0.041929438984321
 40
0.0538146590419907
 40
0.0668623223723652
 40
0.0810833988829863
 40
0.1105386875663701
 40
0.1394431557628951
 40
0.1686490901500516
 40
0.1981291144465522
 40
0.2284079625331376
 40
0.2598462264460258
 40
0.2927724250974295
 40
0.3277942697681447
 40
0.3469081333482558
 40
0.3682534985415812
 40
0.3918449972243194
 40
0.4177316548880941
 40
0.4459317055039856
 40
0.4764523574453317
 40
0.5093143325120966
 40
0.5445261514155003
 40
0.5800679819338109
 40
0.6141661176251186
 40
0.6468562129503688
 40
0.6782704966405809
 40
0.7087413195742825
 40
0.7385874348671482
 40
0.7677798299666154
 40
0.7966415248648802
 40
0.824678131208298
 40
0.851243132154252
 40
0.8768476327543386
 40
0.901490792996223
 40
0.9258961804731864
 40
0.9501553414613431
 40
0.9746335146147144
 40
1.0
 40
1.0
 40
1.0
 40
1.0
 10
0.0057467447916665
 20
0.8904946458561748
 30
0.0
 10
0.0057230678829218
 20
0.8912662113538838
 30
0.0
 10
0.0056711799385885
 20
0.892957097103631
 30
0.0
 10
0.0052168736417382
 20
0.8956700320752972
 30
0.0
 10
0.0045025998052764
 20
0.8987555610536365
 30
0.0
 10
0.0034674547148447
 20
0.9021821215198093
 30
0.0
 10
0.0022231190302819
 20
0.9060015996635581
 30
0.0
 10
0.0006818885919041
 20
0.9101908913717345
 30
0.0
 10
-0.001164803689478
 20
0.9147508646151791
 30
0.0
 10
-0.0039872980649928
 20
0.9212941313624556
 30
0.0
 10
-0.0080564255252028
 20
0.9294748046947912
 30
0.0
 10
-0.0141846911745131
 20
0.9386469699086669
 30
0.0
 10
-0.0213725924761896
 20
0.9470147085079216
 30
0.0
 10
-0.0296266558768285
 20
0.9545828817732306
 30
0.0
 10
-0.0388973945335519
 20
0.9613727657027485
 30
0.0
 10
-0.0494377818107848
 20
0.9669458944064054
 30
0.0
 10
-0.0610166694420073
 20
0.9716667825980351
 30
0.0
 10
-0.0715519504871221
 20
0.9746921006168854
 30
0.0
 10
-0.080838515808707
 20
0.9766222898846543
 30
0.0
 10
-0.088782244487633
 20
0.97792578800751
 30
0.0
 10
-0.0976221487420006
 20
0.9789577354971475
 30
0.0
 10
-0.1073419097581786
 20
0.979838069256717
 30
0.0
 10
-0.1179485111623836
 20
0.9805558431776441
 30
0.0
 10
-0.1294468806483947
 20
0.9810036519369532
 30
0.0
 10
-0.1418304372482986
 20
0.981279381713255
 30
0.0
 10
-0.1548480072442316
 20
0.9814702432568522
 30
0.0
 10
-0.1680214415067489
 20
0.9811040593575256
 30
0.0
 10
-0.18083934014126
 20
0.9799705769355304
 30
0.0
 10
-0.1930111914746521
 20
0.9778762585412498
 30
0.0
 10
-0.2045558606416704
 20
0.9750306010992051
 30
0.0
 10
-0.2155260501015288
 20
0.9714480130916958
 30
0.0
 10
-0.2258339075417098
 20
0.9669153070105866
 30
0.0
 10
-0.235560053990903
 20
0.9616513387148525
 30
0.0
 10
-0.2445077196145697
 20
0.9555478249211987
 30
0.0
 10
-0.2526679772553713
 20
0.9489371340801127
 30
0.0
 10
-0.2597697846490115
 20
0.941762402708002
 30
0.0
 10
-0.265857538821396
 20
0.9342505499052348
 30
0.0
 10
-0.2708495291556016
 20
0.9262806283972042
 30
0.0
 10
-0.2747096344748273
 20
0.9178904730214938
 30
0.0
 10
-0.2775034773257468
 20
0.9091173583008973
 30
0.0
 10
-0.2792892696369739
 20
0.8999459460879715
 30
0.0
 10
-0.2795579348354512
 20
0.8936822887597885
 30
0.0
 10
-0.2796946614583335
 20
0.8904946458561749
 30
0.0
  0
SPLINE
  5
7B
330
1F
100
AcDbEntity
  8
0
  6
Continuous
 62
     7
370
    15
100
AcDbSpline
210
0.0
220
0.0
230
1.0
 70
     8
 71
     3
 72
    31
 73
    27
 74
     0
 42
0.000000001
 43
0.00000001
 40
0.0
 40
0.0
 40
0.0
 40
0.0
 40
0.0396148692256871
 40
0.086131962558788
 40
0.1419733275546674
 40
0.208702575674488
 40
0.2446373755326285
 40
0.279591671908234
 40
0.3145211030511894
 40
0.3495467886426318
 40
0.3849180496203863
 40
0.421318287212269
 40
0.4588930267843425
 40
0.4980861999992428
 40
0.5372793732141428
 40
0.5748541127862162
 40
0.611254350378099
 40
0.6461837815210536
 40
0.680368376499654
 40
0.714505283110496
 40
0.7487184592037371
 40
0.7836509994687014
 40
0.849530137894433
 40
0.9066882211263415
 40
0.9560198949085432
 40
0.9999999999999999
 40
0.9999999999999999
 40
0.9999999999999999
 40
0.9999999999999999
 10
-0.2342539062500001
 20
0.8904946458561748
 30
0.0
 10
-0.2340918287803425
 20
0.8921789604584416
 30
0.0
 10
-0.2337394345702635
 20
0.8958410531295843
 30
0.0
 10
-0.2309460083930406
 20
0.9012821951310962
 30
0.0
 10
-0.2270209362893621
 20
0.9072637328642902
 30
0.0
 10
-0.2225368651754198
 20
0.9123001694191464
 30
0.0
 10
-0.2183575516967534
 20
0.916377059113416
 30
0.0
 10
-0.2147375423098694
 20
0.9190429144970964
 30
0.0
 10
-0.210947215588124
 20
0.9213729377178947
 30
0.0
 10
-0.2069048800038436
 20
0.9232963534308761
 30
0.0
 10
-0.2025895807530716
 20
0.9246811582197433
 30
0.0
 10
-0.1980836498377575
 20
0.925796859921096
 30
0.0
 10
-0.1933098748552821
 20
0.92632715834673
 30
0.0
 10
-0.1883984537053944
 20
0.926611560946825
 30
0.0
 10
-0.1834869366615045
 20
0.9263274081578319
 30
0.0
 10
-0.1787134347032791
 20
0.9257959209618905
 30
0.0
 10
-0.1742247615859875
 20
0.9246890116194052
 30
0.0
 10
-0.1699641342162013
 20
0.9233074570822595
 30
0.0
 10
-0.1660244660417735
 20
0.9213710314155543
 30
0.0
 10
-0.1623549403641084
 20
0.9190392032918638
 30
0.0
 10
-0.1588543399662929
 20
0.9163902166620054
 30
0.0
 10
-0.1548765304537447
 20
0.9122627605394845
 30
0.0
 10
-0.1505567287582205
 20
0.907129340094529
 30
0.0
 10
-0.1466422442446536
 20
0.9009503180484973
 30
0.0
 10
-0.1440409736672475
 20
0.8950487051817083
 30
0.0
 10
-0.1435463018633797
 20
0.8911079015739225
 30
0.0
 10
-0.1433131510416668
 20
0.8892505052311748
 30
0.0
  0
SPLINE
  5
7E
330
1F
100
AcDbEntity
  8
0
  6
Continuous
 62
     7
370
    15
100
AcDbSpline
210
0.0
220
0.0
230
1.0
 70
     8
 71
     3
 72
    27
 73
    23
 74
     0
 42
0.000000001
 43
0.00000001
 40
0.0
 40
0.0
 40
0.0
 40
0.0
 40
0.0357948666185447
 40
0.0791849206993067
 40
0.1311159898864308
 40
0.1923696995229796
 40
0.2249942461982754
 40
0.2580976523310326
 40
0.2920228021210947
 40
0.3267351476277291
 40
0.3635273168411531
 40
0.4021964097788808
 40
0.4428623679764804
 40
0.4864213494917562
 40
0.5710500178731931
 40
0.6464946487281846
 40
0.714678509143648
 40
0.7775049251287474
 40
0.8363898590452525
 40
0.8919399059760492
 40
0.9458728636412568
 40
1.0
 40
1.0
 40
1.0
 40
1.0
 10
-0.1437278645833335
 20
0.8622348802311748
 30
0.0
 10
-0.1441288224291494
 20
0.8609079519539203
 30
0.0
 10
-0.1450158159626927
 20
0.8579725391326405
 30
0.0
 10
-0.147779058279125
 20
0.8536843409788869
 30
0.0
 10
-0.151387713134104
 20
0.8488502838893532
 30
0.0
 10
-0.155232326232626
 20
0.844733621933581
 30
0.0
 10
-0.1587825024201732
 20
0.8413460021901866
 30
0.0
 10
-0.1619758395841108
 20
0.8391870367862522
 30
0.0
 10
-0.1653963453965755
 20
0.837250816800124
 30
0.0
 10
-0.1692022916215777
 20
0.8357868217127405
 30
0.0
 10
-0.1732884724075645
 20
0.8346181479533085
 30
0.0
 10
-0.1776790439571611
 20
0.8336970194857135
 30
0.0
 10
-0.1824059145359484
 20
0.8332733221131631
 30
0.0
 10
-0.1889141469645076
 20
0.8330362443272098
 30
0.0
 10
-0.1967746997913945
 20
0.8334626897613353
 30
0.0
 10
-0.2054746127535436
 20
0.8349455594131122
 30
0.0
 10
-0.2130651553496841
 20
0.8374669154410542
 30
0.0
 10
-0.2195151220074689
 20
0.8410405699336564
 30
0.0
 10
-0.2247322382490835
 20
0.8455063962899645
 30
0.0
 10
-0.2290491773158638
 20
0.8503881189882885
 30
0.0
 10
-0.2322644818071662
 20
0.8558786858590027
 30
0.0
 10
-0.2335899708227867
 20
0.8598373019329745
 30
0.0
 10
-0.2342539062500001
 20
0.8618201666895081
 30
0.0
  0
SPLINE
  5
80
330
1F
100
AcDbEntity
  8
0
  6
Continuous
 62
     7
370
    15
100
AcDbSpline
210
0.0
220
0.0
230
1.0
 70
     8
 71
     3
 72
    39
 73
    35
 74
     0
 42
0.000000001
 43
0.00000001
 40
0.0
 40
0.0
 40
0.0
 40
0.0
 40
0.0234217619235532
 40
0.0477225955500367
 40
0.0728224545162251
 40
0.0995551172501503
 40
0.1281061855415713
 40
0.1583247883355899
 40
0.1909021224334329
 40
0.2258368646307316
 40
0.2614168649580143
 40
0.2960763996611604
 40
0.3301831333181816
 40
0.3642149579890082
 40
0.3985206492799754
 40
0.4333899301266943
 40
0.4689986102401087
 40
0.5060713537973773
 40
0.5426948980654396
 40
0.577512558927014
 40
0.6107640979452662
 40
0.6425047650380565
 40
0.6730497708505588
 40
0.7028406615587611
 40
0.7321379373251278
 40
0.7613621151531654
 40
0.7903868366904719
 40
0.8190949644214962
 40
0.8475676049318157
 40
0.8764908220525002
 40
0.9057739908463867
 40
0.936002244035412
 40
0.9673421874391924
 40
1.0
 40
1.0
 40
1.0
 40
1.0
 10
-0.2792799479166668
 20
0.8618201666895081
 30
0.0
 10
-0.2792018450053624
 20
0.8597202315467065
 30
0.0
 10
-0.2790427078038306
 20
0.8554415459453277
 30
0.0
 10
-0.2776569978601546
 20
0.849038269708404
 30
0.0
 10
-0.2755054553239299
 20
0.8425556535452632
 30
0.0
 10
-0.272423243088377
 20
0.8360329472657201
 30
0.0
 10
-0.2685797853896817
 20
0.8293985846530827
 30
0.0
 10
-0.263827523146483
 20
0.8227257939837096
 30
0.0
 10
-0.2582462785555161
 20
0.8159730345794926
 30
0.0
 10
-0.2518760828376443
 20
0.8092810583756516
 30
0.0
 10
-0.2449740615429143
 20
0.8028524510669929
 30
0.0
 10
-0.237465340710971
 20
0.7972540477340228
 30
0.0
 10
-0.2295329656811122
 20
0.7925475103307194
 30
0.0
 10
-0.2211952026091167
 20
0.7886817512858
 30
0.0
 10
-0.2124501824660059
 20
0.785630628621708
 30
0.0
 10
-0.2032875334630838
 20
0.7835294697206789
 30
0.0
 10
-0.1937329032331075
 20
0.7821956771382607
 30
0.0
 10
-0.1839346487554451
 20
0.7818367556958864
 30
0.0
 10
-0.1742157478388162
 20
0.7821955827994806
 30
0.0
 10
-0.1648791896920241
 20
0.7831668857786287
 30
0.0
 10
-0.1560915412362067
 20
0.7848741442554836
 30
0.0
 10
-0.147865497302181
 20
0.7872885125860515
 30
0.0
 10
-0.140240313551586
 20
0.7904648892727085
 30
0.0
 10
-0.1331337270268828
 20
0.7942352972847572
 30
0.0
 10
-0.1266475180399739
 20
0.7987940732672227
 30
0.0
 10
-0.1207097813696148
 20
0.8039361661674947
 30
0.0
 10
-0.1154280677085166
 20
0.8096878113847762
 30
0.0
 10
-0.1108921037410803
 20
0.8159479559052271
 30
0.0
 10
-0.106873939939577
 20
0.8225525129346118
 30
0.0
 10
-0.1038131042203837
 20
0.8297053920536138
 30
0.0
 10
-0.1012412891335204
 20
0.8372111323936119
 30
0.0
 10
-0.0995973588153054
 20
0.8451957164338496
 30
0.0
 10
-0.0984733555630402
 20
0.8535728891971108
 30
0.0
 10
-0.0983500379076442
 20
0.859308182019064
 30
0.0
 10
-0.0982871093750001
 20
0.8622348802311748
 30
0.0
  0
SPLINE
  5
82
330
1F
100
AcDbEntity
  8
0
  6
Continuous
 62
     7
370
    15
100
AcDbSpline
210
0.0
220
0.0
230
1.0
 70
     8
 71
     3
 72
    15
 73
    11
 74
     0
 42
0.000000001
 43
0.00000001
 40
0.0
 40
0.0
 40
0.0
 40
0.0
 40
0.122716601934722
 40
0.2420188804365926
 40
0.3594129800355092
 40
0.4772189660938581
 40
0.5977304563602497
 40
0.7238121824916434
 40
0.8576493474827129
 40
1.0
 40
1.0
 40
1.0
 40
1.0
 10
-0.0462701822916668
 20
0.8622348802311748
 30
0.0
 10
-0.0463584715130284
 20
0.859207721034716
 30
0.0
 10
-0.0465325934995541
 20
0.8532376267843875
 30
0.0
 10
-0.0479989086297337
 20
0.8444700036050535
 30
0.0
 10
-0.0503844571850106
 20
0.8360461246035367
 30
0.0
 10
-0.0537137791140001
 20
0.827909282329801
 30
0.0
 10
-0.0581572650078719
 20
0.8200709626928228
 30
0.0
 10
-0.0637541070687815
 20
0.8125259291455701
 30
0.0
 10
-0.0703785574098246
 20
0.8051116857313524
 30
0.0
 10
-0.0755418826485889
 20
0.800662276126681
 30
0.0
 10
-0.0782031250000001
 20
0.7983689948145082
 30
0.0
  0
SPLINE
  5
84
330
1F
100
AcDbEntity
  8
0
  6
Continuous
 62
     7
370
    15
100
AcDbSpline
210
0.0
220
0.0
230
1.0
 70
     8
 71
     3
 72
    19
 73
    15
 74
     0
 42
0.000000001
 43
0.00000001
 40
0.0
 40
0.0
 40
0.0
 40
0.0
 40
0.0751775521650587
 40
0.1487516899034893
 40
0.2200991700597235
 40
0.2902916376724873
 40
0.3592080512390036
 40
0.4287544550306313
 40
0.4982701530383939
 40
0.5683234360450279
 40
0.7019428033968655
 40
0.8177086620378929
 40
0.9169758017122981
 40
1.0
 40
1.0
 40
1.0
 40
1.0
 10
-0.0290891927083335
 20
0.7983689948145082
 30
0.0
 10
-0.0274713754878363
 20
0.7993691125691452
 30
0.0
 10
-0.0242702464463434
 20
0.801348017199853
 30
0.0
 10
-0.019850157600736
 20
0.8047417046277693
 30
0.0
 10
-0.0157695496904411
 20
0.8083501655839027
 30
0.0
 10
-0.0121911286592071
 20
0.8122963704455642
 30
0.0
 10
-0.0088494960203266
 20
0.8163882984307921
 30
0.0
 10
-0.0060424353572963
 20
0.8208471968999339
 30
0.0
 10
-0.0035819305548044
 20
0.8255358540404294
 30
0.0
 10
-0.0010375677798656
 20
0.8319653092756732
 30
0.0
 10
0.0015496568176323
 20
0.8396209075304677
 30
0.0
 10
0.0039125610537309
 20
0.8481156619004566
 30
0.0
 10
0.0053863226125822
 20
0.8555292310762668
 30
0.0
 10
0.0056339592274039
 20
0.8601365065250809
 30
0.0
 10
0.0057467447916665
 20
0.862234880231175
 30
0.0
  0
SPLINE
  5
86
330
1F
100
AcDbEntity
  8
0
  6
Continuous
 62
     7
370
    15
100
AcDbSpline
210
0.0
220
0.0
230
1.0
 70
     8
 71
     3
 72
    31
 73
    27
 74
     0
 42
0.000000001
 43
0.00000001
 40
0.0
 40
0.0
 40
0.0
 40
0.0
 40
0.0386447947630874
 40
0.0847069410969049
 40
0.1406582785831108
 40
0.2073668119393056
 40
0.2431169374259615
 40
0.2774765651678543
 40
0.3125555139341771
 40
0.3473081981737237
 40
0.3828308680551987
 40
0.4189316278704138
 40
0.4571316905043439
 40
0.4964926325582888
 40
0.5358535746122338
 40
0.573589155216516
 40
0.6096899150317312
 40
0.6447688637980542
 40
0.6790997880820502
 40
0.7133828198652343
 40
0.747742447607127
 40
0.7828245188042512
 40
0.8493472456084785
 40
0.9067499976048493
 40
0.9562928387144118
 40
1.0
 40
1.0
 40
1.0
 40
1.0
 10
-0.0385091145833335
 20
0.6365714687728414
 30
0.0
 10
-0.0387434227983702
 20
0.6349473635202529
 30
0.0
 10
-0.0392570115569937
 20
0.6313874277304637
 30
0.0
 10
-0.0420644237585869
 20
0.6260623488443592
 30
0.0
 10
-0.0460668924662461
 20
0.6201868515034465
 30
0.0
 10
-0.0504640698968674
 20
0.6151245701265802
 30
0.0
 10
-0.0545802515172213
 20
0.6110702816581922
 30
0.0
 10
-0.0580960205297456
 20
0.6083406213023095
 30
0.0
 10
-0.0618674730348698
 20
0.6060713666978101
 30
0.0
 10
-0.0658695011353463
 20
0.6041079157818982
 30
0.0
 10
-0.070157661274246
 20
0.6027539671410623
 30
0.0
 10
-0.0746563242012209
 20
0.6016093026246669
 30
0.0
 10
-0.0794344358896852
 20
0.6011008089346095
 30
0.0
 10
-0.0843644269011629
 20
0.600808172264315
 30
0.0
 10
-0.0892757587924019
 20
0.6010962017127667
 30
0.0
 10
-0.0940318055904756
 20
0.6016176079047184
 30
0.0
 10
-0.0984963228318427
 20
0.6027427365447109
 30
0.0
 10
-0.1027399179256524
 20
0.6041130185692062
 30
0.0
 10
-0.1066791702971692
 20
0.6060508999426896
 30
0.0
 10
-0.110349121683237
 20
0.6083820836140506
 30
0.0
 10
-0.1138484202357388
 20
0.611032214173981
 30
0.0
 10
-0.1178431817580723
 20
0.6151654620228194
 30
0.0
 10
-0.12212835833746
 20
0.6203470695414572
 30
0.0
 10
-0.1260642168431181
 20
0.6265286642246342
 30
0.0
 10
-0.1286529571213563
 20
0.6324146054983902
 30
0.0
 10
-0.129155212933332
 20
0.6363340141216605
 30
0.0
 10
-0.1293906250000001
 20
0.6381710781478414
 30
0.0
  0
SPLINE
  5
88
330
1F
100
AcDbEntity
  8
0
  6
Continuous
 62
     7
370
    15
100
AcDbSpline
210
0.0
220
0.0
230
1.0
 70
     8
 71
     3
 72
    19
 73
    15
 74
     0
 42
0.000000001
 43
0.00000001
 40
0.0
 40
0.0
 40
0.0
 40
0.0
 40
0.0089362437443793
 40
0.0262283821030127
 40
0.0515915066668669
 40
0.086861693332262
 40
0.1302329176365796
 40
0.1830164651672631
 40
0.2444465963423856
 40
0.314532679895686
 40
0.4675864175932961
 40
0.6322683488458081
 40
0.8082440428836808
 40
0.9999999999999999
 40
0.9999999999999999
 40
0.9999999999999999
 40
0.9999999999999999
 10
-0.1744759114583334
 20
0.6381710781478414
 30
0.0
 10
-0.1744224952716142
 20
0.637990779463969
 30
0.0
 10
-0.1742657157347267
 20
0.637461592603298
 30
0.0
 10
-0.1736610328623441
 20
0.6365510324973789
 30
0.0
 10
-0.1728515742133776
 20
0.6351365385484284
 30
0.0
 10
-0.1715855678695571
 20
0.6333560783582958
 30
0.0
 10
-0.1700458330320206
 20
0.6310727990550238
 30
0.0
 10
-0.1681588299576462
 20
0.6283601349097298
 30
0.0
 10
-0.1658978319880731
 20
0.6252268888712742
 30
0.0
 10
-0.1624055507779074
 20
0.6203905154595954
 30
0.0
 10
-0.1571774217976588
 20
0.6141329041882007
 30
0.0
 10
-0.1494654649630623
 20
0.6071888506622488
 30
0.0
 10
-0.1404265378329337
 20
0.6006004681789655
 30
0.0
 10
-0.1337181714603803
 20
0.5967905803547244
 30
0.0
 10
-0.1302200520833335
 20
0.5948038906478413
 30
0.0
  0
SPLINE
  5
89
330
1F
100
AcDbEntity
  8
0
  6
Continuous
 62
     7
370
    15
100
AcDbSpline
210
0.0
220
0.0
230
1.0
 70
     8
 71
     3
 72
    23
 73
    19
 74
     0
 42
0.000000001
 43
0.00000001
 40
0.0
 40
0.0
 40
0.0
 40
0.0
 40
0.0937384252713989
 40
0.1835185567997822
 40
0.2688864226299459
 40
0.349967272488131
 40
0.4270252222280357
 40
0.5006473209408627
 40
0.5706930967868381
 40
0.6377410231406051
 40
0.6999110727952581
 40
0.7558427918687516
 40
0.8069071598996269
 40
0.852170663893996
 40
0.8927093658614896
 40
0.9303423341209287
 40
0.9654439107128783
 40
1.0
 40
1.0
 40
1.0
 40
1.0
 10
-0.1302200520833335
 20
0.5948038906478413
 30
0.0
 10
-0.1337176233981371
 20
0.5949920841758529
 30
0.0
 10
-0.1405650740368552
 20
0.5953605243812412
 30
0.0
 10
-0.1505619117484459
 20
0.5963895594278656
 30
0.0
 10
-0.1600480489265014
 20
0.5976836103036226
 30
0.0
 10
-0.1690139816718978
 20
0.5992519400387576
 30
0.0
 10
-0.1774458311071412
 20
0.6012346016174965
 30
0.0
 10
-0.1853967123768557
 20
0.603441133533531
 30
0.0
 10
-0.1928189341064555
 20
0.6060795057006082
 30
0.0
 10
-0.1997069932738602
 20
0.6089188476079941
 30
0.0
 10
-0.2058787052827053
 20
0.6120548546071335
 30
0.0
 10
-0.2113456744631974
 20
0.6152372141682388
 30
0.0
 10
-0.2159626076617869
 20
0.6185821829049619
 30
0.0
 10
-0.2197449487194931
 20
0.6220359923801497
 30
0.0
 10
-0.2227562936450184
 20
0.6255592822980544
 30
0.0
 10
-0.2248407669581915
 20
0.6292637012192722
 30
0.0
 10
-0.2261946435523207
 20
0.6330830368006581
 30
0.0
 10
-0.2263543605973993
 20
0.6356919439036368
 30
0.0
 10
-0.2264335937500001
 20
0.6369861823145081
 30
0.0
  0
SPLINE
  5
8B
330
1F
100
AcDbEntity
  8
0
  6
Continuous
 62
     7
370
    15
100
AcDbSpline
210
0.0
220
0.0
230
1.0
 70
     8
 71
     3
 72
    47
 73
    43
 74
     0
 42
0.000000001
 43
0.00000001
 40
0.0
 40
0.0
 40
0.0
 40
0.0
 40
0.0064555430154057
 40
0.0139533204495987
 40
0.0224660068934397
 40
0.0321221457382179
 40
0.0430143978749241
 40
0.0549603489923665
 40
0.0681030595058681
 40
0.0823310042075274
 40
0.1116604501522456
 40
0.1407098616079752
 40
0.1697081446964896
 40
0.1993091284607003
 40
0.2297301022594824
 40
0.2610452469396419
 40
0.2941330526211852
 40
0.3290207853682762
 40
0.3481438801529623
 40
0.3694995542737318
 40
0.3931024466733739
 40
0.4190016065207942
 40
0.4472152765933262
 40
0.4777506687456533
 40
0.5106285147855109
 40
0.5458573395392698
 40
0.5814163352898793
 40
0.6155309389686703
 40
0.6482368222562157
 40
0.6796662777445368
 40
0.7101518168238723
 40
0.7398682955017454
 40
0.7689368569103404
 40
0.7976824361621484
 40
0.8256110834365291
 40
0.8521889141778428
 40
0.8775846990913133
 40
0.902239760959084
 40
0.926371654267668
 40
0.9504450583685919
 40
0.9749350534659178
 40
1.0
 40
1.0
 40
1.0
 40
1.0
 10
-0.2784505208333334
 20
0.6374008958561749
 30
0.0
 10
-0.2784340736605427
 20
0.6365887215093816
 30
0.0
 10
-0.2783985239520378
 20
0.6348332489031729
 30
0.0
 10
-0.2778211487475156
 20
0.6320631066076697
 30
0.0
 10
-0.2772407646956683
 20
0.6288917804504705
 30
0.0
 10
-0.2761446932045489
 20
0.6254053524611647
 30
0.0
 10
-0.2749757343614787
 20
0.6214947923355794
 30
0.0
 10
-0.2732757315137903
 20
0.6173044138098017
 30
0.0
 10
-0.2715784427499011
 20
0.6126675727648276
 30
0.0
 10
-0.2687069350175272
 20
0.6061490222133931
 30
0.0
 10
-0.2646171059052703
 20
0.5979863651290921
 30
0.0
 10
-0.2585577771369396
 20
0.5888004775132064
 30
0.0
 10
-0.251347977327589
 20
0.5804515501694457
 30
0.0
 10
-0.243154429800017
 20
0.5728120857247551
 30
0.0
 10
-0.2338183741064429
 20
0.5660912230568654
 30
0.0
 10
-0.2233046781029105
 20
0.5604382198025422
 30
0.0
 10
-0.211714623446258
 20
0.5557855213598715
 30
0.0
 10
-0.2011943160871018
 20
0.5527204512528517
 30
0.0
 10
-0.1919240967012858
 20
0.5508004551355673
 30
0.0
 10
-0.1839809038406174
 20
0.5494954326647014
 30
0.0
 10
-0.1751408327476522
 20
0.5484639597916792
 30
0.0
 10
-0.1654211231007051
 20
0.5475834799934501
 30
0.0
 10
-0.15481450597472
 20
0.5468657503665021
 30
0.0
 10
-0.1433161415503083
 20
0.5464179290272672
 30
0.0
 10
-0.1309325821078491
 20
0.5461421997503614
 30
0.0
 10
-0.1179150183304454
 20
0.5459513513199109
 30
0.0
 10
-0.1047415621098162
 20
0.5463174817381682
 30
0.0
 10
-0.0919237408765205
 20
0.5474511546540384
 30
0.0
 10
-0.0797516183099269
 20
0.5495448050066859
 30
0.0
 10
-0.0682079052537094
 20
0.5523928174568474
 30
0.0
 10
-0.0572515265828875
 20
0.555961387802126
 30
0.0
 10
-0.0469874272197594
 20
0.5605075134430155
 30
0.0
 10
-0.0373207060327626
 20
0.5657713583957196
 30
0.0
 10
-0.0284288593960779
 20
0.5718715934965095
 30
0.0
 10
-0.0203283963949245
 20
0.5785036719657795
 30
0.0
 10
-0.0132462376384454
 20
0.5856353485483297
 30
0.0
 10
-0.0071836201793195
 20
0.5931349258179389
 30
0.0
 10
-0.0022476748565193
 20
0.6010591901548702
 30
0.0
 10
0.0016826238267272
 20
0.6093524214553377
 30
0.0
 10
0.0043724759891692
 20
0.6180978880963847
 30
0.0
 10
0.0061671627637191
 20
0.6271982225096836
 30
0.0
 10
0.0064387850233408
 20
0.6334229795133053
 30
0.0
 10
0.0065761718749999
 20
0.6365714687728414
 30
0.0
  0
SPLINE
  5
8C
330
1F
100
AcDbEntity
  8
0
  6
Continuous
 62
     7
370
    15
100
AcDbSpline
210
0.0
220
0.0
230
1.0
 70
     8
 71
     3
 72
    35
 73
    31
 74
     0
 42
0.000000001
 43
0.00000001
 40
0.0
 40
0.0
 40
0.0
 40
0.0
 40
0.0303077615824595
 40
0.0708017653750677
 40
0.1227337836279202
 40
0.1871703130586319
 40
0.2225590242560044
 40
0.2583660113089117
 40
0.2939948813243883
 40
0.3312978582715886
 40
0.3693232083762913
 40
0.4091192489898491
 40
0.451006604533003
 40
0.4952604672822952
 40
0.5395143300315874
 40
0.5820462676298256
 40
0.6230749236736742
 40
0.6628981659586334
 40
0.7022564231276947
 40
0.740983687007995
 40
0.780117757389502
 40
0.8195275688624193
 40
0.8574245509522563
 40
0.8905450331274763
 40
0.9196312302581341
 40
0.9443500489417034
 40
0.9644342734108731
 40
0.9801645018721303
 40
0.9920407918772887
 40
1.0
 40
1.0
 40
1.0
 40
1.0
 10
-0.1289759114583335
 20
0.6656606614811748
 30
0.0
 10
-0.1287981490057762
 20
0.666805251118662
 30
0.0
 10
-0.1283828792926299
 20
0.66947911955146
 30
0.0
 10
-0.1259824090370811
 20
0.6735767409002299
 30
0.0
 10
-0.1222605428344897
 20
0.6782005105147029
 30
0.0
 10
-0.1184043863045361
 20
0.6825030412142459
 30
0.0
 10
-0.1145516130901606
 20
0.6859262220176655
 30
0.0
 10
-0.1112541199672463
 20
0.6883033270756245
 30
0.0
 10
-0.1076179498634563
 20
0.6902724976152157
 30
0.0
 10
-0.1037409310252059
 20
0.6919364800828044
 30
0.0
 10
-0.0995404284411178
 20
0.6931719394986721
 30
0.0
 10
-0.0950789767218501
 20
0.6940575433122591
 30
0.0
 10
-0.0903218484477869
 20
0.6945839110910462
 30
0.0
 10
-0.0853727191696997
 20
0.6947374688797155
 30
0.0
 10
-0.0803933544171425
 20
0.6946142754798657
 30
0.0
 10
-0.0755819377043868
 20
0.6939289470356074
 30
0.0
 10
-0.071004335987411
 20
0.6929270963539382
 30
0.0
 10
-0.0666348145462271
 20
0.69158560838458
 30
0.0
 10
-0.0625401445735036
 20
0.6897456876878464
 30
0.0
 10
-0.0587309796058931
 20
0.6874376772966411
 30
0.0
 10
-0.0550822898250222
 20
0.6848718136905534
 30
0.0
 10
-0.0518537650282011
 20
0.6818396953060366
 30
0.0
 10
-0.0489424354943307
 20
0.6788264482603187
 30
0.0
 10
-0.046309227767423
 20
0.6760870057117327
 30
0.0
 10
-0.0440612701365123
 20
0.6736719765510045
 30
0.0
 10
-0.0422035833719128
 20
0.6715701640627136
 30
0.0
 10
-0.0408414052386058
 20
0.6697110057002691
 30
0.0
 10
-0.0398401597798783
 20
0.6682189106742629
 30
0.0
 10
-0.0390696936641492
 20
0.6670719059480017
 30
0.0
 10
-0.0389655977401762
 20
0.6663184589762736
 30
0.0
 10
-0.0389238281250001
 20
0.6660161302311748
 30
0.0
  0
SPLINE
  5
8E
330
1F
100
AcDbEntity
  8
0
  6
Continuous
 62
     7
370
    15
100
AcDbSpline
210
0.0
220
0.0
230
1.0
 70
     8
 71
     3
 72
    39
 73
    35
 74
     0
 42
0.000000001
 43
0.00000001
 40
0.0
 40
0.0
 40
0.0
 40
0.0
 40
0.0234486060725319
 40
0.0477772913696243
 40
0.0729059177853167
 40
0.0995771252067005
 40
0.1281609164475399
 40
0.1584141533855643
 40
0.1908888456326556
 40
0.2257121495288208
 40
0.2611704716229184
 40
0.2958697303107992
 40
0.3298259631906131
 40
0.3638967924151731
 40
0.398033340341541
 40
0.4329425855672372
 40
0.4685920774998912
 40
0.5057073108687441
 40
0.5423728301121163
 40
0.5772303961899723
 40
0.6103034594589505
 40
0.6420805051640289
 40
0.6728645761521302
 40
0.702689610794977
 40
0.7320204647540478
 40
0.7612781369957828
 40
0.7903361243459499
 40
0.8188994535251747
 40
0.847594676338669
 40
0.8763492657176751
 40
0.9056659965359825
 40
0.9359288949295245
 40
0.9673047576681721
 40
1.0
 40
1.0
 40
1.0
 40
1.0
 10
0.0061614583333332
 20
0.6660161302311748
 30
0.0
 10
0.0060830389499707
 20
0.668115920831316
 30
0.0
 10
0.0059232569264106
 20
0.672394311922361
 30
0.0
 10
0.0045425776160755
 20
0.6787998858064459
 30
0.0
 10
0.0023733528450079
 20
0.6852654059431521
 30
0.0
 10
-0.0006211131277706
 20
0.6918190275015631
 30
0.0
 10
-0.0044828130762475
 20
0.6984370006435986
 30
0.0
 10
-0.0092325176595944
 20
0.705093189572994
 30
0.0
 10
-0.0147478853337046
 20
0.7118662947137072
 30
0.0
 10
-0.0210664404796129
 20
0.7185509179888496
 30
0.0
 10
-0.0279096797015801
 20
0.7250040190479705
 30
0.0
 10
-0.0354102336464942
 20
0.7305601220289702
 30
0.0
 10
-0.043297665645669
 20
0.7353081667830843
 30
0.0
 10
-0.0516139718989329
 20
0.7391377194793227
 30
0.0
 10
-0.0603279841225403
 20
0.7422181089212503
 30
0.0
 10
-0.0694763373288412
 20
0.7443045626227344
 30
0.0
 10
-0.0790298644466325
 20
0.7456411794666425
 30
0.0
 10
-0.088828489853396
 20
0.745999705450562
 30
0.0
 10
-0.0985470648513705
 20
0.7456395396355499
 30
0.0
 10
-0.1078652045052106
 20
0.7446756145685849
 30
0.0
 10
-0.1166312006736001
 20
0.7429557511374164
 30
0.0
 10
-0.1248525108479939
 20
0.7405349562337333
 30
0.0
 10
-0.1325092556626192
 20
0.7373865918241281
 30
0.0
 10
-0.1396288332426951
 20
0.7335994527861005
 30
0.0
 10
-0.1461147372482353
 20
0.7290420165574261
 30
0.0
 10
-0.1520567425890664
 20
0.7239024813139429
 30
0.0
 10
-0.1573111151953938
 20
0.7181511651434932
 30
0.0
 10
-0.1619108883621636
 20
0.7119342655148877
 30
0.0
 10
-0.1658526063951694
 20
0.7053035849814308
 30
0.0
 10
-0.1689679914792208
 20
0.6981790841435918
 30
0.0
 10
-0.1715183191832325
 20
0.6906827216175526
 30
0.0
 10
-0.1731666208117204
 20
0.6827002994614709
 30
0.0
 10
-0.1742894100208034
 20
0.6743225262785284
 30
0.0
 10
-0.1744128966824432
 20
0.6685873170406493
 30
0.0
 10
-0.1744759114583334
 20
0.6656606614811748
 30
0.0
  0
SPLINE
  5
90
330
1F
100
AcDbEntity
  8
0
  6
Continuous
 62
     7
370
    15
100
AcDbSpline
210
0.0
220
0.0
230
1.0
 70
     8
 71
     3
 72
    15
 73
    11
 74
     0
 42
0.000000001
 43
0.00000001
 40
0.0
 40
0.0
 40
0.0
 40
0.0
 40
0.1226770839475708
 40
0.2419409439646185
 40
0.3590812420040715
 40
0.4768492914232844
 40
0.5973219738067277
 40
0.7233630982920952
 40
0.8576951881527473
 40
1.0
 40
1.0
 40
1.0
 40
1.0
 10
-0.2264335937500001
 20
0.6656606614811748
 30
0.0
 10
-0.226347065388167
 20
0.668688311658748
 30
0.0
 10
-0.226176416128599
 20
0.6746593742108199
 30
0.0
 10
-0.2246856421364664
 20
0.6834146609240186
 30
0.0
 10
-0.2223966497437439
 20
0.6918598883823336
 30
0.0
 10
-0.2190443337262315
 20
0.6999853035500462
 30
0.0
 10
-0.2146047251442352
 20
0.7078226484448477
 30
0.0
 10
-0.209011069311269
 20
0.7153897287560389
 30
0.0
 10
-0.2023231452024945
 20
0.7227640648013586
 30
0.0
 10
-0.1971577714088089
 20
0.7272294881156208
 30
0.0
 10
-0.1945006510416668
 20
0.7295265468978415
 30
0.0
  0
SPLINE
  5
92
330
1F
100
AcDbEntity
  8
0
  6
Continuous
 62
     7
370
    15
100
AcDbSpline
210
0.0
220
0.0
230
1.0
 70
     8
 71
     3
 72
    19
 73
    15
 74
     0
 42
0.000000001
 43
0.00000001
 40
0.0
 40
0.0
 40
0.0
 40
0.0
 40
0.0752251181101733
 40
0.1488458072897831
 40
0.2207626464185133
 40
0.2904276151994676
 40
0.3595203593434845
 40
0.429110766169667
 40
0.4986704477839827
 40
0.5690680177563562
 40
0.702522734023806
 40
0.8183618394295881
 40
0.916923271078549
 40
1.0
 40
1.0
 40
1.0
 40
1.0
 10
-0.2436738281250001
 20
0.7295265468978415
 30
0.0
 10
-0.2452902762599654
 20
0.7285250156475794
 30
0.0
 10
-0.2484886963307534
 20
0.7265433141731752
 30
0.0
 10
-0.252939138117417
 20
0.7231620244744553
 30
0.0
 10
-0.2569453883232383
 20
0.7194783660118358
 30
0.0
 10
-0.2606213890602212
 20
0.7156176941951516
 30
0.0
 10
-0.2638232564537543
 20
0.7114277561683202
 30
0.0
 10
-0.266673861720331
 20
0.7069972021978164
 30
0.0
 10
-0.2691044836469025
 20
0.7022843965920376
 30
0.0
 10
-0.2717684329218669
 20
0.6959035512337496
 30
0.0
 10
-0.2742273920202526
 20
0.6881987881209785
 30
0.0
 10
-0.2766132710603948
 20
0.6797408981215032
 30
0.0
 10
-0.2780935049077701
 20
0.6723470840727708
 30
0.0
 10
-0.2783384768326141
 20
0.667759093186934
 30
0.0
 10
-0.2784505208333334
 20
0.6656606614811748
 30
0.0
  0
SPLINE
  5
95
330
1F
100
AcDbEntity
  8
0
  6
Continuous
 62
     7
370
    15
100
AcDbSpline
210
0.0
220
0.0
230
1.0
 70
     8
 71
     3
 72
    63
 73
    59
 74
     0
 42
0.000000001
 43
0.00000001
 40
0.0
 40
0.0
 40
0.0
 40
0.0
 40
0.0203946893248451
 40
0.0404962159119879
 40
0.0604726709706976
 40
0.0803666501170331
 40
0.0906269778431743
 40
0.1016166937849568
 40
0.1131779842155572
 40
0.1255517820489157
 40
0.1387989936714257
 40
0.1527460892486108
 40
0.1676177898243265
 40
0.1833455110523222
 40
0.1992942387520887
 40
0.2151139497151081
 40
0.2309836121508139
 40
0.2472638670202041
 40
0.2640667372952971
 40
0.2816671326854893
 40
0.3002680166361201
 40
0.32010412985496
 40
0.3405967575749276
 40
0.3615463739929238
 40
0.3830617884052608
 40
0.4053468891673812
 40
0.4286306813517309
 40
0.4530303162786139
 40
0.4786652897747381
 40
0.505661380421571
 40
0.5325604433237842
 40
0.5578087758779442
 40
0.5817137432738133
 40
0.6042203489827301
 40
0.6256776594463384
 40
0.6461387676380691
 40
0.665898972683047
 40
0.6851576273172931
 40
0.7037686394350465
 40
0.7215031619347608
 40
0.7384742562023443
 40
0.7549929465525388
 40
0.7711672345694364
 40
0.7872612236888266
 40
0.8034107346786711
 40
0.8199354131095614
 40
0.8361469409654116
 40
0.8514063975542261
 40
0.8657152958430459
 40
0.8789229735621834
 40
0.8912265172236705
 40
0.9026928803902194
 40
0.9131995727218682
 40
0.9228796478334749
 40
0.9415898776454665
 40
0.9605529615576072
 40
0.9800065721884205
 40
0.9999999999999999
 40
0.9999999999999999
 40
0.9999999999999999
 40
0.9999999999999999
 10
-0.0331770833333335
 20
0.1650421718978415
 30
0.0
 10
-0.0302817080350887
 20
0.1620676740273391
 30
0.0
 10
-0.0245325769080399
 20
0.1561614351003811
 30
0.0
 10
-0.016859295644555
 20
0.1465117810328439
 30
0.0
 10
-0.0102002705407295
 20
0.1362772340491026
 30
0.0
 10
-0.0052223872849007
 20
0.1273555072209665
 30
0.0
 10
-0.001879254225097
 20
0.1196722646785589
 30
0.0
 10
0.0002847624755045
 20
0.113350882671621
 30
0.0
 10
0.0021360497264613
 20
0.106485097322737
 30
0.0
 10
0.0035832818063564
 20
0.0990555420293831
 30
0.0
 10
0.0047668677205906
 20
0.0910906432229821
 30
0.0
 10
0.0055975867170639
 20
0.0825683943853347
 30
0.0
 10
0.0060182047076146
 20
0.0735135456313861
 30
0.0
 10
0.00628771600425
 20
0.06404639859938
 30
0.0
 10
0.0058025700033238
 20
0.0543724470019698
 30
0.0
 10
0.0039341953375309
 20
0.0448286336229437
 30
0.0
 10
0.0008153233383355
 20
0.0355530463046161
 30
0.0
 10
-0.0035568520917415
 20
0.0265769841667585
 30
0.0
 10
-0.0091148081893087
 20
0.0178656967466154
 30
0.0
 10
-0.0159321552075656
 20
0.0094809615677828
 30
0.0
 10
-0.0240130765667436
 20
0.0014175943169195
 30
0.0
 10
-0.0331653853874013
 20
-0.0063487138870965
 30
0.0
 10
-0.0433963431433985
 20
-0.0135065663947126
 30
0.0
 10
-0.0545686525533986
 20
-0.0198134793502957
 30
0.0
 10
-0.0666617767619948
 20
-0.0250958243692097
 30
0.0
 10
-0.0796549748312249
 20
-0.0293267249346083
 30
0.0
 10
-0.0934954931865178
 20
-0.0327076341055309
 30
0.0
 10
-0.1082293820043493
 20
-0.0351299300697908
 30
0.0
 10
-0.1238525135863952
 20
-0.0365088095086544
 30
0.0
 10
-0.1400346709426295
 20
-0.0369542593569227
 30
0.0
 10
-0.1561397620679751
 20
-0.0365198032379924
 30
0.0
 10
-0.171560045133108
 20
-0.0351164413258922
 30
0.0
 10
-0.1859652408783749
 20
-0.032784902262132
 30
0.0
 10
-0.1993880841837011
 20
-0.0294731956556016
 30
0.0
 10
-0.2117990675224944
 20
-0.0252084619060314
 30
0.0
 10
-0.2232746488408145
 20
-0.0200774446677885
 30
0.0
 10
-0.233704378156007
 20
-0.0138861205732984
 30
0.0
 10
-0.2430560519307407
 20
-0.0067713351272841
 30
0.0
 10
-0.2512898028294061
 20
0.0010053486469187
 30
0.0
 10
-0.2586075298090662
 20
0.0090349381782972
 30
0.0
 10
-0.2646882481015006
 20
0.0175277773847431
 30
0.0
 10
-0.2696903258214788
 20
0.0263254968245391
 30
0.0
 10
-0.273661733843673
 20
0.0354477317931291
 30
0.0
 10
-0.2764426294937951
 20
0.0449208456896836
 30
0.0
 10
-0.2781449609881751
 20
0.0547235414358296
 30
0.0
 10
-0.2785374072491201
 20
0.064678443149472
 30
0.0
 10
-0.2784083053450498
 20
0.0744436258508078
 30
0.0
 10
-0.2778810698868714
 20
0.083743107643963
 30
0.0
 10
-0.2773229769821408
 20
0.0924316053985645
 30
0.0
 10
-0.2762563579675942
 20
0.1004648854800294
 30
0.0
 10
-0.275087849481616
 20
0.1079019944434614
 30
0.0
 10
-0.2734324724840095
 20
0.1146791276788479
 30
0.0
 10
-0.2717416208039038
 20
0.120900312854759
 30
0.0
 10
-0.2688149575980467
 20
0.12826435891721
 30
0.0
 10
-0.264547779018436
 20
0.1369180909733687
 30
0.0
 10
-0.2584097198915959
 20
0.1468078387957992
 30
0.0
 10
-0.2511657416897013
 20
0.1562590471555817
 30
0.0
 10
-0.2456433717433968
 20
0.1620878752450501
 30
0.0
 10
-0.2428444010416668
 20
0.1650421718978415
 30
0.0
  0
SPLINE
  5
97
330
1F
100
AcDbEntity
  8
0
  6
Continuous
 62
     7
370
    15
100
AcDbSpline
210
0.0
220
0.0
230
1.0
 70
     8
 71
     3
 72
    55
 73
    51
 74
     0
 42
0.000000001
 43
0.00000001
 40
0.0
 40
0.0
 40
0.0
 40
0.0
 40
0.034259541598235
 40
0.0656867708080812
 40
0.0944342311209726
 40
0.1206016015178836
 40
0.1445154054023545
 40
0.1664888798420726
 40
0.1870271847609719
 40
0.2065519306998659
 40
0.2252883579173867
 40
0.2431279981367551
 40
0.2602255985394442
 40
0.2768067088509192
 40
0.2929655035634132
 40
0.309149006366815
 40
0.3253720783968536
 40
0.3418694778228406
 40
0.3587477394111635
 40
0.3760285944372556
 40
0.3938432155731237
 40
0.4123802073380848
 40
0.4317554203627845
 40
0.4522171225290701
 40
0.4737048408349444
 40
0.4964810707681629
 40
0.5192573007013815
 40
0.5410166019553762
 40
0.5615906174379058
 40
0.5811989449060754
 40
0.5999947901180477
 40
0.6180739826560478
 40
0.635644916109965
 40
0.6528113985861658
 40
0.6696383826495313
 40
0.6860357849315083
 40
0.7022324882181573
 40
0.7186514101532111
 40
0.7352627544913747
 40
0.7524341078897626
 40
0.7701875972980009
 40
0.7889478142961979
 40
0.808459230162186
 40
0.8290278252488679
 40
0.8513049409820953
 40
0.8757216979922728
 40
0.9023927255113815
 40
0.931965819451745
 40
0.9644511744055166
 40
1.0
 40
1.0
 40
1.0
 40
1.0
 10
-0.1752460937500001
 20
0.1650421718978415
 30
0.0
 10
-0.178960440120357
 20
0.1617490006744711
 30
0.0
 10
-0.1860820595977183
 20
0.1554349120063249
 30
0.0
 10
-0.195667679404
 20
0.1456553531215313
 30
0.0
 10
-0.2037182890059004
 20
0.1360645361023292
 30
0.0
 10
-0.2102471326375909
 20
0.126673518239845
 30
0.0
 10
-0.2152978631138747
 20
0.1175152300139127
 30
0.0
 10
-0.2189011024686553
 20
0.1085594971169117
 30
0.0
 10
-0.2209161265104765
 20
0.0997566824533148
 30
0.0
 10
-0.221361742189882
 20
0.0912111241698804
 30
0.0
 10
-0.2206218774768058
 20
0.083103478153043
 30
0.0
 10
-0.2193495656056066
 20
0.0754263478544806
 30
0.0
 10
-0.2174143443296973
 20
0.0682008466103335
 30
0.0
 10
-0.2147137787512181
 20
0.0614897262200652
 30
0.0
 10
-0.2114436850906561
 20
0.0551896102633377
 30
0.0
 10
-0.2074806746045446
 20
0.0493493596917356
 30
0.0
 10
-0.2027207445864948
 20
0.0440823634575438
 30
0.0
 10
-0.1974553043529607
 20
0.0391776581420454
 30
0.0
 10
-0.1915054952175189
 20
0.034847968407817
 30
0.0
 10
-0.1849421978896911
 20
0.0311378140751939
 30
0.0
 10
-0.177870905607133
 20
0.0278860731769521
 30
0.0
 10
-0.1701785404628374
 20
0.0253904148009031
 30
0.0
 10
-0.1619616047013101
 20
0.0233734630192543
 30
0.0
 10
-0.1531939980507037
 20
0.0218751373034714
 30
0.0
 10
-0.1438417857566843
 20
0.0211046112639372
 30
0.0
 10
-0.1341302471802915
 20
0.0207941276239456
 30
0.0
 10
-0.1243791370867299
 20
0.0211057652439649
 30
0.0
 10
-0.1149722504477465
 20
0.0218842554693218
 30
0.0
 10
-0.1061083635108104
 20
0.0233272185401407
 30
0.0
 10
-0.0977735770840156
 20
0.0252464898004675
 30
0.0
 10
-0.0899939230448799
 20
0.0278138806104445
 30
0.0
 10
-0.0827129860553564
 20
0.0308755355742973
 30
0.0
 10
-0.0759996791368482
 20
0.0345733515996053
 30
0.0
 10
-0.069809865213807
 20
0.038775054281141
 30
0.0
 10
-0.0642288387968037
 20
0.0435047998224201
 30
0.0
 10
-0.0593312879954341
 20
0.0487493641716584
 30
0.0
 10
-0.055134443217249
 20
0.0545000594468352
 30
0.0
 10
-0.0516654677754872
 20
0.0607449738173621
 30
0.0
 10
-0.0487485632087936
 20
0.0674258475424065
 30
0.0
 10
-0.0467326985235134
 20
0.0746340901880286
 30
0.0
 10
-0.0453142015604564
 20
0.0822872797098648
 30
0.0
 10
-0.0444826109224653
 20
0.0903710600279111
 30
0.0
 10
-0.0447405589578825
 20
0.0989414828391676
 30
0.0
 10
-0.0469185514844302
 20
0.1077599301683238
 30
0.0
 10
-0.0505041608921842
 20
0.1168492015864889
 30
0.0
 10
-0.0558298265090666
 20
0.1260822988956951
 30
0.0
 10
-0.0626694429882981
 20
0.1355772096292179
 30
0.0
 10
-0.0711693645791549
 20
0.145235850963081
 30
0.0
 10
-0.0811076214351218
 20
0.1553127584711797
 30
0.0
 10
-0.0886167422887435
 20
0.1617031181870001
 30
0.0
 10
-0.0925403645833335
 20
0.1650421718978415
 30
0.0
  0
SPLINE
  5
99
330
1F
100
AcDbEntity
  8
0
  6
Continuous
 62
     7
370
    15
100
AcDbSpline
210
0.0
220
0.0
230
1.0
 70
     8
 71
     3
 72
    35
 73
    31
 74
     0
 42
0.000000001
 43
0.00000001
 40
0.0
 40
0.0
 40
0.0
 40
0.0
 40
0.0434205175666723
 40
0.0850545860765537
 40
0.1249979754782148
 40
0.1633707614999828
 40
0.2010920296734311
 40
0.2383114774425701
 40
0.2753155003459749
 40
0.3127706036603557
 40
0.3493619474382924
 40
0.3846977164297413
 40
0.4186922289704454
 40
0.4515740973412766
 40
0.4836543010432049
 40
0.51584430451993
 40
0.5478841075584575
 40
0.5802125633019839
 40
0.6414851983133351
 40
0.6944167560219798
 40
0.738751361395044
 40
0.7748598205513398
 40
0.7919768717953568
 40
0.8121083849226695
 40
0.8354207658906402
 40
0.8616215304699121
 40
0.8914388796361499
 40
0.9241409601205722
 40
0.9605426182247612
 40
1.0
 40
1.0
 40
1.0
 40
1.0
 10
-0.0712714843750001
 20
-0.291616682268825
 30
0.0
 10
-0.0684051717897834
 20
-0.2917531436812733
 30
0.0
 10
-0.0627904752323946
 20
-0.2920204520783549
 30
0.0
 10
-0.0545866120873628
 20
-0.293111522595745
 30
0.0
 10
-0.0468809048774468
 20
-0.2950011040529468
 30
0.0
 10
-0.0395597142052787
 20
-0.2973204814509827
 30
0.0
 10
-0.0327436572857612
 20
-0.3004544853126793
 30
0.0
 10
-0.0262982320821744
 20
-0.3041065034751294
 30
0.0
 10
-0.0203354824541804
 20
-0.3084815966967707
 30
0.0
 10
-0.014888676210435
 20
-0.3134164287725921
 30
0.0
 10
-0.010005060238196
 20
-0.3187531002299315
 30
0.0
 10
-0.0056365182410746
 20
-0.3242334768335151
 30
0.0
 10
-0.0020242582487708
 20
-0.3299542701128438
 30
0.0
 10
0.0009653885056495
 20
-0.3357792248570164
 30
0.0
 10
0.0033113402844319
 20
-0.3417672132055058
 30
0.0
 10
0.004978538993822
 20
-0.347923285573903
 30
0.0
 10
0.0059134504959283
 20
-0.3542484063000525
 30
0.0
 10
0.0063053775356543
 20
-0.3625489515762117
 30
0.0
 10
0.0060586674270026
 20
-0.3722314106333732
 30
0.0
 10
0.0057837607100798
 20
-0.3827047019405468
 30
0.0
 10
0.0051758003350751
 20
-0.3914959184446687
 30
0.0
 10
0.0045584009237077
 20
-0.3979203583664332
 30
0.0
 10
0.0035773225201369
 20
-0.4026761800017504
 30
0.0
 10
0.0022827121379642
 20
-0.4064710579205876
 30
0.0
 10
0.0004940819499853
 20
-0.4107128259273398
 30
0.0
 10
-0.0017966903415148
 20
-0.4154294038367496
 30
0.0
 10
-0.0045456937436564
 20
-0.4206096725350333
 30
0.0
 10
-0.0079327990940158
 20
-0.42620207786904
 30
0.0
 10
-0.01174951700026
 20
-0.4322759442891044
 30
0.0
 10
-0.0145430587212674
 20
-0.4364381022287178
 30
0.0
 10
-0.0159960937500001
 20
-0.438603010393825
 30
0.0
  0
SPLINE
  5
9D
330
1F
100
AcDbEntity
  8
0
  6
Continuous
 62
     7
370
    15
100
AcDbSpline
210
0.0
220
0.0
230
1.0
 70
     8
 71
     3
 72
    27
 73
    23
 74
     0
 42
0.000000001
 43
0.00000001
 40
0.0
 40
0.0
 40
0.0
 40
0.0
 40
0.0763410454869034
 40
0.145585495240445
 40
0.2085379340629617
 40
0.265633216027014
 40
0.3165164606306216
 40
0.3626298172808686
 40
0.4044623776992006
 40
0.4429857835788698
 40
0.5143824931921286
 40
0.5799566452463347
 40
0.6415316534716106
 40
0.7024942499943794
 40
0.7335798731440487
 40
0.7658239079957122
 40
0.7992962369062677
 40
0.8346737044366853
 40
0.8723725276625315
 40
0.9122499237538523
 40
0.9545894429329155
 40
1.0
 40
1.0
 40
1.0
 40
1.0
 10
-0.0634511718750001
 20
-0.438603010393825
 30
0.0
 10
-0.0612458682778316
 20
-0.4361623194136824
 30
0.0
 10
-0.0570402641457218
 20
-0.4315078219175238
 30
0.0
 10
-0.0515317649339294
 20
-0.4244055593803389
 30
0.0
 10
-0.0468391241066233
 20
-0.4177291833466394
 30
0.0
 10
-0.0431684489183208
 20
-0.4113380630289376
 30
0.0
 10
-0.0403450922041824
 20
-0.4053131244610421
 30
0.0
 10
-0.0385672477649959
 20
-0.3995928371996015
 30
0.0
 10
-0.0375501183132263
 20
-0.3942066307184368
 30
0.0
 10
-0.0378308090972665
 20
-0.3876407094190474
 30
0.0
 10
-0.039291699694142
 20
-0.3801946659099649
 30
0.0
 10
-0.0422000777157924
 20
-0.3721028860074785
 30
0.0
 10
-0.0465080944871617
 20
-0.3651661924608041
 30
0.0
 10
-0.0511286064324462
 20
-0.3603631648888347
 30
0.0
 10
-0.0553824141535031
 20
-0.357094834442737
 30
0.0
 10
-0.0590196485317186
 20
-0.3550275396975774
 30
0.0
 10
-0.0630374220391702
 20
-0.353337152411489
 30
0.0
 10
-0.0673735210496588
 20
-0.3518174038994272
 30
0.0
 10
-0.0721221801481707
 20
-0.3507165347419246
 30
0.0
 10
-0.0772360241863068
 20
-0.3499697516195158
 30
0.0
 10
-0.0827163005066135
 20
-0.3494848279112516
 30
0.0
 10
-0.0864963190092706
 20
-0.3494159818804893
 30
0.0
 10
-0.0884524739583335
 20
-0.349380354143825
 30
0.0
  0
SPLINE
  5
9F
330
1F
100
AcDbEntity
  8
0
  6
Continuous
 62
     7
370
    15
100
AcDbSpline
210
0.0
220
0.0
230
1.0
 70
     8
 71
     3
 72
    39
 73
    35
 74
     0
 42
0.000000001
 43
0.00000001
 40
0.0
 40
0.0
 40
0.0
 40
0.0
 40
0.0174859897755351
 40
0.0356676236497963
 40
0.0550681011621022
 40
0.0763722844270396
 40
0.1000782346837589
 40
0.1262704460663792
 40
0.1551400359925849
 40
0.1866497265487808
 40
0.2198673043783208
 40
0.2542226011680519
 40
0.2899899783650722
 40
0.3268049810458339
 40
0.3657120410728797
 40
0.4061556009146577
 40
0.4488355781951088
 40
0.4938809429992259
 40
0.5389322393406034
 40
0.581572845590822
 40
0.6221859413591307
 40
0.6605247104552299
 40
0.6973272686276876
 40
0.732208535201852
 40
0.7654226653767444
 40
0.7970713655044916
 40
0.8270246775780749
 40
0.8545513818812145
 40
0.8803530154033802
 40
0.9046929731811506
 40
0.9283408837554907
 40
0.9516898940387095
 40
0.9753700664432957
 40
1.0
 40
1.0
 40
1.0
 40
1.0
 10
-0.0462701822916668
 20
-0.5630763176854918
 30
0.0
 10
-0.0463359502645146
 20
-0.561823649172179
 30
0.0
 10
-0.0464701026535907
 20
-0.5592684773080565
 30
0.0
 10
-0.0476932472661099
 20
-0.5554878311099941
 30
0.0
 10
-0.0495710983748432
 20
-0.5517125987709137
 30
0.0
 10
-0.0521649760071321
 20
-0.5478925246638962
 30
0.0
 10
-0.0555066046062718
 20
-0.5440397647575994
 30
0.0
 10
-0.059645331373652
 20
-0.5402125030101889
 30
0.0
 10
-0.0644467548339534
 20
-0.5363046185888747
 30
0.0
 10
-0.0699057475743451
 20
-0.5324295658616187
 30
0.0
 10
-0.075965507088217
 20
-0.5287470997953657
 30
0.0
 10
-0.0826394109522092
 20
-0.5255562695904401
 30
0.0
 10
-0.0897935718099648
 20
-0.5228451194769275
 30
0.0
 10
-0.0974570267575925
 20
-0.520625269781553
 30
0.0
 10
-0.1056104419010214
 20
-0.5190172144917325
 30
0.0
 10
-0.1142546716063374
 20
-0.5178281901998922
 30
0.0
 10
-0.1233937537810124
 20
-0.5171121875635648
 30
0.0
 10
-0.1328874592746212
 20
-0.5169807709608244
 30
0.0
 10
-0.1423726476316517
 20
-0.5172168044730849
 30
0.0
 10
-0.1515303429344977
 20
-0.5177720405673324
 30
0.0
 10
-0.1601622312589275
 20
-0.5188089227894876
 30
0.0
 10
-0.1683393370721217
 20
-0.5200807371268266
 30
0.0
 10
-0.1760276456334448
 20
-0.5217703169826661
 30
0.0
 10
-0.1832071799801633
 20
-0.5239439603892573
 30
0.0
 10
-0.1899340525172283
 20
-0.526320597541662
 30
0.0
 10
-0.1960967738549562
 20
-0.5291659468839106
 30
0.0
 10
-0.2016296628839851
 20
-0.5323337522488464
 30
0.0
 10
-0.2065232806388238
 20
-0.5357526315819758
 30
0.0
 10
-0.2105551777697932
 20
-0.5395902157159835
 30
0.0
 10
-0.2139685207166633
 20
-0.5436331538089815
 30
0.0
 10
-0.2165355077235724
 20
-0.5480701126965152
 30
0.0
 10
-0.2183360598795226
 20
-0.5528101004388916
 30
0.0
 10
-0.2193638580316659
 20
-0.5578575119061111
 30
0.0
 10
-0.2194553220428701
 20
-0.5613140641901425
 30
0.0
 10
-0.2195019531250001
 20
-0.5630763176854918
 30
0.0
  0
SPLINE
  5
A1
330
1F
100
AcDbEntity
  8
0
  6
Continuous
 62
     7
370
    15
100
AcDbSpline
210
0.0
220
0.0
230
1.0
 70
     8
 71
     3
 72
    39
 73
    35
 74
     0
 42
0.000000001
 43
0.00000001
 40
0.0
 40
0.0
 40
0.0
 40
0.0
 40
0.0287608397327698
 40
0.0564184364079673
 40
0.0832376040353904
 40
0.1095600345054351
 40
0.1355240519602035
 40
0.1615449212232052
 40
0.1881179342850171
 40
0.2153118307095764
 40
0.2435938129560995
 40
0.2730849345299252
 40
0.3042464404720268
 40
0.3376129765072405
 40
0.3734487630093762
 40
0.4119425278731969
 40
0.4533286222860867
 40
0.4977702567169655
 40
0.5424096959099465
 40
0.5843818657818983
 40
0.6237170876833639
 40
0.6607339358555423
 40
0.6956549194319045
 40
0.7288060332305206
 40
0.7605258446389392
 40
0.7909908816297483
 40
0.8202208206681246
 40
0.8480720269171044
 40
0.8746180640054003
 40
0.9001775129648936
 40
0.9251700452357963
 40
0.9499226810910135
 40
0.9748173737772653
 40
1.0
 40
1.0
 40
1.0
 40
1.0
 10
-0.2784505208333334
 20
-0.5630763176854918
 30
0.0
 10
-0.2783485825266022
 20
-0.5592790692339169
 30
0.0
 10
-0.2781486161859359
 20
-0.5518302317771183
 30
0.0
 10
-0.2765626553714088
 20
-0.540935569233946
 30
0.0
 10
-0.2740464995784104
 20
-0.5305539247161161
 30
0.0
 10
-0.2704047998204288
 20
-0.520745387402073
 30
0.0
 10
-0.2657786847909903
 20
-0.5114766099671405
 30
0.0
 10
-0.2600010448201641
 20
-0.5028400272992335
 30
0.0
 10
-0.2532978049454762
 20
-0.4946964866892108
 30
0.0
 10
-0.2455441466763787
 20
-0.4871075094084684
 30
0.0
 10
-0.236644327554787
 20
-0.4802259114617919
 30
0.0
 10
-0.2263828578099143
 20
-0.474464945127301
 30
0.0
 10
-0.2149921443100789
 20
-0.469483902815401
 30
0.0
 10
-0.2022844795391334
 20
-0.4656626297655936
 30
0.0
 10
-0.1883861322489833
 20
-0.4626213077282896
 30
0.0
 10
-0.1732218679301399
 20
-0.4606729855959074
 30
0.0
 10
-0.1568382693275898
 20
-0.4596344408150977
 30
0.0
 10
-0.1396103550714196
 20
-0.4595427208925295
 30
0.0
 10
-0.1223257341017285
 20
-0.4603448852000609
 30
0.0
 10
-0.105775243601122
 20
-0.4620046612180818
 30
0.0
 10
-0.0903738935019692
 20
-0.4646686042757249
 30
0.0
 10
-0.0761055836190791
 20
-0.4682000449154098
 30
0.0
 10
-0.062937790926017
 20
-0.4726156179438286
 30
0.0
 10
-0.0508986099311236
 20
-0.4780105140843194
 30
0.0
 10
-0.0399940652868493
 20
-0.4843413722059629
 30
0.0
 10
-0.0303272605174861
 20
-0.4916068893379304
 30
0.0
 10
-0.0218391694252121
 20
-0.4994603758965425
 30
0.0
 10
-0.0142707012006006
 20
-0.5075228694491861
 30
0.0
 10
-0.0080698382738942
 20
-0.5160850498764055
 30
0.0
 10
-0.0027930599102882
 20
-0.5248098953998802
 30
0.0
 10
0.0011490363378329
 20
-0.5339603404138855
 30
0.0
 10
0.0041383355692173
 20
-0.5433681153010721
 30
0.0
 10
0.0057861641304811
 20
-0.5531444834865565
 30
0.0
 10
0.0060358816588161
 20
-0.5597530403711088
 30
0.0
 10
0.0061614583333332
 20
-0.5630763176854918
 30
0.0
  0
SPLINE
  5
A6
330
1F
100
AcDbEntity
  8
0
  6
Continuous
 62
     7
370
    15
100
AcDbSpline
210
0.0
220
0.0
230
1.0
 70
     8
 71
     3
 72
    39
 73
    35
 74
     0
 42
0.000000001
 43
0.00000001
 40
0.0
 40
0.0
 40
0.0
 40
0.0
 40
0.0506268704193389
 40
0.0966963469363327
 40
0.1389386444999436
 40
0.1771801373560423
 40
0.2116893411330315
 40
0.242672853245397
 40
0.2706421464251485
 40
0.2957983032785435
 40
0.3196818728866633
 40
0.3431958485201933
 40
0.3671526527029774
 40
0.3917209110912225
 40
0.4168335074671678
 40
0.4433210475119611
 40
0.4713118623083403
 40
0.5011211359619433
 40
0.5305868499099338
 40
0.558177789444804
 40
0.5836904825109458
 40
0.6076061198398977
 40
0.6302229528685421
 40
0.6513842375011926
 40
0.6713913064259329
 40
0.6910672923379662
 40
0.7121118420551314
 40
0.7375643838582422
 40
0.7677024059197273
 40
0.8030191259794514
 40
0.8439810753420361
 40
0.8902781387813937
 40
0.9423790015343391
 40
0.9999999999999999
 40
0.9999999999999999
 40
0.9999999999999999
 40
0.9999999999999999
 10
-0.1351373697916668
 20
-1.075543765602158
 30
0.0
 10
-0.1351215056784719
 20
-1.072521397210438
 30
0.0
 10
-0.1350912055279664
 20
-1.066748731822383
 30
0.0
 10
-0.1356076752446018
 20
-1.058468149018299
 30
0.0
 10
-0.1363343982612105
 20
-1.050948009888434
 30
0.0
 10
-0.1374272114890358
 20
-1.044166299628145
 30
0.0
 10
-0.138948302646778
 20
-1.038152320747123
 30
0.0
 10
-0.1408675591743719
 20
-1.032911962800988
 30
0.0
 10
-0.1429725697236639
 20
-1.028330673709932
 30
0.0
 10
-0.1456931735691563
 20
-1.024601427589483
 30
0.0
 10
-0.1486122755270313
 20
-1.021388414580728
 30
0.0
 10
-0.1519413209155806
 20
-1.018710084905013
 30
0.0
 10
-0.1555635041003098
 20
-1.016380549197789
 30
0.0
 10
-0.1595404045359593
 20
-1.014474899771265
 30
0.0
 10
-0.1638747654739832
 20
-1.013079829007246
 30
0.0
 10
-0.1685036847633056
 20
-1.011973655810676
 30
0.0
 10
-0.1735149706166549
 20
-1.011443904533573
 30
0.0
 10
-0.1787203848561436
 20
-1.011183929880173
 30
0.0
 10
-0.1839057606262652
 20
-1.011390216945889
 30
0.0
 10
-0.1888164758737697
 20
-1.011837161507912
 30
0.0
 10
-0.1933517800942264
 20
-1.012611069339511
 30
0.0
 10
-0.197530836625115
 20
-1.013651903322439
 30
0.0
 10
-0.2013209312193849
 20
-1.015074758818932
 30
0.0
 10
-0.2047318106270499
 20
-1.016786507938919
 30
0.0
 10
-0.2077419262156949
 20
-1.01883293017649
 30
0.0
 10
-0.210468930936386
 20
-1.021246757758646
 30
0.0
 10
-0.2128247370688408
 20
-1.024455962749973
 30
0.0
 10
-0.2147685475347323
 20
-1.028613727645555
 30
0.0
 10
-0.2165667892388729
 20
-1.033743877410515
 30
0.0
 10
-0.2178867793614884
 20
-1.039966553640213
 30
0.0
 10
-0.2191605633506166
 20
-1.047171387000236
 30
0.0
 10
-0.2200497884781882
 20
-1.055446043600808
 30
0.0
 10
-0.2207814195880517
 20
-1.064730451879446
 30
0.0
 10
-0.2209913280133123
 20
-1.071276596879807
 30
0.0
 10
-0.2211015625000001
 20
-1.074714338518825
 30
0.0
  0
SPLINE
  5
A8
330
1F
100
AcDbEntity
  8
0
  6
Continuous
 62
     7
370
    15
100
AcDbSpline
210
0.0
220
0.0
230
1.0
 70
     8
 71
     3
 72
    51
 73
    47
 74
     0
 42
0.000000001
 43
0.00000001
 40
0.0
 40
0.0
 40
0.0
 40
0.0
 40
0.0386179491855094
 40
0.0744050581617727
 40
0.1072146761158726
 40
0.1372659546113704
 40
0.1644129179773709
 40
0.1888739396591171
 40
0.2107662745286003
 40
0.2299941073046906
 40
0.2476254104868641
 40
0.2646016962474385
 40
0.2808869921688085
 40
0.2965286133401475
 40
0.3118429251875837
 40
0.3268542710884872
 40
0.3416843405342272
 40
0.3563747932473024
 40
0.3870370398849391
 40
0.4200692281527787
 40
0.4559342312405912
 40
0.4950514569236015
 40
0.5151952697008794
 40
0.5350766414474383
 40
0.5544623585023081
 40
0.5735849592727135
 40
0.5926310723330023
 40
0.6115437225955046
 40
0.6303835908023544
 40
0.6495637302526245
 40
0.6685677191566279
 40
0.687145213870539
 40
0.7053680486340776
 40
0.7234323420769609
 40
0.7413246968497413
 40
0.7592242487084663
 40
0.7770139297468673
 40
0.7951067207781919
 40
0.8139678460964859
 40
0.8346722113940439
 40
0.8570782098213401
 40
0.881564375813236
 40
0.90790709491158
 40
0.9364745112159872
 40
0.9671633498914006
 40
1.0
 40
1.0
 40
1.0
 40
1.0
 10
-0.2727037760416668
 20
-1.074714338518825
 30
0.0
 10
-0.2725083686705947
 20
-1.070210533071211
 30
0.0
 10
-0.272131878020094
 20
-1.061533067971516
 30
0.0
 10
-0.2712391634378057
 20
-1.049048469325233
 30
0.0
 10
-0.2701485203065874
 20
-1.037583180118214
 30
0.0
 10
-0.2687315313070696
 20
-1.027169578652508
 30
0.0
 10
-0.2670843268474289
 20
-1.017778709178264
 30
0.0
 10
-0.2652253675731517
 20
-1.009398418248634
 30
0.0
 10
-0.2630626923084095
 20
-1.00204709213915
 30
0.0
 10
-0.2605925203930802
 20
-0.9956407178984085
 30
0.0
 10
-0.2578712617170459
 20
-0.9899712572918121
 30
0.0
 10
-0.2549357718631183
 20
-0.9847973166162547
 30
0.0
 10
-0.2516405649894241
 20
-0.9801286092273407
 30
0.0
 10
-0.2482082112396964
 20
-0.9758076481605465
 30
0.0
 10
-0.2444773291184335
 20
-0.9719351369343314
 30
0.0
 10
-0.2404154272751161
 20
-0.9685645663550364
 30
0.0
 10
-0.2361560544979018
 20
-0.965570110127279
 30
0.0
 10
-0.229977985056978
 20
-0.9622014397320426
 30
0.0
 10
-0.2214424503349978
 20
-0.9588179499132686
 30
0.0
 10
-0.2101576601399089
 20
-0.9559200363052353
 30
0.0
 10
-0.197633167163954
 20
-0.9542919391124165
 30
0.0
 10
-0.1865245031445667
 20
-0.9537769255580889
 30
0.0
 10
-0.1772876778474912
 20
-0.9540840832918817
 30
0.0
 10
-0.1703734868707524
 20
-0.9547019398482101
 30
0.0
 10
-0.163653395031525
 20
-0.9558647894936211
 30
0.0
 10
-0.157094316240745
 20
-0.9573560196801286
 30
0.0
 10
-0.1507773543140266
 20
-0.9594957125688607
 30
0.0
 10
-0.1445832710709981
 20
-0.9618729341917635
 30
0.0
 10
-0.1386221579501096
 20
-0.9648297431038914
 30
0.0
 10
-0.132860818030184
 20
-0.9681725930455192
 30
0.0
 10
-0.1273796017260435
 20
-0.9719038060332256
 30
0.0
 10
-0.1222108264121071
 20
-0.9758742190056865
 30
0.0
 10
-0.1173866639461175
 20
-0.9800926200627178
 30
0.0
 10
-0.1129214524113721
 20
-0.9845830271976217
 30
0.0
 10
-0.1089133360374814
 20
-0.9894322406529503
 30
0.0
 10
-0.1051491051445922
 20
-0.9944333928905936
 30
0.0
 10
-0.1018342681765854
 20
-0.9997722233748313
 30
0.0
 10
-0.0987586666825381
 20
-1.005377464425158
 30
0.0
 10
-0.0960252149562816
 20
-1.011540806671606
 30
0.0
 10
-0.0937830260916371
 20
-1.018426301849255
 30
0.0
 10
-0.0917343352562753
 20
-1.026051085340371
 30
0.0
 10
-0.090139242505744
 20
-1.034455105144789
 30
0.0
 10
-0.0887474254486702
 20
-1.043620614485345
 30
0.0
 10
-0.0877939077831356
 20
-1.053570220438317
 30
0.0
 10
-0.0870521538631998
 20
-1.064296929892365
 30
0.0
 10
-0.0868817186336564
 20
-1.071711260291717
 30
0.0
 10
-0.0867936197916668
 20
-1.075543765602158
 30
0.0
  0
CIRCLE
  5
AA
330
1F
100
AcDbEntity
  8
0
  6
Continuous
 62
     7
370
    15
100
AcDbCircle
 10
-0.25
 20
-1.42
 30
0.0
 40
0.1000000000000008
  0
CIRCLE
  5
AB
330
1F
100
AcDbEntity
  8
0
  6
Continuous
 62
     7
370
    15
100
AcDbCircle
 10
-0.25
 20
1.42
 30
0.0
 40
0.1000000000000001
  0
CIRCLE
  5
AC
330
1F
100
AcDbEntity
  8
0
  6
Continuous
 62
     7
370
    15
100
AcDbCircle
 10
0.25
 20
-1.42
 30
0.0
 40
0.0999999999999999
  0
CIRCLE
  5
AD
330
1F
100
AcDbEntity
  8
0
  6
Continuous
 62
     7
370
    15
100
AcDbCircle
 10
0.25
 20
1.42
 30
0.0
 40
0.1000000000000005
  0
SPLINE
  5
BC
330
1F
100
AcDbEntity
  8
0
  6
Continuous
 62
     7
370
    15
100
AcDbSpline
210
0.0
220
0.0
230
1.0
 70
     8
 71
     3
 72
    39
 73
    35
 74
     0
 42
0.000000001
 43
0.00000001
 40
0.0
 40
0.0
 40
0.0
 40
0.0
 40
0.0483028092228539
 40
0.0925165561089137
 40
0.1326488261382945
 40
0.1685630451229869
 40
0.200455649528291
 40
0.2284357935318497
 40
0.2523638000712918
 40
0.272578597490005
 40
0.3083360288318381
 40
0.342170346205258
 40
0.375027900883579
 40
0.4080911677484292
 40
0.4417546210242759
 40
0.4759515834904156
 40
0.5111949378165129
 40
0.5480433256761824
 40
0.5856924151957514
 40
0.6226089544336405
 40
0.6593051218624654
 40
0.6960932713065723
 40
0.7142294588971899
 40
0.731978335543523
 40
0.7493081158326362
 40
0.7665462390831911
 40
0.7836959107185432
 40
0.8009340339690977
 40
0.8187197648817152
 40
0.8368466327453091
 40
0.8744440712379361
 40
0.9135808189640322
 40
0.9553512621449429
 40
1.0
 40
1.0
 40
1.0
 40
1.0
 10
-0.2719335937500001
 20
-0.840460432268825
 30
0.0
 10
-0.2719220921095747
 20
-0.8358189873821085
 30
0.0
 10
-0.271900062497242
 20
-0.82692901797459
 30
0.0
 10
-0.271426725238342
 20
-0.8141922286845754
 30
0.0
 10
-0.2709365194059264
 20
-0.8026446980269828
 30
0.0
 10
-0.2699288754763223
 20
-0.7923203464518712
 30
0.0
 10
-0.2688770300763644
 20
-0.783174799506578
 30
0.0
 10
-0.2674650415738504
 20
-0.7752427530956613
 30
0.0
 10
-0.2658468584908746
 20
-0.7684985160350852
 30
0.0
 10
-0.263377165760996
 20
-0.7612148695408617
 30
0.0
 10
-0.2593739787864165
 20
-0.7535238565663889
 30
0.0
 10
-0.2536318882970228
 20
-0.7454745545227863
 30
0.0
 10
-0.2466087522178582
 20
-0.7388672917928878
 30
0.0
 10
-0.2385949519289096
 20
-0.7335584566257417
 30
0.0
 10
-0.2297112195560272
 20
-0.7295911098579391
 30
0.0
 10
-0.2202273302474708
 20
-0.7266437157403873
 30
0.0
 10
-0.2101257829645068
 20
-0.7249593041861909
 30
0.0
 10
-0.1995779478752393
 20
-0.7244006134253859
 30
0.0
 10
-0.1888695371202042
 20
-0.7248905010881547
 30
0.0
 10
-0.1782578272111502
 20
-0.7263036447347226
 30
0.0
 10
-0.1679117143311842
 20
-0.7287017729579888
 30
0.0
 10
-0.1595188239861961
 20
-0.7314092636904247
 30
0.0
 10
-0.1530891620421183
 20
-0.734148188545226
 30
0.0
 10
-0.1485763933787731
 20
-0.7365702348865553
 30
0.0
 10
-0.1444024293121732
 20
-0.7393839436535197
 30
0.0
 10
-0.1405363240436314
 20
-0.7425177710964274
 30
0.0
 10
-0.1370246516916375
 20
-0.7460338147526104
 30
0.0
 10
-0.1338525972220245
 20
-0.7499268638887756
 30
0.0
 10
-0.1310382479171317
 20
-0.754195958455504
 30
0.0
 10
-0.1275832737774933
 20
-0.760362850913754
 30
0.0
 10
-0.124135200288353
 20
-0.768842726869573
 30
0.0
 10
-0.121261677218735
 20
-0.7798807441895346
 30
0.0
 10
-0.1194476248413693
 20
-0.7918398090600923
 30
0.0
 10
-0.1192456348150864
 20
-0.8001474371316315
 30
0.0
 10
-0.1191412760416668
 20
-0.8044395989354917
 30
0.0
  0
SPLINE
  5
BE
330
1F
100
AcDbEntity
  8
0
  6
Continuous
 62
     7
370
    15
100
AcDbSpline
210
0.0
220
0.0
230
1.0
 70
     8
 71
     3
 72
    39
 73
    35
 74
     0
 42
0.000000001
 43
0.00000001
 40
0.0
 40
0.0
 40
0.0
 40
0.0
 40
0.0532506447694282
 40
0.1020519210406488
 40
0.1464932082286183
 40
0.1862674600202153
 40
0.2216543763659826
 40
0.2528421695297711
 40
0.2803704984825308
 40
0.3050205533703975
 40
0.3278491106076911
 40
0.3504268139801825
 40
0.3732060387832937
 40
0.396684454656183
 40
0.4212316099788875
 40
0.4466124448389294
 40
0.4738222195056198
 40
0.5027187601443145
 40
0.5312405935679887
 40
0.5576611307786188
 40
0.582150932856317
 40
0.6049239835910665
 40
0.626060546419875
 40
0.6463415150222652
 40
0.6657436688308649
 40
0.6851892603516143
 40
0.7066788108680435
 40
0.7327942075392608
 40
0.7636488197063419
 40
0.8000542724970728
 40
0.841852366547977
 40
0.8890630612153357
 40
0.9417548968794416
 40
1.0
 40
1.0
 40
1.0
 40
1.0
 10
-0.1514889322916668
 20
-0.8400457187271585
 30
0.0
 10
-0.1514863729093656
 20
-0.8372411812034666
 30
0.0
 10
-0.1514814679944742
 20
-0.8318664398615996
 30
0.0
 10
-0.1518272558262126
 20
-0.8241556137832566
 30
0.0
 10
-0.1524854646762913
 20
-0.8171802456236367
 30
0.0
 10
-0.1533158665281062
 20
-0.8109325092876664
 30
0.0
 10
-0.1545478088612346
 20
-0.805459062956053
 30
0.0
 10
-0.1560966652868041
 20
-0.800746346648682
 30
0.0
 10
-0.1578292180884923
 20
-0.7967002080334245
 30
0.0
 10
-0.1599913873448454
 20
-0.79336332272066
 30
0.0
 10
-0.1625296666936411
 20
-0.790676581227522
 30
0.0
 10
-0.1651721666950736
 20
-0.7882270214282749
 30
0.0
 10
-0.1682647151722432
 20
-0.7863099735390546
 30
0.0
 10
-0.171584012940738
 20
-0.7845936608310558
 30
0.0
 10
-0.1752747311926864
 20
-0.7833995690575097
 30
0.0
 10
-0.1792379229957804
 20
-0.782488725724938
 30
0.0
 10
-0.1835063669471809
 20
-0.7819785558762905
 30
0.0
 10
-0.187964122129395
 20
-0.7818075501929688
 30
0.0
 10
-0.1923795220418151
 20
-0.7819871584204179
 30
0.0
 10
-0.196542135806522
 20
-0.782443844452298
 30
0.0
 10
-0.2003505441948875
 20
-0.7832118457302074
 30
0.0
 10
-0.2038095941637691
 20
-0.7842453191502479
 30
0.0
 10
-0.2068871789135434
 20
-0.7856802557694613
 30
0.0
 10
-0.2095472329516088
 20
-0.7874802438128481
 30
0.0
 10
-0.21192316368221
 20
-0.7895073204126977
 30
0.0
 10
-0.2139613388396053
 20
-0.7919701301108275
 30
0.0
 10
-0.2156612611673216
 20
-0.7950861983983553
 30
0.0
 10
-0.2170788085363576
 20
-0.798974865354563
 30
0.0
 10
-0.2184635471184894
 20
-0.8036973531505492
 30
0.0
 10
-0.2195864084277279
 20
-0.809334887407153
 30
0.0
 10
-0.2206635651497841
 20
-0.8158517090046234
 30
0.0
 10
-0.2215288945335013
 20
-0.8232665163548886
 30
0.0
 10
-0.222222521880285
 20
-0.8315668709680478
 30
0.0
 10
-0.2225752330801111
 20
-0.8373986037837252
 30
0.0
 10
-0.2227604166666668
 20
-0.840460432268825
 30
0.0
  0
SPLINE
  5
C2
330
1F
100
AcDbEntity
  8
0
  6
Continuous
 62
     7
370
    15
100
AcDbSpline
210
0.0
220
0.0
230
1.0
 70
     8
 71
     3
 72
    39
 73
    35
 74
     0
 42
0.000000001
 43
0.00000001
 40
0.0
 40
0.0
 40
0.0
 40
0.0
 40
0.0266808835968862
 40
0.0528104322817609
 40
0.0786126397965332
 40
0.1046726663438673
 40
0.1311089903936297
 40
0.1585566020017079
 40
0.1870389737322478
 40
0.2171530690338169
 40
0.2482593333793876
 40
0.2802984355004432
 40
0.3134702565734224
 40
0.3481130973049452
 40
0.3844476165368641
 40
0.4229524355223396
 40
0.4635190425310401
 40
0.5064871756484094
 40
0.549305710456043
 40
0.5894251305647433
 40
0.6269960963710406
 40
0.6623875930067746
 40
0.6955631273874043
 40
0.727109450729509
 40
0.7570362846697636
 40
0.7860712117368829
 40
0.8141193538063938
 40
0.84119562387977
 40
0.8676793491633826
 40
0.8935876722099315
 40
0.919461393140143
 40
0.9456346202829758
 40
0.9724302608980442
 40
1.0
 40
1.0
 40
1.0
 40
1.0
 10
0.0061614583333332
 20
-0.5917507968521585
 30
0.0
 10
0.0060504989059831
 20
-0.5952737362067541
 30
0.0
 10
0.005830872921603
 20
-0.6022468167474722
 30
0.0
 10
0.0039901519229808
 20
-0.6124912525231465
 30
0.0
 10
0.0010319768672398
 20
-0.6223733787362529
 30
0.0
 10
-0.0032329238952008
 20
-0.6318134539043379
 30
0.0
 10
-0.008604165571705
 20
-0.6409186076228743
 30
0.0
 10
-0.015235298545806
 20
-0.6495602461849609
 30
0.0
 10
-0.0230131561963256
 20
-0.6578534739560548
 30
0.0
 10
-0.0319078014575703
 20
-0.6656930421026789
 30
0.0
 10
-0.0419327855910384
 20
-0.6728675185783612
 30
0.0
 10
-0.0529955003149612
 20
-0.6791721002704078
 30
0.0
 10
-0.0650952337351536
 20
-0.6844517236079751
 30
0.0
 10
-0.0781939877990232
 20
-0.6886665638739017
 30
0.0
 10
-0.0922494267514521
 20
-0.6920624907995849
 30
0.0
 10
-0.1073032377358105
 20
-0.6944650862413407
 30
0.0
 10
-0.1233593269552451
 20
-0.6958480531597393
 30
0.0
 10
-0.1400346517849988
 20
-0.6962878321524948
 30
0.0
 10
-0.156652671745579
 20
-0.6958588559086255
 30
0.0
 10
-0.1725026036281392
 20
-0.6944479438800327
 30
0.0
 10
-0.187262536350967
 20
-0.6921752379532458
 30
0.0
 10
-0.2009117959028375
 20
-0.6889575062692975
 30
0.0
 10
-0.2134536379766082
 20
-0.6847438677981341
 30
0.0
 10
-0.2248641414703474
 20
-0.6796114393281492
 30
0.0
 10
-0.2351777690942094
 20
-0.6735349367808281
 30
0.0
 10
-0.2443090041719189
 20
-0.666528030540142
 30
0.0
 10
-0.2523074617280674
 20
-0.6587943412182401
 30
0.0
 10
-0.2592885921435424
 20
-0.6505739477539779
 30
0.0
 10
-0.2652546095157656
 20
-0.6419239652030615
 30
0.0
 10
-0.2700934243761728
 20
-0.6327738739670152
 30
0.0
 10
-0.2738528598224275
 20
-0.6231736860035825
 30
0.0
 10
-0.2765105313064679
 20
-0.6130962368071474
 30
0.0
 10
-0.2781552338026586
 20
-0.602567696847925
 30
0.0
 10
-0.2783511618952707
 20
-0.5953904951289631
 30
0.0
 10
-0.2784505208333334
 20
-0.5917507968521585
 30
0.0
  0
SPLINE
  5
C4
330
1F
100
AcDbEntity
  8
0
  6
Continuous
 62
     7
370
    15
100
AcDbSpline
210
0.0
220
0.0
230
1.0
 70
     8
 71
     3
 72
    39
 73
    35
 74
     0
 42
0.000000001
 43
0.00000001
 40
0.0
 40
0.0
 40
0.0
 40
0.0
 40
0.0183340248043831
 40
0.0373062292647842
 40
0.057220353703956
 40
0.078683601823452
 40
0.1018942467971852
 40
0.1270986825432096
 40
0.1546741897749597
 40
0.1844016556339355
 40
0.2159703373650624
 40
0.2493255428288442
 40
0.284310958655437
 40
0.3213825914467017
 40
0.3609339848818304
 40
0.4032842123603618
 40
0.4481787728128903
 40
0.4959808773078753
 40
0.5440591473321612
 40
0.589229066946604
 40
0.632201757019674
 40
0.6725638451936
 40
0.7105856005390762
 40
0.7469590389754157
 40
0.7815496224193378
 40
0.8149608304262023
 40
0.8465077498219646
 40
0.874912042194849
 40
0.9010863170575368
 40
0.9244297311833589
 40
0.9459586515820602
 40
0.9652341113331596
 40
0.9830681093228151
 40
1.0
 40
1.0
 40
1.0
 40
1.0
 10
-0.2203313802083334
 20
-0.5917507968521585
 30
0.0
 10
-0.2202433366115222
 20
-0.5930628585767438
 30
0.0
 10
-0.2200641847535434
 20
-0.595732652908822
 30
0.0
 10
-0.2188331072160005
 20
-0.5996622878401842
 30
0.0
 10
-0.2171281510253083
 20
-0.6036341026471905
 30
0.0
 10
-0.214636302450214
 20
-0.607541960056012
 30
0.0
 10
-0.2115348581594744
 20
-0.6114662287727276
 30
0.0
 10
-0.2077510263397152
 20
-0.6153739793358309
 30
0.0
 10
-0.2033797350979658
 20
-0.6193404944287412
 30
0.0
 10
-0.1983556061111164
 20
-0.623238565583006
 30
0.0
 10
-0.1926837854000772
 20
-0.6269534649382112
 30
0.0
 10
-0.1862573389453245
 20
-0.6301009805794815
 30
0.0
 10
-0.1792352212448247
 20
-0.6328654241544801
 30
0.0
 10
-0.1715361274806758
 20
-0.6349923038665253
 30
0.0
 10
-0.1632242956960275
 20
-0.6368347210678109
 30
0.0
 10
-0.1542152659569685
 20
-0.6379151575138358
 30
0.0
 10
-0.1445929675560857
 20
-0.638735912172767
 30
0.0
 10
-0.1345245731801403
 20
-0.6389128653697453
 30
0.0
 10
-0.1244400181149883
 20
-0.6387225564598498
 30
0.0
 10
-0.1147240799406093
 20
-0.6379606350698641
 30
0.0
 10
-0.1056254717521361
 20
-0.6366584120186228
 30
0.0
 10
-0.0971156627926823
 20
-0.6349242514452562
 30
0.0
 10
-0.0892462415555895
 20
-0.6325760192609756
 30
0.0
 10
-0.0819419897541609
 20
-0.6298393136176186
 30
0.0
 10
-0.0752479321201363
 20
-0.6265069243212013
 30
0.0
 10
-0.0692514943123331
 20
-0.6226524497328426
 30
0.0
 10
-0.0639467077404436
 20
-0.618595159764943
 30
0.0
 10
-0.0592528364791926
 20
-0.614605222675957
 30
0.0
 10
-0.055292010164812
 20
-0.6106771535733873
 30
0.0
 10
-0.0520300099476719
 20
-0.6067757630702635
 30
0.0
 10
-0.0494557257246148
 20
-0.6029632884465345
 30
0.0
 10
-0.0476399744609191
 20
-0.5991735158567569
 30
0.0
 10
-0.0464886172971499
 20
-0.5954517264521851
 30
0.0
 10
-0.0463417234232171
 20
-0.5929629134302152
 30
0.0
 10
-0.0462701822916668
 20
-0.5917507968521585
 30
0.0
  0
LINE
  5
D9
330
1F
100
AcDbEntity
  8
0
  6
Continuous
 62
     7
370
    15
100
AcDbLine
 10
-0.15071875
 20
1.0240324063
 30
0.0
 11
-0.2026764323
 21
1.0240324063
 31
0.0
  0
LINE
  5
DA
330
1F
100
AcDbEntity
  8
0
  6
Continuous
 62
     7
370
    15
100
AcDbLine
 10
-0.214999349
 20
1.1165727709
 30
0.0
 11
-0.15071875
 21
1.0240324063
 31
0.0
  0
LINE
  5
DB
330
1F
100
AcDbEntity
  8
0
  6
Continuous
 62
     7
370
    15
100
AcDbLine
 10
0.0
 20
1.1165727709
 30
0.0
 11
-0.214999349
 21
1.1165727709
 31
0.0
  0
LINE
  5
DC
330
1F
100
AcDbEntity
  8
0
  6
Continuous
 62
     7
370
    15
100
AcDbLine
 10
0.0
 20
1.1767654792
 30
0.0
 11
0.0
 21
1.1165727709
 31
0.0
  0
LINE
  5
DD
330
1F
100
AcDbEntity
  8
0
  6
Continuous
 62
     7
370
    15
100
AcDbLine
 10
-0.2731184896
 20
1.1767654792
 30
0.0
 11
0.0
 21
1.1767654792
 31
0.0
  0
LINE
  5
DE
330
1F
100
AcDbEntity
  8
0
  6
Continuous
 62
     7
370
    15
100
AcDbLine
 10
-0.2731184896
 20
1.1251632656
 30
0.0
 11
-0.2731184896
 21
1.1767654792
 31
0.0
  0
LINE
  5
DF
330
1F
100
AcDbEntity
  8
0
  6
Continuous
 62
     7
370
    15
100
AcDbLine
 10
-0.2026764323
 20
1.0240324063
 30
0.0
 11
-0.2731184896
 21
1.1251632656
 31
0.0
  0
LINE
  5
E0
330
1F
100
AcDbEntity
  8
0
  6
Continuous
 62
     7
370
    15
100
AcDbLine
 10
-0.0462701823
 20
0.8904946459
 30
0.0
 11
0.0057467448
 21
0.8904946459
 31
0.0
  0
LINE
  5
E1
330
1F
100
AcDbEntity
  8
0
  6
Continuous
 62
     7
370
    15
100
AcDbLine
 10
-0.2796946615
 20
0.8904946459
 30
0.0
 11
-0.2342539063
 21
0.8904946459
 31
0.0
  0
LINE
  5
E2
330
1F
100
AcDbEntity
  8
0
  6
Continuous
 62
     7
370
    15
100
AcDbLine
 10
-0.143313151
 20
0.8892505052
 30
0.0
 11
-0.0982871094
 21
0.8892505052
 31
0.0
  0
LINE
  5
E3
330
1F
100
AcDbEntity
  8
0
  6
Continuous
 62
     7
370
    15
100
AcDbLine
 10
-0.0982871094
 20
0.8622348802
 30
0.0
 11
-0.1437278646
 21
0.8622348802
 31
0.0
  0
LINE
  5
E4
330
1F
100
AcDbEntity
  8
0
  6
Continuous
 62
     7
370
    15
100
AcDbLine
 10
-0.2342539063
 20
0.8618201667
 30
0.0
 11
-0.2792799479
 21
0.8618201667
 31
0.0
  0
LINE
  5
E5
330
1F
100
AcDbEntity
  8
0
  6
Continuous
 62
     7
370
    15
100
AcDbLine
 10
0.0057467448
 20
0.8622348802
 30
0.0
 11
-0.0462701823
 21
0.8622348802
 31
0.0
  0
LINE
  5
E6
330
1F
100
AcDbEntity
  8
0
  6
Continuous
 62
     7
370
    15
100
AcDbLine
 10
-0.078203125
 20
0.7983689948
 30
0.0
 11
-0.0290891927
 21
0.7983689948
 31
0.0
  0
LINE
  5
E7
330
1F
100
AcDbEntity
  8
0
  6
Continuous
 62
     7
370
    15
100
AcDbLine
 10
0.0065761719
 20
0.6365714688
 30
0.0
 11
-0.0385091146
 21
0.6365714688
 31
0.0
  0
LINE
  5
E8
330
1F
100
AcDbEntity
  8
0
  6
Continuous
 62
     7
370
    15
100
AcDbLine
 10
-0.129390625
 20
0.6381710781
 30
0.0
 11
-0.1744759115
 21
0.6381710781
 31
0.0
  0
LINE
  5
E9
330
1F
100
AcDbEntity
  8
0
  6
Continuous
 62
     7
370
    15
100
AcDbLine
 10
-0.2264335938
 20
0.6369861823
 30
0.0
 11
-0.2784505208
 21
0.6374008959
 31
0.0
  0
LINE
  5
EA
330
1F
100
AcDbEntity
  8
0
  6
Continuous
 62
     7
370
    15
100
AcDbLine
 10
-0.0389238281
 20
0.6660161302
 30
0.0
 11
0.0061614583
 21
0.6660161302
 31
0.0
  0
LINE
  5
EB
330
1F
100
AcDbEntity
  8
0
  6
Continuous
 62
     7
370
    15
100
AcDbLine
 10
-0.1744759115
 20
0.6656606615
 30
0.0
 11
-0.1289759115
 21
0.6656606615
 31
0.0
  0
LINE
  5
EC
330
1F
100
AcDbEntity
  8
0
  6
Continuous
 62
     7
370
    15
100
AcDbLine
 10
-0.194500651
 20
0.7295265469
 30
0.0
 11
-0.2436738281
 21
0.7295265469
 31
0.0
  0
LINE
  5
ED
330
1F
100
AcDbEntity
  8
0
  6
Continuous
 62
     7
370
    15
100
AcDbLine
 10
-0.2784505208
 20
0.6656606615
 30
0.0
 11
-0.2264335938
 21
0.6656606615
 31
0.0
  0
LINE
  5
EE
330
1F
100
AcDbEntity
  8
0
  6
Continuous
 62
     7
370
    15
100
AcDbLine
 10
-0.242844401
 20
0.1650421719
 30
0.0
 11
-0.1752460938
 21
0.1650421719
 31
0.0
  0
LINE
  5
EF
330
1F
100
AcDbEntity
  8
0
  6
Continuous
 62
     7
370
    15
100
AcDbLine
 10
-0.0925403646
 20
0.1650421719
 30
0.0
 11
-0.0331770833
 21
0.1650421719
 31
0.0
  0
LINE
  5
F0
330
1F
100
AcDbEntity
  8
0
  6
Continuous
 62
     7
370
    15
100
AcDbLine
 10
-0.0159960938
 20
-0.4386030104
 30
0.0
 11
-0.0634511719
 21
-0.4386030104
 31
0.0
  0
LINE
  5
F1
330
1F
100
AcDbEntity
  8
0
  6
Continuous
 62
     7
370
    15
100
AcDbLine
 10
-0.272703776
 20
-0.2912019687
 30
0.0
 11
-0.0712714844
 21
-0.2916166823
 31
0.0
  0
LINE
  5
F2
330
1F
100
AcDbEntity
  8
0
  6
Continuous
 62
     7
370
    15
100
AcDbLine
 10
-0.272703776
 20
-0.3493803541
 30
0.0
 11
-0.272703776
 21
-0.2912019687
 31
0.0
  0
LINE
  5
F3
330
1F
100
AcDbEntity
  8
0
  6
Continuous
 62
     7
370
    15
100
AcDbLine
 10
-0.088452474
 20
-0.3493803541
 30
0.0
 11
-0.272703776
 21
-0.3493803541
 31
0.0
  0
LINE
  5
F4
330
1F
100
AcDbEntity
  8
0
  6
Continuous
 62
     7
370
    15
100
AcDbLine
 10
-0.2195019531
 20
-0.5630763177
 30
0.0
 11
-0.2784505208
 21
-0.5630763177
 31
0.0
  0
LINE
  5
F5
330
1F
100
AcDbEntity
  8
0
  6
Continuous
 62
     7
370
    15
100
AcDbLine
 10
0.0061614583
 20
-0.5630763177
 30
0.0
 11
-0.0462701823
 21
-0.5630763177
 31
0.0
  0
LINE
  5
F6
330
1F
100
AcDbEntity
  8
0
  6
Continuous
 62
     7
370
    15
100
AcDbLine
 10
-0.2731184896
 20
-0.8662319166
 30
0.0
 11
0.0
 21
-0.8662319166
 31
0.0
  0
LINE
  5
F7
330
1F
100
AcDbEntity
  8
0
  6
Continuous
 62
     7
370
    15
100
AcDbLine
 10
-0.2731184896
 20
-0.9244103021
 30
0.0
 11
-0.2731184896
 21
-0.8662319166
 31
0.0
  0
LINE
  5
F8
330
1F
100
AcDbEntity
  8
0
  6
Continuous
 62
     7
370
    15
100
AcDbLine
 10
0.0
 20
-0.9244103021
 30
0.0
 11
-0.2731184896
 21
-0.9244103021
 31
0.0
  0
LINE
  5
F9
330
1F
100
AcDbEntity
  8
0
  6
Continuous
 62
     7
370
    15
100
AcDbLine
 10
0.0
 20
-0.8662319166
 30
0.0
 11
0.0
 21
-0.9244103021
 31
0.0
  0
LINE
  5
FA
330
1F
100
AcDbEntity
  8
0
  6
Continuous
 62
     7
370
    15
100
AcDbLine
 10
-0.0867936198
 20
-1.0755437656
 30
0.0
 11
-0.1351373698
 21
-1.0755437656
 31
0.0
  0
LINE
  5
FB
330
1F
100
AcDbEntity
  8
0
  6
Continuous
 62
     7
370
    15
100
AcDbLine
 10
-0.2211015625
 20
-1.0747143385
 30
0.0
 11
-0.272703776
 21
-1.0747143385
 31
0.0
  0
LINE
  5
FC
330
1F
100
AcDbEntity
  8
0
  6
Continuous
 62
     7
370
    15
100
AcDbLine
 10
-0.5
 20
1.57
 30
0.0
 11
-0.5
 21
-1.57
 31
0.0
  0
LINE
  5
FD
330
1F
100
AcDbEntity
  8
0
  6
Continuous
 62
     7
370
    15
100
AcDbLine
 10
0.4
 20
1.67
 30
0.0
 11
-0.4
 21
1.67
 31
0.0
  0
LINE
  5
FE
330
1F
100
AcDbEntity
  8
0
  6
Continuous
 62
     7
370
    15
100
AcDbLine
 10
0.5
 20
-1.57
 30
0.0
 11
0.5
 21
1.57
 31
0.0
  0
LINE
  5
FF
330
1F
100
AcDbEntity
  8
0
  6
Continuous
 62
     7
370
    15
100
AcDbLine
 10
-0.4
 20
-1.67
 30
0.0
 11
0.4
 21
-1.67
 31
0.0
  0
LINE
  5
100
330
1F
100
AcDbEntity
  8
0
  6
Continuous
 62
     7
370
    15
100
AcDbLine
 10
0.0
 20
-1.1594936354
 30
0.0
 11
-0.2731184896
 21
-1.1594936354
 31
0.0
  0
LINE
  5
101
330
1F
100
AcDbEntity
  8
0
  6
Continuous
 62
     7
370
    15
100
AcDbLine
 10
0.0
 20
-1.10131525
 30
0.0
 11
0.0
 21
-1.1594936354
 31
0.0
  0
LINE
  5
102
330
1F
100
AcDbEntity
  8
0
  6
Continuous
 62
     7
370
    15
100
AcDbLine
 10
-0.2731184896
 20
-1.10131525
 30
0.0
 11
0.0
 21
-1.10131525
 31
0.0
  0
LINE
  5
103
330
1F
100
AcDbEntity
  8
0
  6
Continuous
 62
     7
370
    15
100
AcDbLine
 10
-0.2731184896
 20
-1.1594936354
 30
0.0
 11
-0.2731184896
 21
-1.10131525
 31
0.0
  0
LINE
  5
104
330
1F
100
AcDbEntity
  8
0
  6
Continuous
 62
     7
370
    15
100
AcDbLine
 10
0.0
 20
-0.7134988437
 30
0.0
 11
0.0
 21
-0.7847703281
 31
0.0
  0
LINE
  5
105
330
1F
100
AcDbEntity
  8
0
  6
Continuous
 62
     7
370
    15
100
AcDbLine
 10
-0.119141276
 20
-0.8044395989
 30
0.0
 11
0.0
 21
-0.7134988437
 31
0.0
  0
LINE
  5
106
330
1F
100
AcDbEntity
  8
0
  6
Continuous
 62
     7
370
    15
100
AcDbLine
 10
-0.2227604167
 20
-0.8404604323
 30
0.0
 11
-0.2719335938
 21
-0.8404604323
 31
0.0
  0
LINE
  5
107
330
1F
100
AcDbEntity
  8
0
  6
Continuous
 62
     7
370
    15
100
AcDbLine
 10
-0.078203125
 20
-0.8400457187
 30
0.0
 11
-0.1514889323
 21
-0.8400457187
 31
0.0
  0
LINE
  5
108
330
1F
100
AcDbEntity
  8
0
  6
Continuous
 62
     7
370
    15
100
AcDbLine
 10
0.0
 20
-0.7847703281
 30
0.0
 11
-0.078203125
 21
-0.8400457187
 31
0.0
  0
LINE
  5
109
330
1F
100
AcDbEntity
  8
0
  6
Continuous
 62
     7
370
    15
100
AcDbLine
 10
-0.2784505208
 20
-0.5917507969
 30
0.0
 11
-0.2203313802
 21
-0.5917507969
 31
0.0
  0
LINE
  5
10A
330
1F
100
AcDbEntity
  8
0
  6
Continuous
 62
     7
370
    15
100
AcDbLine
 10
-0.0462701823
 20
-0.5917507969
 30
0.0
 11
0.0061614583
 21
-0.5917507969
 31
0.0
  0
LINE
  5
10B
330
1F
100
AcDbEntity
  8
0
  6
Continuous
 62
     7
370
    15
100
AcDbLine
 10
-0.0520169271
 20
-0.0669011875
 30
0.0
 11
0.0
 21
-0.0669011875
 31
0.0
  0
LINE
  5
10C
330
1F
100
AcDbEntity
  8
0
  6
Continuous
 62
     7
370
    15
100
AcDbLine
 10
-0.0520169271
 20
-0.1893601719
 30
0.0
 11
-0.0520169271
 21
-0.0669011875
 31
0.0
  0
LINE
  5
10D
330
1F
100
AcDbEntity
  8
0
  6
Continuous
 62
     7
370
    15
100
AcDbLine
 10
-0.1099583333
 20
-0.1893601719
 30
0.0
 11
-0.0520169271
 21
-0.1893601719
 31
0.0
  0
LINE
  5
10E
330
1F
100
AcDbEntity
  8
0
  6
Continuous
 62
     7
370
    15
100
AcDbLine
 10
-0.1099583333
 20
-0.0669011875
 30
0.0
 11
-0.1099583333
 21
-0.1893601719
 31
0.0
  0
LINE
  5
10F
330
1F
100
AcDbEntity
  8
0
  6
Continuous
 62
     7
370
    15
100
AcDbLine
 10
-0.1619752604
 20
-0.0669011875
 30
0.0
 11
-0.1099583333
 21
-0.0669011875
 31
0.0
  0
LINE
  5
110
330
1F
100
AcDbEntity
  8
0
  6
Continuous
 62
     7
370
    15
100
AcDbLine
 10
-0.1619752604
 20
-0.1893601719
 30
0.0
 11
-0.1619752604
 21
-0.0669011875
 31
0.0
  0
LINE
  5
111
330
1F
100
AcDbEntity
  8
0
  6
Continuous
 62
     7
370
    15
100
AcDbLine
 10
-0.2199166667
 20
-0.1893601719
 30
0.0
 11
-0.1619752604
 21
-0.1893601719
 31
0.0
  0
LINE
  5
112
330
1F
100
AcDbEntity
  8
0
  6
Continuous
 62
     7
370
    15
100
AcDbLine
 10
-0.2199166667
 20
-0.0669011875
 30
0.0
 11
-0.2199166667
 21
-0.1893601719
 31
0.0
  0
LINE
  5
113
330
1F
100
AcDbEntity
  8
0
  6
Continuous
 62
     7
370
    15
100
AcDbLine
 10
-0.273
 20
-0.0669011875
 30
0.0
 11
-0.2199166667
 21
-0.0669011875
 31
0.0
  0
LINE
  5
114
330
1F
100
AcDbEntity
  8
0
  6
Continuous
 62
     7
370
    15
100
AcDbLine
 10
-0.273
 20
-0.245050276
 30
0.0
 11
-0.273
 21
-0.0669011875
 31
0.0
  0
LINE
  5
115
330
1F
100
AcDbEntity
  8
0
  6
Continuous
 62
     7
370
    15
100
AcDbLine
 10
0.0
 20
-0.245050276
 30
0.0
 11
-0.273
 21
-0.245050276
 31
0.0
  0
LINE
  5
116
330
1F
100
AcDbEntity
  8
0
  6
Continuous
 62
     7
370
    15
100
AcDbLine
 10
0.0
 20
-0.0669011875
 30
0.0
 11
0.0
 21
-0.245050276
 31
0.0
  0
LINE
  5
117
330
1F
100
AcDbEntity
  8
0
  6
Continuous
 62
     7
370
    15
100
AcDbLine
 10
0.0
 20
0.26937225
 30
0.0
 11
-0.216125
 21
0.26937225
 31
0.0
  0
LINE
  5
118
330
1F
100
AcDbEntity
  8
0
  6
Continuous
 62
     7
370
    15
100
AcDbLine
 10
0.0
 20
0.3274913906
 30
0.0
 11
0.0
 21
0.26937225
 31
0.0
  0
LINE
  5
119
330
1F
100
AcDbEntity
  8
0
  6
Continuous
 62
     7
370
    15
100
AcDbLine
 10
-0.216125
 20
0.3274913906
 30
0.0
 11
0.0
 21
0.3274913906
 31
0.0
  0
LINE
  5
11A
330
1F
100
AcDbEntity
  8
0
  6
Continuous
 62
     7
370
    15
100
AcDbLine
 10
-0.216125
 20
0.4049243334
 30
0.0
 11
-0.216125
 21
0.3274913906
 31
0.0
  0
LINE
  5
11B
330
1F
100
AcDbEntity
  8
0
  6
Continuous
 62
     7
370
    15
100
AcDbLine
 10
-0.273
 20
0.4049243334
 30
0.0
 11
-0.216125
 21
0.4049243334
 31
0.0
  0
LINE
  5
11C
330
1F
100
AcDbEntity
  8
0
  6
Continuous
 62
     7
370
    15
100
AcDbLine
 10
-0.273
 20
0.191169125
 30
0.0
 11
-0.273
 21
0.4049243334
 31
0.0
  0
LINE
  5
11D
330
1F
100
AcDbEntity
  8
0
  6
Continuous
 62
     7
370
    15
100
AcDbLine
 10
-0.216125
 20
0.191169125
 30
0.0
 11
-0.273
 21
0.191169125
 31
0.0
  0
LINE
  5
11E
330
1F
100
AcDbEntity
  8
0
  6
Continuous
 62
     7
370
    15
100
AcDbLine
 10
-0.216125
 20
0.26937225
 30
0.0
 11
-0.216125
 21
0.191169125
 31
0.0
  0
ARC
  5
11F
330
1F
100
AcDbEntity
  8
0
  6
Continuous
 62
     7
370
    15
100
AcDbCircle
 10
-0.4
 20
-1.57
 30
0.0
 40
0.0999999999999999
100
AcDbArc
 50
180.0
 51
270.0
  0
ARC
  5
120
330
1F
100
AcDbEntity
  8
0
  6
Continuous
 62
     7
370
    15
100
AcDbCircle
 10
-0.4
 20
1.57
 30
0.0
 40
0.0999999999999988
100
AcDbArc
 50
90.0
 51
180.0
  0
ARC
  5
121
330
1F
100
AcDbEntity
  8
0
  6
Continuous
 62
     7
370
    15
100
AcDbCircle
 10
0.4
 20
1.57
 30
0.0
 40
0.1000000000000003
100
AcDbArc
 50
0.0
 51
90.0
  0
ARC
  5
122
330
1F
100
AcDbEntity
  8
0
  6
Continuous
 62
     7
370
    15
100
AcDbCircle
 10
0.4
 20
-1.57
 30
0.0
 40
0.1000000000000003
100
AcDbArc
 50
270.0
 51
0.0
  0
MTEXT
  5
124
330
1F
100
AcDbEntity
  8
0
  6
Continuous
 62
     7
100
AcDbMText
 10
-0.5
 20
-1.7101404091
 30
0.0
 40
0.1903
 41
0.0
 71
     1
 72
     1
  1
SolidWorks Student Edition.
  7
SLDTEXTSTYLE0
 73
     1
 44
1.0
  0
MTEXT
  5
125
330
1F
100
AcDbEntity
  8
0
  6
Continuous
 62
     7
100
AcDbMText
 10
-0.5
 20
-1.9955904091
 30
0.0
 40
0.1903
 41
0.0
 71
     1
 72
     1
  1
For Academic Use Only.
  7
SLDTEXTSTYLE0
 73
     1
 44
1.0
  0
ENDSEC
  0
SECTION
  2
OBJECTS
  0
DICTIONARY
  5
C
330
0
100
AcDbDictionary
281
     1
  3
ACAD_GROUP
350
D
  3
ACAD_LAYOUT
350
1A
  3
ACAD_MLINESTYLE
350
17
  3
ACAD_PLOTSETTINGS
350
19
  3
ACAD_PLOTSTYLENAME
350
E
  3
ACAD_SCALELIST
350
47
  0
DICTIONARY
  5
D
102
{ACAD_REACTORS
330
C
102
}
330
C
100
AcDbDictionary
281
     1
  0
DICTIONARY
  5
1A
102
{ACAD_REACTORS
330
C
102
}
330
C
100
AcDbDictionary
281
     1
  3
Layout1
350
1E
  3
Layout2
350
26
  3
Model
350
22
  0
DICTIONARY
  5
17
102
{ACAD_REACTORS
330
C
102
}
330
C
100
AcDbDictionary
281
     1
  3
Standard
350
18
  0
DICTIONARY
  5
19
102
{ACAD_REACTORS
330
C
102
}
330
C
100
AcDbDictionary
281
     1
  0
ACDBDICTIONARYWDFLT
  5
E
102
{ACAD_REACTORS
330
C
102
}
330
C
100
AcDbDictionary
281
     1
  3
Normal
350
F
100
AcDbDictionaryWithDefault
340
F
  0
DICTIONARY
  5
47
102
{ACAD_REACTORS
330
C
102
}
330
C
100
AcDbDictionary
281
     1
  3
A0
350
48
  3
A1
350
49
  3
A2
350
4A
  3
A3
350
4B
  3
A4
350
4C
  3
A5
350
4D
  3
A6
350
4E
  3
A7
350
4F
  3
A8
350
50
  3
A9
350
51
  3
B0
350
52
  3
B1
350
53
  3
B2
350
54
  3
B3
350
55
  3
B4
350
56
  3
B5
350
57
  3
B6
350
58
  3
B7
350
59
  3
B8
350
5A
  3
B9
350
5B
  3
C0
350
5C
  3
C1
350
5D
  3
C2
350
5E
  3
C3
350
5F
  3
C4
350
60
  3
C5
350
61
  3
C6
350
62
  3
C7
350
63
  3
C8
350
64
  3
C9
350
65
  3
D0
350
66
  3
D1
350
67
  3
D2
350
68
  0
LAYOUT
  5
1E
102
{ACAD_REACTORS
330
1A
102
}
330
1A
100
AcDbPlotSettings
  1

  2
none_device
  4

  6

 40
0.0
 41
0.0
 42
0.0
 43
0.0
 44
0.0
 45
0.0
 46
0.0
 47
0.0
 48
0.0
 49
0.0
140
0.0
141
0.0
142
1.0
143
1.0
 70
   688
 72
     0
 73
     0
 74
     5
  7

 75
    16
147
1.0
148
0.0
149
0.0
100
AcDbLayout
  1
Layout1
 70
     1
 71
     1
 10
0.0
 20
0.0
 11
12.0
 21
9.0
 12
0.0
 22
0.0
 32
0.0
 14
1.0000000000E+20
 24
1.0000000000E+20
 34
1.0000000000E+20
 15
-1.0000000000E+20
 25
-1.0000000000E+20
 35
-1.0000000000E+20
146
0.0
 13
0.0
 23
0.0
 33
0.0
 16
1.0
 26
0.0
 36
0.0
 17
0.0
 27
1.0
 37
0.0
 76
     0
330
1B
  0
LAYOUT
  5
26
102
{ACAD_REACTORS
330
1A
102
}
330
1A
100
AcDbPlotSettings
  1

  2
none_device
  4

  6

 40
0.0
 41
0.0
 42
0.0
 43
0.0
 44
0.0
 45
0.0
 46
0.0
 47
0.0
 48
0.0
 49
0.0
140
0.0
141
0.0
142
1.0
143
1.0
 70
   688
 72
     0
 73
     0
 74
     5
  7

 75
    16
147
1.0
148
0.0
149
0.0
100
AcDbLayout
  1
Layout2
 70
     1
 71
     2
 10
0.0
 20
0.0
 11
0.0
 21
0.0
 12
0.0
 22
0.0
 32
0.0
 14
0.0
 24
0.0
 34
0.0
 15
0.0
 25
0.0
 35
0.0
146
0.0
 13
0.0
 23
0.0
 33
0.0
 16
1.0
 26
0.0
 36
0.0
 17
0.0
 27
1.0
 37
0.0
 76
     0
330
23
  0
LAYOUT
  5
22
102
{ACAD_REACTORS
330
1A
102
}
330
1A
100
AcDbPlotSettings
  1

  2
none_device
  4
ANSI_A_(11.00_x_8.50_Inches)
  6

 40
6.35
 41
19.05
 42
6.35000508
 43
19.05000254
 44
279.4
 45
215.9
 46
133.34999746
 47
88.89999873
 48
0.0
 49
0.0
140
0.0
141
0.0
142
2.5194610778
143
1.0
 70
  1696
 72
     0
 73
     0
 74
     0
  7

 75
     0
147
0.5913241897
148
-39.4088153714
149
0.0
100
AcDbLayout
  1
Model
 70
     1
 71
     0
 10
0.0
 20
0.0
 11
12.0
 21
9.0
 12
0.0
 22
0.0
 32
0.0
 14
-0.5
 24
-1.67
 34
0.0
 15
0.5
 25
1.67
 35
0.0
146
0.0
 13
0.0
 23
0.0
 33
0.0
 16
1.0
 26
0.0
 36
0.0
 17
0.0
 27
1.0
 37
0.0
 76
     0
330
1F
331
29
  0
MLINESTYLE
  5
18
102
{ACAD_REACTORS
330
17
102
}
330
17
100
AcDbMlineStyle
  2
Standard
 70
     0
  3

 62
   256
 51
90.0
 52
90.0
 71
     2
 49
0.5
 62
   256
  6
BYLAYER
 49
-0.5
 62
   256
  6
BYLAYER
  0
ACDBPLACEHOLDER
  5
F
102
{ACAD_REACTORS
330
E
102
}
330
E
  0
SCALE
  5
48
102
{ACAD_REACTORS
330
47
102
}
330
47
100
AcDbScale
 70
     0
300
1:1
140
1.0
141
1.0
290
     1
  0
SCALE
  5
49
102
{ACAD_REACTORS
330
47
102
}
330
47
100
AcDbScale
 70
     0
300
1:2
140
1.0
141
2.0
290
     0
  0
SCALE
  5
4A
102
{ACAD_REACTORS
330
47
102
}
330
47
100
AcDbScale
 70
     0
300
1:4
140
1.0
141
4.0
290
     0
  0
SCALE
  5
4B
102
{ACAD_REACTORS
330
47
102
}
330
47
100
AcDbScale
 70
     0
300
1:5
140
1.0
141
5.0
290
     0
  0
SCALE
  5
4C
102
{ACAD_REACTORS
330
47
102
}
330
47
100
AcDbScale
 70
     0
300
1:8
140
1.0
141
8.0
290
     0
  0
SCALE
  5
4D
102
{ACAD_REACTORS
330
47
102
}
330
47
100
AcDbScale
 70
     0
300
1:10
140
1.0
141
10.0
290
     0
  0
SCALE
  5
4E
102
{ACAD_REACTORS
330
47
102
}
330
47
100
AcDbScale
 70
     0
300
1:16
140
1.0
141
16.0
290
     0
  0
SCALE
  5
4F
102
{ACAD_REACTORS
330
47
102
}
330
47
100
AcDbScale
 70
     0
300
1:20
140
1.0
141
20.0
290
     0
  0
SCALE
  5
50
102
{ACAD_REACTORS
330
47
102
}
330
47
100
AcDbScale
 70
     0
300
1:30
140
1.0
141
30.0
290
     0
  0
SCALE
  5
51
102
{ACAD_REACTORS
330
47
102
}
330
47
100
AcDbScale
 70
     0
300
1:40
140
1.0
141
40.0
290
     0
  0
SCALE
  5
52
102
{ACAD_REACTORS
330
47
102
}
330
47
100
AcDbScale
 70
     0
300
1:50
140
1.0
141
50.0
290
     0
  0
SCALE
  5
53
102
{ACAD_REACTORS
330
47
102
}
330
47
100
AcDbScale
 70
     0
300
1:100
140
1.0
141
100.0
290
     0
  0
SCALE
  5
54
102
{ACAD_REACTORS
330
47
102
}
330
47
100
AcDbScale
 70
     0
300
2:1
140
2.0
141
1.0
290
     0
  0
SCALE
  5
55
102
{ACAD_REACTORS
330
47
102
}
330
47
100
AcDbScale
 70
     0
300
4:1
140
4.0
141
1.0
290
     0
  0
SCALE
  5
56
102
{ACAD_REACTORS
330
47
102
}
330
47
100
AcDbScale
 70
     0
300
8:1
140
8.0
141
1.0
290
     0
  0
SCALE
  5
57
102
{ACAD_REACTORS
330
47
102
}
330
47
100
AcDbScale
 70
     0
300
10:1
140
10.0
141
1.0
290
     0
  0
SCALE
  5
58
102
{ACAD_REACTORS
330
47
102
}
330
47
100
AcDbScale
 70
     0
300
100:1
140
100.0
141
1.0
290
     0
  0
SCALE
  5
59
102
{ACAD_REACTORS
330
47
102
}
330
47
100
AcDbScale
 70
     0
300
1/128" = 1'-0"
140
0.0078125
141
12.0
290
     0
  0
SCALE
  5
5A
102
{ACAD_REACTORS
330
47
102
}
330
47
100
AcDbScale
 70
     0
300
1/64" = 1'-0"
140
0.015625
141
12.0
290
     0
  0
SCALE
  5
5B
102
{ACAD_REACTORS
330
47
102
}
330
47
100
AcDbScale
 70
     0
300
1/32" = 1'-0"
140
0.03125
141
12.0
290
     0
  0
SCALE
  5
5C
102
{ACAD_REACTORS
330
47
102
}
330
47
100
AcDbScale
 70
     0
300
1/16" = 1'-0"
140
0.0625
141
12.0
290
     0
  0
SCALE
  5
5D
102
{ACAD_REACTORS
330
47
102
}
330
47
100
AcDbScale
 70
     0
300
3/32" = 1'-0"
140
0.09375
141
12.0
290
     0
  0
SCALE
  5
5E
102
{ACAD_REACTORS
330
47
102
}
330
47
100
AcDbScale
 70
     0
300
1/8" = 1'-0"
140
0.125
141
12.0
290
     0
  0
SCALE
  5
5F
102
{ACAD_REACTORS
330
47
102
}
330
47
100
AcDbScale
 70
     0
300
3/16" = 1'-0"
140
0.1875
141
12.0
290
     0
  0
SCALE
  5
60
102
{ACAD_REACTORS
330
47
102
}
330
47
100
AcDbScale
 70
     0
300
1/4" = 1'-0"
140
0.25
141
12.0
290
     0
  0
SCALE
  5
61
102
{ACAD_REACTORS
330
47
102
}
330
47
100
AcDbScale
 70
     0
300
3/8" = 1'-0"
140
0.375
141
12.0
290
     0
  0
SCALE
  5
62
102
{ACAD_REACTORS
330
47
102
}
330
47
100
AcDbScale
 70
     0
300
1/2" = 1'-0"
140
0.5
141
12.0
290
     0
  0
SCALE
  5
63
102
{ACAD_REACTORS
330
47
102
}
330
47
100
AcDbScale
 70
     0
300
3/4" = 1'-0"
140
0.75
141
12.0
290
     0
  0
SCALE
  5
64
102
{ACAD_REACTORS
330
47
102
}
330
47
100
AcDbScale
 70
     0
300
1" = 1'-0"
140
1.0
141
12.0
290
     0
  0
SCALE
  5
65
102
{ACAD_REACTORS
330
47
102
}
330
47
100
AcDbScale
 70
     0
300
1-1/2" = 1'-0"
140
1.5
141
12.0
290
     0
  0
SCALE
  5
66
102
{ACAD_REACTORS
330
47
102
}
330
47
100
AcDbScale
 70
     0
300
3" = 1'-0"
140
3.0
141
12.0
290
     0
  0
SCALE
  5
67
102
{ACAD_REACTORS
330
47
102
}
330
47
100
AcDbScale
 70
     0
300
6" = 1'-0"
140
6.0
141
12.0
290
     0
  0
SCALE
  5
68
102
{ACAD_REACTORS
330
47
102
}
330
47
100
AcDbScale
 70
     0
300
1'-0" = 1'-0"
140
12.0
141
12.0
290
     0
  0
ENDSEC
  0
EOF
