  0
SECTION
  2
HEADER
  9
$ACADVER
  1
AC1015
  9
$ACADMAINTVER
 70
     6
  9
$DWGCODEPAGE
  3
ANSI_1252
  9
$INSBASE
 10
0.0
 20
0.0
 30
0.0
  9
$EXTMIN
 10
-0.8177864669
 20
-2.1137768921
 30
0.0
  9
$EXTMAX
 10
6.0
 20
4.7040095748
 30
0.0
  9
$LIMMIN
 10
0.0
 20
0.0
  9
$LIMMAX
 10
12.0
 20
9.0
  9
$ORTHOMODE
 70
     0
  9
$REGENMODE
 70
     1
  9
$FILLMODE
 70
     1
  9
$QTEXTMODE
 70
     0
  9
$MIRRTEXT
 70
     1
  9
$LTSCALE
 40
1.0
  9
$ATTMODE
 70
     1
  9
$TEXTSIZE
 40
0.1377952756
  9
$TRACEWID
 40
0.05
  9
$TEXTSTYLE
  7
Standard
  9
$CLAYER
  8
0
  9
$CELTYPE
  6
ByLayer
  9
$CECOLOR
 62
   256
  9
$CELTSCALE
 40
1.0
  9
$DISPSILH
 70
     0
  9
$DIMSCALE
 40
1.0
  9
$DIMASZ
 40
0.13
  9
$DIMEXO
 40
0.0393700787
  9
$DIMDLI
 40
0.38
  9
$DIMRND
 40
0.0
  9
$DIMDLE
 40
0.0
  9
$DIMEXE
 40
0.0393700787
  9
$DIMTP
 40
0.0
  9
$DIMTM
 40
0.0
  9
$DIMTXT
 40
0.1377952756
  9
$DIMCEN
 40
0.09
  9
$DIMTSZ
 40
0.0
  9
$DIMTOL
 70
     0
  9
$DIMLIM
 70
     0
  9
$DIMTIH
 70
     1
  9
$DIMTOH
 70
     1
  9
$DIMSE1
 70
     0
  9
$DIMSE2
 70
     0
  9
$DIMTAD
 70
     1
  9
$DIMZIN
 70
     0
  9
$DIMBLK
  1

  9
$DIMASO
 70
     1
  9
$DIMSHO
 70
     1
  9
$DIMPOST
  1

  9
$DIMAPOST
  1

  9
$DIMALT
 70
     0
  9
$DIMALTD
 70
     2
  9
$DIMALTF
 40
25.4
  9
$DIMLFAC
 40
1.0
  9
$DIMTOFL
 70
     0
  9
$DIMTVP
 40
0.0
  9
$DIMTIX
 70
     0
  9
$DIMSOXD
 70
     0
  9
$DIMSAH
 70
     0
  9
$DIMBLK1
  1

  9
$DIMBLK2
  1

  9
$DIMSTYLE
  2
Standard
  9
$DIMCLRD
 70
     0
  9
$DIMCLRE
 70
     0
  9
$DIMCLRT
 70
     0
  9
$DIMTFAC
 40
1.0
  9
$DIMGAP
 40
0.06
  9
$DIMJUST
 70
     0
  9
$DIMSD1
 70
     0
  9
$DIMSD2
 70
     0
  9
$DIMTOLJ
 70
     1
  9
$DIMTZIN
 70
     0
  9
$DIMALTZ
 70
     0
  9
$DIMALTTZ
 70
     0
  9
$DIMUPT
 70
     0
  9
$DIMDEC
 70
     2
  9
$DIMTDEC
 70
     2
  9
$DIMALTU
 70
     2
  9
$DIMALTTD
 70
     2
  9
$DIMTXSTY
  7
Standard
  9
$DIMAUNIT
 70
     0
  9
$DIMADEC
 70
     2
  9
$DIMALTRND
 40
0.0
  9
$DIMAZIN
 70
     0
  9
$DIMDSEP
 70
    46
  9
$DIMATFIT
 70
     3
  9
$DIMFRAC
 70
     0
  9
$DIMLDRBLK
  1

  9
$DIMLUNIT
 70
     2
  9
$DIMLWD
 70
    -2
  9
$DIMLWE
 70
    -2
  9
$DIMTMOVE
 70
     0
  9
$LUNITS
 70
     2
  9
$LUPREC
 70
     2
  9
$SKETCHINC
 40
0.1
  9
$FILLETRAD
 40
0.5
  9
$AUNITS
 70
     0
  9
$AUPREC
 70
     2
  9
$MENU
  1
.
  9
$ELEVATION
 40
0.0
  9
$PELEVATION
 40
0.0
  9
$THICKNESS
 40
0.0
  9
$LIMCHECK
 70
     0
  9
$CHAMFERA
 40
0.0
  9
$CHAMFERB
 40
0.0
  9
$CHAMFERC
 40
0.0
  9
$CHAMFERD
 40
0.0
  9
$SKPOLY
 70
     0
  9
$TDCREATE
 40
2457049.481834687
  9
$TDUCREATE
 40
2457049.815168021
  9
$TDUPDATE
 40
2457049.481989977
  9
$TDUUPDATE
 40
2457049.81532331
  9
$TDINDWG
 40
0.0000000116
  9
$TDUSRTIMER
 40
0.0000000116
  9
$USRTIMER
 70
     1
  9
$ANGBASE
 50
0.0
  9
$ANGDIR
 70
     0
  9
$PDMODE
 70
     0
  9
$PDSIZE
 40
-1.0
  9
$PLINEWID
 40
0.0
  9
$SPLFRAME
 70
     0
  9
$SPLINETYPE
 70
     6
  9
$SPLINESEGS
 70
     8
  9
$HANDSEED
  5
10C
  9
$SURFTAB1
 70
     6
  9
$SURFTAB2
 70
     6
  9
$SURFTYPE
 70
     6
  9
$SURFU
 70
     6
  9
$SURFV
 70
     6
  9
$UCSBASE
  2

  9
$UCSNAME
  2

  9
$UCSORG
 10
0.0
 20
0.0
 30
0.0
  9
$UCSXDIR
 10
1.0
 20
0.0
 30
0.0
  9
$UCSYDIR
 10
0.0
 20
1.0
 30
0.0
  9
$UCSORTHOREF
  2

  9
$UCSORTHOVIEW
 70
     0
  9
$UCSORGTOP
 10
0.0
 20
0.0
 30
0.0
  9
$UCSORGBOTTOM
 10
0.0
 20
0.0
 30
0.0
  9
$UCSORGLEFT
 10
0.0
 20
0.0
 30
0.0
  9
$UCSORGRIGHT
 10
0.0
 20
0.0
 30
0.0
  9
$UCSORGFRONT
 10
0.0
 20
0.0
 30
0.0
  9
$UCSORGBACK
 10
0.0
 20
0.0
 30
0.0
  9
$PUCSBASE
  2

  9
$PUCSNAME
  2

  9
$PUCSORG
 10
0.0
 20
0.0
 30
0.0
  9
$PUCSXDIR
 10
1.0
 20
0.0
 30
0.0
  9
$PUCSYDIR
 10
0.0
 20
1.0
 30
0.0
  9
$PUCSORTHOREF
  2

  9
$PUCSORTHOVIEW
 70
     0
  9
$PUCSORGTOP
 10
0.0
 20
0.0
 30
0.0
  9
$PUCSORGBOTTOM
 10
0.0
 20
0.0
 30
0.0
  9
$PUCSORGLEFT
 10
0.0
 20
0.0
 30
0.0
  9
$PUCSORGRIGHT
 10
0.0
 20
0.0
 30
0.0
  9
$PUCSORGFRONT
 10
0.0
 20
0.0
 30
0.0
  9
$PUCSORGBACK
 10
0.0
 20
0.0
 30
0.0
  9
$USERI1
 70
     0
  9
$USERI2
 70
     0
  9
$USERI3
 70
     0
  9
$USERI4
 70
     0
  9
$USERI5
 70
     0
  9
$USERR1
 40
0.0
  9
$USERR2
 40
0.0
  9
$USERR3
 40
0.0
  9
$USERR4
 40
0.0
  9
$USERR5
 40
0.0
  9
$WORLDVIEW
 70
     1
  9
$SHADEDGE
 70
     3
  9
$SHADEDIF
 70
    70
  9
$TILEMODE
 70
     1
  9
$MAXACTVP
 70
    64
  9
$PINSBASE
 10
0.0
 20
0.0
 30
0.0
  9
$PLIMCHECK
 70
     0
  9
$PEXTMIN
 10
1.0000000000E+20
 20
1.0000000000E+20
 30
1.0000000000E+20
  9
$PEXTMAX
 10
-1.0000000000E+20
 20
-1.0000000000E+20
 30
-1.0000000000E+20
  9
$PLIMMIN
 10
0.0
 20
0.0
  9
$PLIMMAX
 10
12.0
 20
9.0
  9
$UNITMODE
 70
     0
  9
$VISRETAIN
 70
     1
  9
$PLINEGEN
 70
     0
  9
$PSLTSCALE
 70
     1
  9
$TREEDEPTH
 70
  3020
  9
$CMLSTYLE
  2
Standard
  9
$CMLJUST
 70
     0
  9
$CMLSCALE
 40
1.0
  9
$PROXYGRAPHICS
 70
     1
  9
$MEASUREMENT
 70
     0
  9
$CELWEIGHT
370
    -1
  9
$ENDCAPS
280
     0
  9
$JOINSTYLE
280
     0
  9
$LWDISPLAY
290
     1
  9
$INSUNITS
 70
     1
  9
$HYPERLINKBASE
  1

  9
$STYLESHEET
  1

  9
$XEDIT
290
     1
  9
$CEPSNTYPE
380
     0
  9
$PSTYLEMODE
290
     1
  9
$FINGERPRINTGUID
  2
{538BCAA9-770A-4C2E-BAE8-C28612CB0559}
  9
$VERSIONGUID
  2
{FAEB1C32-E019-11D5-929B-00C0DF256EC4}
  9
$EXTNAMES
290
     1
  9
$PSVPSCALE
 40
0.0
  9
$OLESTARTUP
290
     0
  0
ENDSEC
  0
SECTION
  2
CLASSES
  0
CLASS
  1
ACDBDICTIONARYWDFLT
  2
AcDbDictionaryWithDefault
  3
ObjectDBX Classes
 90
        0
280
     0
281
     0
  0
CLASS
  1
VISUALSTYLE
  2
AcDbVisualStyle
  3
ObjectDBX Classes
 90
     4095
280
     0
281
     0
  0
CLASS
  1
MATERIAL
  2
AcDbMaterial
  3
ObjectDBX Classes
 90
     1153
280
     0
281
     0
  0
CLASS
  1
SCALE
  2
AcDbScale
  3
ObjectDBX Classes
 90
     1153
280
     0
281
     0
  0
CLASS
  1
SUN
  2
AcDbSun
  3
SCENEOE
 90
     1153
280
     0
281
     0
  0
CLASS
  1
ACDBPLACEHOLDER
  2
AcDbPlaceHolder
  3
ObjectDBX Classes
 90
        0
280
     0
281
     0
  0
CLASS
  1
LAYOUT
  2
AcDbLayout
  3
ObjectDBX Classes
 90
        0
280
     0
281
     0
  0
ENDSEC
  0
SECTION
  2
TABLES
  0
TABLE
  2
VPORT
  5
8
330
0
100
AcDbSymbolTable
 70
     1
  0
VPORT
  5
29
330
8
100
AcDbSymbolTableRecord
100
AcDbViewportTableRecord
  2
*Active
 70
     0
 10
0.0
 20
0.0
 11
1.0
 21
1.0
 12
2.5911067665
 22
1.2951163413
 13
0.0
 23
0.0
 14
0.5
 24
0.5
 15
0.5
 25
0.5
 16
0.0
 26
0.0
 36
1.0
 17
0.0
 27
0.0
 37
0.0
 40
6.9541421962
 41
1.0
 42
50.0
 43
0.0
 44
0.0
 50
0.0
 51
0.0
 71
     0
 72
   100
 73
     1
 74
     3
 75
     0
 76
     0
 77
     0
 78
     0
281
     0
 65
     1
110
0.0
120
0.0
130
0.0
111
1.0
121
0.0
131
0.0
112
0.0
122
1.0
132
0.0
 79
     0
146
0.0
  0
ENDTAB
  0
TABLE
  2
LTYPE
  5
5
330
0
100
AcDbSymbolTable
 70
     6
  0
LTYPE
  5
14
330
5
100
AcDbSymbolTableRecord
100
AcDbLinetypeTableRecord
  2
ByBlock
 70
     0
  3

 72
    65
 73
     0
 40
0.0
  0
LTYPE
  5
15
330
5
100
AcDbSymbolTableRecord
100
AcDbLinetypeTableRecord
  2
ByLayer
 70
     0
  3

 72
    65
 73
     0
 40
0.0
  0
LTYPE
  5
16
330
5
100
AcDbSymbolTableRecord
100
AcDbLinetypeTableRecord
  2
Continuous
 70
     0
  3
Solid line
 72
    65
 73
     0
 40
0.0
  0
LTYPE
  5
6A
330
5
100
AcDbSymbolTableRecord
100
AcDbLinetypeTableRecord
  2
HIDDEN
 70
     0
  3
Hidden __ __ __ __ __ __ __ __ __ __ __ __ __ __
 72
    65
 73
     2
 40
0.075
 49
0.05
 74
     0
 49
-0.025
 74
     0
  0
LTYPE
  5
6B
330
5
100
AcDbSymbolTableRecord
100
AcDbLinetypeTableRecord
  2
PHANTOM
 70
     0
  3
Phantom ______  __  __  ______  __  __  ______
 72
    65
 73
     6
 40
0.5
 49
0.25
 74
     0
 49
-0.05
 74
     0
 49
0.05
 74
     0
 49
-0.05
 74
     0
 49
0.05
 74
     0
 49
-0.05
 74
     0
  0
LTYPE
  5
6C
330
5
100
AcDbSymbolTableRecord
100
AcDbLinetypeTableRecord
  2
CENTER
 70
     0
  3
Center ____ _ ____ _ ____ _ ____ _ ____ _ ____
 72
    65
 73
     4
 40
0.4
 49
0.25
 74
     0
 49
-0.05
 74
     0
 49
0.05
 74
     0
 49
-0.05
 74
     0
  0
LTYPE
  5
6D
330
5
100
AcDbSymbolTableRecord
100
AcDbLinetypeTableRecord
  2
CENTERX2
 70
     0
  3
Center (2x) ________  __  ________  __  _____
 72
    65
 73
     4
 40
0.8
 49
0.5
 74
     0
 49
-0.1
 74
     0
 49
0.1
 74
     0
 49
-0.1
 74
     0
  0
LTYPE
  5
6E
330
5
100
AcDbSymbolTableRecord
100
AcDbLinetypeTableRecord
  2
DOT2
 70
     0
  3
Dot (.5x) ........................................
 72
    65
 73
     2
 40
0.025
 49
0.0
 74
     0
 49
-0.025
 74
     0
  0
ENDTAB
  0
TABLE
  2
LAYER
  5
2
330
0
100
AcDbSymbolTable
 70
     1
  0
LAYER
  5
10
330
2
100
AcDbSymbolTableRecord
100
AcDbLayerTableRecord
  2
0
 70
     0
 62
     7
  6
Continuous
370
    -3
390
F
  0
ENDTAB
  0
TABLE
  2
STYLE
  5
3
330
0
100
AcDbSymbolTable
 70
     2
  0
STYLE
  5
11
330
3
100
AcDbSymbolTableRecord
100
AcDbTextStyleTableRecord
  2
Standard
 70
     0
 40
0.0
 41
1.0
 50
0.0
 71
     0
 42
0.1377952756
  3
txt
  4

  0
STYLE
  5
109
330
3
100
AcDbSymbolTableRecord
100
AcDbTextStyleTableRecord
  2
SLDTEXTSTYLE0
 70
     0
 40
0.0
 41
0.7
 50
0.0
 71
     0
 42
0.1377952756
  3
TXT
  4

  0
ENDTAB
  0
TABLE
  2
VIEW
  5
6
330
0
100
AcDbSymbolTable
 70
     0
  0
ENDTAB
  0
TABLE
  2
UCS
  5
7
330
0
100
AcDbSymbolTable
 70
     0
  0
ENDTAB
  0
TABLE
  2
APPID
  5
9
330
0
100
AcDbSymbolTable
 70
     1
  0
APPID
  5
12
330
9
100
AcDbSymbolTableRecord
100
AcDbRegAppTableRecord
  2
ACAD
 70
     0
  0
ENDTAB
  0
TABLE
  2
DIMSTYLE
  5
A
330
0
100
AcDbSymbolTable
 70
     1
100
AcDbDimStyleTable
  0
DIMSTYLE
105
27
330
A
100
AcDbSymbolTableRecord
100
AcDbDimStyleTableRecord
  2
Standard
 70
     0
178
     0
340
11
  0
ENDTAB
  0
TABLE
  2
BLOCK_RECORD
  5
1
330
0
100
AcDbSymbolTable
 70
     1
  0
BLOCK_RECORD
  5
1F
330
1
100
AcDbSymbolTableRecord
100
AcDbBlockTableRecord
  2
*Model_Space
340
22
  0
BLOCK_RECORD
  5
1B
330
1
100
AcDbSymbolTableRecord
100
AcDbBlockTableRecord
  2
*Paper_Space
340
1E
  0
BLOCK_RECORD
  5
23
330
1
100
AcDbSymbolTableRecord
100
AcDbBlockTableRecord
  2
*Paper_Space0
340
26
  0
ENDTAB
  0
ENDSEC
  0
SECTION
  2
BLOCKS
  0
BLOCK
  5
20
330
1F
100
AcDbEntity
  8
0
100
AcDbBlockBegin
  2
*Model_Space
 70
     0
 10
0.0
 20
0.0
 30
0.0
  3
*Model_Space
  1
*Model_Space
  0
ENDBLK
  5
21
330
1F
100
AcDbEntity
  8
0
100
AcDbBlockEnd
  0
BLOCK
  5
1C
330
1B
100
AcDbEntity
 67
     1
  8
0
100
AcDbBlockBegin
  2
*Paper_Space
 70
     0
 10
0.0
 20
0.0
 30
0.0
  3
*Paper_Space
  1
*Paper_Space
  0
ENDBLK
  5
1D
330
1B
100
AcDbEntity
 67
     1
  8
0
100
AcDbBlockEnd
  0
BLOCK
  5
24
330
23
100
AcDbEntity
  8
0
100
AcDbBlockBegin
  2
*Paper_Space0
 70
     0
 10
0.0
 20
0.0
 30
0.0
  3
*Paper_Space0
  1
*Paper_Space0
  0
ENDBLK
  5
25
330
23
100
AcDbEntity
  8
0
100
AcDbBlockEnd
  0
ENDSEC
  0
SECTION
  2
ENTITIES
  0
CIRCLE
  5
6F
330
1F
100
AcDbEntity
  8
0
  6
Continuous
 62
     7
370
    15
100
AcDbCircle
 10
-0.5677864669
 20
3.2040095748
 30
0.0
 40
0.1249999999999996
  0
CIRCLE
  5
70
330
1F
100
AcDbEntity
  8
0
  6
Continuous
 62
     7
370
    15
100
AcDbCircle
 10
-0.5677864669
 20
2.2040095748
 30
0.0
 40
0.1250000000000002
  0
CIRCLE
  5
71
330
1F
100
AcDbEntity
  8
0
  6
Continuous
 62
     7
370
    15
100
AcDbCircle
 10
-0.5677864669
 20
1.2040095748
 30
0.0
 40
0.125
  0
CIRCLE
  5
72
330
1F
100
AcDbEntity
  8
0
  6
Continuous
 62
     7
370
    15
100
AcDbCircle
 10
-0.5677864669
 20
0.2040095748
 30
0.0
 40
0.1250000000000001
  0
CIRCLE
  5
73
330
1F
100
AcDbEntity
  8
0
  6
Continuous
 62
     7
370
    15
100
AcDbCircle
 10
1.5
 20
-1.8637768921
 30
0.0
 40
0.1250000000000002
  0
CIRCLE
  5
74
330
1F
100
AcDbEntity
  8
0
  6
Continuous
 62
     7
370
    15
100
AcDbCircle
 10
2.5
 20
-1.8637768921
 30
0.0
 40
0.1249999999999991
  0
CIRCLE
  5
75
330
1F
100
AcDbEntity
  8
0
  6
Continuous
 62
     7
370
    15
100
AcDbCircle
 10
3.5
 20
-1.8637768921
 30
0.0
 40
0.1249999999999996
  0
CIRCLE
  5
76
330
1F
100
AcDbEntity
  8
0
  6
Continuous
 62
     7
370
    15
100
AcDbCircle
 10
4.5
 20
-1.8637768921
 30
0.0
 40
0.125
  0
SPLINE
  5
79
330
1F
100
AcDbEntity
  8
0
  6
Continuous
 62
     7
370
    15
100
AcDbSpline
210
0.0
220
0.0
230
1.0
 70
     8
 71
     3
 72
     8
 73
     4
 74
     0
 42
0.000000001
 43
0.00000001
 40
0.0
 40
0.0
 40
0.0
 40
0.0
 40
1.0
 40
1.0
 40
1.0
 40
1.0
 10
1.131860411240881
 20
-0.0072722243879465
 30
0.0
 10
1.139804251240882
 20
-0.0076402243879461
 30
0.0
 10
1.20180121124088
 20
0.0437805756120543
 30
0.0
 10
1.154510011240882
 20
0.1533677756120545
 30
0.0
  0
SPLINE
  5
7A
330
1F
100
AcDbEntity
  8
0
  6
Continuous
 62
     7
370
    15
100
AcDbSpline
210
0.0
220
0.0
230
1.0
 70
     8
 71
     3
 72
     8
 73
     4
 74
     0
 42
0.000000001
 43
0.00000001
 40
0.0
 40
0.0
 40
0.0
 40
0.0
 40
1.0
 40
1.0
 40
1.0
 40
1.0
 10
1.362580411240883
 20
-0.0072722243879465
 30
0.0
 10
1.243749477907549
 20
-0.0090615577212794
 30
0.0
 10
1.166842811240882
 20
-0.0090615577212794
 30
0.0
 10
1.131860411240881
 20
-0.0072722243879465
 30
0.0
  0
SPLINE
  5
7B
330
1F
100
AcDbEntity
  8
0
  6
Continuous
 62
     7
370
    15
100
AcDbSpline
210
0.0
220
0.0
230
1.0
 70
     8
 71
     3
 72
     8
 73
     4
 74
     0
 42
0.000000001
 43
0.00000001
 40
0.0
 40
0.0
 40
0.0
 40
0.0
 40
1.0
 40
1.0
 40
1.0
 40
1.0
 10
1.271793211240882
 20
0.0815597756120536
 30
0.0
 10
1.268023611240882
 20
0.0677027089453872
 30
0.0
 10
1.298286011240882
 20
0.0380920422787205
 30
0.0
 10
1.362580411240883
 20
-0.0072722243879465
 30
0.0
  0
SPLINE
  5
7D
330
1F
100
AcDbEntity
  8
0
  6
Continuous
 62
     7
370
    15
100
AcDbSpline
210
0.0
220
0.0
230
1.0
 70
     8
 71
     3
 72
     8
 73
     4
 74
     0
 42
0.000000001
 43
0.00000001
 40
0.0
 40
0.0
 40
0.0
 40
0.0
 40
1.0
 40
1.0
 40
1.0
 40
1.0
 10
1.182899131240882
 20
0.6843508156120555
 30
0.0
 10
1.146983931240882
 20
0.6503012156120557
 30
0.0
 10
1.124285211240882
 20
0.6163040956120565
 30
0.0
 10
1.126150331240881
 20
0.6068948156120562
 30
0.0
  0
SPLINE
  5
7F
330
1F
100
AcDbEntity
  8
0
  6
Continuous
 62
     7
370
    15
100
AcDbSpline
210
0.0
220
0.0
230
1.0
 70
     8
 71
     3
 72
     8
 73
     4
 74
     0
 42
0.000000001
 43
0.00000001
 40
0.0
 40
0.0
 40
0.0
 40
0.0
 40
1.0
 40
1.0
 40
1.0
 40
1.0
 10
0.8310316112408821
 20
0.6881108156120553
 30
0.0
 10
0.9517569445742152
 20
0.6887325756120558
 30
0.0
 10
1.069900944574215
 20
0.6892307622787229
 30
0.0
 10
1.185463611240881
 20
0.6896053756120568
 30
0.0
  0
SPLINE
  5
80
330
1F
100
AcDbEntity
  8
0
  6
Continuous
 62
     7
370
    15
100
AcDbSpline
210
0.0
220
0.0
230
1.0
 70
     8
 71
     3
 72
     8
 73
     4
 74
     0
 42
0.000000001
 43
0.00000001
 40
0.0
 40
0.0
 40
0.0
 40
0.0
 40
1.0
 40
1.0
 40
1.0
 40
1.0
 10
0.5946636112408807
 20
0.0513428156120546
 30
0.0
 10
0.6759820112408804
 20
0.2497428156120549
 30
0.0
 10
0.7838172112408818
 20
0.5728436156120568
 30
0.0
 10
0.8310316112408821
 20
0.6881108156120553
 30
0.0
  0
SPLINE
  5
81
330
1F
100
AcDbEntity
  8
0
  6
Continuous
 62
     7
370
    15
100
AcDbSpline
210
0.0
220
0.0
230
1.0
 70
     8
 71
     3
 72
     8
 73
     4
 74
     0
 42
0.000000001
 43
0.00000001
 40
0.0
 40
0.0
 40
0.0
 40
0.0
 40
1.0
 40
1.0
 40
1.0
 40
1.0
 10
0.5360492112408792
 20
-0.0110251843879464
 30
0.0
 10
0.5608022779075473
 20
-0.0044257177212792
 30
0.0
 10
0.580340411240881
 20
0.0163636156120545
 30
0.0
 10
0.5946636112408807
 20
0.0513428156120546
 30
0.0
  0
SPLINE
  5
82
330
1F
100
AcDbEntity
  8
0
  6
Continuous
 62
     7
370
    15
100
AcDbSpline
210
0.0
220
0.0
230
1.0
 70
     8
 71
     3
 72
     8
 73
     4
 74
     0
 42
0.000000001
 43
0.00000001
 40
0.0
 40
0.0
 40
0.0
 40
0.0
 40
1.0
 40
1.0
 40
1.0
 40
1.0
 10
0.9559052112408817
 20
-0.0091122243879465
 30
0.0
 10
0.9573132112408815
 20
-0.0104219843879461
 30
0.0
 10
0.6835132112408813
 20
-0.0091122243879465
 30
0.0
 10
0.5360492112408792
 20
-0.0110251843879464
 30
0.0
  0
SPLINE
  5
83
330
1F
100
AcDbEntity
  8
0
  6
Continuous
 62
     7
370
    15
100
AcDbSpline
210
0.0
220
0.0
230
1.0
 70
     8
 71
     3
 72
     8
 73
     4
 74
     0
 42
0.000000001
 43
0.00000001
 40
0.0
 40
0.0
 40
0.0
 40
0.0
 40
1.0
 40
1.0
 40
1.0
 40
1.0
 10
0.9237260112408818
 20
0.1533677756120545
 30
0.0
 10
0.8915708112408812
 20
0.0569917756120541
 30
0.0
 10
0.882113211240882
 20
0.0569917756120541
 30
0.0
 10
0.9559052112408817
 20
-0.0091122243879465
 30
0.0
  0
SPLINE
  5
87
330
1F
100
AcDbEntity
  8
0
  6
Continuous
 62
     7
370
    15
100
AcDbSpline
210
0.0
220
0.0
230
1.0
 70
     8
 71
     3
 72
     8
 73
     4
 74
     0
 42
0.000000001
 43
0.00000001
 40
0.0
 40
0.0
 40
0.0
 40
0.0
 40
0.799344586778249
 40
0.799344586778249
 40
0.799344586778249
 40
0.799344586778249
 10
3.696362774630539
 20
0.1145353948898666
 30
0.0
 10
3.696182245183359
 20
0.0975778374409481
 30
0.0
 10
3.702611144578557
 20
0.0540904740114911
 30
0.0
 10
3.770646239999766
 20
0.0178411562146019
 30
0.0
  0
SPLINE
  5
88
330
1F
100
AcDbEntity
  8
0
  6
Continuous
 62
     7
370
    15
100
AcDbSpline
210
0.0
220
0.0
230
1.0
 70
     8
 71
     3
 72
     8
 73
     4
 74
     0
 42
0.000000001
 43
0.00000001
 40
0.8039728399358889
 40
0.8039728399358889
 40
0.8039728399358889
 40
0.8039728399358889
 40
1.0
 40
1.0
 40
1.0
 40
1.0
 10
4.267521860997518
 20
-0.1200255271150314
 30
0.0
 10
4.107112051808416
 20
-0.025061816050117
 30
0.0
 10
3.912183431478924
 20
0.0490878093632172
 30
0.0
 10
3.696362774630539
 20
0.1145353948898666
 30
0.0
  0
SPLINE
  5
8A
330
1F
100
AcDbEntity
  8
0
  6
Continuous
 62
     7
370
    15
100
AcDbSpline
210
0.0
220
0.0
230
1.0
 70
     8
 71
     3
 72
     8
 73
     4
 74
     0
 42
0.000000001
 43
0.00000001
 40
0.0
 40
0.0
 40
0.0
 40
0.0
 40
0.6411060559498849
 40
0.6411060559498849
 40
0.6411060559498849
 40
0.6411060559498849
 10
3.697766021389138
 20
0.196585620571037
 30
0.0
 10
3.921153892807916
 20
0.1051627223892009
 30
0.0
 10
4.096976791966897
 20
0.0115549578234683
 30
0.0
 10
4.278849860997519
 20
-0.1095679271150324
 30
0.0
  0
SPLINE
  5
8B
330
1F
100
AcDbEntity
  8
0
  6
Continuous
 62
     7
370
    15
100
AcDbSpline
210
0.0
220
0.0
230
1.0
 70
     8
 71
     3
 72
     8
 73
     4
 74
     0
 42
0.000000001
 43
0.00000001
 40
0.1216833234685961
 40
0.1216833234685961
 40
0.1216833234685961
 40
0.1216833234685961
 40
1.0
 40
1.0
 40
1.0
 40
1.0
 10
3.697511839999516
 20
0.6243963562146465
 30
0.0
 10
3.697511839999516
 20
0.5231580628109302
 30
0.0
 10
3.699384156184355
 20
0.3731030345464077
 30
0.0
 10
3.697766021389138
 20
0.196585620571037
 30
0.0
  0
SPLINE
  5
8C
330
1F
100
AcDbEntity
  8
0
  6
Continuous
 62
     7
370
    15
100
AcDbSpline
210
0.0
220
0.0
230
1.0
 70
     8
 71
     3
 72
     8
 73
     4
 74
     0
 42
0.000000001
 43
0.00000001
 40
0.0
 40
0.0
 40
0.0
 40
0.0
 40
1.0
 40
1.0
 40
1.0
 40
1.0
 10
3.757404639999517
 20
0.7132043562146466
 30
0.0
 10
3.698797119999516
 20
0.6414219562146467
 30
0.0
 10
3.697511839999516
 20
0.6432859562146456
 30
0.0
 10
3.697511839999516
 20
0.6243963562146465
 30
0.0
  0
SPLINE
  5
8E
330
1F
100
AcDbEntity
  8
0
  6
Continuous
 62
     7
370
    15
100
AcDbSpline
210
0.0
220
0.0
230
1.0
 70
     8
 71
     3
 72
     8
 73
     4
 74
     0
 42
0.000000001
 43
0.00000001
 40
0.0
 40
0.0
 40
0.0
 40
0.0
 40
1.0
 40
1.0
 40
1.0
 40
1.0
 10
3.456655999999998
 20
0.7132072362142111
 30
0.0
 10
3.460448
 20
0.7170091562142118
 30
0.0
 10
3.428607999999998
 20
0.7138110762142116
 30
0.0
 10
3.753151999999999
 20
0.7163576362142122
 30
0.0
  0
SPLINE
  5
8F
330
1F
100
AcDbEntity
  8
0
  6
Continuous
 62
     7
370
    15
100
AcDbSpline
210
0.0
220
0.0
230
1.0
 70
     8
 71
     3
 72
     8
 73
     4
 74
     0
 42
0.000000001
 43
0.00000001
 40
0.0
 40
0.0
 40
0.0
 40
0.0
 40
0.7182809761365696
 40
0.7182809761365696
 40
0.7182809761365696
 40
0.7182809761365696
 10
3.246661298645329
 20
0.3597142026850313
 30
0.0
 10
3.32066464521911
 20
0.4879986648467922
 30
0.0
 10
3.452581105828659
 20
0.7132072362142111
 30
0.0
 10
3.456655999999998
 20
0.7132072362142111
 30
0.0
  0
SPLINE
  5
90
330
1F
100
AcDbEntity
  8
0
  6
Continuous
 62
     7
370
    15
100
AcDbSpline
210
0.0
220
0.0
230
1.0
 70
     8
 71
     3
 72
     8
 73
     4
 74
     0
 42
0.000000001
 43
0.00000001
 40
0.0113401651631999
 40
0.0113401651631999
 40
0.0113401651631999
 40
0.0113401651631999
 40
0.0368172947418884
 40
0.0368172947418884
 40
0.0368172947418884
 40
0.0368172947418884
 10
3.198074152299029
 20
0.3757088718663389
 30
0.0
 10
3.214171548484245
 20
0.3704183854024896
 30
0.0
 10
3.230365781530114
 20
0.3650880713766508
 30
0.0
 10
3.246661298645329
 20
0.3597142026850313
 30
0.0
  0
SPLINE
  5
92
330
1F
100
AcDbEntity
  8
0
  6
Continuous
 62
     7
370
    15
100
AcDbSpline
210
0.0
220
0.0
230
1.0
 70
     8
 71
     3
 72
     8
 73
     4
 74
     0
 42
0.000000001
 43
0.00000001
 40
0.0
 40
0.0
 40
0.0
 40
0.0
 40
1.0
 40
1.0
 40
1.0
 40
1.0
 10
3.259941439999722
 20
0.7131992362143661
 30
0.0
 10
3.261807039999721
 20
0.7131992362143661
 30
0.0
 10
3.199415039999721
 20
0.6470664362143667
 30
0.0
 10
3.199415039999721
 20
0.6243912362143668
 30
0.0
  0
SPLINE
  5
93
330
1F
100
AcDbEntity
  8
0
  6
Continuous
 62
     7
370
    15
100
AcDbSpline
210
0.0
220
0.0
230
1.0
 70
     8
 71
     3
 72
     8
 73
     4
 74
     0
 42
0.000000001
 43
0.00000001
 40
0.0
 40
0.0
 40
0.0
 40
0.0
 40
1.0
 40
1.0
 40
1.0
 40
1.0
 10
3.04622943999972
 20
0.7113041962143667
 30
0.0
 10
3.126948373333054
 20
0.7125675562143663
 30
0.0
 10
3.198185706666388
 20
0.7131992362143661
 30
0.0
 10
3.259941439999722
 20
0.7131992362143661
 30
0.0
  0
SPLINE
  5
94
330
1F
100
AcDbEntity
  8
0
  6
Continuous
 62
     7
370
    15
100
AcDbSpline
210
0.0
220
0.0
230
1.0
 70
     8
 71
     3
 72
     8
 73
     4
 74
     0
 42
0.000000001
 43
0.00000001
 40
0.0
 40
0.0
 40
0.0
 40
0.0
 40
1.0
 40
1.0
 40
1.0
 40
1.0
 10
3.101035839999721
 20
0.6300401962143659
 30
0.0
 10
3.100658239999721
 20
0.6627329962143657
 30
0.0
 10
3.09159583999972
 20
0.6583937962143663
 30
0.0
 10
3.04622943999972
 20
0.7113041962143667
 30
0.0
  0
SPLINE
  5
95
330
1F
100
AcDbEntity
  8
0
  6
Continuous
 62
     7
370
    15
100
AcDbSpline
210
0.0
220
0.0
230
1.0
 70
     8
 71
     3
 72
     8
 73
     4
 74
     0
 42
0.000000001
 43
0.00000001
 40
0.0
 40
0.0
 40
0.0
 40
0.0
 40
0.5122027011076623
 40
0.5122027011076623
 40
0.5122027011076623
 40
0.5122027011076623
 10
3.102453717869047
 20
0.407056853077802
 30
0.0
 10
3.102324347784016
 20
0.4989359469854003
 30
0.0
 10
3.101691049694978
 20
0.5761843358847805
 30
0.0
 10
3.101035839999721
 20
0.630040196214366
 30
0.0
  0
SPLINE
  5
96
330
1F
100
AcDbEntity
  8
0
  6
Continuous
 62
     7
370
    15
100
AcDbSpline
210
0.0
220
0.0
230
1.0
 70
     8
 71
     3
 72
     8
 73
     4
 74
     0
 42
0.000000001
 43
0.00000001
 40
0.0878593106814453
 40
0.0878593106814453
 40
0.0878593106814453
 40
0.0878593106814453
 40
0.3008037117334281
 40
0.3008037117334281
 40
0.3008037117334281
 40
0.3008037117334281
 10
2.723928085789737
 20
0.5314822959234111
 30
0.0
 10
2.845691851680781
 20
0.4908170025778409
 30
0.0
 10
2.971001469954611
 20
0.4500672881524788
 30
0.0
 10
3.102453717869047
 20
0.4070568530778019
 30
0.0
  0
SPLINE
  5
98
330
1F
100
AcDbEntity
  8
0
  6
Continuous
 62
     7
370
    15
100
AcDbSpline
210
0.0
220
0.0
230
1.0
 70
     8
 71
     3
 72
     8
 73
     4
 74
     0
 42
0.000000001
 43
0.00000001
 40
0.0
 40
0.0
 40
0.0
 40
0.0
 40
1.0
 40
1.0
 40
1.0
 40
1.0
 10
2.75836928085798
 20
0.6894020062310625
 30
0.0
 10
2.722454080857978
 20
0.6553524062310659
 30
0.0
 10
2.699755360857974
 20
0.6213552862310684
 30
0.0
 10
2.701620480857972
 20
0.6119460062310679
 30
0.0
  0
SPLINE
  5
9A
330
1F
100
AcDbEntity
  8
0
  6
Continuous
 62
     7
370
    15
100
AcDbSpline
210
0.0
220
0.0
230
1.0
 70
     8
 71
     3
 72
     8
 73
     4
 74
     0
 42
0.000000001
 43
0.00000001
 40
0.0
 40
0.0
 40
0.0
 40
0.0
 40
1.0
 40
1.0
 40
1.0
 40
1.0
 10
2.40650176085798
 20
0.6931620062310648
 30
0.0
 10
2.527227094191313
 20
0.6937837662310645
 30
0.0
 10
2.645371094191313
 20
0.6942819528977308
 30
0.0
 10
2.760933760857979
 20
0.694656566231064
 30
0.0
  0
SPLINE
  5
9B
330
1F
100
AcDbEntity
  8
0
  6
Continuous
 62
     7
370
    15
100
AcDbSpline
210
0.0
220
0.0
230
1.0
 70
     8
 71
     3
 72
     8
 73
     4
 74
     0
 42
0.000000001
 43
0.00000001
 40
0.0
 40
0.0
 40
0.0
 40
0.0
 40
0.1112228371514779
 40
0.1112228371514779
 40
0.1112228371514779
 40
0.1112228371514779
 10
2.388617961178229
 20
0.647445471232651
 30
0.0
 10
2.395249211024421
 20
0.66495030659966
 30
0.0
 10
2.401250441335575
 20
0.6803416612165583
 30
0.0
 10
2.40650176085798
 20
0.6931620062310648
 30
0.0
  0
SPLINE
  5
9C
330
1F
100
AcDbEntity
  8
0
  6
Continuous
 62
     7
370
    15
100
AcDbSpline
210
0.0
220
0.0
230
1.0
 70
     8
 71
     3
 72
     8
 73
     4
 74
     0
 42
0.000000001
 43
0.00000001
 40
0.5004749238661488
 40
0.5004749238661488
 40
0.5004749238661488
 40
0.5004749238661488
 40
1.0
 40
1.0
 40
1.0
 40
1.0
 10
1.547265861018666
 20
1.006361673179758
 30
0.0
 10
1.84395018815706
 20
0.8572298603702089
 30
0.0
 10
2.11322745463917
 20
0.7469553252607355
 30
0.0
 10
2.388617961178229
 20
0.647445471232651
 30
0.0
  0
SPLINE
  5
9D
330
1F
100
AcDbEntity
  8
0
  6
Continuous
 62
     7
370
    15
100
AcDbSpline
210
0.0
220
0.0
230
1.0
 70
     8
 71
     3
 72
     8
 73
     4
 74
     0
 42
0.000000001
 43
0.00000001
 40
0.0
 40
0.0
 40
0.0
 40
0.0
 40
0.9994113964061345
 40
0.9994113964061345
 40
0.9994113964061345
 40
0.9994113964061345
 10
0.6553975135547747
 20
1.699636051543686
 30
0.0
 10
0.8206408531043011
 20
1.439250597989997
 30
0.0
 10
1.281566344815712
 20
1.139889431972544
 30
0.0
 10
1.547265861018666
 20
1.006361673179758
 30
0.0
  0
SPLINE
  5
9E
330
1F
100
AcDbEntity
  8
0
  6
Continuous
 62
     7
370
    15
100
AcDbSpline
210
0.0
220
0.0
230
1.0
 70
     8
 71
     3
 72
     8
 73
     4
 74
     0
 42
0.000000001
 43
0.00000001
 40
0.0002184681927085
 40
0.0002184681927085
 40
0.0002184681927085
 40
0.0002184681927085
 40
0.539812329763785
 40
0.539812329763785
 40
0.539812329763785
 40
0.539812329763785
 10
1.500509407954458
 20
0.7101921016583842
 30
0.0
 10
1.105226094114688
 20
1.008532990927292
 30
0.0
 10
0.7796757369860798
 20
1.331457301999795
 30
0.0
 10
0.6553975135547747
 20
1.699636051543686
 30
0.0
  0
SPLINE
  5
A0
330
1F
100
AcDbEntity
  8
0
  6
Continuous
 62
     7
370
    15
100
AcDbSpline
210
0.0
220
0.0
230
1.0
 70
     8
 71
     3
 72
     8
 73
     4
 74
     0
 42
0.000000001
 43
0.00000001
 40
0.7284068488886795
 40
0.7284068488886795
 40
0.7284068488886795
 40
0.7284068488886795
 40
0.8472852671960178
 40
0.8472852671960178
 40
0.8472852671960178
 40
0.8472852671960178
 10
1.368892622534008
 20
0.9120855900302199
 30
0.0
 10
1.449272300082897
 20
0.8435757643609876
 30
0.0
 10
1.523453712941589
 20
0.7826866933665114
 30
0.0
 10
1.59271680002392
 20
0.7278656600357813
 30
0.0
  0
SPLINE
  5
A1
330
1F
100
AcDbEntity
  8
0
  6
Continuous
 62
     7
370
    15
100
AcDbSpline
210
0.0
220
0.0
230
1.0
 70
     8
 71
     3
 72
     8
 73
     4
 74
     0
 42
0.000000001
 43
0.00000001
 40
0.15771687329097
 40
0.15771687329097
 40
0.15771687329097
 40
0.15771687329097
 40
0.2653929099843718
 40
0.2653929099843718
 40
0.2653929099843718
 40
0.2653929099843718
 10
1.726972829539167
 20
0.7081168990195532
 30
0.0
 10
1.601867320488365
 20
0.7680223908868752
 30
0.0
 10
1.48175445036193
 20
0.8353428335121192
 30
0.0
 10
1.368892622534008
 20
0.9120855900302199
 30
0.0
  0
SPLINE
  5
A2
330
1F
100
AcDbEntity
  8
0
  6
Continuous
 62
     7
370
    15
100
AcDbSpline
210
0.0
220
0.0
230
1.0
 70
     8
 71
     3
 72
     8
 73
     4
 74
     0
 42
0.000000001
 43
0.00000001
 40
0.0
 40
0.0
 40
0.0
 40
0.0
 40
0.0849093201377993
 40
0.0849093201377993
 40
0.0849093201377993
 40
0.0849093201377993
 10
1.627567999893618
 20
0.6999144363220278
 30
0.0
 10
1.663494831430323
 20
0.7058424654167686
 30
0.0
 10
1.696603577393458
 20
0.7084192451425617
 30
0.0
 10
1.726972829539167
 20
0.7081168990195532
 30
0.0
  0
SPLINE
  5
A3
330
1F
100
AcDbEntity
  8
0
  6
Continuous
 62
     7
370
    15
100
AcDbSpline
210
0.0
220
0.0
230
1.0
 70
     8
 71
     3
 72
     8
 73
     4
 74
     0
 42
0.000000001
 43
0.00000001
 40
0.0
 40
0.0
 40
0.0
 40
0.0
 40
1.0
 40
1.0
 40
1.0
 40
1.0
 10
1.451679999893619
 20
0.716933636322029
 30
0.0
 10
1.510342399893619
 20
0.6696712363220286
 30
0.0
 10
1.480750399893618
 20
0.675698436322028
 30
0.0
 10
1.627567999893618
 20
0.6999144363220278
 30
0.0
  0
SPLINE
  5
A4
330
1F
100
AcDbEntity
  8
0
  6
Continuous
 62
     7
370
    15
100
AcDbSpline
210
0.0
220
0.0
230
1.0
 70
     8
 71
     3
 72
     8
 73
     4
 74
     0
 42
0.000000001
 43
0.00000001
 40
0.0
 40
0.0
 40
0.0
 40
0.0
 40
1.0
 40
1.0
 40
1.0
 40
1.0
 10
1.451679999893619
 20
0.5392856363220281
 30
0.0
 10
1.454202773226951
 20
0.628751236322028
 30
0.0
 10
1.454202773226951
 20
0.6879672363220283
 30
0.0
 10
1.451679999893619
 20
0.716933636322029
 30
0.0
  0
SPLINE
  5
A6
330
1F
100
AcDbEntity
  8
0
  6
Continuous
 62
     7
370
    15
100
AcDbSpline
210
0.0
220
0.0
230
1.0
 70
     8
 71
     3
 72
     8
 73
     4
 74
     0
 42
0.000000001
 43
0.00000001
 40
0.7416279242143501
 40
0.7416279242143501
 40
0.7416279242143501
 40
0.7416279242143501
 40
1.0
 40
1.0
 40
1.0
 40
1.0
 10
1.62817862873708
 20
0.6161751155823797
 30
0.0
 10
1.575983089711372
 20
0.6084230698412091
 30
0.0
 10
1.515169043056662
 20
0.5847767517649628
 30
0.0
 10
1.453599680168853
 20
0.5374136364130456
 30
0.0
  0
SPLINE
  5
A8
330
1F
100
AcDbEntity
  8
0
  6
Continuous
 62
     7
370
    15
100
AcDbSpline
210
0.0
220
0.0
230
1.0
 70
     8
 71
     3
 72
     8
 73
     4
 74
     0
 42
0.000000001
 43
0.00000001
 40
0.6102293448341304
 40
0.6102293448341304
 40
0.6102293448341304
 40
0.6102293448341304
 40
0.6560960436677982
 40
0.6560960436677982
 40
0.6560960436677982
 40
0.6560960436677982
 10
1.764461773499479
 20
0.5205308393308179
 30
0.0
 10
1.728826301043269
 20
0.5450714437005824
 30
0.0
 10
1.69348985808202
 20
0.5697574861766781
 30
0.0
 10
1.658533232562389
 20
0.5946016623607514
 30
0.0
  0
SPLINE
  5
A9
330
1F
100
AcDbEntity
  8
0
  6
Continuous
 62
     7
370
    15
100
AcDbSpline
210
0.0
220
0.0
230
1.0
 70
     8
 71
     3
 72
     8
 73
     4
 74
     0
 42
0.000000001
 43
0.00000001
 40
0.0
 40
0.0
 40
0.0
 40
0.0
 40
0.1756260118890813
 40
0.1756260118890813
 40
0.1756260118890813
 40
0.1756260118890813
 10
1.678655680231937
 20
0.475063236382581
 30
0.0
 10
1.72084526331198
 20
0.4880072949612347
 30
0.0
 10
1.748624090561485
 20
0.5039821090463674
 30
0.0
 10
1.764461773499479
 20
0.5205308393308179
 30
0.0
  0
SPLINE
  5
AA
330
1F
100
AcDbEntity
  8
0
  6
Continuous
 62
     7
370
    15
100
AcDbSpline
210
0.0
220
0.0
230
1.0
 70
     8
 71
     3
 72
     8
 73
     4
 74
     0
 42
0.000000001
 43
0.00000001
 40
0.0
 40
0.0
 40
0.0
 40
0.0
 40
1.0
 40
1.0
 40
1.0
 40
1.0
 10
1.525470080231937
 20
0.0253672363825799
 30
0.0
 10
1.254942080231935
 20
0.163279236382581
 30
0.0
 10
1.389961280231937
 20
0.386519236382581
 30
0.0
 10
1.678655680231937
 20
0.475063236382581
 30
0.0
  0
SPLINE
  5
AB
330
1F
100
AcDbEntity
  8
0
  6
Continuous
 62
     7
370
    15
100
AcDbSpline
210
0.0
220
0.0
230
1.0
 70
     8
 71
     3
 72
     8
 73
     4
 74
     0
 42
0.000000001
 43
0.00000001
 40
0.0
 40
0.0
 40
0.0
 40
0.0
 40
1.0
 40
1.0
 40
1.0
 40
1.0
 10
1.898046080231939
 20
0.0215592363825806
 30
0.0
 10
1.896180960231937
 20
0.0215592363825806
 30
0.0
 10
1.701246080231937
 20
-0.0643255636174206
 30
0.0
 10
1.525470080231937
 20
0.0253672363825799
 30
0.0
  0
SPLINE
  5
AC
330
1F
100
AcDbEntity
  8
0
  6
Continuous
 62
     7
370
    15
100
AcDbSpline
210
0.0
220
0.0
230
1.0
 70
     8
 71
     3
 72
     8
 73
     4
 74
     0
 42
0.000000001
 43
0.00000001
 40
0.0
 40
0.0
 40
0.0
 40
0.0
 40
1.0
 40
1.0
 40
1.0
 40
1.0
 10
1.983207680231938
 20
-0.0445687636174202
 30
0.0
 10
1.968075946898605
 20
-0.0289858302840869
 30
0.0
 10
1.939688746898605
 20
-0.0069431636174199
 30
0.0
 10
1.898046080231939
 20
0.0215592363825806
 30
0.0
  0
SPLINE
  5
AE
330
1F
100
AcDbEntity
  8
0
  6
Continuous
 62
     7
370
    15
100
AcDbSpline
210
0.0
220
0.0
230
1.0
 70
     8
 71
     3
 72
     8
 73
     4
 74
     0
 42
0.000000001
 43
0.00000001
 40
0.0
 40
0.0
 40
0.0
 40
0.0
 40
1.0
 40
1.0
 40
1.0
 40
1.0
 10
1.620048000231937
 20
0.1274088363825799
 30
0.0
 10
1.629505120231937
 20
0.1046872363825805
 30
0.0
 10
1.805392000231937
 20
0.0215576363825794
 30
0.0
 10
1.986944000231939
 20
0.1897352363825799
 30
0.0
  0
SPLINE
  5
AF
330
1F
100
AcDbEntity
  8
0
  6
Continuous
 62
     7
370
    15
100
AcDbSpline
210
0.0
220
0.0
230
1.0
 70
     8
 71
     3
 72
     8
 73
     4
 74
     0
 42
0.000000001
 43
0.00000001
 40
0.0
 40
0.0
 40
0.0
 40
0.0
 40
1.0
 40
1.0
 40
1.0
 40
1.0
 10
1.852672000231939
 20
0.2861064363825809
 30
0.0
 10
1.659392000231936
 20
0.2117112363825807
 30
0.0
 10
1.590896000231937
 20
0.1971368363825807
 30
0.0
 10
1.620048000231937
 20
0.1274088363825799
 30
0.0
  0
SPLINE
  5
B0
330
1F
100
AcDbEntity
  8
0
  6
Continuous
 62
     7
370
    15
100
AcDbSpline
210
0.0
220
0.0
230
1.0
 70
     8
 71
     3
 72
     8
 73
     4
 74
     0
 42
0.000000001
 43
0.00000001
 40
0.7739910823627002
 40
0.7739910823627002
 40
0.7739910823627002
 40
0.7739910823627002
 40
1.0
 40
1.0
 40
1.0
 40
1.0
 10
1.967084682372692
 20
0.3842354082374854
 30
0.0
 10
1.943343515132509
 20
0.341810162823765
 30
0.0
 10
1.904711909571432
 20
0.3061326345565868
 30
0.0
 10
1.852672000231939
 20
0.2861064363825809
 30
0.0
  0
SPLINE
  5
B2
330
1F
100
AcDbEntity
  8
0
  6
Continuous
 62
     7
370
    15
100
AcDbSpline
210
0.0
220
0.0
230
1.0
 70
     8
 71
     3
 72
     8
 73
     4
 74
     0
 42
0.000000001
 43
0.00000001
 40
0.4041998591907948
 40
0.4041998591907948
 40
0.4041998591907948
 40
0.4041998591907948
 40
0.6804021715791608
 40
0.6804021715791608
 40
0.6804021715791608
 40
0.6804021715791608
 10
1.957538227399666
 20
0.6076744909480951
 30
0.0
 10
1.99292189202835
 20
0.5579716708843185
 30
0.0
 10
2.002444996549214
 20
0.4965894377377241
 30
0.0
 10
1.988812700191172
 20
0.4397784691917286
 30
0.0
  0
SPLINE
  5
B3
330
1F
100
AcDbEntity
  8
0
  6
Continuous
 62
     7
370
    15
100
AcDbSpline
210
0.0
220
0.0
230
1.0
 70
     8
 71
     3
 72
     8
 73
     4
 74
     0
 42
0.000000001
 43
0.00000001
 40
0.3301283519577636
 40
0.3301283519577636
 40
0.3301283519577636
 40
0.3301283519577636
 40
0.4298362945489242
 40
0.4298362945489242
 40
0.4298362945489242
 40
0.4298362945489242
 10
2.327047540771634
 20
0.4783856941000918
 30
0.0
 10
2.201956436654638
 20
0.5172212518166099
 30
0.0
 10
2.078188925503762
 20
0.5597862211602173
 30
0.0
 10
1.957538227399666
 20
0.6076744909480951
 30
0.0
  0
SPLINE
  5
B4
330
1F
100
AcDbEntity
  8
0
  6
Continuous
 62
     7
370
    15
100
AcDbSpline
210
0.0
220
0.0
230
1.0
 70
     8
 71
     3
 72
     8
 73
     4
 74
     0
 42
0.000000001
 43
0.00000001
 40
0.3970448681928159
 40
0.3970448681928159
 40
0.3970448681928159
 40
0.3970448681928159
 40
0.6826147336017866
 40
0.6826147336017866
 40
0.6826147336017866
 40
0.6826147336017866
 10
2.25278902763149
 20
0.272354769286472
 30
0.0
 10
2.278311210633852
 20
0.3420506850871535
 30
0.0
 10
2.303740476181118
 20
0.4133090430788685
 30
0.0
 10
2.327047540771634
 20
0.4783856941000918
 30
0.0
  0
SPLINE
  5
B5
330
1F
100
AcDbEntity
  8
0
  6
Continuous
 62
     7
370
    15
100
AcDbSpline
210
0.0
220
0.0
230
1.0
 70
     8
 71
     3
 72
     8
 73
     4
 74
     0
 42
0.000000001
 43
0.00000001
 40
0.2662029665978466
 40
0.2662029665978466
 40
0.2662029665978466
 40
0.2662029665978466
 40
0.4269425530004697
 40
0.4269425530004697
 40
0.4269425530004697
 40
0.4269425530004697
 10
2.045637163041877
 20
0.402548592016541
 30
0.0
 10
2.116690907269477
 20
0.3565350067656503
 30
0.0
 10
2.184686832375235
 20
0.3144165371346637
 30
0.0
 10
2.25278902763149
 20
0.272354769286472
 30
0.0
  0
SPLINE
  5
B7
330
1F
100
AcDbEntity
  8
0
  6
Continuous
 62
     7
370
    15
100
AcDbSpline
210
0.0
220
0.0
230
1.0
 70
     8
 71
     3
 72
     8
 73
     4
 74
     0
 42
0.000000001
 43
0.00000001
 40
0.7643023436141113
 40
0.7643023436141113
 40
0.7643023436141113
 40
0.7643023436141113
 40
0.8519136602337737
 40
0.8519136602337737
 40
0.8519136602337737
 40
0.8519136602337737
 10
2.230939296962078
 20
0.2131836397674319
 30
0.0
 10
2.160806514784175
 20
0.2581293074166108
 30
0.0
 10
2.090506347620068
 20
0.3034078620328002
 30
0.0
 10
2.02060182962297
 20
0.3491077828708677
 30
0.0
  0
SPLINE
  5
B8
330
1F
100
AcDbEntity
  8
0
  6
Continuous
 62
     7
370
    15
100
AcDbSpline
210
0.0
220
0.0
230
1.0
 70
     8
 71
     3
 72
     8
 73
     4
 74
     0
 42
0.000000001
 43
0.00000001
 40
0.7641991892501937
 40
0.7641991892501937
 40
0.7641991892501937
 40
0.7641991892501937
 40
1.0
 40
1.0
 40
1.0
 40
1.0
 10
2.17013376114015
 20
0.056394006369742
 30
0.0
 10
2.189308705789028
 20
0.1031768872225036
 30
0.0
 10
2.209958038144162
 20
0.1568933847439612
 30
0.0
 10
2.230939296962078
 20
0.2131836397674319
 30
0.0
  0
SPLINE
  5
B9
330
1F
100
AcDbEntity
  8
0
  6
Continuous
 62
     7
370
    15
100
AcDbSpline
210
0.0
220
0.0
230
1.0
 70
     8
 71
     3
 72
     8
 73
     4
 74
     0
 42
0.000000001
 43
0.00000001
 40
0.0
 40
0.0
 40
0.0
 40
0.0
 40
1.0
 40
1.0
 40
1.0
 40
1.0
 10
2.111519361140149
 20
-0.0059739936302593
 30
0.0
 10
2.136272427806817
 20
0.0006254730364079
 30
0.0
 10
2.155810561140151
 20
0.0214148063697419
 30
0.0
 10
2.170133761140151
 20
0.056394006369742
 30
0.0
  0
SPLINE
  5
BA
330
1F
100
AcDbEntity
  8
0
  6
Continuous
 62
     7
370
    15
100
AcDbSpline
210
0.0
220
0.0
230
1.0
 70
     8
 71
     3
 72
     8
 73
     4
 74
     0
 42
0.000000001
 43
0.00000001
 40
0.0
 40
0.0
 40
0.0
 40
0.0
 40
1.0
 40
1.0
 40
1.0
 40
1.0
 10
2.531375361140152
 20
-0.0040610336302605
 30
0.0
 10
2.532783361140152
 20
-0.00537079363026
 30
0.0
 10
2.258983361140151
 20
-0.0040610336302599
 30
0.0
 10
2.111519361140149
 20
-0.0059739936302593
 30
0.0
  0
SPLINE
  5
BB
330
1F
100
AcDbEntity
  8
0
  6
Continuous
 62
     7
370
    15
100
AcDbSpline
210
0.0
220
0.0
230
1.0
 70
     8
 71
     3
 72
     8
 73
     4
 74
     0
 42
0.000000001
 43
0.00000001
 40
0.0
 40
0.0
 40
0.0
 40
0.0
 40
0.4062685827601172
 40
0.4062685827601172
 40
0.4062685827601172
 40
0.4062685827601172
 10
2.47859893179112
 20
0.0546699916177949
 30
0.0
 10
2.485157311531799
 20
0.0387401828782074
 30
0.0
 10
2.501395989881118
 20
0.0227949447645141
 30
0.0
 10
2.531375361140152
 20
-0.0040610336302605
 30
0.0
  0
SPLINE
  5
BC
330
1F
100
AcDbEntity
  8
0
  6
Continuous
 62
     7
370
    15
100
AcDbSpline
210
0.0
220
0.0
230
1.0
 70
     8
 71
     3
 72
     8
 73
     4
 74
     0
 42
0.000000001
 43
0.00000001
 40
0.955724440183856
 40
0.955724440183856
 40
0.955724440183856
 40
0.955724440183856
 40
1.0
 40
1.0
 40
1.0
 40
1.0
 10
2.582414661181272
 20
-0.0123007269751684
 30
0.0
 10
2.548070994943086
 20
0.0099722173619104
 30
0.0
 10
2.513441528973773
 20
0.0322919836742552
 30
0.0
 10
2.47859893179112
 20
0.0546699916177949
 30
0.0
  0
SPLINE
  5
BD
330
1F
100
AcDbEntity
  8
0
  6
Continuous
 62
     7
370
    15
100
AcDbSpline
210
0.0
220
0.0
230
1.0
 70
     8
 71
     3
 72
     8
 73
     4
 74
     0
 42
0.000000001
 43
0.00000001
 40
0.0
 40
0.0
 40
0.0
 40
0.0
 40
1.0
 40
1.0
 40
1.0
 40
1.0
 10
3.834817861181276
 20
-0.9625599269751712
 30
0.0
 10
3.514971461181275
 20
-0.6652415269751681
 30
0.0
 10
3.050369861181274
 20
-0.3158399269751671
 30
0.0
 10
2.582414661181272
 20
-0.0123007269751684
 30
0.0
  0
SPLINE
  5
BF
330
1F
100
AcDbEntity
  8
0
  6
Continuous
 62
     7
370
    15
100
AcDbSpline
210
0.0
220
0.0
230
1.0
 70
     8
 71
     3
 72
     8
 73
     4
 74
     0
 42
0.000000001
 43
0.00000001
 40
0.0
 40
0.0
 40
0.0
 40
0.0
 40
1.0
 40
1.0
 40
1.0
 40
1.0
 10
2.606390341180642
 20
0.046409161025822
 30
0.0
 10
2.890127941180644
 20
-0.1462692389741787
 30
0.0
 10
3.403587141180644
 20
-0.4523940389741793
 30
0.0
 10
3.849948741180646
 20
-0.9663524389741805
 30
0.0
  0
SPLINE
  5
C0
330
1F
100
AcDbEntity
  8
0
  6
Continuous
 62
     7
370
    15
100
AcDbSpline
210
0.0
220
0.0
230
1.0
 70
     8
 71
     3
 72
     8
 73
     4
 74
     0
 42
0.000000001
 43
0.00000001
 40
0.0
 40
0.0
 40
0.0
 40
0.0
 40
0.0851745586850781
 40
0.0851745586850781
 40
0.0851745586850781
 40
0.0851745586850781
 10
2.487807718652343
 20
0.124974835982852
 30
0.0
 10
2.526147928472414
 20
0.1001745310294238
 30
0.0
 10
2.565518545589668
 20
0.0741763397157452
 30
0.0
 10
2.606390341180642
 20
0.046409161025822
 30
0.0
  0
SPLINE
  5
C1
330
1F
100
AcDbEntity
  8
0
  6
Continuous
 62
     7
370
    15
100
AcDbSpline
210
0.0
220
0.0
230
1.0
 70
     8
 71
     3
 72
     8
 73
     4
 74
     0
 42
0.000000001
 43
0.00000001
 40
0.8682561485052768
 40
0.8682561485052768
 40
0.8682561485052768
 40
0.8682561485052768
 40
1.0
 40
1.0
 40
1.0
 40
1.0
 10
2.499196161091607
 20
0.1584189663083442
 30
0.0
 10
2.494959911198023
 20
0.1457220208766889
 30
0.0
 10
2.49111761089161
 20
0.1346978199384181
 30
0.0
 10
2.487807718652343
 20
0.124974835982852
 30
0.0
  0
SPLINE
  5
C3
330
1F
100
AcDbEntity
  8
0
  6
Continuous
 62
     7
370
    15
100
AcDbSpline
210
0.0
220
0.0
230
1.0
 70
     8
 71
     3
 72
     8
 73
     4
 74
     0
 42
0.000000001
 43
0.00000001
 40
0.4990810496600757
 40
0.4990810496600757
 40
0.4990810496600757
 40
0.4990810496600757
 40
0.519748384384814
 40
0.519748384384814
 40
0.519748384384814
 40
0.519748384384814
 10
2.66736591954155
 20
0.3812543580753324
 30
0.0
 10
2.641244647156715
 20
0.3881786319453397
 30
0.0
 10
2.615110766789443
 20
0.3952013853229692
 30
0.0
 10
2.588980248176164
 20
0.402336812776185
 30
0.0
  0
SPLINE
  5
C8
330
1F
100
AcDbEntity
  8
0
  6
Continuous
 62
     7
370
    15
100
AcDbSpline
210
0.0
220
0.0
230
1.0
 70
     8
 71
     3
 72
     8
 73
     4
 74
     0
 42
0.000000001
 43
0.00000001
 40
0.0
 40
0.0
 40
0.0
 40
0.0
 40
1.0
 40
1.0
 40
1.0
 40
1.0
 10
2.707330561140031
 20
-0.0022210336907373
 30
0.0
 10
2.715274401140032
 20
-0.0025890336907369
 30
0.0
 10
2.777271361140031
 20
0.0488317663092635
 30
0.0
 10
2.729980161140032
 20
0.1584189663092636
 30
0.0
  0
SPLINE
  5
C9
330
1F
100
AcDbEntity
  8
0
  6
Continuous
 62
     7
370
    15
100
AcDbSpline
210
0.0
220
0.0
230
1.0
 70
     8
 71
     3
 72
     8
 73
     4
 74
     0
 42
0.000000001
 43
0.00000001
 40
0.0
 40
0.0
 40
0.0
 40
0.0
 40
1.0
 40
1.0
 40
1.0
 40
1.0
 10
2.938050561140033
 20
-0.0022210336907373
 30
0.0
 10
2.819219627806699
 20
-0.0040103670240702
 30
0.0
 10
2.742312961140031
 20
-0.0040103670240702
 30
0.0
 10
2.707330561140031
 20
-0.0022210336907373
 30
0.0
  0
SPLINE
  5
CA
330
1F
100
AcDbEntity
  8
0
  6
Continuous
 62
     7
370
    15
100
AcDbSpline
210
0.0
220
0.0
230
1.0
 70
     8
 71
     3
 72
     8
 73
     4
 74
     0
 42
0.000000001
 43
0.00000001
 40
0.0
 40
0.0
 40
0.0
 40
0.0
 40
1.0
 40
1.0
 40
1.0
 40
1.0
 10
2.847263361140032
 20
0.0866109663092629
 30
0.0
 10
2.843493761140033
 20
0.0727538996425965
 30
0.0
 10
2.873756161140033
 20
0.0431432329759297
 30
0.0
 10
2.938050561140033
 20
-0.0022210336907376
 30
0.0
  0
SPLINE
  5
CC
330
1F
100
AcDbEntity
  8
0
  6
Continuous
 62
     7
370
    15
100
AcDbSpline
210
0.0
220
0.0
230
1.0
 70
     8
 71
     3
 72
     8
 73
     4
 74
     0
 42
0.000000001
 43
0.00000001
 40
0.547695742648782
 40
0.547695742648782
 40
0.547695742648782
 40
0.547695742648782
 40
0.6354995832142569
 40
0.6354995832142569
 40
0.6354995832142569
 40
0.6354995832142569
 10
3.102264833860335
 20
0.271685868240219
 30
0.0
 10
2.994018465005043
 20
0.2983083461614146
 30
0.0
 10
2.883930185237307
 20
0.3252734020775063
 30
0.0
 10
2.773224568082738
 20
0.3536694880247732
 30
0.0
  0
SPLINE
  5
CD
330
1F
100
AcDbEntity
  8
0
  6
Continuous
 62
     7
370
    15
100
AcDbSpline
210
0.0
220
0.0
230
1.0
 70
     8
 71
     3
 72
     8
 73
     4
 74
     0
 42
0.000000001
 43
0.00000001
 40
0.7480520324493776
 40
0.7480520324493776
 40
0.7480520324493776
 40
0.7480520324493776
 40
1.0
 40
1.0
 40
1.0
 40
1.0
 10
3.101035840005347
 20
0.1123121964399331
 30
0.0
 10
3.101659380991279
 20
0.1673053832131425
 30
0.0
 10
3.102049922983099
 20
0.2207775408525715
 30
0.0
 10
3.102264833860335
 20
0.271685868240219
 30
0.0
  0
SPLINE
  5
CE
330
1F
100
AcDbEntity
  8
0
  6
Continuous
 62
     7
370
    15
100
AcDbSpline
210
0.0
220
0.0
230
1.0
 70
     8
 71
     3
 72
     8
 73
     4
 74
     0
 42
0.000000001
 43
0.00000001
 40
0.0
 40
0.0
 40
0.0
 40
0.0
 40
1.0
 40
1.0
 40
1.0
 40
1.0
 10
3.036725440005346
 20
0.0102689964399321
 30
0.0
 10
3.076442240005346
 20
0.0669633964399336
 30
0.0
 10
3.100683200005347
 20
0.0795953964399334
 30
0.0
 10
3.101035840005347
 20
0.1123121964399331
 30
0.0
  0
SPLINE
  5
D0
330
1F
100
AcDbEntity
  8
0
  6
Continuous
 62
     7
370
    15
100
AcDbSpline
210
0.0
220
0.0
230
1.0
 70
     8
 71
     3
 72
     8
 73
     4
 74
     0
 42
0.000000001
 43
0.00000001
 40
0.0
 40
0.0
 40
0.0
 40
0.0
 40
0.9890851184657248
 40
0.9890851184657248
 40
0.9890851184657248
 40
0.9890851184657248
 10
3.606035098834015
 20
0.4712453522819142
 30
0.0
 10
3.603100237623064
 20
0.4656125369605106
 30
0.0
 10
3.4291301290506
 20
0.1691239791464766
 30
0.0
 10
3.333717439646732
 20
0.0102689964399321
 30
0.0
  0
SPLINE
  5
D1
330
1F
100
AcDbEntity
  8
0
  6
Continuous
 62
     7
370
    15
100
AcDbSpline
210
0.0
220
0.0
230
1.0
 70
     8
 71
     3
 72
     8
 73
     4
 74
     0
 42
0.000000001
 43
0.00000001
 40
0.0088055708219605
 40
0.0088055708219605
 40
0.0088055708219605
 40
0.0088055708219605
 40
0.782328187419946
 40
0.782328187419946
 40
0.782328187419946
 40
0.782328187419946
 10
3.606556020073318
 20
0.2327866179061702
 30
0.0
 10
3.607922368663732
 20
0.3538068884450676
 30
0.0
 10
3.605073265064473
 20
0.4676536852331847
 30
0.0
 10
3.606035098834015
 20
0.4712453522819142
 30
0.0
  0
SPLINE
  5
D2
330
1F
100
AcDbEntity
  8
0
  6
Continuous
 62
     7
370
    15
100
AcDbSpline
210
0.0
220
0.0
230
1.0
 70
     8
 71
     3
 72
     8
 73
     4
 74
     0
 42
0.000000001
 43
0.00000001
 40
0.7258572463291195
 40
0.7258572463291195
 40
0.7258572463291195
 40
0.7258572463291195
 40
0.7973892523024887
 40
0.7973892523024887
 40
0.7973892523024887
 40
0.7973892523024887
 10
3.525143202416262
 20
0.2634218608771587
 30
0.0
 10
3.553010838026004
 20
0.2531721701105297
 30
0.0
 10
3.580123619567652
 20
0.2429721506130532
 30
0.0
 10
3.606556020073318
 20
0.2327866179061702
 30
0.0
  0
SPLINE
  5
D4
330
1F
100
AcDbEntity
  8
0
  6
Continuous
 62
     7
370
    15
100
AcDbSpline
210
0.0
220
0.0
230
1.0
 70
     8
 71
     3
 72
     8
 73
     4
 74
     0
 42
0.000000001
 43
0.00000001
 40
0.7389244876079502
 40
0.7389244876079502
 40
0.7389244876079502
 40
0.7389244876079502
 40
0.7765475551609666
 40
0.7765475551609666
 40
0.7765475551609666
 40
0.7765475551609666
 10
3.604589782734989
 20
0.1415270119169194
 30
0.0
 10
3.56209700798893
 20
0.1536663961957265
 30
0.0
 10
3.518904875044198
 20
0.1655476502444099
 30
0.0
 10
3.47510972396594
 20
0.1772564051319853
 30
0.0
  0
SPLINE
  5
D5
330
1F
100
AcDbEntity
  8
0
  6
Continuous
 62
     7
370
    15
100
AcDbSpline
210
0.0
220
0.0
230
1.0
 70
     8
 71
     3
 72
     8
 73
     4
 74
     0
 42
0.000000001
 43
0.00000001
 40
0.9773678234767129
 40
0.9773678234767129
 40
0.9773678234767129
 40
0.9773678234767129
 40
1.0
 40
1.0
 40
1.0
 40
1.0
 10
3.604222240000249
 20
0.131212996214167
 30
0.0
 10
3.604350229484924
 20
0.1346331707303662
 30
0.0
 10
3.604472676716862
 20
0.1380720366016873
 30
0.0
 10
3.604589782734989
 20
0.1415270119169194
 30
0.0
  0
SPLINE
  5
D6
330
1F
100
AcDbEntity
  8
0
  6
Continuous
 62
     7
370
    15
100
AcDbSpline
210
0.0
220
0.0
230
1.0
 70
     8
 71
     3
 72
     8
 73
     4
 74
     0
 42
0.000000001
 43
0.00000001
 40
0.0
 40
0.0
 40
0.0
 40
0.0
 40
0.9972653780526574
 40
0.9972653780526574
 40
0.9972653780526574
 40
0.9972653780526574
 10
3.538315397807189
 20
0.0200837749944411
 30
0.0
 10
3.579735026775198
 20
0.0651737541930849
 30
0.0
 10
3.602314511222649
 20
0.0814039785481002
 30
0.0
 10
3.604222240000249
 20
0.131212996214167
 30
0.0
  0
SPLINE
  5
D7
330
1F
100
AcDbEntity
  8
0
  6
Continuous
 62
     7
370
    15
100
AcDbSpline
210
0.0
220
0.0
230
1.0
 70
     8
 71
     3
 72
     8
 73
     4
 74
     0
 42
0.000000001
 43
0.00000001
 40
0.2951280596287995
 40
0.2951280596287995
 40
0.2951280596287995
 40
0.2951280596287995
 40
1.0
 40
1.0
 40
1.0
 40
1.0
 10
3.770646239999766
 20
0.0178411562146019
 30
0.0
 10
3.638806240409334
 20
0.019324131590802
 30
0.0
 10
3.561362626345141
 20
0.020071671184082
 30
0.0
 10
3.53831539780719
 20
0.0200837749944411
 30
0.0
  0
LINE
  5
E3
330
1F
100
AcDbEntity
  8
0
  6
Continuous
 62
     7
370
    15
100
AcDbLine
 10
0.9920483512
 20
0.2421693756
 30
0.0
 11
0.9591297059
 21
0.1533677756
 31
0.0
  0
LINE
  5
E4
330
1F
100
AcDbEntity
  8
0
  6
Continuous
 62
     7
370
    15
100
AcDbLine
 10
0.9591297059
 20
0.1533677756
 30
0.0
 11
1.1545100112
 21
0.1533677756
 31
0.0
  0
LINE
  5
E5
330
1F
100
AcDbEntity
  8
0
  6
Continuous
 62
     7
370
    15
100
AcDbLine
 10
1.2717932112
 20
0.0815597756
 30
0.0
 11
1.1261503312
 21
0.6068948156
 31
0.0
  0
LINE
  5
E6
330
1F
100
AcDbEntity
  8
0
  6
Continuous
 62
     7
370
    15
100
AcDbLine
 10
1.1828991312
 20
0.6843508156
 30
0.0
 11
1.1854636112
 21
0.6896053756
 31
0.0
  0
LINE
  5
E7
330
1F
100
AcDbEntity
  8
0
  6
Continuous
 62
     7
370
    15
100
AcDbLine
 10
0.9237260112
 20
0.1533677756
 30
0.0
 11
1.0523996112
 21
0.5029373756
 31
0.0
  0
LINE
  5
E8
330
1F
100
AcDbEntity
  8
0
  6
Continuous
 62
     7
370
    15
100
AcDbLine
 10
1.0523996112
 20
0.5029373756
 30
0.0
 11
1.1336668112
 21
0.2421693756
 31
0.0
  0
LINE
  5
E9
330
1F
100
AcDbEntity
  8
0
  6
Continuous
 62
     7
370
    15
100
AcDbLine
 10
1.1336668112
 20
0.2421693756
 30
0.0
 11
0.9920483512
 21
0.2421693756
 31
0.0
  0
LINE
  5
EA
330
1F
100
AcDbEntity
  8
0
  6
Continuous
 62
     7
370
    15
100
AcDbLine
 10
4.267521861
 20
-0.1200255271
 30
0.0
 11
4.278849861
 21
-0.1095679271
 31
0.0
  0
LINE
  5
EB
330
1F
100
AcDbEntity
  8
0
  6
Continuous
 62
     7
370
    15
100
AcDbLine
 10
3.75740464
 20
0.7132043562
 30
0.0
 11
3.753152
 21
0.7163576362
 31
0.0
  0
LINE
  5
EC
330
1F
100
AcDbEntity
  8
0
  6
Continuous
 62
     7
370
    15
100
AcDbLine
 10
3.1980741523
 20
0.3757088719
 30
0.0
 11
3.19941504
 21
0.6243912362
 31
0.0
  0
LINE
  5
ED
330
1F
100
AcDbEntity
  8
0
  6
Continuous
 62
     7
370
    15
100
AcDbLine
 10
2.7239280858
 20
0.5314822959
 30
0.0
 11
2.7016204809
 21
0.6119460062
 31
0.0
  0
LINE
  5
EE
330
1F
100
AcDbEntity
  8
0
  6
Continuous
 62
     7
370
    15
100
AcDbLine
 10
2.7583692809
 20
0.6894020062
 30
0.0
 11
2.7609337609
 21
0.6946565662
 31
0.0
  0
LINE
  5
EF
330
1F
100
AcDbEntity
  8
0
  6
Continuous
 62
     7
370
    15
100
AcDbLine
 10
1.500509408
 20
0.7101921017
 30
0.0
 11
1.5927168
 21
0.72786566
 31
0.0
  0
LINE
  5
F0
330
1F
100
AcDbEntity
  8
0
  6
Continuous
 62
     7
370
    15
100
AcDbLine
 10
1.4516799999
 20
0.5392856363
 30
0.0
 11
1.4535996802
 21
0.5374136364
 31
0.0
  0
LINE
  5
F1
330
1F
100
AcDbEntity
  8
0
  6
Continuous
 62
     7
370
    15
100
AcDbLine
 10
1.6281786287
 20
0.6161751156
 30
0.0
 11
1.6585332326
 21
0.5946016624
 31
0.0
  0
LINE
  5
F2
330
1F
100
AcDbEntity
  8
0
  6
Continuous
 62
     7
370
    15
100
AcDbLine
 10
1.9832076802
 20
-0.0445687636
 30
0.0
 11
1.9869440002
 21
0.1897352364
 31
0.0
  0
LINE
  5
F3
330
1F
100
AcDbEntity
  8
0
  6
Continuous
 62
     7
370
    15
100
AcDbLine
 10
1.9670846824
 20
0.3842354082
 30
0.0
 11
1.9888127002
 21
0.4397784692
 31
0.0
  0
LINE
  5
F4
330
1F
100
AcDbEntity
  8
0
  6
Continuous
 62
     7
370
    15
100
AcDbLine
 10
2.045637163
 20
0.402548592
 30
0.0
 11
2.0206018296
 21
0.3491077829
 31
0.0
  0
LINE
  5
F5
330
1F
100
AcDbEntity
  8
0
  6
Continuous
 62
     7
370
    15
100
AcDbLine
 10
3.8348178612
 20
-0.962559927
 30
0.0
 11
3.8499487412
 21
-0.966352439
 31
0.0
  0
LINE
  5
F6
330
1F
100
AcDbEntity
  8
0
  6
Continuous
 62
     7
370
    15
100
AcDbLine
 10
2.4991961611
 20
0.1584189663
 30
0.0
 11
2.5889802482
 21
0.4023368128
 31
0.0
  0
LINE
  5
F7
330
1F
100
AcDbEntity
  8
0
  6
Continuous
 62
     7
370
    15
100
AcDbLine
 10
2.6673659195
 20
0.3812543581
 30
0.0
 11
2.7091369611
 21
0.2472205663
 31
0.0
  0
LINE
  5
F8
330
1F
100
AcDbEntity
  8
0
  6
Continuous
 62
     7
370
    15
100
AcDbLine
 10
2.7091369611
 20
0.2472205663
 30
0.0
 11
2.567518501
 21
0.2472205663
 31
0.0
  0
LINE
  5
F9
330
1F
100
AcDbEntity
  8
0
  6
Continuous
 62
     7
370
    15
100
AcDbLine
 10
2.567518501
 20
0.2472205663
 30
0.0
 11
2.5345998557
 21
0.1584189663
 31
0.0
  0
LINE
  5
FA
330
1F
100
AcDbEntity
  8
0
  6
Continuous
 62
     7
370
    15
100
AcDbLine
 10
2.5345998557
 20
0.1584189663
 30
0.0
 11
2.7299801611
 21
0.1584189663
 31
0.0
  0
LINE
  5
FB
330
1F
100
AcDbEntity
  8
0
  6
Continuous
 62
     7
370
    15
100
AcDbLine
 10
2.8472633611
 20
0.0866109663
 30
0.0
 11
2.7732245681
 21
0.353669488
 31
0.0
  0
LINE
  5
FC
330
1F
100
AcDbEntity
  8
0
  6
Continuous
 62
     7
370
    15
100
AcDbLine
 10
3.03672544
 20
0.0102689964
 30
0.0
 11
3.3337174396
 21
0.0102689964
 31
0.0
  0
LINE
  5
FD
330
1F
100
AcDbEntity
  8
0
  6
Continuous
 62
     7
370
    15
100
AcDbLine
 10
3.5251432024
 20
0.2634218609
 30
0.0
 11
3.475109724
 21
0.1772564051
 31
0.0
  0
LINE
  5
FE
330
1F
100
AcDbEntity
  8
0
  6
Continuous
 62
     7
370
    15
100
AcDbLine
 10
0.0
 20
-0.2959904252
 30
0.0
 11
0.0
 21
-1.2959904252
 31
0.0
  0
LINE
  5
FF
330
1F
100
AcDbEntity
  8
0
  6
Continuous
 62
     7
370
    15
100
AcDbLine
 10
-0.8177864669
 20
-0.2959904252
 30
0.0
 11
0.0
 21
-0.2959904252
 31
0.0
  0
LINE
  5
100
330
1F
100
AcDbEntity
  8
0
  6
Continuous
 62
     7
370
    15
100
AcDbLine
 10
-0.8177864669
 20
3.7040095748
 30
0.0
 11
-0.8177864669
 21
-0.2959904252
 31
0.0
  0
LINE
  5
101
330
1F
100
AcDbEntity
  8
0
  6
Continuous
 62
     7
370
    15
100
AcDbLine
 10
0.0
 20
3.7040095748
 30
0.0
 11
-0.8177864669
 21
3.7040095748
 31
0.0
  0
LINE
  5
102
330
1F
100
AcDbEntity
  8
0
  6
Continuous
 62
     7
370
    15
100
AcDbLine
 10
0.0
 20
4.7040095748
 30
0.0
 11
0.0
 21
3.7040095748
 31
0.0
  0
LINE
  5
103
330
1F
100
AcDbEntity
  8
0
  6
Continuous
 62
     7
370
    15
100
AcDbLine
 10
6.0
 20
-1.2959904252
 30
0.0
 11
0.0
 21
4.7040095748
 31
0.0
  0
LINE
  5
104
330
1F
100
AcDbEntity
  8
0
  6
Continuous
 62
     7
370
    15
100
AcDbLine
 10
5.0
 20
-1.2959904252
 30
0.0
 11
6.0
 21
-1.2959904252
 31
0.0
  0
LINE
  5
105
330
1F
100
AcDbEntity
  8
0
  6
Continuous
 62
     7
370
    15
100
AcDbLine
 10
5.0
 20
-2.1137768921
 30
0.0
 11
5.0
 21
-1.2959904252
 31
0.0
  0
LINE
  5
106
330
1F
100
AcDbEntity
  8
0
  6
Continuous
 62
     7
370
    15
100
AcDbLine
 10
5.0
 20
-2.1137768921
 30
0.0
 11
1.0
 21
-2.1137768921
 31
0.0
  0
LINE
  5
107
330
1F
100
AcDbEntity
  8
0
  6
Continuous
 62
     7
370
    15
100
AcDbLine
 10
1.0
 20
-1.2959904252
 30
0.0
 11
1.0
 21
-2.1137768921
 31
0.0
  0
LINE
  5
108
330
1F
100
AcDbEntity
  8
0
  6
Continuous
 62
     7
370
    15
100
AcDbLine
 10
0.0
 20
-1.2959904252
 30
0.0
 11
1.0
 21
-1.2959904252
 31
0.0
  0
MTEXT
  5
10A
330
1F
100
AcDbEntity
  8
0
  6
Continuous
 62
     7
100
AcDbMText
 10
-0.8177864669
 20
-2.1539173013
 30
0.0
 40
0.1903
 41
0.0
 71
     1
 72
     1
  1
SolidWorks Student Edition.
  7
SLDTEXTSTYLE0
 73
     1
 44
1.0
  0
MTEXT
  5
10B
330
1F
100
AcDbEntity
  8
0
  6
Continuous
 62
     7
100
AcDbMText
 10
-0.8177864669
 20
-2.4393673013
 30
0.0
 40
0.1903
 41
0.0
 71
     1
 72
     1
  1
For Academic Use Only.
  7
SLDTEXTSTYLE0
 73
     1
 44
1.0
  0
ENDSEC
  0
SECTION
  2
OBJECTS
  0
DICTIONARY
  5
C
330
0
100
AcDbDictionary
281
     1
  3
ACAD_GROUP
350
D
  3
ACAD_LAYOUT
350
1A
  3
ACAD_MLINESTYLE
350
17
  3
ACAD_PLOTSETTINGS
350
19
  3
ACAD_PLOTSTYLENAME
350
E
  3
ACAD_SCALELIST
350
47
  0
DICTIONARY
  5
D
102
{ACAD_REACTORS
330
C
102
}
330
C
100
AcDbDictionary
281
     1
  0
DICTIONARY
  5
1A
102
{ACAD_REACTORS
330
C
102
}
330
C
100
AcDbDictionary
281
     1
  3
Layout1
350
1E
  3
Layout2
350
26
  3
Model
350
22
  0
DICTIONARY
  5
17
102
{ACAD_REACTORS
330
C
102
}
330
C
100
AcDbDictionary
281
     1
  3
Standard
350
18
  0
DICTIONARY
  5
19
102
{ACAD_REACTORS
330
C
102
}
330
C
100
AcDbDictionary
281
     1
  0
ACDBDICTIONARYWDFLT
  5
E
102
{ACAD_REACTORS
330
C
102
}
330
C
100
AcDbDictionary
281
     1
  3
Normal
350
F
100
AcDbDictionaryWithDefault
340
F
  0
DICTIONARY
  5
47
102
{ACAD_REACTORS
330
C
102
}
330
C
100
AcDbDictionary
281
     1
  3
A0
350
48
  3
A1
350
49
  3
A2
350
4A
  3
A3
350
4B
  3
A4
350
4C
  3
A5
350
4D
  3
A6
350
4E
  3
A7
350
4F
  3
A8
350
50
  3
A9
350
51
  3
B0
350
52
  3
B1
350
53
  3
B2
350
54
  3
B3
350
55
  3
B4
350
56
  3
B5
350
57
  3
B6
350
58
  3
B7
350
59
  3
B8
350
5A
  3
B9
350
5B
  3
C0
350
5C
  3
C1
350
5D
  3
C2
350
5E
  3
C3
350
5F
  3
C4
350
60
  3
C5
350
61
  3
C6
350
62
  3
C7
350
63
  3
C8
350
64
  3
C9
350
65
  3
D0
350
66
  3
D1
350
67
  3
D2
350
68
  0
LAYOUT
  5
1E
102
{ACAD_REACTORS
330
1A
102
}
330
1A
100
AcDbPlotSettings
  1

  2
none_device
  4

  6

 40
0.0
 41
0.0
 42
0.0
 43
0.0
 44
0.0
 45
0.0
 46
0.0
 47
0.0
 48
0.0
 49
0.0
140
0.0
141
0.0
142
1.0
143
1.0
 70
   688
 72
     0
 73
     0
 74
     5
  7

 75
    16
147
1.0
148
0.0
149
0.0
100
AcDbLayout
  1
Layout1
 70
     1
 71
     1
 10
0.0
 20
0.0
 11
12.0
 21
9.0
 12
0.0
 22
0.0
 32
0.0
 14
1.0000000000E+20
 24
1.0000000000E+20
 34
1.0000000000E+20
 15
-1.0000000000E+20
 25
-1.0000000000E+20
 35
-1.0000000000E+20
146
0.0
 13
0.0
 23
0.0
 33
0.0
 16
1.0
 26
0.0
 36
0.0
 17
0.0
 27
1.0
 37
0.0
 76
     0
330
1B
  0
LAYOUT
  5
26
102
{ACAD_REACTORS
330
1A
102
}
330
1A
100
AcDbPlotSettings
  1

  2
none_device
  4

  6

 40
0.0
 41
0.0
 42
0.0
 43
0.0
 44
0.0
 45
0.0
 46
0.0
 47
0.0
 48
0.0
 49
0.0
140
0.0
141
0.0
142
1.0
143
1.0
 70
   688
 72
     0
 73
     0
 74
     5
  7

 75
    16
147
1.0
148
0.0
149
0.0
100
AcDbLayout
  1
Layout2
 70
     1
 71
     2
 10
0.0
 20
0.0
 11
0.0
 21
0.0
 12
0.0
 22
0.0
 32
0.0
 14
0.0
 24
0.0
 34
0.0
 15
0.0
 25
0.0
 35
0.0
146
0.0
 13
0.0
 23
0.0
 33
0.0
 16
1.0
 26
0.0
 36
0.0
 17
0.0
 27
1.0
 37
0.0
 76
     0
330
23
  0
LAYOUT
  5
22
102
{ACAD_REACTORS
330
1A
102
}
330
1A
100
AcDbPlotSettings
  1

  2
none_device
  4
ANSI_A_(11.00_x_8.50_Inches)
  6

 40
6.35
 41
19.05
 42
6.35000508
 43
19.05000254
 44
279.4
 45
215.9
 46
52.1175103359
 47
48.2974566507
 48
0.0
 49
0.0
140
0.0
141
0.0
142
1.2342715691
143
1.0
 70
  1696
 72
     0
 73
     0
 74
     0
  7

 75
     0
147
0.5913241897
148
-39.4088153714
149
0.0
100
AcDbLayout
  1
Model
 70
     1
 71
     0
 10
0.0
 20
0.0
 11
12.0
 21
9.0
 12
0.0
 22
0.0
 32
0.0
 14
-0.8177864669
 24
-2.1137768921
 34
0.0
 15
6.0
 25
4.7040095748
 35
0.0
146
0.0
 13
0.0
 23
0.0
 33
0.0
 16
1.0
 26
0.0
 36
0.0
 17
0.0
 27
1.0
 37
0.0
 76
     0
330
1F
331
29
  0
MLINESTYLE
  5
18
102
{ACAD_REACTORS
330
17
102
}
330
17
100
AcDbMlineStyle
  2
Standard
 70
     0
  3

 62
   256
 51
90.0
 52
90.0
 71
     2
 49
0.5
 62
   256
  6
BYLAYER
 49
-0.5
 62
   256
  6
BYLAYER
  0
ACDBPLACEHOLDER
  5
F
102
{ACAD_REACTORS
330
E
102
}
330
E
  0
SCALE
  5
48
102
{ACAD_REACTORS
330
47
102
}
330
47
100
AcDbScale
 70
     0
300
1:1
140
1.0
141
1.0
290
     1
  0
SCALE
  5
49
102
{ACAD_REACTORS
330
47
102
}
330
47
100
AcDbScale
 70
     0
300
1:2
140
1.0
141
2.0
290
     0
  0
SCALE
  5
4A
102
{ACAD_REACTORS
330
47
102
}
330
47
100
AcDbScale
 70
     0
300
1:4
140
1.0
141
4.0
290
     0
  0
SCALE
  5
4B
102
{ACAD_REACTORS
330
47
102
}
330
47
100
AcDbScale
 70
     0
300
1:5
140
1.0
141
5.0
290
     0
  0
SCALE
  5
4C
102
{ACAD_REACTORS
330
47
102
}
330
47
100
AcDbScale
 70
     0
300
1:8
140
1.0
141
8.0
290
     0
  0
SCALE
  5
4D
102
{ACAD_REACTORS
330
47
102
}
330
47
100
AcDbScale
 70
     0
300
1:10
140
1.0
141
10.0
290
     0
  0
SCALE
  5
4E
102
{ACAD_REACTORS
330
47
102
}
330
47
100
AcDbScale
 70
     0
300
1:16
140
1.0
141
16.0
290
     0
  0
SCALE
  5
4F
102
{ACAD_REACTORS
330
47
102
}
330
47
100
AcDbScale
 70
     0
300
1:20
140
1.0
141
20.0
290
     0
  0
SCALE
  5
50
102
{ACAD_REACTORS
330
47
102
}
330
47
100
AcDbScale
 70
     0
300
1:30
140
1.0
141
30.0
290
     0
  0
SCALE
  5
51
102
{ACAD_REACTORS
330
47
102
}
330
47
100
AcDbScale
 70
     0
300
1:40
140
1.0
141
40.0
290
     0
  0
SCALE
  5
52
102
{ACAD_REACTORS
330
47
102
}
330
47
100
AcDbScale
 70
     0
300
1:50
140
1.0
141
50.0
290
     0
  0
SCALE
  5
53
102
{ACAD_REACTORS
330
47
102
}
330
47
100
AcDbScale
 70
     0
300
1:100
140
1.0
141
100.0
290
     0
  0
SCALE
  5
54
102
{ACAD_REACTORS
330
47
102
}
330
47
100
AcDbScale
 70
     0
300
2:1
140
2.0
141
1.0
290
     0
  0
SCALE
  5
55
102
{ACAD_REACTORS
330
47
102
}
330
47
100
AcDbScale
 70
     0
300
4:1
140
4.0
141
1.0
290
     0
  0
SCALE
  5
56
102
{ACAD_REACTORS
330
47
102
}
330
47
100
AcDbScale
 70
     0
300
8:1
140
8.0
141
1.0
290
     0
  0
SCALE
  5
57
102
{ACAD_REACTORS
330
47
102
}
330
47
100
AcDbScale
 70
     0
300
10:1
140
10.0
141
1.0
290
     0
  0
SCALE
  5
58
102
{ACAD_REACTORS
330
47
102
}
330
47
100
AcDbScale
 70
     0
300
100:1
140
100.0
141
1.0
290
     0
  0
SCALE
  5
59
102
{ACAD_REACTORS
330
47
102
}
330
47
100
AcDbScale
 70
     0
300
1/128" = 1'-0"
140
0.0078125
141
12.0
290
     0
  0
SCALE
  5
5A
102
{ACAD_REACTORS
330
47
102
}
330
47
100
AcDbScale
 70
     0
300
1/64" = 1'-0"
140
0.015625
141
12.0
290
     0
  0
SCALE
  5
5B
102
{ACAD_REACTORS
330
47
102
}
330
47
100
AcDbScale
 70
     0
300
1/32" = 1'-0"
140
0.03125
141
12.0
290
     0
  0
SCALE
  5
5C
102
{ACAD_REACTORS
330
47
102
}
330
47
100
AcDbScale
 70
     0
300
1/16" = 1'-0"
140
0.0625
141
12.0
290
     0
  0
SCALE
  5
5D
102
{ACAD_REACTORS
330
47
102
}
330
47
100
AcDbScale
 70
     0
300
3/32" = 1'-0"
140
0.09375
141
12.0
290
     0
  0
SCALE
  5
5E
102
{ACAD_REACTORS
330
47
102
}
330
47
100
AcDbScale
 70
     0
300
1/8" = 1'-0"
140
0.125
141
12.0
290
     0
  0
SCALE
  5
5F
102
{ACAD_REACTORS
330
47
102
}
330
47
100
AcDbScale
 70
     0
300
3/16" = 1'-0"
140
0.1875
141
12.0
290
     0
  0
SCALE
  5
60
102
{ACAD_REACTORS
330
47
102
}
330
47
100
AcDbScale
 70
     0
300
1/4" = 1'-0"
140
0.25
141
12.0
290
     0
  0
SCALE
  5
61
102
{ACAD_REACTORS
330
47
102
}
330
47
100
AcDbScale
 70
     0
300
3/8" = 1'-0"
140
0.375
141
12.0
290
     0
  0
SCALE
  5
62
102
{ACAD_REACTORS
330
47
102
}
330
47
100
AcDbScale
 70
     0
300
1/2" = 1'-0"
140
0.5
141
12.0
290
     0
  0
SCALE
  5
63
102
{ACAD_REACTORS
330
47
102
}
330
47
100
AcDbScale
 70
     0
300
3/4" = 1'-0"
140
0.75
141
12.0
290
     0
  0
SCALE
  5
64
102
{ACAD_REACTORS
330
47
102
}
330
47
100
AcDbScale
 70
     0
300
1" = 1'-0"
140
1.0
141
12.0
290
     0
  0
SCALE
  5
65
102
{ACAD_REACTORS
330
47
102
}
330
47
100
AcDbScale
 70
     0
300
1-1/2" = 1'-0"
140
1.5
141
12.0
290
     0
  0
SCALE
  5
66
102
{ACAD_REACTORS
330
47
102
}
330
47
100
AcDbScale
 70
     0
300
3" = 1'-0"
140
3.0
141
12.0
290
     0
  0
SCALE
  5
67
102
{ACAD_REACTORS
330
47
102
}
330
47
100
AcDbScale
 70
     0
300
6" = 1'-0"
140
6.0
141
12.0
290
     0
  0
SCALE
  5
68
102
{ACAD_REACTORS
330
47
102
}
330
47
100
AcDbScale
 70
     0
300
1'-0" = 1'-0"
140
12.0
141
12.0
290
     0
  0
ENDSEC
  0
EOF
